%TF.GenerationSoftware,KiCad,Pcbnew,(5.1.9)-1*%
%TF.CreationDate,2021-10-31T23:11:17+08:00*%
%TF.ProjectId,PinRemapInterposer,50696e52-656d-4617-9049-6e746572706f,rev?*%
%TF.SameCoordinates,Original*%
%TF.FileFunction,Soldermask,Top*%
%TF.FilePolarity,Negative*%
%FSLAX46Y46*%
G04 Gerber Fmt 4.6, Leading zero omitted, Abs format (unit mm)*
G04 Created by KiCad (PCBNEW (5.1.9)-1) date 2021-10-31 23:11:17*
%MOMM*%
%LPD*%
G01*
G04 APERTURE LIST*
%ADD10O,1.700000X1.700000*%
%ADD11R,1.700000X1.700000*%
%ADD12O,1.500000X1.500000*%
%ADD13O,1.800000X1.800000*%
%ADD14O,1.600000X1.600000*%
%ADD15R,1.600000X1.600000*%
G04 APERTURE END LIST*
D10*
%TO.C,J2*%
X143510000Y-161060000D03*
X146050000Y-161060000D03*
D11*
X148590000Y-161060000D03*
%TD*%
%TO.C,R1*%
G36*
G01*
X128895001Y-129910000D02*
X127644999Y-129910000D01*
G75*
G02*
X127395000Y-129660001I0J249999D01*
G01*
X127395000Y-129034999D01*
G75*
G02*
X127644999Y-128785000I249999J0D01*
G01*
X128895001Y-128785000D01*
G75*
G02*
X129145000Y-129034999I0J-249999D01*
G01*
X129145000Y-129660001D01*
G75*
G02*
X128895001Y-129910000I-249999J0D01*
G01*
G37*
G36*
G01*
X128895001Y-132835000D02*
X127644999Y-132835000D01*
G75*
G02*
X127395000Y-132585001I0J249999D01*
G01*
X127395000Y-131959999D01*
G75*
G02*
X127644999Y-131710000I249999J0D01*
G01*
X128895001Y-131710000D01*
G75*
G02*
X129145000Y-131959999I0J-249999D01*
G01*
X129145000Y-132585001D01*
G75*
G02*
X128895001Y-132835000I-249999J0D01*
G01*
G37*
%TD*%
D10*
%TO.C,U5*%
X146050000Y-158520000D03*
D11*
X143510000Y-158520000D03*
D10*
X140970000Y-158520000D03*
D12*
X145935000Y-113650000D03*
X141085000Y-113650000D03*
D13*
X146235000Y-110620000D03*
X140785000Y-110620000D03*
D10*
X152400000Y-110490000D03*
X152400000Y-113030000D03*
D11*
X152400000Y-115570000D03*
D10*
X152400000Y-118110000D03*
X152400000Y-120650000D03*
X152400000Y-123190000D03*
X152400000Y-125730000D03*
D11*
X152400000Y-128270000D03*
D10*
X152400000Y-130810000D03*
X152400000Y-133350000D03*
X152400000Y-135890000D03*
X152400000Y-138430000D03*
D11*
X152400000Y-140970000D03*
D10*
X152400000Y-143510000D03*
X152400000Y-146050000D03*
X152400000Y-148590000D03*
X152400000Y-151130000D03*
D11*
X152400000Y-153670000D03*
D10*
X152400000Y-156210000D03*
X152400000Y-158750000D03*
X134620000Y-158750000D03*
X134620000Y-156210000D03*
D11*
X134620000Y-153670000D03*
D10*
X134620000Y-151130000D03*
X134620000Y-148590000D03*
X134620000Y-146050000D03*
X134620000Y-143510000D03*
D11*
X134620000Y-140970000D03*
D10*
X134620000Y-138430000D03*
X134620000Y-135890000D03*
X134620000Y-133350000D03*
X134620000Y-130810000D03*
D11*
X134620000Y-128270000D03*
D10*
X134620000Y-125730000D03*
X134620000Y-123190000D03*
X134620000Y-120650000D03*
X134620000Y-118110000D03*
D11*
X134620000Y-115570000D03*
D10*
X134620000Y-113030000D03*
X134620000Y-110490000D03*
%TD*%
D14*
%TO.C,J1*%
X154940000Y-113030000D03*
X137160000Y-161290000D03*
X154940000Y-115570000D03*
X137160000Y-158750000D03*
X154940000Y-118110000D03*
X137160000Y-156210000D03*
X154940000Y-120650000D03*
X137160000Y-153670000D03*
X154940000Y-123190000D03*
X137160000Y-151130000D03*
X154940000Y-125730000D03*
X137160000Y-148590000D03*
X154940000Y-128270000D03*
X137160000Y-146050000D03*
X154940000Y-130810000D03*
X137160000Y-143510000D03*
X154940000Y-133350000D03*
X137160000Y-140970000D03*
X154940000Y-135890000D03*
X137160000Y-138430000D03*
X154940000Y-138430000D03*
X137160000Y-135890000D03*
X154940000Y-140970000D03*
X137160000Y-133350000D03*
X154940000Y-143510000D03*
X137160000Y-130810000D03*
X154940000Y-146050000D03*
X137160000Y-128270000D03*
X154940000Y-148590000D03*
X137160000Y-125730000D03*
X154940000Y-151130000D03*
X137160000Y-123190000D03*
X154940000Y-153670000D03*
X137160000Y-120650000D03*
X154940000Y-156210000D03*
X137160000Y-118110000D03*
X154940000Y-158750000D03*
X137160000Y-115570000D03*
X154940000Y-161290000D03*
D15*
X137160000Y-113030000D03*
%TD*%
M02*
