M48
; DRILL file {KiCad (5.1.9)-1} date 10/31/21 23:11:18
; FORMAT={-:-/ absolute / metric / decimal}
; #@! TF.CreationDate,2021-10-31T23:11:18+08:00
; #@! TF.GenerationSoftware,Kicad,Pcbnew,(5.1.9)-1
FMAT,2
METRIC
T1C0.400
T2C0.800
T3C1.000
T4C1.020
T5C1.500
T6C1.800
%
G90
G05
T1
X128.27Y-130.81
X128.27Y-140.97
X128.27Y-142.24
X128.27Y-151.13
X128.27Y-152.4
X129.54Y-113.03
X129.54Y-119.38
X129.54Y-130.81
X129.54Y-135.89
X129.54Y-137.16
X129.54Y-146.05
X129.54Y-147.32
X130.81Y-113.03
X130.81Y-119.38
X130.81Y-125.73
X130.81Y-127.0
X130.81Y-135.89
X130.81Y-137.16
X130.81Y-146.05
X130.81Y-147.32
X130.81Y-156.21
X130.81Y-157.48
X132.08Y-115.57
X132.08Y-116.84
X132.08Y-125.73
X132.08Y-128.27
X132.08Y-129.54
X132.08Y-138.43
X132.08Y-139.7
X132.08Y-148.59
X132.08Y-149.86
X132.08Y-157.48
X135.89Y-163.83
X137.16Y-163.83
X138.43Y-149.86
X138.43Y-162.56
X139.7Y-120.65
X139.7Y-121.92
X139.7Y-148.59
X139.7Y-152.4
X140.97Y-115.57
X140.97Y-132.08
X140.97Y-133.35
X140.97Y-143.51
X140.97Y-144.78
X140.97Y-146.05
X140.97Y-155.575
X142.24Y-115.57
X142.24Y-118.11
X142.24Y-119.38
X142.24Y-152.4
X142.24Y-155.575
X143.51Y-132.08
X143.51Y-133.35
X143.51Y-144.78
X143.51Y-149.86
X144.78Y-133.35
X144.78Y-134.62
X144.78Y-139.7
X144.78Y-140.97
X144.78Y-142.24
X144.78Y-143.51
X144.78Y-151.13
X146.05Y-137.16
X146.05Y-138.43
X146.05Y-153.67
X146.05Y-154.94
X146.939Y-147.32
X147.32Y-156.845
X148.59Y-111.125
X148.59Y-112.395
X148.59Y-157.48
X148.844Y-135.89
X148.844Y-137.16
X148.844Y-148.59
X149.86Y-125.73
X149.86Y-144.78
X149.86Y-147.32
X149.86Y-156.21
X150.495Y-157.48
X151.13Y-162.56
X152.4Y-163.83
T2
X137.16Y-113.03
X137.16Y-115.57
X137.16Y-118.11
X137.16Y-120.65
X137.16Y-123.19
X137.16Y-125.73
X137.16Y-128.27
X137.16Y-130.81
X137.16Y-133.35
X137.16Y-135.89
X137.16Y-138.43
X137.16Y-140.97
X137.16Y-143.51
X137.16Y-146.05
X137.16Y-148.59
X137.16Y-151.13
X137.16Y-153.67
X137.16Y-156.21
X137.16Y-158.75
X137.16Y-161.29
X154.94Y-113.03
X154.94Y-115.57
X154.94Y-118.11
X154.94Y-120.65
X154.94Y-123.19
X154.94Y-125.73
X154.94Y-128.27
X154.94Y-130.81
X154.94Y-133.35
X154.94Y-135.89
X154.94Y-138.43
X154.94Y-140.97
X154.94Y-143.51
X154.94Y-146.05
X154.94Y-148.59
X154.94Y-151.13
X154.94Y-153.67
X154.94Y-156.21
X154.94Y-158.75
X154.94Y-161.29
T3
X143.51Y-161.06
X146.05Y-161.06
X148.59Y-161.06
T4
X134.62Y-110.49
X134.62Y-113.03
X134.62Y-115.57
X134.62Y-118.11
X134.62Y-120.65
X134.62Y-123.19
X134.62Y-125.73
X134.62Y-128.27
X134.62Y-130.81
X134.62Y-133.35
X134.62Y-135.89
X134.62Y-138.43
X134.62Y-140.97
X134.62Y-143.51
X134.62Y-146.05
X134.62Y-148.59
X134.62Y-151.13
X134.62Y-153.67
X134.62Y-156.21
X134.62Y-158.75
X140.97Y-158.52
X143.51Y-158.52
X146.05Y-158.52
X152.4Y-110.49
X152.4Y-113.03
X152.4Y-115.57
X152.4Y-118.11
X152.4Y-120.65
X152.4Y-123.19
X152.4Y-125.73
X152.4Y-128.27
X152.4Y-130.81
X152.4Y-133.35
X152.4Y-135.89
X152.4Y-138.43
X152.4Y-140.97
X152.4Y-143.51
X152.4Y-146.05
X152.4Y-148.59
X152.4Y-151.13
X152.4Y-153.67
X152.4Y-156.21
X152.4Y-158.75
T5
X141.085Y-113.65
X145.935Y-113.65
T6
X140.785Y-110.62
X146.235Y-110.62
T0
M30
