%TF.GenerationSoftware,KiCad,Pcbnew,(5.1.9)-1*%
%TF.CreationDate,2021-10-24T18:26:44+08:00*%
%TF.ProjectId,XTA-35-TH,5854412d-3335-42d5-9448-2e6b69636164,rev?*%
%TF.SameCoordinates,Original*%
%TF.FileFunction,Copper,L3,Inr*%
%TF.FilePolarity,Positive*%
%FSLAX46Y46*%
G04 Gerber Fmt 4.6, Leading zero omitted, Abs format (unit mm)*
G04 Created by KiCad (PCBNEW (5.1.9)-1) date 2021-10-24 18:26:44*
%MOMM*%
%LPD*%
G01*
G04 APERTURE LIST*
%TA.AperFunction,ComponentPad*%
%ADD10O,1.700000X1.700000*%
%TD*%
%TA.AperFunction,ComponentPad*%
%ADD11R,1.700000X1.700000*%
%TD*%
%TA.AperFunction,ComponentPad*%
%ADD12O,1.600000X1.600000*%
%TD*%
%TA.AperFunction,ComponentPad*%
%ADD13R,1.600000X1.600000*%
%TD*%
%TA.AperFunction,ComponentPad*%
%ADD14C,1.700000*%
%TD*%
%TA.AperFunction,ComponentPad*%
%ADD15C,1.000000*%
%TD*%
%TA.AperFunction,ComponentPad*%
%ADD16C,2.000000*%
%TD*%
%TA.AperFunction,ComponentPad*%
%ADD17C,2.600000*%
%TD*%
%TA.AperFunction,ComponentPad*%
%ADD18C,6.400000*%
%TD*%
%TA.AperFunction,ViaPad*%
%ADD19C,0.800000*%
%TD*%
%TA.AperFunction,ViaPad*%
%ADD20C,1.000000*%
%TD*%
%TA.AperFunction,Conductor*%
%ADD21C,1.700000*%
%TD*%
%TA.AperFunction,Conductor*%
%ADD22C,0.250000*%
%TD*%
%TA.AperFunction,Conductor*%
%ADD23C,1.600000*%
%TD*%
%TA.AperFunction,Conductor*%
%ADD24C,0.500000*%
%TD*%
%TA.AperFunction,Conductor*%
%ADD25C,0.254000*%
%TD*%
%TA.AperFunction,Conductor*%
%ADD26C,0.100000*%
%TD*%
G04 APERTURE END LIST*
D10*
%TO.N,DBG_RX*%
%TO.C,U5*%
X153035000Y-76200000D03*
%TO.N,CFG_CLK*%
X155575000Y-76200000D03*
D11*
%TO.N,GND*%
X158115000Y-76200000D03*
D10*
%TO.N,CFG_LATCH*%
X160655000Y-76200000D03*
%TO.N,SD1_CS*%
X163195000Y-76200000D03*
%TO.N,D0_3V3*%
X165735000Y-76200000D03*
%TO.N,D1_3V3*%
X168275000Y-76200000D03*
D11*
%TO.N,GND*%
X170815000Y-76200000D03*
D10*
%TO.N,D2_3V3*%
X173355000Y-76200000D03*
%TO.N,D3_3V3*%
X175895000Y-76200000D03*
%TO.N,D4_3V3*%
X178435000Y-76200000D03*
%TO.N,D5_3V3*%
X180975000Y-76200000D03*
D11*
%TO.N,GND*%
X183515000Y-76200000D03*
D10*
%TO.N,D6_3V3*%
X186055000Y-76200000D03*
%TO.N,D7_3V3*%
X188595000Y-76200000D03*
%TO.N,A0_3V3*%
X191135000Y-76200000D03*
%TO.N,A1_3V3*%
X193675000Y-76200000D03*
D11*
%TO.N,GND*%
X196215000Y-76200000D03*
D10*
%TO.N,AEN_3V3*%
X198755000Y-76200000D03*
%TO.N,~DACK~_3V3*%
X201295000Y-76200000D03*
%TO.N,SPI_RX*%
X201295000Y-58420000D03*
%TO.N,~IOW~_3V3*%
X198755000Y-58420000D03*
D11*
%TO.N,GND*%
X196215000Y-58420000D03*
D10*
%TO.N,SPI_SCK*%
X193675000Y-58420000D03*
%TO.N,SPI_TX*%
X191135000Y-58420000D03*
%TO.N,~IOR~_3V3*%
X188595000Y-58420000D03*
%TO.N,~RESET~_3V3*%
X186055000Y-58420000D03*
D11*
%TO.N,GND*%
X183515000Y-58420000D03*
D10*
%TO.N,DATA_DIR*%
X180975000Y-58420000D03*
%TO.N,Net-(SW3-Pad1)*%
X178435000Y-58420000D03*
%TO.N,~CS~_3V3*%
X175895000Y-58420000D03*
%TO.N,~IRQ~_3V3*%
X173355000Y-58420000D03*
D11*
%TO.N,GND*%
X170815000Y-58420000D03*
D10*
%TO.N,~DRQ~_3V3*%
X168275000Y-58420000D03*
%TO.N,/ADC_VREF*%
X165735000Y-58420000D03*
%TO.N,+3V3*%
X163195000Y-58420000D03*
%TO.N,/3V3_EN*%
X160655000Y-58420000D03*
D11*
%TO.N,GND*%
X158115000Y-58420000D03*
D10*
%TO.N,VSYS*%
X155575000Y-58420000D03*
%TO.N,Net-(U5-Pad40)*%
X153035000Y-58420000D03*
%TO.N,/SWCLK*%
X201065000Y-69850000D03*
D11*
%TO.N,GND*%
X201065000Y-67310000D03*
D10*
%TO.N,/SWDIO*%
X201065000Y-64770000D03*
%TD*%
D12*
%TO.N,VSYS*%
%TO.C,U3*%
X175260000Y-37465000D03*
%TO.N,GND*%
X190500000Y-45085000D03*
%TO.N,CFG_CLK*%
X177800000Y-37465000D03*
%TO.N,IRQ*%
X187960000Y-45085000D03*
%TO.N,GND*%
X180340000Y-37465000D03*
%TO.N,Net-(R4-Pad1)*%
X185420000Y-45085000D03*
%TO.N,Net-(R1-Pad2)*%
X182880000Y-37465000D03*
%TO.N,~IRQ~_3V3*%
X182880000Y-45085000D03*
%TO.N,CFG_CLK*%
X185420000Y-37465000D03*
%TO.N,DRQ*%
X180340000Y-45085000D03*
%TO.N,GND*%
X187960000Y-37465000D03*
%TO.N,Net-(R4-Pad1)*%
X177800000Y-45085000D03*
%TO.N,~DRIVE_ACTIVE*%
X190500000Y-37465000D03*
D13*
%TO.N,~DRQ~_3V3*%
X175260000Y-45085000D03*
%TD*%
D12*
%TO.N,+3V3*%
%TO.C,U4*%
X189865000Y-103505000D03*
%TO.N,GND*%
X207645000Y-111125000D03*
X192405000Y-103505000D03*
%TO.N,Net-(U4-Pad7)*%
X205105000Y-111125000D03*
%TO.N,GND*%
X194945000Y-103505000D03*
%TO.N,/OPTION_4*%
X202565000Y-111125000D03*
%TO.N,GND*%
X197485000Y-103505000D03*
%TO.N,/OPTION_3*%
X200025000Y-111125000D03*
%TO.N,GND*%
X200025000Y-103505000D03*
%TO.N,/RESET_INVERT*%
X197485000Y-111125000D03*
%TO.N,/BOOT_INTERNAL*%
X202565000Y-103505000D03*
%TO.N,/IRQ_SELECT*%
X194945000Y-111125000D03*
%TO.N,GND*%
X205105000Y-103505000D03*
%TO.N,CFG_CLK*%
X192405000Y-111125000D03*
%TO.N,CFG_DATA*%
X207645000Y-103505000D03*
D13*
%TO.N,CFG_LATCH*%
X189865000Y-111125000D03*
%TD*%
D12*
%TO.N,+3V3*%
%TO.C,U1*%
X177165000Y-87630000D03*
%TO.N,GND*%
X200025000Y-95250000D03*
X179705000Y-87630000D03*
%TO.N,D7*%
X197485000Y-95250000D03*
%TO.N,D0_3V3*%
X182245000Y-87630000D03*
%TO.N,D6*%
X194945000Y-95250000D03*
%TO.N,D1_3V3*%
X184785000Y-87630000D03*
%TO.N,D5*%
X192405000Y-95250000D03*
%TO.N,D2_3V3*%
X187325000Y-87630000D03*
%TO.N,D4*%
X189865000Y-95250000D03*
%TO.N,D3_3V3*%
X189865000Y-87630000D03*
%TO.N,D3*%
X187325000Y-95250000D03*
%TO.N,D4_3V3*%
X192405000Y-87630000D03*
%TO.N,D2*%
X184785000Y-95250000D03*
%TO.N,D5_3V3*%
X194945000Y-87630000D03*
%TO.N,D1*%
X182245000Y-95250000D03*
%TO.N,D6_3V3*%
X197485000Y-87630000D03*
%TO.N,D0*%
X179705000Y-95250000D03*
%TO.N,D7_3V3*%
X200025000Y-87630000D03*
D13*
%TO.N,DATA_DIR*%
X177165000Y-95250000D03*
%TD*%
D12*
%TO.N,+3V3*%
%TO.C,U2*%
X200025000Y-41275000D03*
%TO.N,GND*%
X222885000Y-48895000D03*
X202565000Y-41275000D03*
%TO.N,~IOW*%
X220345000Y-48895000D03*
%TO.N,A0_3V3*%
X205105000Y-41275000D03*
%TO.N,~IOR*%
X217805000Y-48895000D03*
%TO.N,A1_3V3*%
X207645000Y-41275000D03*
%TO.N,~RESET*%
X215265000Y-48895000D03*
%TO.N,AEN_3V3*%
X210185000Y-41275000D03*
%TO.N,~CS*%
X212725000Y-48895000D03*
%TO.N,~DACK~_3V3*%
X212725000Y-41275000D03*
%TO.N,~DACK*%
X210185000Y-48895000D03*
%TO.N,~CS~_3V3*%
X215265000Y-41275000D03*
%TO.N,AEN*%
X207645000Y-48895000D03*
%TO.N,~RESET~_3V3*%
X217805000Y-41275000D03*
%TO.N,A1*%
X205105000Y-48895000D03*
%TO.N,~IOR~_3V3*%
X220345000Y-41275000D03*
%TO.N,A0*%
X202565000Y-48895000D03*
%TO.N,~IOW~_3V3*%
X222885000Y-41275000D03*
D13*
%TO.N,GND*%
X200025000Y-48895000D03*
%TD*%
D10*
%TO.N,DBG_RX*%
%TO.C,J6*%
X212725000Y-77470000D03*
%TO.N,GND*%
X212725000Y-74930000D03*
%TO.N,CFG_CLK*%
X212725000Y-72390000D03*
%TO.N,/SWCLK*%
X212725000Y-69850000D03*
%TO.N,GND*%
X212725000Y-67310000D03*
D11*
%TO.N,/SWDIO*%
X212725000Y-64770000D03*
%TD*%
D10*
%TO.N,GND*%
%TO.C,J5*%
X168275000Y-87630000D03*
%TO.N,SPI_RX*%
X168275000Y-90170000D03*
%TO.N,SPI_SCK*%
X168275000Y-92710000D03*
%TO.N,SPI_TX*%
X168275000Y-95250000D03*
%TO.N,SD1_CS*%
X168275000Y-97790000D03*
D11*
%TO.N,+3V3*%
X168275000Y-100330000D03*
%TD*%
D10*
%TO.N,GND*%
%TO.C,J4*%
X181610000Y-107315000D03*
%TO.N,SPI_RX*%
X181610000Y-109855000D03*
%TO.N,SPI_SCK*%
X181610000Y-112395000D03*
%TO.N,SPI_TX*%
X181610000Y-114935000D03*
%TO.N,CFG_LATCH*%
X181610000Y-117475000D03*
D11*
%TO.N,+3V3*%
X181610000Y-120015000D03*
%TD*%
D14*
%TO.N,GND*%
%TO.C,J1*%
X239395000Y-119380000D03*
X239395000Y-116840000D03*
X239395000Y-114300000D03*
%TO.N,Net-(J1-Pad34)*%
X239395000Y-111760000D03*
%TO.N,GND*%
X239395000Y-109220000D03*
X239395000Y-106680000D03*
X239395000Y-104140000D03*
X239395000Y-101600000D03*
X239395000Y-99060000D03*
X239395000Y-96520000D03*
X239395000Y-91440000D03*
X239395000Y-88900000D03*
X239395000Y-86360000D03*
X239395000Y-83820000D03*
X239395000Y-81280000D03*
X239395000Y-78740000D03*
X239395000Y-76200000D03*
X239395000Y-73660000D03*
X239395000Y-71120000D03*
%TO.N,~DRIVE_ACTIVE*%
X236855000Y-119380000D03*
%TO.N,~CS*%
X236855000Y-116840000D03*
%TO.N,A0*%
X236855000Y-114300000D03*
%TO.N,A1*%
X236855000Y-111760000D03*
%TO.N,IRQ*%
X236855000Y-109220000D03*
%TO.N,DRQ*%
X236855000Y-106680000D03*
%TO.N,~DACK*%
X236855000Y-104140000D03*
%TO.N,~IOR*%
X236855000Y-101600000D03*
%TO.N,~IOW*%
X236855000Y-99060000D03*
%TO.N,AEN*%
X236855000Y-96520000D03*
%TO.N,GND*%
X236855000Y-93980000D03*
%TO.N,D0*%
X236855000Y-91440000D03*
%TO.N,D1*%
X236855000Y-88900000D03*
%TO.N,D2*%
X236855000Y-86360000D03*
%TO.N,D3*%
X236855000Y-83820000D03*
%TO.N,D4*%
X236855000Y-81280000D03*
%TO.N,D5*%
X236855000Y-78740000D03*
%TO.N,D6*%
X236855000Y-76200000D03*
%TO.N,D7*%
X236855000Y-73660000D03*
%TO.N,~RESET*%
%TA.AperFunction,ComponentPad*%
G36*
G01*
X236005000Y-71720000D02*
X236005000Y-70520000D01*
G75*
G02*
X236255000Y-70270000I250000J0D01*
G01*
X237455000Y-70270000D01*
G75*
G02*
X237705000Y-70520000I0J-250000D01*
G01*
X237705000Y-71720000D01*
G75*
G02*
X237455000Y-71970000I-250000J0D01*
G01*
X236255000Y-71970000D01*
G75*
G02*
X236005000Y-71720000I0J250000D01*
G01*
G37*
%TD.AperFunction*%
%TD*%
D15*
%TO.N,/MOUNTING_3*%
%TO.C,MH3*%
X161945449Y-128254482D03*
X166894495Y-127111904D03*
X166411547Y-126076220D03*
X163296537Y-125357063D03*
X166874551Y-128254482D03*
X161925505Y-127111904D03*
X162408453Y-126076220D03*
X165523463Y-125357063D03*
X164410000Y-125100000D03*
%TD*%
%TO.N,/MOUNTING_2*%
%TO.C,MH2*%
X211374551Y-31775518D03*
X206425505Y-32918096D03*
X206908453Y-33953780D03*
X210023463Y-34672937D03*
X206445449Y-31775518D03*
X211394495Y-32918096D03*
X210911547Y-33953780D03*
X207796537Y-34672937D03*
X208910000Y-34930000D03*
%TD*%
%TO.N,/MOUNTING_1*%
%TO.C,MH1*%
X166874551Y-31775518D03*
X161925505Y-32918096D03*
X162408453Y-33953780D03*
X165523463Y-34672937D03*
X161945449Y-31775518D03*
X166894495Y-32918096D03*
X166411547Y-33953780D03*
X163296537Y-34672937D03*
X164410000Y-34930000D03*
%TD*%
%TO.N,/MOUNTING_4*%
%TO.C,MH4*%
X206445449Y-128254482D03*
X211394495Y-127111904D03*
X210911547Y-126076220D03*
X207796537Y-125357063D03*
X211374551Y-128254482D03*
X206425505Y-127111904D03*
X206908453Y-126076220D03*
X210023463Y-125357063D03*
X208910000Y-125100000D03*
%TD*%
D16*
%TO.N,Net-(SW3-Pad1)*%
%TO.C,SW3*%
X161140000Y-51120000D03*
%TO.N,GND*%
X161140000Y-46620000D03*
%TO.N,Net-(SW3-Pad1)*%
X167640000Y-51120000D03*
%TO.N,GND*%
X167640000Y-46620000D03*
%TD*%
%TO.N,/BOOT_INTERNAL*%
%TO.C,SW2*%
X212240000Y-117475000D03*
%TO.N,GND*%
X212240000Y-121975000D03*
%TO.N,/BOOT_INTERNAL*%
X205740000Y-117475000D03*
%TO.N,GND*%
X205740000Y-121975000D03*
%TD*%
D13*
%TO.N,/IRQ_SELECT*%
%TO.C,SW1*%
X191135000Y-116205000D03*
D12*
%TO.N,GND*%
X198755000Y-123825000D03*
%TO.N,/RESET_INVERT*%
X193675000Y-116205000D03*
%TO.N,GND*%
X196215000Y-123825000D03*
%TO.N,/OPTION_3*%
X196215000Y-116205000D03*
%TO.N,GND*%
X193675000Y-123825000D03*
%TO.N,/OPTION_4*%
X198755000Y-116205000D03*
%TO.N,GND*%
X191135000Y-123825000D03*
%TD*%
D10*
%TO.N,Net-(J3-Pad2)*%
%TO.C,J3*%
X161290000Y-38735000D03*
D11*
%TO.N,Net-(J3-Pad1)*%
X161290000Y-41275000D03*
%TD*%
D17*
%TO.N,/5V_IN*%
%TO.C,J2*%
X236550000Y-41910000D03*
%TO.N,GND*%
X236550000Y-46990000D03*
X236550000Y-52070000D03*
%TO.N,Net-(J2-Pad1)*%
X236550000Y-57150000D03*
%TD*%
D18*
%TO.N,N/C*%
%TO.C,MH5*%
X153090000Y-49150000D03*
%TD*%
%TO.N,N/C*%
%TO.C,MH7*%
X153090000Y-110870000D03*
%TD*%
%TO.N,N/C*%
%TO.C,MH8*%
X229690000Y-110870000D03*
%TD*%
%TO.N,N/C*%
%TO.C,MH6*%
X229690000Y-49150000D03*
%TD*%
D19*
%TO.N,GND*%
X234315000Y-83820000D03*
X233045000Y-85090000D03*
X227330000Y-72390000D03*
D20*
X175260000Y-39370000D03*
D19*
X167640000Y-82550000D03*
X165100000Y-85090000D03*
X173990000Y-85090000D03*
X176530000Y-83820000D03*
X163830000Y-87630000D03*
D20*
X181610000Y-121920000D03*
X170180000Y-100330000D03*
D19*
X180340000Y-116205000D03*
X180340000Y-111125000D03*
X191135000Y-109855000D03*
X234950000Y-111760000D03*
X166370000Y-116205000D03*
X160655000Y-118745000D03*
X161925000Y-99060000D03*
X162560000Y-111125000D03*
X164465000Y-113665000D03*
X169545000Y-96520000D03*
X167005000Y-91440000D03*
D20*
X173990000Y-89105000D03*
X173990000Y-92055000D03*
X195580000Y-42750000D03*
D19*
X222885000Y-103505000D03*
X218440000Y-101600000D03*
X219075000Y-106045000D03*
X211455000Y-59690000D03*
X222885000Y-115570000D03*
X223520000Y-118110000D03*
D20*
X210185000Y-71755000D03*
X203200000Y-78105000D03*
X206375000Y-74930000D03*
X208915000Y-116840000D03*
X215900000Y-115570000D03*
X209550000Y-103505000D03*
X216535000Y-112395000D03*
X186690000Y-105055010D03*
X177165000Y-89535000D03*
X204470000Y-87630000D03*
X212090000Y-82550000D03*
X212090000Y-85090000D03*
D19*
X221615000Y-42545000D03*
X216535000Y-42545000D03*
X211455000Y-42545000D03*
X208915000Y-42545000D03*
X220345000Y-46990000D03*
X217805000Y-46990000D03*
X215265000Y-46990000D03*
X212725000Y-46990000D03*
X210185000Y-46990000D03*
X207645000Y-46990000D03*
X205105000Y-46990000D03*
X193675000Y-93980000D03*
X188595000Y-93980000D03*
X183515000Y-93980000D03*
X178435000Y-93980000D03*
X198755000Y-86360000D03*
X193675000Y-86360000D03*
X188595000Y-88900000D03*
X183515000Y-88900000D03*
X184150000Y-43815000D03*
X176530000Y-43815000D03*
D20*
X170180000Y-35560000D03*
X229870000Y-43180000D03*
X229870000Y-40640000D03*
D19*
X213995000Y-86995000D03*
D20*
X186690000Y-46355000D03*
X197485000Y-50800000D03*
D19*
X171450000Y-91440000D03*
X163830000Y-89535000D03*
X177800000Y-43180000D03*
X181610000Y-43815000D03*
X165735000Y-43180000D03*
X165735000Y-36830000D03*
X171450000Y-50673000D03*
X208280000Y-59055000D03*
X205740000Y-60325000D03*
X176530000Y-46355000D03*
D20*
%TO.N,+3V3*%
X208915000Y-72390000D03*
X196215000Y-49530000D03*
D19*
X230505000Y-122555000D03*
X227330000Y-122555000D03*
X224155000Y-122555000D03*
X220980000Y-122555000D03*
X217805000Y-119380000D03*
D20*
X184785000Y-103505000D03*
X204470000Y-77470000D03*
X205740000Y-76200000D03*
X207645000Y-74295000D03*
X208915000Y-114935000D03*
X214630000Y-114300000D03*
X208915000Y-109220000D03*
X208915000Y-105410000D03*
X208915000Y-101600000D03*
X211455000Y-103505000D03*
X214630000Y-111760000D03*
X208915000Y-113030000D03*
X205105000Y-86360000D03*
X211010010Y-85725000D03*
X211010010Y-81915000D03*
X190500000Y-46990000D03*
X186690000Y-47879000D03*
%TO.N,VSYS*%
X229235000Y-41910000D03*
D19*
X165735000Y-38100000D03*
D20*
X228219000Y-40513000D03*
X228219000Y-43307000D03*
X170180000Y-37465000D03*
D19*
X171450000Y-49403000D03*
%TO.N,Net-(R1-Pad2)*%
X165735000Y-41910000D03*
%TO.N,CFG_DATA*%
X213995000Y-85725000D03*
X203200000Y-88265000D03*
%TO.N,DBG_RX*%
X213995000Y-82550000D03*
%TO.N,DATA_DIR*%
X172720000Y-85090000D03*
X163830000Y-86360000D03*
%TO.N,Net-(SW3-Pad1)*%
X165735000Y-60960000D03*
%TO.N,D1_3V3*%
X168910000Y-82550000D03*
X177165000Y-82550000D03*
%TO.N,D0_3V3*%
X165100000Y-83820000D03*
X175260000Y-83820000D03*
%TO.N,CFG_CLK*%
X203200000Y-79375000D03*
X179070000Y-43815000D03*
%TO.N,/BOOT_INTERNAL*%
X230505000Y-125730000D03*
%TO.N,~CS*%
X224790000Y-118110000D03*
%TO.N,A0*%
X211455000Y-60960000D03*
X222885000Y-116840000D03*
X205740000Y-59055000D03*
%TO.N,A1*%
X211455000Y-58420000D03*
X222885000Y-114300000D03*
X208280000Y-57785000D03*
%TO.N,IRQ*%
X220345000Y-106045000D03*
X208915000Y-46355000D03*
%TO.N,DRQ*%
X224155000Y-104140000D03*
X211455000Y-46355000D03*
%TO.N,~DACK*%
X222250000Y-102235000D03*
%TO.N,AEN*%
X218440000Y-100330000D03*
%TO.N,D5*%
X234315000Y-82550000D03*
%TO.N,D6*%
X233045000Y-83820000D03*
%TO.N,D7*%
X231775000Y-85090000D03*
%TO.N,~RESET*%
X227330000Y-71120000D03*
%TO.N,/IRQ_SELECT*%
X202565000Y-122555000D03*
X217805000Y-125730000D03*
%TO.N,/RESET_INVERT*%
X227330000Y-125730000D03*
X201295000Y-121285000D03*
%TO.N,CFG_LATCH*%
X160655000Y-117475000D03*
%TO.N,Net-(R4-Pad1)*%
X177165000Y-47625000D03*
%TO.N,SD1_CS*%
X161925000Y-97790000D03*
%TO.N,/OPTION_3*%
X220980000Y-125730000D03*
%TO.N,/OPTION_4*%
X224155000Y-125730000D03*
%TO.N,SPI_RX*%
X162560000Y-109855000D03*
X171450000Y-90170000D03*
%TO.N,SPI_SCK*%
X164465000Y-112395000D03*
%TO.N,SPI_TX*%
X166370000Y-114935012D03*
X165100000Y-89535000D03*
%TD*%
D21*
%TO.N,+3V3*%
X181610000Y-120015000D02*
X178435000Y-120015000D01*
X168275000Y-100330000D02*
X168275000Y-101600000D01*
X168275000Y-101600000D02*
X170180000Y-103505000D01*
D22*
X207645000Y-86360000D02*
X205105000Y-86360000D01*
X207645000Y-74295000D02*
X207645000Y-86360000D01*
D23*
X200025000Y-41275000D02*
X200025000Y-43815000D01*
D22*
X200025000Y-43815000D02*
X200025000Y-44450000D01*
X196215000Y-48260000D02*
X196215000Y-49530000D01*
X200025000Y-44450000D02*
X196215000Y-48260000D01*
X187071000Y-48260000D02*
X186690000Y-47879000D01*
X190500000Y-46990000D02*
X190500000Y-48260000D01*
X190500000Y-48260000D02*
X187071000Y-48260000D01*
X196215000Y-48260000D02*
X190500000Y-48260000D01*
D24*
%TO.N,Net-(R1-Pad2)*%
X182880000Y-38735000D02*
X182880000Y-37465000D01*
X177165000Y-40640000D02*
X175895000Y-41910000D01*
X180975000Y-40640000D02*
X177165000Y-40640000D01*
X165735000Y-41910000D02*
X175895000Y-41910000D01*
X180975000Y-40640000D02*
X182880000Y-38735000D01*
D22*
%TO.N,CFG_DATA*%
X203835000Y-99695000D02*
X207645000Y-103505000D01*
X203835000Y-88900000D02*
X203835000Y-99695000D01*
X203200000Y-88265000D02*
X203835000Y-88900000D01*
%TO.N,DBG_RX*%
X213995000Y-78740000D02*
X212725000Y-77470000D01*
X213995000Y-82550000D02*
X213995000Y-78740000D01*
%TO.N,DATA_DIR*%
X172720000Y-93345000D02*
X172720000Y-85090000D01*
X174625000Y-95250000D02*
X172720000Y-93345000D01*
X177165000Y-95250000D02*
X174625000Y-95250000D01*
X180975000Y-59055000D02*
X180975000Y-58420000D01*
X164465000Y-75565000D02*
X180975000Y-59055000D01*
X164465000Y-80010000D02*
X164465000Y-75565000D01*
X163830000Y-80645000D02*
X164465000Y-80010000D01*
X163830000Y-86360000D02*
X163830000Y-80645000D01*
%TO.N,Net-(SW3-Pad1)*%
X164465000Y-59690000D02*
X165735000Y-60960000D01*
X164465000Y-54295000D02*
X164465000Y-59690000D01*
X167640000Y-51120000D02*
X164465000Y-54295000D01*
%TO.N,~IRQ~_3V3*%
X182880000Y-46355000D02*
X182880000Y-45085000D01*
X173355000Y-55880000D02*
X182880000Y-46355000D01*
X173355000Y-58420000D02*
X173355000Y-55880000D01*
%TO.N,~DRQ~_3V3*%
X168275000Y-55880000D02*
X168275000Y-58420000D01*
X169545000Y-54610000D02*
X168275000Y-55880000D01*
X170815000Y-54610000D02*
X169545000Y-54610000D01*
X174625000Y-50800000D02*
X170815000Y-54610000D01*
X174625000Y-47625000D02*
X174625000Y-50800000D01*
X175260000Y-46990000D02*
X174625000Y-47625000D01*
X175260000Y-45085000D02*
X175260000Y-46990000D01*
%TO.N,~DACK~_3V3*%
X209550000Y-55880000D02*
X206375000Y-52705000D01*
X209550000Y-69215000D02*
X209550000Y-55880000D01*
X202565000Y-76200000D02*
X209550000Y-69215000D01*
X201295000Y-76200000D02*
X202565000Y-76200000D01*
X210820000Y-45085000D02*
X212725000Y-43180000D01*
X207645000Y-45085000D02*
X210820000Y-45085000D01*
X206375000Y-46355000D02*
X207645000Y-45085000D01*
X212725000Y-43180000D02*
X212725000Y-41275000D01*
X206375000Y-52705000D02*
X206375000Y-46355000D01*
%TO.N,AEN_3V3*%
X207010000Y-55880000D02*
X203835000Y-52705000D01*
X207010000Y-69850000D02*
X207010000Y-55880000D01*
X203835000Y-73025000D02*
X207010000Y-69850000D01*
X200660000Y-73025000D02*
X203835000Y-73025000D01*
X198755000Y-74930000D02*
X200660000Y-73025000D01*
X198755000Y-76200000D02*
X198755000Y-74930000D01*
X209550000Y-43815000D02*
X210185000Y-43180000D01*
X206375000Y-43815000D02*
X209550000Y-43815000D01*
X203835000Y-46355000D02*
X206375000Y-43815000D01*
X210185000Y-43180000D02*
X210185000Y-41275000D01*
X203835000Y-52705000D02*
X203835000Y-46355000D01*
%TO.N,A1_3V3*%
X204470000Y-60325000D02*
X204470000Y-55880000D01*
X201930000Y-62865000D02*
X204470000Y-60325000D01*
X200025000Y-62865000D02*
X201930000Y-62865000D01*
X204470000Y-55880000D02*
X201295000Y-52705000D01*
X193675000Y-69215000D02*
X200025000Y-62865000D01*
X193675000Y-76200000D02*
X193675000Y-69215000D01*
X206375000Y-42545000D02*
X207645000Y-41275000D01*
X205740000Y-42545000D02*
X206375000Y-42545000D01*
X201295000Y-46990000D02*
X205740000Y-42545000D01*
X201295000Y-52705000D02*
X201295000Y-46990000D01*
%TO.N,A0_3V3*%
X201295000Y-61595000D02*
X198755000Y-61595000D01*
X203200000Y-59690000D02*
X201295000Y-61595000D01*
X203200000Y-55880000D02*
X203200000Y-59690000D01*
X198755000Y-51435000D02*
X203200000Y-55880000D01*
X198755000Y-61595000D02*
X191135000Y-69215000D01*
X191135000Y-69215000D02*
X191135000Y-76200000D01*
X198755000Y-48260000D02*
X198755000Y-51435000D01*
X198755000Y-47625000D02*
X198755000Y-48260000D01*
X205105000Y-41275000D02*
X198755000Y-47625000D01*
%TO.N,D7_3V3*%
X200025000Y-85090000D02*
X200025000Y-87630000D01*
X195580000Y-80645000D02*
X200025000Y-85090000D01*
X193040000Y-80645000D02*
X195580000Y-80645000D01*
X188595000Y-76200000D02*
X193040000Y-80645000D01*
%TO.N,D6_3V3*%
X197485000Y-85725000D02*
X197485000Y-87630000D01*
X194310000Y-82550000D02*
X197485000Y-85725000D01*
X192405000Y-82550000D02*
X194310000Y-82550000D01*
X186055000Y-76200000D02*
X192405000Y-82550000D01*
%TO.N,D5_3V3*%
X191770000Y-84455000D02*
X193675000Y-84455000D01*
X193675000Y-84455000D02*
X194945000Y-85725000D01*
X186690000Y-79375000D02*
X191770000Y-84455000D01*
X194945000Y-85725000D02*
X194945000Y-87630000D01*
X184150000Y-79375000D02*
X186690000Y-79375000D01*
X180975000Y-76200000D02*
X184150000Y-79375000D01*
%TO.N,D4_3V3*%
X185420000Y-80645000D02*
X192405000Y-87630000D01*
X182880000Y-80645000D02*
X185420000Y-80645000D01*
X178435000Y-76200000D02*
X182880000Y-80645000D01*
%TO.N,D3_3V3*%
X184150000Y-81915000D02*
X189865000Y-87630000D01*
X181610000Y-81915000D02*
X184150000Y-81915000D01*
X175895000Y-76200000D02*
X181610000Y-81915000D01*
%TO.N,D2_3V3*%
X182880000Y-83185000D02*
X187325000Y-87630000D01*
X180340000Y-83185000D02*
X182880000Y-83185000D01*
X173355000Y-76200000D02*
X180340000Y-83185000D01*
%TO.N,D1_3V3*%
X168910000Y-81915000D02*
X168910000Y-82550000D01*
X168275000Y-81280000D02*
X168910000Y-81915000D01*
X168275000Y-76200000D02*
X168275000Y-81280000D01*
X181610000Y-84455000D02*
X184785000Y-87630000D01*
X179070000Y-84455000D02*
X181610000Y-84455000D01*
X177165000Y-82550000D02*
X179070000Y-84455000D01*
%TO.N,D0_3V3*%
X165735000Y-80645000D02*
X165735000Y-76200000D01*
X165100000Y-81280000D02*
X165735000Y-80645000D01*
X165100000Y-83820000D02*
X165100000Y-81280000D01*
X175260000Y-84455000D02*
X176530000Y-85725000D01*
X175260000Y-83820000D02*
X175260000Y-84455000D01*
X180340000Y-85725000D02*
X182245000Y-87630000D01*
X176530000Y-85725000D02*
X180340000Y-85725000D01*
%TO.N,CFG_CLK*%
X195580000Y-107950000D02*
X192405000Y-111125000D01*
X198755000Y-107950000D02*
X195580000Y-107950000D01*
X201295000Y-105410000D02*
X198755000Y-107950000D01*
X201295000Y-81915000D02*
X201295000Y-105410000D01*
X203200000Y-80010000D02*
X201295000Y-81915000D01*
X203200000Y-79375000D02*
X203200000Y-80010000D01*
X155575000Y-74930000D02*
X155575000Y-76200000D01*
X158115000Y-72390000D02*
X155575000Y-74930000D01*
X172085000Y-66040000D02*
X165735000Y-72390000D01*
X172085000Y-55244295D02*
X172085000Y-66040000D01*
X179070000Y-48259295D02*
X172085000Y-55244295D01*
X165735000Y-72390000D02*
X158115000Y-72390000D01*
X179070000Y-43815000D02*
X179070000Y-48259295D01*
%TO.N,/BOOT_INTERNAL*%
X203835000Y-104775000D02*
X202565000Y-103505000D01*
X203835000Y-115570000D02*
X203835000Y-104775000D01*
X205740000Y-117475000D02*
X203835000Y-115570000D01*
D24*
%TO.N,~DRIVE_ACTIVE*%
X217170000Y-37465000D02*
X190500000Y-37465000D01*
X240665000Y-36195000D02*
X218440000Y-36195000D01*
X218440000Y-36195000D02*
X217170000Y-37465000D01*
X242570000Y-38100000D02*
X240665000Y-36195000D01*
X242570000Y-120650000D02*
X242570000Y-38100000D01*
X241300000Y-121920000D02*
X242570000Y-120650000D01*
X238125000Y-121920000D02*
X241300000Y-121920000D01*
X236855000Y-120650000D02*
X238125000Y-121920000D01*
X236855000Y-119380000D02*
X236855000Y-120650000D01*
D22*
%TO.N,~CS*%
X224790000Y-107950000D02*
X224790000Y-118110000D01*
X226060000Y-106680000D02*
X224790000Y-107950000D01*
X226060000Y-63500000D02*
X226060000Y-106680000D01*
X214630000Y-52070000D02*
X226060000Y-63500000D01*
X213995000Y-52070000D02*
X214630000Y-52070000D01*
X212725000Y-50800000D02*
X213995000Y-52070000D01*
X212725000Y-48895000D02*
X212725000Y-50800000D01*
%TO.N,A0*%
X212090000Y-60960000D02*
X211455000Y-60960000D01*
X215900000Y-109855000D02*
X215900000Y-64770000D01*
X215900000Y-64770000D02*
X212090000Y-60960000D01*
X222885000Y-116840000D02*
X215900000Y-109855000D01*
X202565000Y-52705000D02*
X202565000Y-49530000D01*
X205740000Y-55880000D02*
X202565000Y-52705000D01*
X205740000Y-59055000D02*
X205740000Y-55880000D01*
%TO.N,A1*%
X217170000Y-64135000D02*
X211455000Y-58420000D01*
X217170000Y-108585000D02*
X217170000Y-64135000D01*
X222885000Y-114300000D02*
X217170000Y-108585000D01*
X205105000Y-52705000D02*
X205105000Y-49530000D01*
X208280000Y-55880000D02*
X205105000Y-52705000D01*
X208280000Y-57785000D02*
X208280000Y-55880000D01*
%TO.N,IRQ*%
X220345000Y-63501410D02*
X220345000Y-106045000D01*
X208915000Y-52070000D02*
X220345000Y-63500000D01*
X208915000Y-46355000D02*
X208915000Y-52070000D01*
%TO.N,DRQ*%
X224155000Y-63500000D02*
X224155000Y-104140000D01*
X211455000Y-50800000D02*
X224155000Y-63500000D01*
X211455000Y-46355000D02*
X211455000Y-50800000D01*
%TO.N,~DACK*%
X222239921Y-102224921D02*
X222250000Y-102235000D01*
X222239921Y-64124921D02*
X222239921Y-102224921D01*
X222250000Y-63500000D02*
X210185000Y-51435000D01*
X222250000Y-64135000D02*
X222250000Y-63500000D01*
X210185000Y-51435000D02*
X210185000Y-49530000D01*
%TO.N,~IOR*%
X217805000Y-49530000D02*
X228600000Y-60325000D01*
X228600000Y-93345000D02*
X236855000Y-101600000D01*
X228600000Y-60325000D02*
X228600000Y-93345000D01*
%TO.N,~IOW*%
X230505000Y-59055000D02*
X220345000Y-48895000D01*
X230505000Y-92710000D02*
X230505000Y-59055000D01*
X236855000Y-99060000D02*
X230505000Y-92710000D01*
%TO.N,AEN*%
X218440000Y-63500000D02*
X218440000Y-100330000D01*
X207645000Y-52705000D02*
X218440000Y-63500000D01*
X207645000Y-49530000D02*
X207645000Y-52705000D01*
%TO.N,D5*%
X234315000Y-81280000D02*
X236855000Y-78740000D01*
X234315000Y-82550000D02*
X234315000Y-81280000D01*
%TO.N,D6*%
X233045000Y-80010000D02*
X236855000Y-76200000D01*
X233045000Y-83820000D02*
X233045000Y-80010000D01*
%TO.N,D7*%
X231775000Y-78740000D02*
X236855000Y-73660000D01*
X231775000Y-85090000D02*
X231775000Y-78740000D01*
%TO.N,~RESET*%
X227330000Y-61595000D02*
X215265000Y-49530000D01*
X227330000Y-71120000D02*
X227330000Y-61595000D01*
%TO.N,/IRQ_SELECT*%
X194945000Y-112395000D02*
X194945000Y-111125000D01*
X191135000Y-116205000D02*
X194945000Y-112395000D01*
X197485000Y-122555000D02*
X202565000Y-122555000D01*
X191135000Y-116205000D02*
X197485000Y-122555000D01*
%TO.N,/RESET_INVERT*%
X197485000Y-112395000D02*
X197485000Y-111125000D01*
X193675000Y-116205000D02*
X197485000Y-112395000D01*
X193675000Y-116205000D02*
X198755000Y-121285000D01*
X198755000Y-121285000D02*
X201295000Y-121285000D01*
%TO.N,CFG_LATCH*%
X160655000Y-100965000D02*
X160655000Y-117475000D01*
X160020000Y-100330000D02*
X160655000Y-100965000D01*
X160020000Y-80010000D02*
X160020000Y-100330000D01*
X160655000Y-79375000D02*
X160020000Y-80010000D01*
X160655000Y-76200000D02*
X160655000Y-79375000D01*
%TO.N,SD1_CS*%
X161925000Y-80645000D02*
X161925000Y-97790000D01*
X163195000Y-79375000D02*
X161925000Y-80645000D01*
X163195000Y-76200000D02*
X163195000Y-79375000D01*
%TO.N,/OPTION_3*%
X200025000Y-112395000D02*
X200025000Y-111125000D01*
X196215000Y-116205000D02*
X200025000Y-112395000D01*
X200152000Y-120142000D02*
X196215000Y-116205000D01*
X214122000Y-120142000D02*
X200152000Y-120142000D01*
X219710000Y-125730000D02*
X214122000Y-120142000D01*
X220980000Y-125730000D02*
X219710000Y-125730000D01*
%TO.N,/OPTION_4*%
X202565000Y-112395000D02*
X202565000Y-111125000D01*
X198755000Y-116205000D02*
X202565000Y-112395000D01*
X201803000Y-119253000D02*
X198755000Y-116205000D01*
X215138000Y-119253000D02*
X201803000Y-119253000D01*
X220345000Y-124460000D02*
X215138000Y-119253000D01*
X222885000Y-124460000D02*
X220345000Y-124460000D01*
X224155000Y-125730000D02*
X222885000Y-124460000D01*
%TO.N,SPI_RX*%
X168275000Y-90170000D02*
X167640000Y-90170000D01*
X163830000Y-99695000D02*
X163830000Y-92710000D01*
X162560000Y-100965000D02*
X163830000Y-99695000D01*
X162560000Y-109855000D02*
X162560000Y-100965000D01*
X201295000Y-59055000D02*
X201295000Y-58420000D01*
X200025000Y-60325000D02*
X201295000Y-59055000D01*
X197485000Y-60325000D02*
X200025000Y-60325000D01*
X172085000Y-74950749D02*
X180360749Y-66675000D01*
X191135000Y-66675000D02*
X197485000Y-60325000D01*
X172085000Y-80010000D02*
X172085000Y-74950749D01*
X171450000Y-80645000D02*
X172085000Y-80010000D01*
X180360749Y-66675000D02*
X191135000Y-66675000D01*
X171450000Y-90170000D02*
X171450000Y-80645000D01*
X168275000Y-90170000D02*
X166370000Y-90170000D01*
X166370000Y-90170000D02*
X163830000Y-92710000D01*
%TO.N,SPI_SCK*%
X167640000Y-92710000D02*
X168275000Y-92710000D01*
X165100000Y-95250000D02*
X167640000Y-92710000D01*
X165100000Y-100965000D02*
X165100000Y-95250000D01*
X164465000Y-101600000D02*
X165100000Y-100965000D01*
X164465000Y-112395000D02*
X164465000Y-101600000D01*
X168910000Y-92710000D02*
X168275000Y-92710000D01*
X170180000Y-80645000D02*
X170180000Y-91440000D01*
X169545000Y-80010000D02*
X170180000Y-80645000D01*
X169545000Y-74930000D02*
X169545000Y-80010000D01*
X179705000Y-64770000D02*
X169545000Y-74930000D01*
X188595000Y-64770000D02*
X179705000Y-64770000D01*
X193675000Y-59690000D02*
X188595000Y-64770000D01*
X170180000Y-91440000D02*
X168910000Y-92710000D01*
X193675000Y-58420000D02*
X193675000Y-59690000D01*
%TO.N,SPI_TX*%
X166370000Y-96520000D02*
X166370000Y-114935012D01*
X167640000Y-95250000D02*
X166370000Y-96520000D01*
X168275000Y-95250000D02*
X167640000Y-95250000D01*
X168275000Y-95250000D02*
X168910000Y-95250000D01*
X166370000Y-81915000D02*
X166370000Y-88265000D01*
X167005000Y-81280000D02*
X166370000Y-81915000D01*
X167005000Y-74930000D02*
X167005000Y-81280000D01*
X179070000Y-62865000D02*
X167005000Y-74930000D01*
X187960000Y-62865000D02*
X179070000Y-62865000D01*
X166370000Y-88265000D02*
X165100000Y-89535000D01*
X191135000Y-59690000D02*
X187960000Y-62865000D01*
X191135000Y-58420000D02*
X191135000Y-59690000D01*
%TD*%
D25*
%TO.N,/MOUNTING_4*%
X212233000Y-126192606D02*
X212233000Y-129008000D01*
X210393371Y-129008000D01*
X210393371Y-128898078D01*
X210523149Y-128736666D01*
X210540604Y-128709992D01*
X210558459Y-128683521D01*
X210560767Y-128679181D01*
X210705438Y-128402451D01*
X210717383Y-128372885D01*
X210729752Y-128343461D01*
X210731172Y-128338756D01*
X210819338Y-128039195D01*
X210825310Y-128007887D01*
X210831732Y-127976604D01*
X210832211Y-127971712D01*
X210860512Y-127660732D01*
X210860290Y-127628902D01*
X210860513Y-127596928D01*
X210860033Y-127592036D01*
X210827392Y-127281481D01*
X210820975Y-127250222D01*
X210814999Y-127218891D01*
X210813578Y-127214186D01*
X210721239Y-126915886D01*
X210708892Y-126886515D01*
X210696925Y-126856895D01*
X210694618Y-126852556D01*
X210546096Y-126577871D01*
X210528271Y-126551444D01*
X210510788Y-126524727D01*
X210507681Y-126520918D01*
X210308636Y-126280314D01*
X210286019Y-126257855D01*
X210263676Y-126235039D01*
X210259889Y-126231906D01*
X210017900Y-126034545D01*
X209991360Y-126016912D01*
X209965005Y-125998866D01*
X209960681Y-125996529D01*
X209684968Y-125849929D01*
X209655477Y-125837774D01*
X209626146Y-125825202D01*
X209621451Y-125823749D01*
X209322513Y-125733495D01*
X209291230Y-125727301D01*
X209260012Y-125720665D01*
X209255124Y-125720152D01*
X208944349Y-125689680D01*
X208928667Y-125689680D01*
X208913066Y-125688013D01*
X208908151Y-125688005D01*
X208891396Y-125688093D01*
X208876042Y-125689680D01*
X208875652Y-125689680D01*
X208875532Y-125689704D01*
X208860119Y-125689650D01*
X208855229Y-125690147D01*
X208544791Y-125723871D01*
X208513588Y-125730389D01*
X208482244Y-125736482D01*
X208477544Y-125737919D01*
X208179568Y-125831299D01*
X208150223Y-125843755D01*
X208120662Y-125855819D01*
X208116331Y-125858142D01*
X207842167Y-126007621D01*
X207815802Y-126025539D01*
X207789145Y-126043115D01*
X207785347Y-126046235D01*
X207545439Y-126246119D01*
X207523055Y-126268818D01*
X207500322Y-126291236D01*
X207497203Y-126295034D01*
X207300688Y-126537710D01*
X207283129Y-126564340D01*
X207265193Y-126590732D01*
X207262870Y-126595063D01*
X207117234Y-126871287D01*
X207105199Y-126900780D01*
X207092714Y-126930191D01*
X207091278Y-126934892D01*
X207002067Y-127234143D01*
X206995988Y-127265418D01*
X206989455Y-127296690D01*
X206988958Y-127301580D01*
X206959572Y-127612460D01*
X206959683Y-127644356D01*
X206959349Y-127676263D01*
X206959812Y-127681156D01*
X206991368Y-127991824D01*
X206997666Y-128023058D01*
X207003542Y-128054456D01*
X207004947Y-128059166D01*
X207096243Y-128357787D01*
X207108498Y-128387226D01*
X207120352Y-128416864D01*
X207122645Y-128421212D01*
X207270207Y-128696412D01*
X207287945Y-128722908D01*
X207305329Y-128749678D01*
X207308423Y-128753498D01*
X207426629Y-128897406D01*
X207426629Y-129008000D01*
X205487000Y-129008000D01*
X205487000Y-126192606D01*
X207412606Y-124267000D01*
X210307394Y-124267000D01*
X212233000Y-126192606D01*
%TA.AperFunction,Conductor*%
D26*
G36*
X212233000Y-126192606D02*
G01*
X212233000Y-129008000D01*
X210393371Y-129008000D01*
X210393371Y-128898078D01*
X210523149Y-128736666D01*
X210540604Y-128709992D01*
X210558459Y-128683521D01*
X210560767Y-128679181D01*
X210705438Y-128402451D01*
X210717383Y-128372885D01*
X210729752Y-128343461D01*
X210731172Y-128338756D01*
X210819338Y-128039195D01*
X210825310Y-128007887D01*
X210831732Y-127976604D01*
X210832211Y-127971712D01*
X210860512Y-127660732D01*
X210860290Y-127628902D01*
X210860513Y-127596928D01*
X210860033Y-127592036D01*
X210827392Y-127281481D01*
X210820975Y-127250222D01*
X210814999Y-127218891D01*
X210813578Y-127214186D01*
X210721239Y-126915886D01*
X210708892Y-126886515D01*
X210696925Y-126856895D01*
X210694618Y-126852556D01*
X210546096Y-126577871D01*
X210528271Y-126551444D01*
X210510788Y-126524727D01*
X210507681Y-126520918D01*
X210308636Y-126280314D01*
X210286019Y-126257855D01*
X210263676Y-126235039D01*
X210259889Y-126231906D01*
X210017900Y-126034545D01*
X209991360Y-126016912D01*
X209965005Y-125998866D01*
X209960681Y-125996529D01*
X209684968Y-125849929D01*
X209655477Y-125837774D01*
X209626146Y-125825202D01*
X209621451Y-125823749D01*
X209322513Y-125733495D01*
X209291230Y-125727301D01*
X209260012Y-125720665D01*
X209255124Y-125720152D01*
X208944349Y-125689680D01*
X208928667Y-125689680D01*
X208913066Y-125688013D01*
X208908151Y-125688005D01*
X208891396Y-125688093D01*
X208876042Y-125689680D01*
X208875652Y-125689680D01*
X208875532Y-125689704D01*
X208860119Y-125689650D01*
X208855229Y-125690147D01*
X208544791Y-125723871D01*
X208513588Y-125730389D01*
X208482244Y-125736482D01*
X208477544Y-125737919D01*
X208179568Y-125831299D01*
X208150223Y-125843755D01*
X208120662Y-125855819D01*
X208116331Y-125858142D01*
X207842167Y-126007621D01*
X207815802Y-126025539D01*
X207789145Y-126043115D01*
X207785347Y-126046235D01*
X207545439Y-126246119D01*
X207523055Y-126268818D01*
X207500322Y-126291236D01*
X207497203Y-126295034D01*
X207300688Y-126537710D01*
X207283129Y-126564340D01*
X207265193Y-126590732D01*
X207262870Y-126595063D01*
X207117234Y-126871287D01*
X207105199Y-126900780D01*
X207092714Y-126930191D01*
X207091278Y-126934892D01*
X207002067Y-127234143D01*
X206995988Y-127265418D01*
X206989455Y-127296690D01*
X206988958Y-127301580D01*
X206959572Y-127612460D01*
X206959683Y-127644356D01*
X206959349Y-127676263D01*
X206959812Y-127681156D01*
X206991368Y-127991824D01*
X206997666Y-128023058D01*
X207003542Y-128054456D01*
X207004947Y-128059166D01*
X207096243Y-128357787D01*
X207108498Y-128387226D01*
X207120352Y-128416864D01*
X207122645Y-128421212D01*
X207270207Y-128696412D01*
X207287945Y-128722908D01*
X207305329Y-128749678D01*
X207308423Y-128753498D01*
X207426629Y-128897406D01*
X207426629Y-129008000D01*
X205487000Y-129008000D01*
X205487000Y-126192606D01*
X207412606Y-124267000D01*
X210307394Y-124267000D01*
X212233000Y-126192606D01*
G37*
%TD.AperFunction*%
%TD*%
D25*
%TO.N,/MOUNTING_3*%
X167783000Y-126192606D02*
X167783000Y-129008000D01*
X165893371Y-129008000D01*
X165893371Y-128898078D01*
X166023149Y-128736666D01*
X166040604Y-128709992D01*
X166058459Y-128683521D01*
X166060767Y-128679181D01*
X166205438Y-128402451D01*
X166217383Y-128372885D01*
X166229752Y-128343461D01*
X166231172Y-128338756D01*
X166319338Y-128039195D01*
X166325310Y-128007887D01*
X166331732Y-127976604D01*
X166332211Y-127971712D01*
X166360512Y-127660732D01*
X166360290Y-127628902D01*
X166360513Y-127596928D01*
X166360033Y-127592036D01*
X166327392Y-127281481D01*
X166320975Y-127250222D01*
X166314999Y-127218891D01*
X166313578Y-127214186D01*
X166221239Y-126915886D01*
X166208892Y-126886515D01*
X166196925Y-126856895D01*
X166194618Y-126852556D01*
X166046096Y-126577871D01*
X166028271Y-126551444D01*
X166010788Y-126524727D01*
X166007681Y-126520918D01*
X165808636Y-126280314D01*
X165786019Y-126257855D01*
X165763676Y-126235039D01*
X165759889Y-126231906D01*
X165517900Y-126034545D01*
X165491360Y-126016912D01*
X165465005Y-125998866D01*
X165460681Y-125996529D01*
X165184968Y-125849929D01*
X165155477Y-125837774D01*
X165126146Y-125825202D01*
X165121451Y-125823749D01*
X164822513Y-125733495D01*
X164791230Y-125727301D01*
X164760012Y-125720665D01*
X164755124Y-125720152D01*
X164444349Y-125689680D01*
X164428667Y-125689680D01*
X164413066Y-125688013D01*
X164408151Y-125688005D01*
X164391396Y-125688093D01*
X164376042Y-125689680D01*
X164375652Y-125689680D01*
X164375532Y-125689704D01*
X164360119Y-125689650D01*
X164355229Y-125690147D01*
X164044791Y-125723871D01*
X164013588Y-125730389D01*
X163982244Y-125736482D01*
X163977544Y-125737919D01*
X163679568Y-125831299D01*
X163650223Y-125843755D01*
X163620662Y-125855819D01*
X163616331Y-125858142D01*
X163342167Y-126007621D01*
X163315802Y-126025539D01*
X163289145Y-126043115D01*
X163285347Y-126046235D01*
X163045439Y-126246119D01*
X163023055Y-126268818D01*
X163000322Y-126291236D01*
X162997203Y-126295034D01*
X162800688Y-126537710D01*
X162783129Y-126564340D01*
X162765193Y-126590732D01*
X162762870Y-126595063D01*
X162617234Y-126871287D01*
X162605199Y-126900780D01*
X162592714Y-126930191D01*
X162591278Y-126934892D01*
X162502067Y-127234143D01*
X162495988Y-127265418D01*
X162489455Y-127296690D01*
X162488958Y-127301580D01*
X162459572Y-127612460D01*
X162459683Y-127644356D01*
X162459349Y-127676263D01*
X162459812Y-127681156D01*
X162491368Y-127991824D01*
X162497666Y-128023058D01*
X162503542Y-128054456D01*
X162504947Y-128059166D01*
X162596243Y-128357787D01*
X162608498Y-128387226D01*
X162620352Y-128416864D01*
X162622645Y-128421212D01*
X162770207Y-128696412D01*
X162787945Y-128722908D01*
X162805329Y-128749678D01*
X162808423Y-128753498D01*
X162926629Y-128897406D01*
X162926629Y-129008000D01*
X161037000Y-129008000D01*
X161037000Y-126192606D01*
X162962606Y-124267000D01*
X165857394Y-124267000D01*
X167783000Y-126192606D01*
%TA.AperFunction,Conductor*%
D26*
G36*
X167783000Y-126192606D02*
G01*
X167783000Y-129008000D01*
X165893371Y-129008000D01*
X165893371Y-128898078D01*
X166023149Y-128736666D01*
X166040604Y-128709992D01*
X166058459Y-128683521D01*
X166060767Y-128679181D01*
X166205438Y-128402451D01*
X166217383Y-128372885D01*
X166229752Y-128343461D01*
X166231172Y-128338756D01*
X166319338Y-128039195D01*
X166325310Y-128007887D01*
X166331732Y-127976604D01*
X166332211Y-127971712D01*
X166360512Y-127660732D01*
X166360290Y-127628902D01*
X166360513Y-127596928D01*
X166360033Y-127592036D01*
X166327392Y-127281481D01*
X166320975Y-127250222D01*
X166314999Y-127218891D01*
X166313578Y-127214186D01*
X166221239Y-126915886D01*
X166208892Y-126886515D01*
X166196925Y-126856895D01*
X166194618Y-126852556D01*
X166046096Y-126577871D01*
X166028271Y-126551444D01*
X166010788Y-126524727D01*
X166007681Y-126520918D01*
X165808636Y-126280314D01*
X165786019Y-126257855D01*
X165763676Y-126235039D01*
X165759889Y-126231906D01*
X165517900Y-126034545D01*
X165491360Y-126016912D01*
X165465005Y-125998866D01*
X165460681Y-125996529D01*
X165184968Y-125849929D01*
X165155477Y-125837774D01*
X165126146Y-125825202D01*
X165121451Y-125823749D01*
X164822513Y-125733495D01*
X164791230Y-125727301D01*
X164760012Y-125720665D01*
X164755124Y-125720152D01*
X164444349Y-125689680D01*
X164428667Y-125689680D01*
X164413066Y-125688013D01*
X164408151Y-125688005D01*
X164391396Y-125688093D01*
X164376042Y-125689680D01*
X164375652Y-125689680D01*
X164375532Y-125689704D01*
X164360119Y-125689650D01*
X164355229Y-125690147D01*
X164044791Y-125723871D01*
X164013588Y-125730389D01*
X163982244Y-125736482D01*
X163977544Y-125737919D01*
X163679568Y-125831299D01*
X163650223Y-125843755D01*
X163620662Y-125855819D01*
X163616331Y-125858142D01*
X163342167Y-126007621D01*
X163315802Y-126025539D01*
X163289145Y-126043115D01*
X163285347Y-126046235D01*
X163045439Y-126246119D01*
X163023055Y-126268818D01*
X163000322Y-126291236D01*
X162997203Y-126295034D01*
X162800688Y-126537710D01*
X162783129Y-126564340D01*
X162765193Y-126590732D01*
X162762870Y-126595063D01*
X162617234Y-126871287D01*
X162605199Y-126900780D01*
X162592714Y-126930191D01*
X162591278Y-126934892D01*
X162502067Y-127234143D01*
X162495988Y-127265418D01*
X162489455Y-127296690D01*
X162488958Y-127301580D01*
X162459572Y-127612460D01*
X162459683Y-127644356D01*
X162459349Y-127676263D01*
X162459812Y-127681156D01*
X162491368Y-127991824D01*
X162497666Y-128023058D01*
X162503542Y-128054456D01*
X162504947Y-128059166D01*
X162596243Y-128357787D01*
X162608498Y-128387226D01*
X162620352Y-128416864D01*
X162622645Y-128421212D01*
X162770207Y-128696412D01*
X162787945Y-128722908D01*
X162805329Y-128749678D01*
X162808423Y-128753498D01*
X162926629Y-128897406D01*
X162926629Y-129008000D01*
X161037000Y-129008000D01*
X161037000Y-126192606D01*
X162962606Y-124267000D01*
X165857394Y-124267000D01*
X167783000Y-126192606D01*
G37*
%TD.AperFunction*%
%TD*%
D25*
%TO.N,/MOUNTING_1*%
X162926629Y-31131922D02*
X162796850Y-31293334D01*
X162779385Y-31320024D01*
X162761541Y-31346478D01*
X162759234Y-31350818D01*
X162614562Y-31627549D01*
X162602612Y-31657126D01*
X162590248Y-31686539D01*
X162588828Y-31691244D01*
X162500662Y-31990805D01*
X162494688Y-32022119D01*
X162488268Y-32053396D01*
X162487789Y-32058288D01*
X162459488Y-32369268D01*
X162459710Y-32401099D01*
X162459487Y-32433073D01*
X162459967Y-32437964D01*
X162492608Y-32748520D01*
X162499026Y-32779786D01*
X162505001Y-32811109D01*
X162506422Y-32815814D01*
X162598761Y-33114114D01*
X162611108Y-33143485D01*
X162623075Y-33173105D01*
X162625383Y-33177445D01*
X162773904Y-33452129D01*
X162791735Y-33478565D01*
X162809213Y-33505274D01*
X162812319Y-33509082D01*
X163011365Y-33749687D01*
X163033981Y-33772145D01*
X163056324Y-33794961D01*
X163060111Y-33798094D01*
X163302100Y-33995455D01*
X163328658Y-34013100D01*
X163354996Y-34031134D01*
X163359319Y-34033471D01*
X163635033Y-34180071D01*
X163664484Y-34192210D01*
X163693853Y-34204798D01*
X163698549Y-34206251D01*
X163997486Y-34296505D01*
X164028763Y-34302698D01*
X164059987Y-34309335D01*
X164064876Y-34309848D01*
X164375650Y-34340320D01*
X164391333Y-34340320D01*
X164406934Y-34341987D01*
X164411849Y-34341995D01*
X164428604Y-34341907D01*
X164443958Y-34340320D01*
X164444348Y-34340320D01*
X164444468Y-34340296D01*
X164459880Y-34340350D01*
X164464770Y-34339853D01*
X164775209Y-34306129D01*
X164806412Y-34299611D01*
X164837756Y-34293518D01*
X164842456Y-34292081D01*
X165140432Y-34198701D01*
X165169777Y-34186245D01*
X165199338Y-34174181D01*
X165203669Y-34171858D01*
X165477834Y-34022379D01*
X165504193Y-34004465D01*
X165530855Y-33986885D01*
X165534653Y-33983765D01*
X165774561Y-33783881D01*
X165796962Y-33761165D01*
X165819678Y-33738764D01*
X165822797Y-33734966D01*
X166019313Y-33492289D01*
X166036866Y-33465669D01*
X166054807Y-33439269D01*
X166057130Y-33434937D01*
X166202766Y-33158713D01*
X166214807Y-33129206D01*
X166227286Y-33099808D01*
X166228722Y-33095108D01*
X166317934Y-32795856D01*
X166324019Y-32764549D01*
X166330546Y-32733309D01*
X166331042Y-32728419D01*
X166360428Y-32417540D01*
X166360317Y-32385645D01*
X166360651Y-32353737D01*
X166360188Y-32348844D01*
X166328632Y-32038177D01*
X166322335Y-32006950D01*
X166316458Y-31975544D01*
X166315053Y-31970833D01*
X166223756Y-31672213D01*
X166211511Y-31642795D01*
X166199648Y-31613136D01*
X166197355Y-31608788D01*
X166049793Y-31333588D01*
X166032055Y-31307092D01*
X166014671Y-31280322D01*
X166011577Y-31276502D01*
X165893371Y-31132595D01*
X165893371Y-31012000D01*
X167783000Y-31012000D01*
X167783000Y-33837394D01*
X165857394Y-35763000D01*
X162962606Y-35763000D01*
X161037000Y-33837394D01*
X161037000Y-31012000D01*
X162926629Y-31012000D01*
X162926629Y-31131922D01*
%TA.AperFunction,Conductor*%
D26*
G36*
X162926629Y-31131922D02*
G01*
X162796850Y-31293334D01*
X162779385Y-31320024D01*
X162761541Y-31346478D01*
X162759234Y-31350818D01*
X162614562Y-31627549D01*
X162602612Y-31657126D01*
X162590248Y-31686539D01*
X162588828Y-31691244D01*
X162500662Y-31990805D01*
X162494688Y-32022119D01*
X162488268Y-32053396D01*
X162487789Y-32058288D01*
X162459488Y-32369268D01*
X162459710Y-32401099D01*
X162459487Y-32433073D01*
X162459967Y-32437964D01*
X162492608Y-32748520D01*
X162499026Y-32779786D01*
X162505001Y-32811109D01*
X162506422Y-32815814D01*
X162598761Y-33114114D01*
X162611108Y-33143485D01*
X162623075Y-33173105D01*
X162625383Y-33177445D01*
X162773904Y-33452129D01*
X162791735Y-33478565D01*
X162809213Y-33505274D01*
X162812319Y-33509082D01*
X163011365Y-33749687D01*
X163033981Y-33772145D01*
X163056324Y-33794961D01*
X163060111Y-33798094D01*
X163302100Y-33995455D01*
X163328658Y-34013100D01*
X163354996Y-34031134D01*
X163359319Y-34033471D01*
X163635033Y-34180071D01*
X163664484Y-34192210D01*
X163693853Y-34204798D01*
X163698549Y-34206251D01*
X163997486Y-34296505D01*
X164028763Y-34302698D01*
X164059987Y-34309335D01*
X164064876Y-34309848D01*
X164375650Y-34340320D01*
X164391333Y-34340320D01*
X164406934Y-34341987D01*
X164411849Y-34341995D01*
X164428604Y-34341907D01*
X164443958Y-34340320D01*
X164444348Y-34340320D01*
X164444468Y-34340296D01*
X164459880Y-34340350D01*
X164464770Y-34339853D01*
X164775209Y-34306129D01*
X164806412Y-34299611D01*
X164837756Y-34293518D01*
X164842456Y-34292081D01*
X165140432Y-34198701D01*
X165169777Y-34186245D01*
X165199338Y-34174181D01*
X165203669Y-34171858D01*
X165477834Y-34022379D01*
X165504193Y-34004465D01*
X165530855Y-33986885D01*
X165534653Y-33983765D01*
X165774561Y-33783881D01*
X165796962Y-33761165D01*
X165819678Y-33738764D01*
X165822797Y-33734966D01*
X166019313Y-33492289D01*
X166036866Y-33465669D01*
X166054807Y-33439269D01*
X166057130Y-33434937D01*
X166202766Y-33158713D01*
X166214807Y-33129206D01*
X166227286Y-33099808D01*
X166228722Y-33095108D01*
X166317934Y-32795856D01*
X166324019Y-32764549D01*
X166330546Y-32733309D01*
X166331042Y-32728419D01*
X166360428Y-32417540D01*
X166360317Y-32385645D01*
X166360651Y-32353737D01*
X166360188Y-32348844D01*
X166328632Y-32038177D01*
X166322335Y-32006950D01*
X166316458Y-31975544D01*
X166315053Y-31970833D01*
X166223756Y-31672213D01*
X166211511Y-31642795D01*
X166199648Y-31613136D01*
X166197355Y-31608788D01*
X166049793Y-31333588D01*
X166032055Y-31307092D01*
X166014671Y-31280322D01*
X166011577Y-31276502D01*
X165893371Y-31132595D01*
X165893371Y-31012000D01*
X167783000Y-31012000D01*
X167783000Y-33837394D01*
X165857394Y-35763000D01*
X162962606Y-35763000D01*
X161037000Y-33837394D01*
X161037000Y-31012000D01*
X162926629Y-31012000D01*
X162926629Y-31131922D01*
G37*
%TD.AperFunction*%
%TD*%
D25*
%TO.N,/MOUNTING_2*%
X207426629Y-31131922D02*
X207296850Y-31293334D01*
X207279385Y-31320024D01*
X207261541Y-31346478D01*
X207259234Y-31350818D01*
X207114562Y-31627549D01*
X207102612Y-31657126D01*
X207090248Y-31686539D01*
X207088828Y-31691244D01*
X207000662Y-31990805D01*
X206994688Y-32022119D01*
X206988268Y-32053396D01*
X206987789Y-32058288D01*
X206959488Y-32369268D01*
X206959710Y-32401099D01*
X206959487Y-32433073D01*
X206959967Y-32437964D01*
X206992608Y-32748520D01*
X206999026Y-32779786D01*
X207005001Y-32811109D01*
X207006422Y-32815814D01*
X207098761Y-33114114D01*
X207111108Y-33143485D01*
X207123075Y-33173105D01*
X207125383Y-33177445D01*
X207273904Y-33452129D01*
X207291735Y-33478565D01*
X207309213Y-33505274D01*
X207312319Y-33509082D01*
X207511365Y-33749687D01*
X207533981Y-33772145D01*
X207556324Y-33794961D01*
X207560111Y-33798094D01*
X207802100Y-33995455D01*
X207828658Y-34013100D01*
X207854996Y-34031134D01*
X207859319Y-34033471D01*
X208135033Y-34180071D01*
X208164484Y-34192210D01*
X208193853Y-34204798D01*
X208198549Y-34206251D01*
X208497486Y-34296505D01*
X208528763Y-34302698D01*
X208559987Y-34309335D01*
X208564876Y-34309848D01*
X208875650Y-34340320D01*
X208891333Y-34340320D01*
X208906934Y-34341987D01*
X208911849Y-34341995D01*
X208928604Y-34341907D01*
X208943958Y-34340320D01*
X208944348Y-34340320D01*
X208944468Y-34340296D01*
X208959880Y-34340350D01*
X208964770Y-34339853D01*
X209275209Y-34306129D01*
X209306412Y-34299611D01*
X209337756Y-34293518D01*
X209342456Y-34292081D01*
X209640432Y-34198701D01*
X209669777Y-34186245D01*
X209699338Y-34174181D01*
X209703669Y-34171858D01*
X209977834Y-34022379D01*
X210004193Y-34004465D01*
X210030855Y-33986885D01*
X210034653Y-33983765D01*
X210274561Y-33783881D01*
X210296962Y-33761165D01*
X210319678Y-33738764D01*
X210322797Y-33734966D01*
X210519313Y-33492289D01*
X210536866Y-33465669D01*
X210554807Y-33439269D01*
X210557130Y-33434937D01*
X210702766Y-33158713D01*
X210714807Y-33129206D01*
X210727286Y-33099808D01*
X210728722Y-33095108D01*
X210817934Y-32795856D01*
X210824019Y-32764549D01*
X210830546Y-32733309D01*
X210831042Y-32728419D01*
X210860428Y-32417540D01*
X210860317Y-32385645D01*
X210860651Y-32353737D01*
X210860188Y-32348844D01*
X210828632Y-32038177D01*
X210822335Y-32006950D01*
X210816458Y-31975544D01*
X210815053Y-31970833D01*
X210723756Y-31672213D01*
X210711511Y-31642795D01*
X210699648Y-31613136D01*
X210697355Y-31608788D01*
X210549793Y-31333588D01*
X210532055Y-31307092D01*
X210514671Y-31280322D01*
X210511577Y-31276502D01*
X210393371Y-31132595D01*
X210393371Y-31012000D01*
X212233000Y-31012000D01*
X212233000Y-33837394D01*
X210307394Y-35763000D01*
X207412606Y-35763000D01*
X205487000Y-33837394D01*
X205487000Y-31012000D01*
X207426629Y-31012000D01*
X207426629Y-31131922D01*
%TA.AperFunction,Conductor*%
D26*
G36*
X207426629Y-31131922D02*
G01*
X207296850Y-31293334D01*
X207279385Y-31320024D01*
X207261541Y-31346478D01*
X207259234Y-31350818D01*
X207114562Y-31627549D01*
X207102612Y-31657126D01*
X207090248Y-31686539D01*
X207088828Y-31691244D01*
X207000662Y-31990805D01*
X206994688Y-32022119D01*
X206988268Y-32053396D01*
X206987789Y-32058288D01*
X206959488Y-32369268D01*
X206959710Y-32401099D01*
X206959487Y-32433073D01*
X206959967Y-32437964D01*
X206992608Y-32748520D01*
X206999026Y-32779786D01*
X207005001Y-32811109D01*
X207006422Y-32815814D01*
X207098761Y-33114114D01*
X207111108Y-33143485D01*
X207123075Y-33173105D01*
X207125383Y-33177445D01*
X207273904Y-33452129D01*
X207291735Y-33478565D01*
X207309213Y-33505274D01*
X207312319Y-33509082D01*
X207511365Y-33749687D01*
X207533981Y-33772145D01*
X207556324Y-33794961D01*
X207560111Y-33798094D01*
X207802100Y-33995455D01*
X207828658Y-34013100D01*
X207854996Y-34031134D01*
X207859319Y-34033471D01*
X208135033Y-34180071D01*
X208164484Y-34192210D01*
X208193853Y-34204798D01*
X208198549Y-34206251D01*
X208497486Y-34296505D01*
X208528763Y-34302698D01*
X208559987Y-34309335D01*
X208564876Y-34309848D01*
X208875650Y-34340320D01*
X208891333Y-34340320D01*
X208906934Y-34341987D01*
X208911849Y-34341995D01*
X208928604Y-34341907D01*
X208943958Y-34340320D01*
X208944348Y-34340320D01*
X208944468Y-34340296D01*
X208959880Y-34340350D01*
X208964770Y-34339853D01*
X209275209Y-34306129D01*
X209306412Y-34299611D01*
X209337756Y-34293518D01*
X209342456Y-34292081D01*
X209640432Y-34198701D01*
X209669777Y-34186245D01*
X209699338Y-34174181D01*
X209703669Y-34171858D01*
X209977834Y-34022379D01*
X210004193Y-34004465D01*
X210030855Y-33986885D01*
X210034653Y-33983765D01*
X210274561Y-33783881D01*
X210296962Y-33761165D01*
X210319678Y-33738764D01*
X210322797Y-33734966D01*
X210519313Y-33492289D01*
X210536866Y-33465669D01*
X210554807Y-33439269D01*
X210557130Y-33434937D01*
X210702766Y-33158713D01*
X210714807Y-33129206D01*
X210727286Y-33099808D01*
X210728722Y-33095108D01*
X210817934Y-32795856D01*
X210824019Y-32764549D01*
X210830546Y-32733309D01*
X210831042Y-32728419D01*
X210860428Y-32417540D01*
X210860317Y-32385645D01*
X210860651Y-32353737D01*
X210860188Y-32348844D01*
X210828632Y-32038177D01*
X210822335Y-32006950D01*
X210816458Y-31975544D01*
X210815053Y-31970833D01*
X210723756Y-31672213D01*
X210711511Y-31642795D01*
X210699648Y-31613136D01*
X210697355Y-31608788D01*
X210549793Y-31333588D01*
X210532055Y-31307092D01*
X210514671Y-31280322D01*
X210511577Y-31276502D01*
X210393371Y-31132595D01*
X210393371Y-31012000D01*
X212233000Y-31012000D01*
X212233000Y-33837394D01*
X210307394Y-35763000D01*
X207412606Y-35763000D01*
X205487000Y-33837394D01*
X205487000Y-31012000D01*
X207426629Y-31012000D01*
X207426629Y-31131922D01*
G37*
%TD.AperFunction*%
%TD*%
D25*
%TO.N,+3V3*%
X168402000Y-101656250D02*
X168560750Y-101815000D01*
X169125000Y-101818072D01*
X169249482Y-101805812D01*
X169369180Y-101769502D01*
X169389550Y-101758614D01*
X169409327Y-101771828D01*
X169705422Y-101894475D01*
X170019755Y-101957000D01*
X170340245Y-101957000D01*
X170354549Y-101954155D01*
X178932692Y-110532298D01*
X178871681Y-110679590D01*
X178813000Y-110974604D01*
X178813000Y-111275396D01*
X178871681Y-111570410D01*
X178943000Y-111742588D01*
X178943000Y-115587412D01*
X178871681Y-115759590D01*
X178813000Y-116054604D01*
X178813000Y-116355396D01*
X178871681Y-116650410D01*
X178943000Y-116822588D01*
X178943000Y-116840000D01*
X178945440Y-116864776D01*
X178952667Y-116888601D01*
X178964403Y-116910557D01*
X178980197Y-116929803D01*
X179003080Y-116952686D01*
X179153901Y-117178406D01*
X179366594Y-117391099D01*
X179592314Y-117541920D01*
X179633000Y-117582606D01*
X179633000Y-117669718D01*
X179708975Y-118051670D01*
X179858005Y-118411461D01*
X180074364Y-118735264D01*
X180201646Y-118862546D01*
X180170498Y-118920820D01*
X180134188Y-119040518D01*
X180121928Y-119165000D01*
X180125000Y-119729250D01*
X180283750Y-119888000D01*
X181483000Y-119888000D01*
X181483000Y-120142000D01*
X180283750Y-120142000D01*
X180125000Y-120300750D01*
X180121928Y-120865000D01*
X180134188Y-120989482D01*
X180170498Y-121109180D01*
X180181386Y-121129550D01*
X180168172Y-121149327D01*
X180164580Y-121158000D01*
X176582606Y-121158000D01*
X167767000Y-112342394D01*
X167767000Y-101816210D01*
X167989250Y-101815000D01*
X168148000Y-101656250D01*
X168148000Y-100457000D01*
X168402000Y-100457000D01*
X168402000Y-101656250D01*
%TA.AperFunction,Conductor*%
D26*
G36*
X168402000Y-101656250D02*
G01*
X168560750Y-101815000D01*
X169125000Y-101818072D01*
X169249482Y-101805812D01*
X169369180Y-101769502D01*
X169389550Y-101758614D01*
X169409327Y-101771828D01*
X169705422Y-101894475D01*
X170019755Y-101957000D01*
X170340245Y-101957000D01*
X170354549Y-101954155D01*
X178932692Y-110532298D01*
X178871681Y-110679590D01*
X178813000Y-110974604D01*
X178813000Y-111275396D01*
X178871681Y-111570410D01*
X178943000Y-111742588D01*
X178943000Y-115587412D01*
X178871681Y-115759590D01*
X178813000Y-116054604D01*
X178813000Y-116355396D01*
X178871681Y-116650410D01*
X178943000Y-116822588D01*
X178943000Y-116840000D01*
X178945440Y-116864776D01*
X178952667Y-116888601D01*
X178964403Y-116910557D01*
X178980197Y-116929803D01*
X179003080Y-116952686D01*
X179153901Y-117178406D01*
X179366594Y-117391099D01*
X179592314Y-117541920D01*
X179633000Y-117582606D01*
X179633000Y-117669718D01*
X179708975Y-118051670D01*
X179858005Y-118411461D01*
X180074364Y-118735264D01*
X180201646Y-118862546D01*
X180170498Y-118920820D01*
X180134188Y-119040518D01*
X180121928Y-119165000D01*
X180125000Y-119729250D01*
X180283750Y-119888000D01*
X181483000Y-119888000D01*
X181483000Y-120142000D01*
X180283750Y-120142000D01*
X180125000Y-120300750D01*
X180121928Y-120865000D01*
X180134188Y-120989482D01*
X180170498Y-121109180D01*
X180181386Y-121129550D01*
X180168172Y-121149327D01*
X180164580Y-121158000D01*
X176582606Y-121158000D01*
X167767000Y-112342394D01*
X167767000Y-101816210D01*
X167989250Y-101815000D01*
X168148000Y-101656250D01*
X168148000Y-100457000D01*
X168402000Y-100457000D01*
X168402000Y-101656250D01*
G37*
%TD.AperFunction*%
%TD*%
D25*
%TO.N,+3V3*%
X208620525Y-72229578D02*
X208743172Y-72525673D01*
X208921227Y-72792152D01*
X209147848Y-73018773D01*
X209414327Y-73196828D01*
X209710422Y-73319475D01*
X210024755Y-73382000D01*
X210345245Y-73382000D01*
X210659578Y-73319475D01*
X210854238Y-73238844D01*
X211035731Y-73420337D01*
X211189364Y-73650264D01*
X211199100Y-73660000D01*
X211189364Y-73669736D01*
X210973005Y-73993539D01*
X210823975Y-74353330D01*
X210748000Y-74735282D01*
X210748000Y-75124718D01*
X210823975Y-75506670D01*
X210973005Y-75866461D01*
X211189364Y-76190264D01*
X211199100Y-76200000D01*
X211189364Y-76209736D01*
X210973005Y-76533539D01*
X210823975Y-76893330D01*
X210748000Y-77275282D01*
X210748000Y-77664718D01*
X210823975Y-78046670D01*
X210973005Y-78406461D01*
X211189364Y-78730264D01*
X211328000Y-78868900D01*
X211328000Y-81104580D01*
X211319327Y-81108172D01*
X211052848Y-81286227D01*
X210826227Y-81512848D01*
X210648172Y-81779327D01*
X210525525Y-82075422D01*
X210463000Y-82389755D01*
X210463000Y-82710245D01*
X210525525Y-83024578D01*
X210648172Y-83320673D01*
X210826227Y-83587152D01*
X211052848Y-83813773D01*
X211062167Y-83820000D01*
X211052848Y-83826227D01*
X210826227Y-84052848D01*
X210648172Y-84319327D01*
X210525525Y-84615422D01*
X210463000Y-84929755D01*
X210463000Y-85250245D01*
X210525525Y-85564578D01*
X210648172Y-85860673D01*
X210826227Y-86127152D01*
X211052848Y-86353773D01*
X211319327Y-86531828D01*
X211537658Y-86622264D01*
X212658080Y-87742686D01*
X212808901Y-87968406D01*
X213021594Y-88181099D01*
X213247314Y-88331920D01*
X214648000Y-89732606D01*
X214648000Y-109793504D01*
X214641943Y-109855000D01*
X214648000Y-109916496D01*
X214648000Y-109916497D01*
X214666116Y-110100434D01*
X214737707Y-110336437D01*
X214853964Y-110553938D01*
X215010419Y-110744581D01*
X215058192Y-110783787D01*
X215138000Y-110863595D01*
X215138000Y-111557237D01*
X215093172Y-111624327D01*
X214970525Y-111920422D01*
X214908000Y-112234755D01*
X214908000Y-112555245D01*
X214970525Y-112869578D01*
X215093172Y-113165673D01*
X215138000Y-113232763D01*
X215138000Y-114124580D01*
X215129327Y-114128172D01*
X214862848Y-114306227D01*
X214636227Y-114532848D01*
X214458172Y-114799327D01*
X214367736Y-115017658D01*
X213942394Y-115443000D01*
X212892438Y-115443000D01*
X212860423Y-115429739D01*
X212449491Y-115348000D01*
X212030509Y-115348000D01*
X211619577Y-115429739D01*
X211587562Y-115443000D01*
X209752763Y-115443000D01*
X209685673Y-115398172D01*
X209389578Y-115275525D01*
X209075245Y-115213000D01*
X208754755Y-115213000D01*
X208440422Y-115275525D01*
X208407000Y-115289369D01*
X208407000Y-112895139D01*
X208557777Y-112832685D01*
X208873391Y-112621799D01*
X209141799Y-112353391D01*
X209352685Y-112037777D01*
X209497947Y-111687085D01*
X209572000Y-111314793D01*
X209572000Y-110935207D01*
X209497947Y-110562915D01*
X209352685Y-110212223D01*
X209141799Y-109896609D01*
X208873391Y-109628201D01*
X208557777Y-109417315D01*
X208407000Y-109354861D01*
X208407000Y-105275139D01*
X208557777Y-105212685D01*
X208873391Y-105001799D01*
X208884711Y-104990479D01*
X209075422Y-105069475D01*
X209389755Y-105132000D01*
X209710245Y-105132000D01*
X210024578Y-105069475D01*
X210320673Y-104946828D01*
X210587152Y-104768773D01*
X210813773Y-104542152D01*
X210991828Y-104275673D01*
X211114475Y-103979578D01*
X211177000Y-103665245D01*
X211177000Y-103344755D01*
X211114475Y-103030422D01*
X210991828Y-102734327D01*
X210813773Y-102467848D01*
X210587152Y-102241227D01*
X210320673Y-102063172D01*
X210024578Y-101940525D01*
X209710245Y-101878000D01*
X209389755Y-101878000D01*
X209075422Y-101940525D01*
X208884711Y-102019521D01*
X208873391Y-102008201D01*
X208557777Y-101797315D01*
X208207085Y-101652053D01*
X207834793Y-101578000D01*
X207488595Y-101578000D01*
X205087000Y-99176405D01*
X205087000Y-89135482D01*
X205240673Y-89071828D01*
X205507152Y-88893773D01*
X205733773Y-88667152D01*
X205911828Y-88400673D01*
X206034475Y-88104578D01*
X206097000Y-87790245D01*
X206097000Y-87469755D01*
X206034475Y-87155422D01*
X205911828Y-86859327D01*
X205733773Y-86592848D01*
X205507152Y-86366227D01*
X205240673Y-86188172D01*
X204944578Y-86065525D01*
X204630245Y-86003000D01*
X204597000Y-86003000D01*
X204597000Y-79992588D01*
X204668319Y-79820410D01*
X204727000Y-79525396D01*
X204727000Y-79224604D01*
X204668319Y-78929590D01*
X204643907Y-78870654D01*
X204764475Y-78579578D01*
X204827000Y-78265245D01*
X204827000Y-77944755D01*
X204764475Y-77630422D01*
X204641828Y-77334327D01*
X204463773Y-77067848D01*
X204237152Y-76841227D01*
X203970673Y-76663172D01*
X203901200Y-76634395D01*
X204904395Y-75631200D01*
X204933172Y-75700673D01*
X205111227Y-75967152D01*
X205337848Y-76193773D01*
X205604327Y-76371828D01*
X205900422Y-76494475D01*
X206214755Y-76557000D01*
X206535245Y-76557000D01*
X206849578Y-76494475D01*
X207145673Y-76371828D01*
X207412152Y-76193773D01*
X207638773Y-75967152D01*
X207816828Y-75700673D01*
X207939475Y-75404578D01*
X208002000Y-75090245D01*
X208002000Y-74769755D01*
X207939475Y-74455422D01*
X207816828Y-74159327D01*
X207638773Y-73892848D01*
X207412152Y-73666227D01*
X207145673Y-73488172D01*
X207076200Y-73459395D01*
X208568345Y-71967250D01*
X208620525Y-72229578D01*
%TA.AperFunction,Conductor*%
D26*
G36*
X208620525Y-72229578D02*
G01*
X208743172Y-72525673D01*
X208921227Y-72792152D01*
X209147848Y-73018773D01*
X209414327Y-73196828D01*
X209710422Y-73319475D01*
X210024755Y-73382000D01*
X210345245Y-73382000D01*
X210659578Y-73319475D01*
X210854238Y-73238844D01*
X211035731Y-73420337D01*
X211189364Y-73650264D01*
X211199100Y-73660000D01*
X211189364Y-73669736D01*
X210973005Y-73993539D01*
X210823975Y-74353330D01*
X210748000Y-74735282D01*
X210748000Y-75124718D01*
X210823975Y-75506670D01*
X210973005Y-75866461D01*
X211189364Y-76190264D01*
X211199100Y-76200000D01*
X211189364Y-76209736D01*
X210973005Y-76533539D01*
X210823975Y-76893330D01*
X210748000Y-77275282D01*
X210748000Y-77664718D01*
X210823975Y-78046670D01*
X210973005Y-78406461D01*
X211189364Y-78730264D01*
X211328000Y-78868900D01*
X211328000Y-81104580D01*
X211319327Y-81108172D01*
X211052848Y-81286227D01*
X210826227Y-81512848D01*
X210648172Y-81779327D01*
X210525525Y-82075422D01*
X210463000Y-82389755D01*
X210463000Y-82710245D01*
X210525525Y-83024578D01*
X210648172Y-83320673D01*
X210826227Y-83587152D01*
X211052848Y-83813773D01*
X211062167Y-83820000D01*
X211052848Y-83826227D01*
X210826227Y-84052848D01*
X210648172Y-84319327D01*
X210525525Y-84615422D01*
X210463000Y-84929755D01*
X210463000Y-85250245D01*
X210525525Y-85564578D01*
X210648172Y-85860673D01*
X210826227Y-86127152D01*
X211052848Y-86353773D01*
X211319327Y-86531828D01*
X211537658Y-86622264D01*
X212658080Y-87742686D01*
X212808901Y-87968406D01*
X213021594Y-88181099D01*
X213247314Y-88331920D01*
X214648000Y-89732606D01*
X214648000Y-109793504D01*
X214641943Y-109855000D01*
X214648000Y-109916496D01*
X214648000Y-109916497D01*
X214666116Y-110100434D01*
X214737707Y-110336437D01*
X214853964Y-110553938D01*
X215010419Y-110744581D01*
X215058192Y-110783787D01*
X215138000Y-110863595D01*
X215138000Y-111557237D01*
X215093172Y-111624327D01*
X214970525Y-111920422D01*
X214908000Y-112234755D01*
X214908000Y-112555245D01*
X214970525Y-112869578D01*
X215093172Y-113165673D01*
X215138000Y-113232763D01*
X215138000Y-114124580D01*
X215129327Y-114128172D01*
X214862848Y-114306227D01*
X214636227Y-114532848D01*
X214458172Y-114799327D01*
X214367736Y-115017658D01*
X213942394Y-115443000D01*
X212892438Y-115443000D01*
X212860423Y-115429739D01*
X212449491Y-115348000D01*
X212030509Y-115348000D01*
X211619577Y-115429739D01*
X211587562Y-115443000D01*
X209752763Y-115443000D01*
X209685673Y-115398172D01*
X209389578Y-115275525D01*
X209075245Y-115213000D01*
X208754755Y-115213000D01*
X208440422Y-115275525D01*
X208407000Y-115289369D01*
X208407000Y-112895139D01*
X208557777Y-112832685D01*
X208873391Y-112621799D01*
X209141799Y-112353391D01*
X209352685Y-112037777D01*
X209497947Y-111687085D01*
X209572000Y-111314793D01*
X209572000Y-110935207D01*
X209497947Y-110562915D01*
X209352685Y-110212223D01*
X209141799Y-109896609D01*
X208873391Y-109628201D01*
X208557777Y-109417315D01*
X208407000Y-109354861D01*
X208407000Y-105275139D01*
X208557777Y-105212685D01*
X208873391Y-105001799D01*
X208884711Y-104990479D01*
X209075422Y-105069475D01*
X209389755Y-105132000D01*
X209710245Y-105132000D01*
X210024578Y-105069475D01*
X210320673Y-104946828D01*
X210587152Y-104768773D01*
X210813773Y-104542152D01*
X210991828Y-104275673D01*
X211114475Y-103979578D01*
X211177000Y-103665245D01*
X211177000Y-103344755D01*
X211114475Y-103030422D01*
X210991828Y-102734327D01*
X210813773Y-102467848D01*
X210587152Y-102241227D01*
X210320673Y-102063172D01*
X210024578Y-101940525D01*
X209710245Y-101878000D01*
X209389755Y-101878000D01*
X209075422Y-101940525D01*
X208884711Y-102019521D01*
X208873391Y-102008201D01*
X208557777Y-101797315D01*
X208207085Y-101652053D01*
X207834793Y-101578000D01*
X207488595Y-101578000D01*
X205087000Y-99176405D01*
X205087000Y-89135482D01*
X205240673Y-89071828D01*
X205507152Y-88893773D01*
X205733773Y-88667152D01*
X205911828Y-88400673D01*
X206034475Y-88104578D01*
X206097000Y-87790245D01*
X206097000Y-87469755D01*
X206034475Y-87155422D01*
X205911828Y-86859327D01*
X205733773Y-86592848D01*
X205507152Y-86366227D01*
X205240673Y-86188172D01*
X204944578Y-86065525D01*
X204630245Y-86003000D01*
X204597000Y-86003000D01*
X204597000Y-79992588D01*
X204668319Y-79820410D01*
X204727000Y-79525396D01*
X204727000Y-79224604D01*
X204668319Y-78929590D01*
X204643907Y-78870654D01*
X204764475Y-78579578D01*
X204827000Y-78265245D01*
X204827000Y-77944755D01*
X204764475Y-77630422D01*
X204641828Y-77334327D01*
X204463773Y-77067848D01*
X204237152Y-76841227D01*
X203970673Y-76663172D01*
X203901200Y-76634395D01*
X204904395Y-75631200D01*
X204933172Y-75700673D01*
X205111227Y-75967152D01*
X205337848Y-76193773D01*
X205604327Y-76371828D01*
X205900422Y-76494475D01*
X206214755Y-76557000D01*
X206535245Y-76557000D01*
X206849578Y-76494475D01*
X207145673Y-76371828D01*
X207412152Y-76193773D01*
X207638773Y-75967152D01*
X207816828Y-75700673D01*
X207939475Y-75404578D01*
X208002000Y-75090245D01*
X208002000Y-74769755D01*
X207939475Y-74455422D01*
X207816828Y-74159327D01*
X207638773Y-73892848D01*
X207412152Y-73666227D01*
X207145673Y-73488172D01*
X207076200Y-73459395D01*
X208568345Y-71967250D01*
X208620525Y-72229578D01*
G37*
%TD.AperFunction*%
%TD*%
D25*
%TO.N,+3V3*%
X200638000Y-41432606D02*
X200638000Y-41464793D01*
X200712053Y-41837085D01*
X200857315Y-42187777D01*
X201068201Y-42503391D01*
X201168000Y-42603190D01*
X201168000Y-43441405D01*
X197913192Y-46696213D01*
X197865419Y-46735419D01*
X197708964Y-46926062D01*
X197592707Y-47143563D01*
X197521116Y-47379566D01*
X197503000Y-47563502D01*
X197496943Y-47625000D01*
X197503000Y-47686496D01*
X197503000Y-49173000D01*
X197324755Y-49173000D01*
X197010422Y-49235525D01*
X196714327Y-49358172D01*
X196447848Y-49536227D01*
X196221227Y-49762848D01*
X196043172Y-50029327D01*
X195920525Y-50325422D01*
X195858000Y-50639755D01*
X195858000Y-50960245D01*
X195920525Y-51274578D01*
X195934369Y-51308000D01*
X188002333Y-51308000D01*
X185547000Y-49466500D01*
X185547000Y-47512925D01*
X185652848Y-47618773D01*
X185919327Y-47796828D01*
X186215422Y-47919475D01*
X186529755Y-47982000D01*
X186850245Y-47982000D01*
X187164578Y-47919475D01*
X187460673Y-47796828D01*
X187727152Y-47618773D01*
X187953773Y-47392152D01*
X188131828Y-47125673D01*
X188181528Y-47005688D01*
X188522085Y-46937947D01*
X188872777Y-46792685D01*
X189188391Y-46581799D01*
X189230000Y-46540190D01*
X189271609Y-46581799D01*
X189587223Y-46792685D01*
X189937915Y-46937947D01*
X190310207Y-47012000D01*
X190689793Y-47012000D01*
X191062085Y-46937947D01*
X191412777Y-46792685D01*
X191728391Y-46581799D01*
X191996799Y-46313391D01*
X192008043Y-46296563D01*
X194416841Y-43887766D01*
X194542848Y-44013773D01*
X194809327Y-44191828D01*
X195105422Y-44314475D01*
X195419755Y-44377000D01*
X195740245Y-44377000D01*
X196054578Y-44314475D01*
X196350673Y-44191828D01*
X196617152Y-44013773D01*
X196843773Y-43787152D01*
X197021828Y-43520673D01*
X197144475Y-43224578D01*
X197207000Y-42910245D01*
X197207000Y-42589755D01*
X197144475Y-42275422D01*
X197021828Y-41979327D01*
X196843773Y-41712848D01*
X196717766Y-41586841D01*
X197537606Y-40767000D01*
X199972394Y-40767000D01*
X200638000Y-41432606D01*
%TA.AperFunction,Conductor*%
D26*
G36*
X200638000Y-41432606D02*
G01*
X200638000Y-41464793D01*
X200712053Y-41837085D01*
X200857315Y-42187777D01*
X201068201Y-42503391D01*
X201168000Y-42603190D01*
X201168000Y-43441405D01*
X197913192Y-46696213D01*
X197865419Y-46735419D01*
X197708964Y-46926062D01*
X197592707Y-47143563D01*
X197521116Y-47379566D01*
X197503000Y-47563502D01*
X197496943Y-47625000D01*
X197503000Y-47686496D01*
X197503000Y-49173000D01*
X197324755Y-49173000D01*
X197010422Y-49235525D01*
X196714327Y-49358172D01*
X196447848Y-49536227D01*
X196221227Y-49762848D01*
X196043172Y-50029327D01*
X195920525Y-50325422D01*
X195858000Y-50639755D01*
X195858000Y-50960245D01*
X195920525Y-51274578D01*
X195934369Y-51308000D01*
X188002333Y-51308000D01*
X185547000Y-49466500D01*
X185547000Y-47512925D01*
X185652848Y-47618773D01*
X185919327Y-47796828D01*
X186215422Y-47919475D01*
X186529755Y-47982000D01*
X186850245Y-47982000D01*
X187164578Y-47919475D01*
X187460673Y-47796828D01*
X187727152Y-47618773D01*
X187953773Y-47392152D01*
X188131828Y-47125673D01*
X188181528Y-47005688D01*
X188522085Y-46937947D01*
X188872777Y-46792685D01*
X189188391Y-46581799D01*
X189230000Y-46540190D01*
X189271609Y-46581799D01*
X189587223Y-46792685D01*
X189937915Y-46937947D01*
X190310207Y-47012000D01*
X190689793Y-47012000D01*
X191062085Y-46937947D01*
X191412777Y-46792685D01*
X191728391Y-46581799D01*
X191996799Y-46313391D01*
X192008043Y-46296563D01*
X194416841Y-43887766D01*
X194542848Y-44013773D01*
X194809327Y-44191828D01*
X195105422Y-44314475D01*
X195419755Y-44377000D01*
X195740245Y-44377000D01*
X196054578Y-44314475D01*
X196350673Y-44191828D01*
X196617152Y-44013773D01*
X196843773Y-43787152D01*
X197021828Y-43520673D01*
X197144475Y-43224578D01*
X197207000Y-42910245D01*
X197207000Y-42589755D01*
X197144475Y-42275422D01*
X197021828Y-41979327D01*
X196843773Y-41712848D01*
X196717766Y-41586841D01*
X197537606Y-40767000D01*
X199972394Y-40767000D01*
X200638000Y-41432606D01*
G37*
%TD.AperFunction*%
%TD*%
M02*
