%TF.GenerationSoftware,KiCad,Pcbnew,(5.1.9)-1*%
%TF.CreationDate,2021-10-24T18:26:44+08:00*%
%TF.ProjectId,XTA-35-TH,5854412d-3335-42d5-9448-2e6b69636164,rev?*%
%TF.SameCoordinates,Original*%
%TF.FileFunction,Copper,L2,Inr*%
%TF.FilePolarity,Positive*%
%FSLAX46Y46*%
G04 Gerber Fmt 4.6, Leading zero omitted, Abs format (unit mm)*
G04 Created by KiCad (PCBNEW (5.1.9)-1) date 2021-10-24 18:26:44*
%MOMM*%
%LPD*%
G01*
G04 APERTURE LIST*
%TA.AperFunction,ComponentPad*%
%ADD10O,1.700000X1.700000*%
%TD*%
%TA.AperFunction,ComponentPad*%
%ADD11R,1.700000X1.700000*%
%TD*%
%TA.AperFunction,ComponentPad*%
%ADD12O,1.600000X1.600000*%
%TD*%
%TA.AperFunction,ComponentPad*%
%ADD13R,1.600000X1.600000*%
%TD*%
%TA.AperFunction,ComponentPad*%
%ADD14C,1.700000*%
%TD*%
%TA.AperFunction,ComponentPad*%
%ADD15C,1.000000*%
%TD*%
%TA.AperFunction,ComponentPad*%
%ADD16C,2.000000*%
%TD*%
%TA.AperFunction,ComponentPad*%
%ADD17C,2.600000*%
%TD*%
%TA.AperFunction,ComponentPad*%
%ADD18C,6.400000*%
%TD*%
%TA.AperFunction,ViaPad*%
%ADD19C,0.800000*%
%TD*%
%TA.AperFunction,ViaPad*%
%ADD20C,1.000000*%
%TD*%
%TA.AperFunction,Conductor*%
%ADD21C,1.600000*%
%TD*%
%TA.AperFunction,Conductor*%
%ADD22C,1.700000*%
%TD*%
%TA.AperFunction,Conductor*%
%ADD23C,0.250000*%
%TD*%
%TA.AperFunction,Conductor*%
%ADD24C,1.000000*%
%TD*%
%TA.AperFunction,Conductor*%
%ADD25C,0.500000*%
%TD*%
%TA.AperFunction,Conductor*%
%ADD26C,0.254000*%
%TD*%
%TA.AperFunction,Conductor*%
%ADD27C,0.100000*%
%TD*%
G04 APERTURE END LIST*
D10*
%TO.N,DBG_RX*%
%TO.C,U5*%
X153035000Y-76200000D03*
%TO.N,CFG_CLK*%
X155575000Y-76200000D03*
D11*
%TO.N,GND*%
X158115000Y-76200000D03*
D10*
%TO.N,CFG_LATCH*%
X160655000Y-76200000D03*
%TO.N,SD1_CS*%
X163195000Y-76200000D03*
%TO.N,D0_3V3*%
X165735000Y-76200000D03*
%TO.N,D1_3V3*%
X168275000Y-76200000D03*
D11*
%TO.N,GND*%
X170815000Y-76200000D03*
D10*
%TO.N,D2_3V3*%
X173355000Y-76200000D03*
%TO.N,D3_3V3*%
X175895000Y-76200000D03*
%TO.N,D4_3V3*%
X178435000Y-76200000D03*
%TO.N,D5_3V3*%
X180975000Y-76200000D03*
D11*
%TO.N,GND*%
X183515000Y-76200000D03*
D10*
%TO.N,D6_3V3*%
X186055000Y-76200000D03*
%TO.N,D7_3V3*%
X188595000Y-76200000D03*
%TO.N,A0_3V3*%
X191135000Y-76200000D03*
%TO.N,A1_3V3*%
X193675000Y-76200000D03*
D11*
%TO.N,GND*%
X196215000Y-76200000D03*
D10*
%TO.N,AEN_3V3*%
X198755000Y-76200000D03*
%TO.N,~DACK~_3V3*%
X201295000Y-76200000D03*
%TO.N,SPI_RX*%
X201295000Y-58420000D03*
%TO.N,~IOW~_3V3*%
X198755000Y-58420000D03*
D11*
%TO.N,GND*%
X196215000Y-58420000D03*
D10*
%TO.N,SPI_SCK*%
X193675000Y-58420000D03*
%TO.N,SPI_TX*%
X191135000Y-58420000D03*
%TO.N,~IOR~_3V3*%
X188595000Y-58420000D03*
%TO.N,~RESET~_3V3*%
X186055000Y-58420000D03*
D11*
%TO.N,GND*%
X183515000Y-58420000D03*
D10*
%TO.N,DATA_DIR*%
X180975000Y-58420000D03*
%TO.N,Net-(SW3-Pad1)*%
X178435000Y-58420000D03*
%TO.N,~CS~_3V3*%
X175895000Y-58420000D03*
%TO.N,~IRQ~_3V3*%
X173355000Y-58420000D03*
D11*
%TO.N,GND*%
X170815000Y-58420000D03*
D10*
%TO.N,~DRQ~_3V3*%
X168275000Y-58420000D03*
%TO.N,/ADC_VREF*%
X165735000Y-58420000D03*
%TO.N,+3V3*%
X163195000Y-58420000D03*
%TO.N,/3V3_EN*%
X160655000Y-58420000D03*
D11*
%TO.N,GND*%
X158115000Y-58420000D03*
D10*
%TO.N,VSYS*%
X155575000Y-58420000D03*
%TO.N,Net-(U5-Pad40)*%
X153035000Y-58420000D03*
%TO.N,/SWCLK*%
X201065000Y-69850000D03*
D11*
%TO.N,GND*%
X201065000Y-67310000D03*
D10*
%TO.N,/SWDIO*%
X201065000Y-64770000D03*
%TD*%
D12*
%TO.N,VSYS*%
%TO.C,U3*%
X175260000Y-37465000D03*
%TO.N,GND*%
X190500000Y-45085000D03*
%TO.N,CFG_CLK*%
X177800000Y-37465000D03*
%TO.N,IRQ*%
X187960000Y-45085000D03*
%TO.N,GND*%
X180340000Y-37465000D03*
%TO.N,Net-(R4-Pad1)*%
X185420000Y-45085000D03*
%TO.N,Net-(R1-Pad2)*%
X182880000Y-37465000D03*
%TO.N,~IRQ~_3V3*%
X182880000Y-45085000D03*
%TO.N,CFG_CLK*%
X185420000Y-37465000D03*
%TO.N,DRQ*%
X180340000Y-45085000D03*
%TO.N,GND*%
X187960000Y-37465000D03*
%TO.N,Net-(R4-Pad1)*%
X177800000Y-45085000D03*
%TO.N,~DRIVE_ACTIVE*%
X190500000Y-37465000D03*
D13*
%TO.N,~DRQ~_3V3*%
X175260000Y-45085000D03*
%TD*%
D12*
%TO.N,+3V3*%
%TO.C,U4*%
X189865000Y-103505000D03*
%TO.N,GND*%
X207645000Y-111125000D03*
X192405000Y-103505000D03*
%TO.N,Net-(U4-Pad7)*%
X205105000Y-111125000D03*
%TO.N,GND*%
X194945000Y-103505000D03*
%TO.N,/OPTION_4*%
X202565000Y-111125000D03*
%TO.N,GND*%
X197485000Y-103505000D03*
%TO.N,/OPTION_3*%
X200025000Y-111125000D03*
%TO.N,GND*%
X200025000Y-103505000D03*
%TO.N,/RESET_INVERT*%
X197485000Y-111125000D03*
%TO.N,/BOOT_INTERNAL*%
X202565000Y-103505000D03*
%TO.N,/IRQ_SELECT*%
X194945000Y-111125000D03*
%TO.N,GND*%
X205105000Y-103505000D03*
%TO.N,CFG_CLK*%
X192405000Y-111125000D03*
%TO.N,CFG_DATA*%
X207645000Y-103505000D03*
D13*
%TO.N,CFG_LATCH*%
X189865000Y-111125000D03*
%TD*%
D12*
%TO.N,+3V3*%
%TO.C,U1*%
X177165000Y-87630000D03*
%TO.N,GND*%
X200025000Y-95250000D03*
X179705000Y-87630000D03*
%TO.N,D7*%
X197485000Y-95250000D03*
%TO.N,D0_3V3*%
X182245000Y-87630000D03*
%TO.N,D6*%
X194945000Y-95250000D03*
%TO.N,D1_3V3*%
X184785000Y-87630000D03*
%TO.N,D5*%
X192405000Y-95250000D03*
%TO.N,D2_3V3*%
X187325000Y-87630000D03*
%TO.N,D4*%
X189865000Y-95250000D03*
%TO.N,D3_3V3*%
X189865000Y-87630000D03*
%TO.N,D3*%
X187325000Y-95250000D03*
%TO.N,D4_3V3*%
X192405000Y-87630000D03*
%TO.N,D2*%
X184785000Y-95250000D03*
%TO.N,D5_3V3*%
X194945000Y-87630000D03*
%TO.N,D1*%
X182245000Y-95250000D03*
%TO.N,D6_3V3*%
X197485000Y-87630000D03*
%TO.N,D0*%
X179705000Y-95250000D03*
%TO.N,D7_3V3*%
X200025000Y-87630000D03*
D13*
%TO.N,DATA_DIR*%
X177165000Y-95250000D03*
%TD*%
D12*
%TO.N,+3V3*%
%TO.C,U2*%
X200025000Y-41275000D03*
%TO.N,GND*%
X222885000Y-48895000D03*
X202565000Y-41275000D03*
%TO.N,~IOW*%
X220345000Y-48895000D03*
%TO.N,A0_3V3*%
X205105000Y-41275000D03*
%TO.N,~IOR*%
X217805000Y-48895000D03*
%TO.N,A1_3V3*%
X207645000Y-41275000D03*
%TO.N,~RESET*%
X215265000Y-48895000D03*
%TO.N,AEN_3V3*%
X210185000Y-41275000D03*
%TO.N,~CS*%
X212725000Y-48895000D03*
%TO.N,~DACK~_3V3*%
X212725000Y-41275000D03*
%TO.N,~DACK*%
X210185000Y-48895000D03*
%TO.N,~CS~_3V3*%
X215265000Y-41275000D03*
%TO.N,AEN*%
X207645000Y-48895000D03*
%TO.N,~RESET~_3V3*%
X217805000Y-41275000D03*
%TO.N,A1*%
X205105000Y-48895000D03*
%TO.N,~IOR~_3V3*%
X220345000Y-41275000D03*
%TO.N,A0*%
X202565000Y-48895000D03*
%TO.N,~IOW~_3V3*%
X222885000Y-41275000D03*
D13*
%TO.N,GND*%
X200025000Y-48895000D03*
%TD*%
D10*
%TO.N,DBG_RX*%
%TO.C,J6*%
X212725000Y-77470000D03*
%TO.N,GND*%
X212725000Y-74930000D03*
%TO.N,CFG_CLK*%
X212725000Y-72390000D03*
%TO.N,/SWCLK*%
X212725000Y-69850000D03*
%TO.N,GND*%
X212725000Y-67310000D03*
D11*
%TO.N,/SWDIO*%
X212725000Y-64770000D03*
%TD*%
D10*
%TO.N,GND*%
%TO.C,J5*%
X168275000Y-87630000D03*
%TO.N,SPI_RX*%
X168275000Y-90170000D03*
%TO.N,SPI_SCK*%
X168275000Y-92710000D03*
%TO.N,SPI_TX*%
X168275000Y-95250000D03*
%TO.N,SD1_CS*%
X168275000Y-97790000D03*
D11*
%TO.N,+3V3*%
X168275000Y-100330000D03*
%TD*%
D10*
%TO.N,GND*%
%TO.C,J4*%
X181610000Y-107315000D03*
%TO.N,SPI_RX*%
X181610000Y-109855000D03*
%TO.N,SPI_SCK*%
X181610000Y-112395000D03*
%TO.N,SPI_TX*%
X181610000Y-114935000D03*
%TO.N,CFG_LATCH*%
X181610000Y-117475000D03*
D11*
%TO.N,+3V3*%
X181610000Y-120015000D03*
%TD*%
D14*
%TO.N,GND*%
%TO.C,J1*%
X239395000Y-119380000D03*
X239395000Y-116840000D03*
X239395000Y-114300000D03*
%TO.N,Net-(J1-Pad34)*%
X239395000Y-111760000D03*
%TO.N,GND*%
X239395000Y-109220000D03*
X239395000Y-106680000D03*
X239395000Y-104140000D03*
X239395000Y-101600000D03*
X239395000Y-99060000D03*
X239395000Y-96520000D03*
X239395000Y-91440000D03*
X239395000Y-88900000D03*
X239395000Y-86360000D03*
X239395000Y-83820000D03*
X239395000Y-81280000D03*
X239395000Y-78740000D03*
X239395000Y-76200000D03*
X239395000Y-73660000D03*
X239395000Y-71120000D03*
%TO.N,~DRIVE_ACTIVE*%
X236855000Y-119380000D03*
%TO.N,~CS*%
X236855000Y-116840000D03*
%TO.N,A0*%
X236855000Y-114300000D03*
%TO.N,A1*%
X236855000Y-111760000D03*
%TO.N,IRQ*%
X236855000Y-109220000D03*
%TO.N,DRQ*%
X236855000Y-106680000D03*
%TO.N,~DACK*%
X236855000Y-104140000D03*
%TO.N,~IOR*%
X236855000Y-101600000D03*
%TO.N,~IOW*%
X236855000Y-99060000D03*
%TO.N,AEN*%
X236855000Y-96520000D03*
%TO.N,GND*%
X236855000Y-93980000D03*
%TO.N,D0*%
X236855000Y-91440000D03*
%TO.N,D1*%
X236855000Y-88900000D03*
%TO.N,D2*%
X236855000Y-86360000D03*
%TO.N,D3*%
X236855000Y-83820000D03*
%TO.N,D4*%
X236855000Y-81280000D03*
%TO.N,D5*%
X236855000Y-78740000D03*
%TO.N,D6*%
X236855000Y-76200000D03*
%TO.N,D7*%
X236855000Y-73660000D03*
%TO.N,~RESET*%
%TA.AperFunction,ComponentPad*%
G36*
G01*
X236005000Y-71720000D02*
X236005000Y-70520000D01*
G75*
G02*
X236255000Y-70270000I250000J0D01*
G01*
X237455000Y-70270000D01*
G75*
G02*
X237705000Y-70520000I0J-250000D01*
G01*
X237705000Y-71720000D01*
G75*
G02*
X237455000Y-71970000I-250000J0D01*
G01*
X236255000Y-71970000D01*
G75*
G02*
X236005000Y-71720000I0J250000D01*
G01*
G37*
%TD.AperFunction*%
%TD*%
D15*
%TO.N,/MOUNTING_3*%
%TO.C,MH3*%
X161945449Y-128254482D03*
X166894495Y-127111904D03*
X166411547Y-126076220D03*
X163296537Y-125357063D03*
X166874551Y-128254482D03*
X161925505Y-127111904D03*
X162408453Y-126076220D03*
X165523463Y-125357063D03*
X164410000Y-125100000D03*
%TD*%
%TO.N,/MOUNTING_2*%
%TO.C,MH2*%
X211374551Y-31775518D03*
X206425505Y-32918096D03*
X206908453Y-33953780D03*
X210023463Y-34672937D03*
X206445449Y-31775518D03*
X211394495Y-32918096D03*
X210911547Y-33953780D03*
X207796537Y-34672937D03*
X208910000Y-34930000D03*
%TD*%
%TO.N,/MOUNTING_1*%
%TO.C,MH1*%
X166874551Y-31775518D03*
X161925505Y-32918096D03*
X162408453Y-33953780D03*
X165523463Y-34672937D03*
X161945449Y-31775518D03*
X166894495Y-32918096D03*
X166411547Y-33953780D03*
X163296537Y-34672937D03*
X164410000Y-34930000D03*
%TD*%
%TO.N,/MOUNTING_4*%
%TO.C,MH4*%
X206445449Y-128254482D03*
X211394495Y-127111904D03*
X210911547Y-126076220D03*
X207796537Y-125357063D03*
X211374551Y-128254482D03*
X206425505Y-127111904D03*
X206908453Y-126076220D03*
X210023463Y-125357063D03*
X208910000Y-125100000D03*
%TD*%
D16*
%TO.N,Net-(SW3-Pad1)*%
%TO.C,SW3*%
X161140000Y-51120000D03*
%TO.N,GND*%
X161140000Y-46620000D03*
%TO.N,Net-(SW3-Pad1)*%
X167640000Y-51120000D03*
%TO.N,GND*%
X167640000Y-46620000D03*
%TD*%
%TO.N,/BOOT_INTERNAL*%
%TO.C,SW2*%
X212240000Y-117475000D03*
%TO.N,GND*%
X212240000Y-121975000D03*
%TO.N,/BOOT_INTERNAL*%
X205740000Y-117475000D03*
%TO.N,GND*%
X205740000Y-121975000D03*
%TD*%
D13*
%TO.N,/IRQ_SELECT*%
%TO.C,SW1*%
X191135000Y-116205000D03*
D12*
%TO.N,GND*%
X198755000Y-123825000D03*
%TO.N,/RESET_INVERT*%
X193675000Y-116205000D03*
%TO.N,GND*%
X196215000Y-123825000D03*
%TO.N,/OPTION_3*%
X196215000Y-116205000D03*
%TO.N,GND*%
X193675000Y-123825000D03*
%TO.N,/OPTION_4*%
X198755000Y-116205000D03*
%TO.N,GND*%
X191135000Y-123825000D03*
%TD*%
D10*
%TO.N,Net-(J3-Pad2)*%
%TO.C,J3*%
X161290000Y-38735000D03*
D11*
%TO.N,Net-(J3-Pad1)*%
X161290000Y-41275000D03*
%TD*%
D17*
%TO.N,/5V_IN*%
%TO.C,J2*%
X236550000Y-41910000D03*
%TO.N,GND*%
X236550000Y-46990000D03*
X236550000Y-52070000D03*
%TO.N,Net-(J2-Pad1)*%
X236550000Y-57150000D03*
%TD*%
D18*
%TO.N,N/C*%
%TO.C,MH5*%
X153090000Y-49150000D03*
%TD*%
%TO.N,N/C*%
%TO.C,MH7*%
X153090000Y-110870000D03*
%TD*%
%TO.N,N/C*%
%TO.C,MH8*%
X229690000Y-110870000D03*
%TD*%
%TO.N,N/C*%
%TO.C,MH6*%
X229690000Y-49150000D03*
%TD*%
D19*
%TO.N,GND*%
X234315000Y-83820000D03*
X233045000Y-85090000D03*
X227330000Y-72390000D03*
D20*
X175260000Y-39370000D03*
D19*
X167640000Y-82550000D03*
X165100000Y-85090000D03*
X173990000Y-85090000D03*
X176530000Y-83820000D03*
X163830000Y-87630000D03*
D20*
X181610000Y-121920000D03*
X170180000Y-100330000D03*
D19*
X180340000Y-116205000D03*
X180340000Y-111125000D03*
X191135000Y-109855000D03*
X234950000Y-111760000D03*
X166370000Y-116205000D03*
X160655000Y-118745000D03*
X161925000Y-99060000D03*
X162560000Y-111125000D03*
X164465000Y-113665000D03*
X169545000Y-96520000D03*
X167005000Y-91440000D03*
D20*
X173990000Y-89105000D03*
X173990000Y-92055000D03*
X195580000Y-42750000D03*
D19*
X222885000Y-103505000D03*
X218440000Y-101600000D03*
X219075000Y-106045000D03*
X211455000Y-59690000D03*
X222885000Y-115570000D03*
X223520000Y-118110000D03*
D20*
X210185000Y-71755000D03*
X203200000Y-78105000D03*
X206375000Y-74930000D03*
X208915000Y-116840000D03*
X215900000Y-115570000D03*
X209550000Y-103505000D03*
X216535000Y-112395000D03*
X186690000Y-105055010D03*
X177165000Y-89535000D03*
X204470000Y-87630000D03*
X212090000Y-82550000D03*
X212090000Y-85090000D03*
D19*
X221615000Y-42545000D03*
X216535000Y-42545000D03*
X211455000Y-42545000D03*
X208915000Y-42545000D03*
X220345000Y-46990000D03*
X217805000Y-46990000D03*
X215265000Y-46990000D03*
X212725000Y-46990000D03*
X210185000Y-46990000D03*
X207645000Y-46990000D03*
X205105000Y-46990000D03*
X193675000Y-93980000D03*
X188595000Y-93980000D03*
X183515000Y-93980000D03*
X178435000Y-93980000D03*
X198755000Y-86360000D03*
X193675000Y-86360000D03*
X188595000Y-88900000D03*
X183515000Y-88900000D03*
X184150000Y-43815000D03*
X176530000Y-43815000D03*
D20*
X170180000Y-35560000D03*
X229870000Y-43180000D03*
X229870000Y-40640000D03*
D19*
X213995000Y-86995000D03*
D20*
X186690000Y-46355000D03*
X197485000Y-50800000D03*
D19*
X171450000Y-91440000D03*
X163830000Y-89535000D03*
X177800000Y-43180000D03*
X181610000Y-43815000D03*
X165735000Y-43180000D03*
X165735000Y-36830000D03*
X171450000Y-50673000D03*
X208280000Y-59055000D03*
X205740000Y-60325000D03*
X176530000Y-46355000D03*
D20*
%TO.N,+3V3*%
X208915000Y-72390000D03*
X196215000Y-49530000D03*
D19*
X230505000Y-122555000D03*
X227330000Y-122555000D03*
X224155000Y-122555000D03*
X220980000Y-122555000D03*
X217805000Y-119380000D03*
D20*
X184785000Y-103505000D03*
X204470000Y-77470000D03*
X205740000Y-76200000D03*
X207645000Y-74295000D03*
X208915000Y-114935000D03*
X214630000Y-114300000D03*
X208915000Y-109220000D03*
X208915000Y-105410000D03*
X208915000Y-101600000D03*
X211455000Y-103505000D03*
X214630000Y-111760000D03*
X208915000Y-113030000D03*
X205105000Y-86360000D03*
X211010010Y-85725000D03*
X211010010Y-81915000D03*
X190500000Y-46990000D03*
X186690000Y-47879000D03*
%TO.N,VSYS*%
X229235000Y-41910000D03*
D19*
X165735000Y-38100000D03*
D20*
X228219000Y-40513000D03*
X228219000Y-43307000D03*
X170180000Y-37465000D03*
D19*
X171450000Y-49403000D03*
%TO.N,Net-(R1-Pad2)*%
X165735000Y-41910000D03*
%TO.N,CFG_DATA*%
X213995000Y-85725000D03*
X203200000Y-88265000D03*
%TO.N,DBG_RX*%
X213995000Y-82550000D03*
%TO.N,DATA_DIR*%
X172720000Y-85090000D03*
X163830000Y-86360000D03*
%TO.N,Net-(SW3-Pad1)*%
X165735000Y-60960000D03*
%TO.N,D1_3V3*%
X168910000Y-82550000D03*
X177165000Y-82550000D03*
%TO.N,D0_3V3*%
X165100000Y-83820000D03*
X175260000Y-83820000D03*
%TO.N,CFG_CLK*%
X203200000Y-79375000D03*
X179070000Y-43815000D03*
%TO.N,/BOOT_INTERNAL*%
X230505000Y-125730000D03*
%TO.N,~CS*%
X224790000Y-118110000D03*
%TO.N,A0*%
X211455000Y-60960000D03*
X222885000Y-116840000D03*
X205740000Y-59055000D03*
%TO.N,A1*%
X211455000Y-58420000D03*
X222885000Y-114300000D03*
X208280000Y-57785000D03*
%TO.N,IRQ*%
X220345000Y-106045000D03*
X208915000Y-46355000D03*
%TO.N,DRQ*%
X224155000Y-104140000D03*
X211455000Y-46355000D03*
%TO.N,~DACK*%
X222250000Y-102235000D03*
%TO.N,AEN*%
X218440000Y-100330000D03*
%TO.N,D5*%
X234315000Y-82550000D03*
%TO.N,D6*%
X233045000Y-83820000D03*
%TO.N,D7*%
X231775000Y-85090000D03*
%TO.N,~RESET*%
X227330000Y-71120000D03*
%TO.N,/IRQ_SELECT*%
X202565000Y-122555000D03*
X217805000Y-125730000D03*
%TO.N,/RESET_INVERT*%
X227330000Y-125730000D03*
X201295000Y-121285000D03*
%TO.N,CFG_LATCH*%
X160655000Y-117475000D03*
%TO.N,Net-(R4-Pad1)*%
X177165000Y-47625000D03*
%TO.N,SD1_CS*%
X161925000Y-97790000D03*
%TO.N,/OPTION_3*%
X220980000Y-125730000D03*
%TO.N,/OPTION_4*%
X224155000Y-125730000D03*
%TO.N,SPI_RX*%
X162560000Y-109855000D03*
X171450000Y-90170000D03*
%TO.N,SPI_SCK*%
X164465000Y-112395000D03*
%TO.N,SPI_TX*%
X166370000Y-114935012D03*
X165100000Y-89535000D03*
%TD*%
D21*
%TO.N,+3V3*%
X177165000Y-86360000D02*
X177165000Y-87630000D01*
D22*
X163195000Y-61595000D02*
X163195000Y-58420000D01*
D23*
X230505000Y-122555000D02*
X227330000Y-122555000D01*
X227330000Y-122555000D02*
X224155000Y-122555000D01*
X224155000Y-122555000D02*
X220980000Y-122555000D01*
X220980000Y-122555000D02*
X217805000Y-119380000D01*
D22*
X181610000Y-120015000D02*
X184150000Y-120015000D01*
X168275000Y-101600000D02*
X168275000Y-100330000D01*
D24*
X208915000Y-72390000D02*
X208280000Y-73025000D01*
X208915000Y-73025000D02*
X208915000Y-72390000D01*
X208915000Y-72390000D02*
X207645000Y-72390000D01*
X204470000Y-77470000D02*
X205105000Y-77470000D01*
X207645000Y-74295000D02*
X208280000Y-73660000D01*
X205740000Y-76200000D02*
X205740000Y-76835000D01*
X207645000Y-74295000D02*
X207645000Y-73660000D01*
X207645000Y-74295000D02*
X208280000Y-74295000D01*
D21*
X189865000Y-103505000D02*
X189230000Y-104140000D01*
X189865000Y-103505000D02*
X189865000Y-105410000D01*
X189865000Y-103505000D02*
X189230000Y-102870000D01*
X189865000Y-103505000D02*
X189865000Y-104775000D01*
D24*
X211010010Y-85725000D02*
X210510011Y-85225001D01*
X210510011Y-85225001D02*
X210510011Y-82414999D01*
X210510011Y-82414999D02*
X211010010Y-81915000D01*
D23*
X163195000Y-61595000D02*
X174625000Y-73025000D01*
X174625000Y-73025000D02*
X200025000Y-73025000D01*
D24*
X204470000Y-77470000D02*
X204470000Y-76200000D01*
X205740000Y-76200000D02*
X204470000Y-76200000D01*
D23*
X206375000Y-73025000D02*
X207645000Y-74295000D01*
X200025000Y-73025000D02*
X206375000Y-73025000D01*
X205240001Y-82414999D02*
X205105000Y-82550000D01*
X210510011Y-82414999D02*
X205240001Y-82414999D01*
X205105000Y-86360000D02*
X205105000Y-82550000D01*
X177165000Y-86360000D02*
X179070000Y-84455000D01*
X179070000Y-84455000D02*
X205105000Y-84455000D01*
X189865000Y-105410000D02*
X191770000Y-107315000D01*
X191770000Y-107315000D02*
X208915000Y-107315000D01*
X208915000Y-107315000D02*
X208915000Y-105410000D01*
X208915000Y-107315000D02*
X208915000Y-109220000D01*
X208915000Y-105410000D02*
X211455000Y-105410000D01*
X211455000Y-105410000D02*
X211455000Y-103505000D01*
X211455000Y-103505000D02*
X211455000Y-101600000D01*
X211455000Y-101600000D02*
X208915000Y-101600000D01*
X208915000Y-109220000D02*
X214630000Y-109220000D01*
X214630000Y-109220000D02*
X214630000Y-111760000D01*
X214630000Y-111760000D02*
X214630000Y-114300000D01*
X214630000Y-114300000D02*
X208915000Y-114300000D01*
X208915000Y-114300000D02*
X208915000Y-114935000D01*
X208915000Y-114300000D02*
X208915000Y-113030000D01*
X204470000Y-74930000D02*
X204470000Y-77470000D01*
X202565000Y-73025000D02*
X204470000Y-74930000D01*
X200025000Y-73025000D02*
X202565000Y-73025000D01*
X213360000Y-114935000D02*
X213360000Y-114300000D01*
X217805000Y-119380000D02*
X213360000Y-114935000D01*
D22*
X163195000Y-58420000D02*
X163195000Y-55245000D01*
%TO.N,VSYS*%
X155575000Y-58420000D02*
X155575000Y-54610000D01*
X159385000Y-48895000D02*
X171450000Y-48895000D01*
D23*
X157480000Y-50800000D02*
X159385000Y-48895000D01*
X157480000Y-53340000D02*
X157480000Y-50800000D01*
X156210000Y-54610000D02*
X157480000Y-53340000D01*
X155575000Y-54610000D02*
X156210000Y-54610000D01*
D21*
X175260000Y-37465000D02*
X170180000Y-37465000D01*
X175260000Y-34290000D02*
X175260000Y-37465000D01*
X175260000Y-36333630D02*
X177165000Y-34428630D01*
X175260000Y-37465000D02*
X175260000Y-36333630D01*
D24*
X229235000Y-41910000D02*
X227965000Y-41910000D01*
X228219000Y-40513000D02*
X228219000Y-38989000D01*
X228219000Y-43307000D02*
X228219000Y-43815000D01*
X228854000Y-41910000D02*
X227838000Y-42926000D01*
X228219000Y-42926000D02*
X228219000Y-43307000D01*
X228219000Y-40513000D02*
X228219000Y-42926000D01*
X228854000Y-41910000D02*
X228219000Y-41275000D01*
D25*
X167832500Y-37465000D02*
X170180000Y-37465000D01*
X167197500Y-38100000D02*
X167832500Y-37465000D01*
X165735000Y-38100000D02*
X167197500Y-38100000D01*
D21*
X175260000Y-37465000D02*
X173990000Y-36195000D01*
D22*
X171450000Y-48895000D02*
X172085000Y-48895000D01*
D23*
%TO.N,CFG_DATA*%
X210820000Y-88900000D02*
X213995000Y-85725000D01*
X203835000Y-88900000D02*
X210820000Y-88900000D01*
X203200000Y-88265000D02*
X203835000Y-88900000D01*
%TO.N,DBG_RX*%
X153035000Y-79375000D02*
X153035000Y-76200000D01*
X154940000Y-81280000D02*
X153035000Y-79375000D01*
X203200000Y-81280000D02*
X154940000Y-81280000D01*
X203835000Y-80645000D02*
X203200000Y-81280000D01*
X209550000Y-80645000D02*
X203835000Y-80645000D01*
X212725000Y-77470000D02*
X209550000Y-80645000D01*
%TO.N,~IOR~_3V3*%
X189865000Y-54610000D02*
X188595000Y-55880000D01*
X215265000Y-54610000D02*
X189865000Y-54610000D01*
X219075000Y-50800000D02*
X215265000Y-54610000D01*
X188595000Y-55880000D02*
X188595000Y-58420000D01*
X219075000Y-45085000D02*
X219075000Y-50800000D01*
X220345000Y-43815000D02*
X219075000Y-45085000D01*
X220345000Y-41275000D02*
X220345000Y-43815000D01*
%TO.N,~IOW~_3V3*%
X200025000Y-55880000D02*
X217170000Y-55880000D01*
X217170000Y-55880000D02*
X221615000Y-51435000D01*
X198755000Y-57150000D02*
X200025000Y-55880000D01*
X198755000Y-58420000D02*
X198755000Y-57150000D01*
X222885000Y-43815000D02*
X222885000Y-41275000D01*
X221615000Y-45085000D02*
X222885000Y-43815000D01*
X221615000Y-51435000D02*
X221615000Y-45085000D01*
%TO.N,DATA_DIR*%
X167640000Y-85090000D02*
X172720000Y-85090000D01*
X166370000Y-86360000D02*
X167640000Y-85090000D01*
X163830000Y-86360000D02*
X166370000Y-86360000D01*
%TO.N,Net-(SW3-Pad1)*%
X178435000Y-59372500D02*
X178435000Y-58420000D01*
X176847500Y-60960000D02*
X178435000Y-59372500D01*
X165735000Y-60960000D02*
X176847500Y-60960000D01*
X161140000Y-51120000D02*
X167640000Y-51120000D01*
%TO.N,~RESET~_3V3*%
X216535000Y-45085000D02*
X217805000Y-43815000D01*
X216535000Y-50800000D02*
X216535000Y-45085000D01*
X213995000Y-53340000D02*
X216535000Y-50800000D01*
X217805000Y-43815000D02*
X217805000Y-41275000D01*
X188595000Y-53340000D02*
X213995000Y-53340000D01*
X186055000Y-55880000D02*
X188595000Y-53340000D01*
X186055000Y-58420000D02*
X186055000Y-55880000D01*
%TO.N,~CS~_3V3*%
X175895000Y-55880000D02*
X175895000Y-58420000D01*
X179705000Y-52070000D02*
X175895000Y-55880000D01*
X211455000Y-52070000D02*
X179705000Y-52070000D01*
X212090000Y-52070000D02*
X211455000Y-52070000D01*
X213995000Y-50165000D02*
X212090000Y-52070000D01*
X213995000Y-42545000D02*
X213995000Y-50165000D01*
X215265000Y-41275000D02*
X213995000Y-42545000D01*
%TO.N,D1_3V3*%
X177165000Y-82550000D02*
X175260000Y-82550000D01*
X175260000Y-82550000D02*
X168910000Y-82550000D01*
%TO.N,D0_3V3*%
X175260000Y-83820000D02*
X165100000Y-83820000D01*
%TO.N,CFG_CLK*%
X205740000Y-79375000D02*
X212725000Y-72390000D01*
X203200000Y-79375000D02*
X205740000Y-79375000D01*
X202565000Y-80010000D02*
X203200000Y-79375000D01*
X156845000Y-80010000D02*
X202565000Y-80010000D01*
X155575000Y-78740000D02*
X156845000Y-80010000D01*
X155575000Y-76200000D02*
X155575000Y-78740000D01*
X179070000Y-39370000D02*
X179070000Y-43815000D01*
X185420000Y-38100000D02*
X185420000Y-37465000D01*
X184150000Y-39370000D02*
X185420000Y-38100000D01*
X179070000Y-39370000D02*
X184150000Y-39370000D01*
X177800000Y-38100000D02*
X179070000Y-39370000D01*
X177800000Y-37465000D02*
X177800000Y-38100000D01*
%TO.N,/BOOT_INTERNAL*%
X228473000Y-123698000D02*
X230505000Y-125730000D01*
X220218000Y-123698000D02*
X228473000Y-123698000D01*
X213995000Y-117475000D02*
X220218000Y-123698000D01*
X212240000Y-117475000D02*
X213995000Y-117475000D01*
X211605000Y-118110000D02*
X212240000Y-117475000D01*
X206375000Y-118110000D02*
X211605000Y-118110000D01*
X205740000Y-117475000D02*
X206375000Y-118110000D01*
%TO.N,~CS*%
X235585000Y-118110000D02*
X224790000Y-118110000D01*
X236855000Y-116840000D02*
X235585000Y-118110000D01*
%TO.N,A0*%
X234315000Y-116840000D02*
X236855000Y-114300000D01*
X222885000Y-116840000D02*
X234315000Y-116840000D01*
X208280000Y-60960000D02*
X211455000Y-60960000D01*
X206375000Y-59055000D02*
X208280000Y-60960000D01*
X205740000Y-59055000D02*
X206375000Y-59055000D01*
%TO.N,A1*%
X233045000Y-115570000D02*
X236855000Y-111760000D01*
X224790000Y-115570000D02*
X233045000Y-115570000D01*
X223520000Y-114300000D02*
X224790000Y-115570000D01*
X222885000Y-114300000D02*
X223520000Y-114300000D01*
X210820000Y-57785000D02*
X211455000Y-58420000D01*
X208280000Y-57785000D02*
X210820000Y-57785000D01*
%TO.N,IRQ*%
X234950000Y-109220000D02*
X236855000Y-109220000D01*
X231775000Y-106045000D02*
X234950000Y-109220000D01*
X220345000Y-106045000D02*
X231775000Y-106045000D01*
X208280000Y-45720000D02*
X208915000Y-46355000D01*
X194310000Y-45720000D02*
X208280000Y-45720000D01*
X191770000Y-43180000D02*
X194310000Y-45720000D01*
X189230000Y-43180000D02*
X191770000Y-43180000D01*
X187960000Y-44450000D02*
X189230000Y-43180000D01*
X187960000Y-45085000D02*
X187960000Y-44450000D01*
%TO.N,DRQ*%
X233045000Y-104140000D02*
X224155000Y-104140000D01*
X235585000Y-106680000D02*
X233045000Y-104140000D01*
X236855000Y-106680000D02*
X235585000Y-106680000D01*
X180340000Y-43180000D02*
X180340000Y-45085000D01*
X181610000Y-41910000D02*
X180340000Y-43180000D01*
X193040000Y-41910000D02*
X181610000Y-41910000D01*
X195580000Y-44450000D02*
X193040000Y-41910000D01*
X209550000Y-44450000D02*
X195580000Y-44450000D01*
X211455000Y-46355000D02*
X209550000Y-44450000D01*
%TO.N,~DACK*%
X234950000Y-102235000D02*
X222250000Y-102235000D01*
X236855000Y-104140000D02*
X234950000Y-102235000D01*
%TO.N,AEN*%
X233045000Y-100330000D02*
X218440000Y-100330000D01*
X236855000Y-96520000D02*
X233045000Y-100330000D01*
%TO.N,D0*%
X179070000Y-95250000D02*
X184785000Y-100965000D01*
X206375000Y-99060000D02*
X204470000Y-100965000D01*
X229235000Y-99060000D02*
X206375000Y-99060000D01*
X184785000Y-100965000D02*
X204470000Y-100965000D01*
X229235000Y-99060000D02*
X236855000Y-91440000D01*
%TO.N,D1*%
X181610000Y-95250000D02*
X186055000Y-99695000D01*
X205740000Y-97790000D02*
X203835000Y-99695000D01*
X227965000Y-97790000D02*
X205740000Y-97790000D01*
X186055000Y-99695000D02*
X203835000Y-99695000D01*
X227965000Y-97790000D02*
X236855000Y-88900000D01*
%TO.N,D2*%
X184150000Y-95250000D02*
X187325000Y-98425000D01*
X226695000Y-96520000D02*
X205105000Y-96520000D01*
X226695000Y-96520000D02*
X236855000Y-86360000D01*
X205105000Y-96520000D02*
X203200000Y-98425000D01*
X187325000Y-98425000D02*
X203200000Y-98425000D01*
%TO.N,D3*%
X187325000Y-95250000D02*
X189230000Y-97155000D01*
X204470000Y-95250000D02*
X202565000Y-97155000D01*
X225425000Y-95250000D02*
X204470000Y-95250000D01*
X189230000Y-97155000D02*
X202565000Y-97155000D01*
X225425000Y-95250000D02*
X236855000Y-83820000D01*
%TO.N,D4*%
X227965000Y-81280000D02*
X236855000Y-81280000D01*
X219075000Y-90170000D02*
X227965000Y-81280000D01*
X202565000Y-89535000D02*
X203200000Y-90170000D01*
X193675000Y-89535000D02*
X202565000Y-89535000D01*
X203200000Y-90170000D02*
X219075000Y-90170000D01*
X189865000Y-93345000D02*
X193675000Y-89535000D01*
X189865000Y-95250000D02*
X189865000Y-93345000D01*
%TO.N,D5*%
X229235000Y-82550000D02*
X234315000Y-82550000D01*
X202565000Y-91440000D02*
X220345000Y-91440000D01*
X201930000Y-90805000D02*
X202565000Y-91440000D01*
X220345000Y-91440000D02*
X229235000Y-82550000D01*
X194945000Y-90805000D02*
X201930000Y-90805000D01*
X192405000Y-93345000D02*
X194945000Y-90805000D01*
X192405000Y-95250000D02*
X192405000Y-93345000D01*
%TO.N,D6*%
X198120000Y-92075000D02*
X194945000Y-95250000D01*
X201295000Y-92075000D02*
X198120000Y-92075000D01*
X201930000Y-92710000D02*
X201295000Y-92075000D01*
X221615000Y-92710000D02*
X201930000Y-92710000D01*
X230505000Y-83820000D02*
X221615000Y-92710000D01*
X233045000Y-83820000D02*
X230505000Y-83820000D01*
%TO.N,D7*%
X200660000Y-93345000D02*
X199390000Y-93345000D01*
X199390000Y-93345000D02*
X197485000Y-95250000D01*
X201295000Y-93980000D02*
X200660000Y-93345000D01*
X222885000Y-93980000D02*
X201295000Y-93980000D01*
X231775000Y-85090000D02*
X222885000Y-93980000D01*
%TO.N,~RESET*%
X236855000Y-71120000D02*
X227330000Y-71120000D01*
%TO.N,/IRQ_SELECT*%
X217805000Y-124460000D02*
X217805000Y-125730000D01*
X213487000Y-120142000D02*
X217805000Y-124460000D01*
X204978000Y-120142000D02*
X213487000Y-120142000D01*
X202565000Y-122555000D02*
X204978000Y-120142000D01*
%TO.N,/RESET_INVERT*%
X203327000Y-119253000D02*
X201295000Y-121285000D01*
X214249000Y-119253000D02*
X203327000Y-119253000D01*
X219710000Y-124714000D02*
X214249000Y-119253000D01*
X226314000Y-124714000D02*
X219710000Y-124714000D01*
X227330000Y-125730000D02*
X226314000Y-124714000D01*
%TO.N,CFG_LATCH*%
X181610000Y-117475000D02*
X160655000Y-117475000D01*
X184785000Y-117475000D02*
X181610000Y-117475000D01*
X189865000Y-112395000D02*
X184785000Y-117475000D01*
X189865000Y-111125000D02*
X189865000Y-112395000D01*
%TO.N,Net-(R4-Pad1)*%
X177800000Y-46990000D02*
X177800000Y-45085000D01*
X185420000Y-45720000D02*
X185420000Y-45085000D01*
X184150000Y-46990000D02*
X185420000Y-45720000D01*
X177800000Y-46990000D02*
X184150000Y-46990000D01*
X177165000Y-47625000D02*
X177800000Y-46990000D01*
%TO.N,SD1_CS*%
X163195000Y-97790000D02*
X163195000Y-97790000D01*
X168275000Y-97790000D02*
X161925000Y-97790000D01*
%TO.N,SPI_RX*%
X181610000Y-109855000D02*
X162560000Y-109855000D01*
X168275000Y-90170000D02*
X171450000Y-90170000D01*
%TO.N,SPI_SCK*%
X181610000Y-112395000D02*
X164465000Y-112395000D01*
%TO.N,SPI_TX*%
X181609988Y-114935012D02*
X181610000Y-114935000D01*
X166370000Y-114935012D02*
X181609988Y-114935012D01*
X168275000Y-95250000D02*
X167640000Y-95250000D01*
X167640000Y-95250000D02*
X165100000Y-92710000D01*
X165100000Y-92710000D02*
X165100000Y-89535000D01*
%TO.N,/SWCLK*%
X201065000Y-69850000D02*
X212725000Y-69850000D01*
%TO.N,/SWDIO*%
X201065000Y-64770000D02*
X212725000Y-64770000D01*
%TD*%
D26*
%TO.N,/MOUNTING_4*%
X212233000Y-126192606D02*
X212233000Y-129008000D01*
X210393371Y-129008000D01*
X210393371Y-128898078D01*
X210523149Y-128736666D01*
X210540604Y-128709992D01*
X210558459Y-128683521D01*
X210560767Y-128679181D01*
X210705438Y-128402451D01*
X210717383Y-128372885D01*
X210729752Y-128343461D01*
X210731172Y-128338756D01*
X210819338Y-128039195D01*
X210825310Y-128007887D01*
X210831732Y-127976604D01*
X210832211Y-127971712D01*
X210860512Y-127660732D01*
X210860290Y-127628902D01*
X210860513Y-127596928D01*
X210860033Y-127592036D01*
X210827392Y-127281481D01*
X210820975Y-127250222D01*
X210814999Y-127218891D01*
X210813578Y-127214186D01*
X210721239Y-126915886D01*
X210708892Y-126886515D01*
X210696925Y-126856895D01*
X210694618Y-126852556D01*
X210546096Y-126577871D01*
X210528271Y-126551444D01*
X210510788Y-126524727D01*
X210507681Y-126520918D01*
X210308636Y-126280314D01*
X210286019Y-126257855D01*
X210263676Y-126235039D01*
X210259889Y-126231906D01*
X210017900Y-126034545D01*
X209991360Y-126016912D01*
X209965005Y-125998866D01*
X209960681Y-125996529D01*
X209684968Y-125849929D01*
X209655477Y-125837774D01*
X209626146Y-125825202D01*
X209621451Y-125823749D01*
X209322513Y-125733495D01*
X209291230Y-125727301D01*
X209260012Y-125720665D01*
X209255124Y-125720152D01*
X208944349Y-125689680D01*
X208928667Y-125689680D01*
X208913066Y-125688013D01*
X208908151Y-125688005D01*
X208891396Y-125688093D01*
X208876042Y-125689680D01*
X208875652Y-125689680D01*
X208875532Y-125689704D01*
X208860119Y-125689650D01*
X208855229Y-125690147D01*
X208544791Y-125723871D01*
X208513588Y-125730389D01*
X208482244Y-125736482D01*
X208477544Y-125737919D01*
X208179568Y-125831299D01*
X208150223Y-125843755D01*
X208120662Y-125855819D01*
X208116331Y-125858142D01*
X207842167Y-126007621D01*
X207815802Y-126025539D01*
X207789145Y-126043115D01*
X207785347Y-126046235D01*
X207545439Y-126246119D01*
X207523055Y-126268818D01*
X207500322Y-126291236D01*
X207497203Y-126295034D01*
X207300688Y-126537710D01*
X207283129Y-126564340D01*
X207265193Y-126590732D01*
X207262870Y-126595063D01*
X207117234Y-126871287D01*
X207105199Y-126900780D01*
X207092714Y-126930191D01*
X207091278Y-126934892D01*
X207002067Y-127234143D01*
X206995988Y-127265418D01*
X206989455Y-127296690D01*
X206988958Y-127301580D01*
X206959572Y-127612460D01*
X206959683Y-127644356D01*
X206959349Y-127676263D01*
X206959812Y-127681156D01*
X206991368Y-127991824D01*
X206997666Y-128023058D01*
X207003542Y-128054456D01*
X207004947Y-128059166D01*
X207096243Y-128357787D01*
X207108498Y-128387226D01*
X207120352Y-128416864D01*
X207122645Y-128421212D01*
X207270207Y-128696412D01*
X207287945Y-128722908D01*
X207305329Y-128749678D01*
X207308423Y-128753498D01*
X207426629Y-128897406D01*
X207426629Y-129008000D01*
X205487000Y-129008000D01*
X205487000Y-126192606D01*
X207412606Y-124267000D01*
X210307394Y-124267000D01*
X212233000Y-126192606D01*
%TA.AperFunction,Conductor*%
D27*
G36*
X212233000Y-126192606D02*
G01*
X212233000Y-129008000D01*
X210393371Y-129008000D01*
X210393371Y-128898078D01*
X210523149Y-128736666D01*
X210540604Y-128709992D01*
X210558459Y-128683521D01*
X210560767Y-128679181D01*
X210705438Y-128402451D01*
X210717383Y-128372885D01*
X210729752Y-128343461D01*
X210731172Y-128338756D01*
X210819338Y-128039195D01*
X210825310Y-128007887D01*
X210831732Y-127976604D01*
X210832211Y-127971712D01*
X210860512Y-127660732D01*
X210860290Y-127628902D01*
X210860513Y-127596928D01*
X210860033Y-127592036D01*
X210827392Y-127281481D01*
X210820975Y-127250222D01*
X210814999Y-127218891D01*
X210813578Y-127214186D01*
X210721239Y-126915886D01*
X210708892Y-126886515D01*
X210696925Y-126856895D01*
X210694618Y-126852556D01*
X210546096Y-126577871D01*
X210528271Y-126551444D01*
X210510788Y-126524727D01*
X210507681Y-126520918D01*
X210308636Y-126280314D01*
X210286019Y-126257855D01*
X210263676Y-126235039D01*
X210259889Y-126231906D01*
X210017900Y-126034545D01*
X209991360Y-126016912D01*
X209965005Y-125998866D01*
X209960681Y-125996529D01*
X209684968Y-125849929D01*
X209655477Y-125837774D01*
X209626146Y-125825202D01*
X209621451Y-125823749D01*
X209322513Y-125733495D01*
X209291230Y-125727301D01*
X209260012Y-125720665D01*
X209255124Y-125720152D01*
X208944349Y-125689680D01*
X208928667Y-125689680D01*
X208913066Y-125688013D01*
X208908151Y-125688005D01*
X208891396Y-125688093D01*
X208876042Y-125689680D01*
X208875652Y-125689680D01*
X208875532Y-125689704D01*
X208860119Y-125689650D01*
X208855229Y-125690147D01*
X208544791Y-125723871D01*
X208513588Y-125730389D01*
X208482244Y-125736482D01*
X208477544Y-125737919D01*
X208179568Y-125831299D01*
X208150223Y-125843755D01*
X208120662Y-125855819D01*
X208116331Y-125858142D01*
X207842167Y-126007621D01*
X207815802Y-126025539D01*
X207789145Y-126043115D01*
X207785347Y-126046235D01*
X207545439Y-126246119D01*
X207523055Y-126268818D01*
X207500322Y-126291236D01*
X207497203Y-126295034D01*
X207300688Y-126537710D01*
X207283129Y-126564340D01*
X207265193Y-126590732D01*
X207262870Y-126595063D01*
X207117234Y-126871287D01*
X207105199Y-126900780D01*
X207092714Y-126930191D01*
X207091278Y-126934892D01*
X207002067Y-127234143D01*
X206995988Y-127265418D01*
X206989455Y-127296690D01*
X206988958Y-127301580D01*
X206959572Y-127612460D01*
X206959683Y-127644356D01*
X206959349Y-127676263D01*
X206959812Y-127681156D01*
X206991368Y-127991824D01*
X206997666Y-128023058D01*
X207003542Y-128054456D01*
X207004947Y-128059166D01*
X207096243Y-128357787D01*
X207108498Y-128387226D01*
X207120352Y-128416864D01*
X207122645Y-128421212D01*
X207270207Y-128696412D01*
X207287945Y-128722908D01*
X207305329Y-128749678D01*
X207308423Y-128753498D01*
X207426629Y-128897406D01*
X207426629Y-129008000D01*
X205487000Y-129008000D01*
X205487000Y-126192606D01*
X207412606Y-124267000D01*
X210307394Y-124267000D01*
X212233000Y-126192606D01*
G37*
%TD.AperFunction*%
%TD*%
D26*
%TO.N,/MOUNTING_3*%
X167783000Y-126192606D02*
X167783000Y-129008000D01*
X165893371Y-129008000D01*
X165893371Y-128898078D01*
X166023149Y-128736666D01*
X166040604Y-128709992D01*
X166058459Y-128683521D01*
X166060767Y-128679181D01*
X166205438Y-128402451D01*
X166217383Y-128372885D01*
X166229752Y-128343461D01*
X166231172Y-128338756D01*
X166319338Y-128039195D01*
X166325310Y-128007887D01*
X166331732Y-127976604D01*
X166332211Y-127971712D01*
X166360512Y-127660732D01*
X166360290Y-127628902D01*
X166360513Y-127596928D01*
X166360033Y-127592036D01*
X166327392Y-127281481D01*
X166320975Y-127250222D01*
X166314999Y-127218891D01*
X166313578Y-127214186D01*
X166221239Y-126915886D01*
X166208892Y-126886515D01*
X166196925Y-126856895D01*
X166194618Y-126852556D01*
X166046096Y-126577871D01*
X166028271Y-126551444D01*
X166010788Y-126524727D01*
X166007681Y-126520918D01*
X165808636Y-126280314D01*
X165786019Y-126257855D01*
X165763676Y-126235039D01*
X165759889Y-126231906D01*
X165517900Y-126034545D01*
X165491360Y-126016912D01*
X165465005Y-125998866D01*
X165460681Y-125996529D01*
X165184968Y-125849929D01*
X165155477Y-125837774D01*
X165126146Y-125825202D01*
X165121451Y-125823749D01*
X164822513Y-125733495D01*
X164791230Y-125727301D01*
X164760012Y-125720665D01*
X164755124Y-125720152D01*
X164444349Y-125689680D01*
X164428667Y-125689680D01*
X164413066Y-125688013D01*
X164408151Y-125688005D01*
X164391396Y-125688093D01*
X164376042Y-125689680D01*
X164375652Y-125689680D01*
X164375532Y-125689704D01*
X164360119Y-125689650D01*
X164355229Y-125690147D01*
X164044791Y-125723871D01*
X164013588Y-125730389D01*
X163982244Y-125736482D01*
X163977544Y-125737919D01*
X163679568Y-125831299D01*
X163650223Y-125843755D01*
X163620662Y-125855819D01*
X163616331Y-125858142D01*
X163342167Y-126007621D01*
X163315802Y-126025539D01*
X163289145Y-126043115D01*
X163285347Y-126046235D01*
X163045439Y-126246119D01*
X163023055Y-126268818D01*
X163000322Y-126291236D01*
X162997203Y-126295034D01*
X162800688Y-126537710D01*
X162783129Y-126564340D01*
X162765193Y-126590732D01*
X162762870Y-126595063D01*
X162617234Y-126871287D01*
X162605199Y-126900780D01*
X162592714Y-126930191D01*
X162591278Y-126934892D01*
X162502067Y-127234143D01*
X162495988Y-127265418D01*
X162489455Y-127296690D01*
X162488958Y-127301580D01*
X162459572Y-127612460D01*
X162459683Y-127644356D01*
X162459349Y-127676263D01*
X162459812Y-127681156D01*
X162491368Y-127991824D01*
X162497666Y-128023058D01*
X162503542Y-128054456D01*
X162504947Y-128059166D01*
X162596243Y-128357787D01*
X162608498Y-128387226D01*
X162620352Y-128416864D01*
X162622645Y-128421212D01*
X162770207Y-128696412D01*
X162787945Y-128722908D01*
X162805329Y-128749678D01*
X162808423Y-128753498D01*
X162926629Y-128897406D01*
X162926629Y-129008000D01*
X161037000Y-129008000D01*
X161037000Y-126192606D01*
X162962606Y-124267000D01*
X165857394Y-124267000D01*
X167783000Y-126192606D01*
%TA.AperFunction,Conductor*%
D27*
G36*
X167783000Y-126192606D02*
G01*
X167783000Y-129008000D01*
X165893371Y-129008000D01*
X165893371Y-128898078D01*
X166023149Y-128736666D01*
X166040604Y-128709992D01*
X166058459Y-128683521D01*
X166060767Y-128679181D01*
X166205438Y-128402451D01*
X166217383Y-128372885D01*
X166229752Y-128343461D01*
X166231172Y-128338756D01*
X166319338Y-128039195D01*
X166325310Y-128007887D01*
X166331732Y-127976604D01*
X166332211Y-127971712D01*
X166360512Y-127660732D01*
X166360290Y-127628902D01*
X166360513Y-127596928D01*
X166360033Y-127592036D01*
X166327392Y-127281481D01*
X166320975Y-127250222D01*
X166314999Y-127218891D01*
X166313578Y-127214186D01*
X166221239Y-126915886D01*
X166208892Y-126886515D01*
X166196925Y-126856895D01*
X166194618Y-126852556D01*
X166046096Y-126577871D01*
X166028271Y-126551444D01*
X166010788Y-126524727D01*
X166007681Y-126520918D01*
X165808636Y-126280314D01*
X165786019Y-126257855D01*
X165763676Y-126235039D01*
X165759889Y-126231906D01*
X165517900Y-126034545D01*
X165491360Y-126016912D01*
X165465005Y-125998866D01*
X165460681Y-125996529D01*
X165184968Y-125849929D01*
X165155477Y-125837774D01*
X165126146Y-125825202D01*
X165121451Y-125823749D01*
X164822513Y-125733495D01*
X164791230Y-125727301D01*
X164760012Y-125720665D01*
X164755124Y-125720152D01*
X164444349Y-125689680D01*
X164428667Y-125689680D01*
X164413066Y-125688013D01*
X164408151Y-125688005D01*
X164391396Y-125688093D01*
X164376042Y-125689680D01*
X164375652Y-125689680D01*
X164375532Y-125689704D01*
X164360119Y-125689650D01*
X164355229Y-125690147D01*
X164044791Y-125723871D01*
X164013588Y-125730389D01*
X163982244Y-125736482D01*
X163977544Y-125737919D01*
X163679568Y-125831299D01*
X163650223Y-125843755D01*
X163620662Y-125855819D01*
X163616331Y-125858142D01*
X163342167Y-126007621D01*
X163315802Y-126025539D01*
X163289145Y-126043115D01*
X163285347Y-126046235D01*
X163045439Y-126246119D01*
X163023055Y-126268818D01*
X163000322Y-126291236D01*
X162997203Y-126295034D01*
X162800688Y-126537710D01*
X162783129Y-126564340D01*
X162765193Y-126590732D01*
X162762870Y-126595063D01*
X162617234Y-126871287D01*
X162605199Y-126900780D01*
X162592714Y-126930191D01*
X162591278Y-126934892D01*
X162502067Y-127234143D01*
X162495988Y-127265418D01*
X162489455Y-127296690D01*
X162488958Y-127301580D01*
X162459572Y-127612460D01*
X162459683Y-127644356D01*
X162459349Y-127676263D01*
X162459812Y-127681156D01*
X162491368Y-127991824D01*
X162497666Y-128023058D01*
X162503542Y-128054456D01*
X162504947Y-128059166D01*
X162596243Y-128357787D01*
X162608498Y-128387226D01*
X162620352Y-128416864D01*
X162622645Y-128421212D01*
X162770207Y-128696412D01*
X162787945Y-128722908D01*
X162805329Y-128749678D01*
X162808423Y-128753498D01*
X162926629Y-128897406D01*
X162926629Y-129008000D01*
X161037000Y-129008000D01*
X161037000Y-126192606D01*
X162962606Y-124267000D01*
X165857394Y-124267000D01*
X167783000Y-126192606D01*
G37*
%TD.AperFunction*%
%TD*%
D26*
%TO.N,/MOUNTING_1*%
X162926629Y-31131922D02*
X162796850Y-31293334D01*
X162779385Y-31320024D01*
X162761541Y-31346478D01*
X162759234Y-31350818D01*
X162614562Y-31627549D01*
X162602612Y-31657126D01*
X162590248Y-31686539D01*
X162588828Y-31691244D01*
X162500662Y-31990805D01*
X162494688Y-32022119D01*
X162488268Y-32053396D01*
X162487789Y-32058288D01*
X162459488Y-32369268D01*
X162459710Y-32401099D01*
X162459487Y-32433073D01*
X162459967Y-32437964D01*
X162492608Y-32748520D01*
X162499026Y-32779786D01*
X162505001Y-32811109D01*
X162506422Y-32815814D01*
X162598761Y-33114114D01*
X162611108Y-33143485D01*
X162623075Y-33173105D01*
X162625383Y-33177445D01*
X162773904Y-33452129D01*
X162791735Y-33478565D01*
X162809213Y-33505274D01*
X162812319Y-33509082D01*
X163011365Y-33749687D01*
X163033981Y-33772145D01*
X163056324Y-33794961D01*
X163060111Y-33798094D01*
X163302100Y-33995455D01*
X163328658Y-34013100D01*
X163354996Y-34031134D01*
X163359319Y-34033471D01*
X163635033Y-34180071D01*
X163664484Y-34192210D01*
X163693853Y-34204798D01*
X163698549Y-34206251D01*
X163997486Y-34296505D01*
X164028763Y-34302698D01*
X164059987Y-34309335D01*
X164064876Y-34309848D01*
X164375650Y-34340320D01*
X164391333Y-34340320D01*
X164406934Y-34341987D01*
X164411849Y-34341995D01*
X164428604Y-34341907D01*
X164443958Y-34340320D01*
X164444348Y-34340320D01*
X164444468Y-34340296D01*
X164459880Y-34340350D01*
X164464770Y-34339853D01*
X164775209Y-34306129D01*
X164806412Y-34299611D01*
X164837756Y-34293518D01*
X164842456Y-34292081D01*
X165140432Y-34198701D01*
X165169777Y-34186245D01*
X165199338Y-34174181D01*
X165203669Y-34171858D01*
X165477834Y-34022379D01*
X165504193Y-34004465D01*
X165530855Y-33986885D01*
X165534653Y-33983765D01*
X165774561Y-33783881D01*
X165796962Y-33761165D01*
X165819678Y-33738764D01*
X165822797Y-33734966D01*
X166019313Y-33492289D01*
X166036866Y-33465669D01*
X166054807Y-33439269D01*
X166057130Y-33434937D01*
X166202766Y-33158713D01*
X166214807Y-33129206D01*
X166227286Y-33099808D01*
X166228722Y-33095108D01*
X166317934Y-32795856D01*
X166324019Y-32764549D01*
X166330546Y-32733309D01*
X166331042Y-32728419D01*
X166360428Y-32417540D01*
X166360317Y-32385645D01*
X166360651Y-32353737D01*
X166360188Y-32348844D01*
X166328632Y-32038177D01*
X166322335Y-32006950D01*
X166316458Y-31975544D01*
X166315053Y-31970833D01*
X166223756Y-31672213D01*
X166211511Y-31642795D01*
X166199648Y-31613136D01*
X166197355Y-31608788D01*
X166049793Y-31333588D01*
X166032055Y-31307092D01*
X166014671Y-31280322D01*
X166011577Y-31276502D01*
X165893371Y-31132595D01*
X165893371Y-31012000D01*
X167783000Y-31012000D01*
X167783000Y-33837394D01*
X165857394Y-35763000D01*
X162962606Y-35763000D01*
X161037000Y-33837394D01*
X161037000Y-31012000D01*
X162926629Y-31012000D01*
X162926629Y-31131922D01*
%TA.AperFunction,Conductor*%
D27*
G36*
X162926629Y-31131922D02*
G01*
X162796850Y-31293334D01*
X162779385Y-31320024D01*
X162761541Y-31346478D01*
X162759234Y-31350818D01*
X162614562Y-31627549D01*
X162602612Y-31657126D01*
X162590248Y-31686539D01*
X162588828Y-31691244D01*
X162500662Y-31990805D01*
X162494688Y-32022119D01*
X162488268Y-32053396D01*
X162487789Y-32058288D01*
X162459488Y-32369268D01*
X162459710Y-32401099D01*
X162459487Y-32433073D01*
X162459967Y-32437964D01*
X162492608Y-32748520D01*
X162499026Y-32779786D01*
X162505001Y-32811109D01*
X162506422Y-32815814D01*
X162598761Y-33114114D01*
X162611108Y-33143485D01*
X162623075Y-33173105D01*
X162625383Y-33177445D01*
X162773904Y-33452129D01*
X162791735Y-33478565D01*
X162809213Y-33505274D01*
X162812319Y-33509082D01*
X163011365Y-33749687D01*
X163033981Y-33772145D01*
X163056324Y-33794961D01*
X163060111Y-33798094D01*
X163302100Y-33995455D01*
X163328658Y-34013100D01*
X163354996Y-34031134D01*
X163359319Y-34033471D01*
X163635033Y-34180071D01*
X163664484Y-34192210D01*
X163693853Y-34204798D01*
X163698549Y-34206251D01*
X163997486Y-34296505D01*
X164028763Y-34302698D01*
X164059987Y-34309335D01*
X164064876Y-34309848D01*
X164375650Y-34340320D01*
X164391333Y-34340320D01*
X164406934Y-34341987D01*
X164411849Y-34341995D01*
X164428604Y-34341907D01*
X164443958Y-34340320D01*
X164444348Y-34340320D01*
X164444468Y-34340296D01*
X164459880Y-34340350D01*
X164464770Y-34339853D01*
X164775209Y-34306129D01*
X164806412Y-34299611D01*
X164837756Y-34293518D01*
X164842456Y-34292081D01*
X165140432Y-34198701D01*
X165169777Y-34186245D01*
X165199338Y-34174181D01*
X165203669Y-34171858D01*
X165477834Y-34022379D01*
X165504193Y-34004465D01*
X165530855Y-33986885D01*
X165534653Y-33983765D01*
X165774561Y-33783881D01*
X165796962Y-33761165D01*
X165819678Y-33738764D01*
X165822797Y-33734966D01*
X166019313Y-33492289D01*
X166036866Y-33465669D01*
X166054807Y-33439269D01*
X166057130Y-33434937D01*
X166202766Y-33158713D01*
X166214807Y-33129206D01*
X166227286Y-33099808D01*
X166228722Y-33095108D01*
X166317934Y-32795856D01*
X166324019Y-32764549D01*
X166330546Y-32733309D01*
X166331042Y-32728419D01*
X166360428Y-32417540D01*
X166360317Y-32385645D01*
X166360651Y-32353737D01*
X166360188Y-32348844D01*
X166328632Y-32038177D01*
X166322335Y-32006950D01*
X166316458Y-31975544D01*
X166315053Y-31970833D01*
X166223756Y-31672213D01*
X166211511Y-31642795D01*
X166199648Y-31613136D01*
X166197355Y-31608788D01*
X166049793Y-31333588D01*
X166032055Y-31307092D01*
X166014671Y-31280322D01*
X166011577Y-31276502D01*
X165893371Y-31132595D01*
X165893371Y-31012000D01*
X167783000Y-31012000D01*
X167783000Y-33837394D01*
X165857394Y-35763000D01*
X162962606Y-35763000D01*
X161037000Y-33837394D01*
X161037000Y-31012000D01*
X162926629Y-31012000D01*
X162926629Y-31131922D01*
G37*
%TD.AperFunction*%
%TD*%
D26*
%TO.N,/MOUNTING_2*%
X207426629Y-31131922D02*
X207296850Y-31293334D01*
X207279385Y-31320024D01*
X207261541Y-31346478D01*
X207259234Y-31350818D01*
X207114562Y-31627549D01*
X207102612Y-31657126D01*
X207090248Y-31686539D01*
X207088828Y-31691244D01*
X207000662Y-31990805D01*
X206994688Y-32022119D01*
X206988268Y-32053396D01*
X206987789Y-32058288D01*
X206959488Y-32369268D01*
X206959710Y-32401099D01*
X206959487Y-32433073D01*
X206959967Y-32437964D01*
X206992608Y-32748520D01*
X206999026Y-32779786D01*
X207005001Y-32811109D01*
X207006422Y-32815814D01*
X207098761Y-33114114D01*
X207111108Y-33143485D01*
X207123075Y-33173105D01*
X207125383Y-33177445D01*
X207273904Y-33452129D01*
X207291735Y-33478565D01*
X207309213Y-33505274D01*
X207312319Y-33509082D01*
X207511365Y-33749687D01*
X207533981Y-33772145D01*
X207556324Y-33794961D01*
X207560111Y-33798094D01*
X207802100Y-33995455D01*
X207828658Y-34013100D01*
X207854996Y-34031134D01*
X207859319Y-34033471D01*
X208135033Y-34180071D01*
X208164484Y-34192210D01*
X208193853Y-34204798D01*
X208198549Y-34206251D01*
X208497486Y-34296505D01*
X208528763Y-34302698D01*
X208559987Y-34309335D01*
X208564876Y-34309848D01*
X208875650Y-34340320D01*
X208891333Y-34340320D01*
X208906934Y-34341987D01*
X208911849Y-34341995D01*
X208928604Y-34341907D01*
X208943958Y-34340320D01*
X208944348Y-34340320D01*
X208944468Y-34340296D01*
X208959880Y-34340350D01*
X208964770Y-34339853D01*
X209275209Y-34306129D01*
X209306412Y-34299611D01*
X209337756Y-34293518D01*
X209342456Y-34292081D01*
X209640432Y-34198701D01*
X209669777Y-34186245D01*
X209699338Y-34174181D01*
X209703669Y-34171858D01*
X209977834Y-34022379D01*
X210004193Y-34004465D01*
X210030855Y-33986885D01*
X210034653Y-33983765D01*
X210274561Y-33783881D01*
X210296962Y-33761165D01*
X210319678Y-33738764D01*
X210322797Y-33734966D01*
X210519313Y-33492289D01*
X210536866Y-33465669D01*
X210554807Y-33439269D01*
X210557130Y-33434937D01*
X210702766Y-33158713D01*
X210714807Y-33129206D01*
X210727286Y-33099808D01*
X210728722Y-33095108D01*
X210817934Y-32795856D01*
X210824019Y-32764549D01*
X210830546Y-32733309D01*
X210831042Y-32728419D01*
X210860428Y-32417540D01*
X210860317Y-32385645D01*
X210860651Y-32353737D01*
X210860188Y-32348844D01*
X210828632Y-32038177D01*
X210822335Y-32006950D01*
X210816458Y-31975544D01*
X210815053Y-31970833D01*
X210723756Y-31672213D01*
X210711511Y-31642795D01*
X210699648Y-31613136D01*
X210697355Y-31608788D01*
X210549793Y-31333588D01*
X210532055Y-31307092D01*
X210514671Y-31280322D01*
X210511577Y-31276502D01*
X210393371Y-31132595D01*
X210393371Y-31012000D01*
X212233000Y-31012000D01*
X212233000Y-33837394D01*
X210307394Y-35763000D01*
X207412606Y-35763000D01*
X205487000Y-33837394D01*
X205487000Y-31012000D01*
X207426629Y-31012000D01*
X207426629Y-31131922D01*
%TA.AperFunction,Conductor*%
D27*
G36*
X207426629Y-31131922D02*
G01*
X207296850Y-31293334D01*
X207279385Y-31320024D01*
X207261541Y-31346478D01*
X207259234Y-31350818D01*
X207114562Y-31627549D01*
X207102612Y-31657126D01*
X207090248Y-31686539D01*
X207088828Y-31691244D01*
X207000662Y-31990805D01*
X206994688Y-32022119D01*
X206988268Y-32053396D01*
X206987789Y-32058288D01*
X206959488Y-32369268D01*
X206959710Y-32401099D01*
X206959487Y-32433073D01*
X206959967Y-32437964D01*
X206992608Y-32748520D01*
X206999026Y-32779786D01*
X207005001Y-32811109D01*
X207006422Y-32815814D01*
X207098761Y-33114114D01*
X207111108Y-33143485D01*
X207123075Y-33173105D01*
X207125383Y-33177445D01*
X207273904Y-33452129D01*
X207291735Y-33478565D01*
X207309213Y-33505274D01*
X207312319Y-33509082D01*
X207511365Y-33749687D01*
X207533981Y-33772145D01*
X207556324Y-33794961D01*
X207560111Y-33798094D01*
X207802100Y-33995455D01*
X207828658Y-34013100D01*
X207854996Y-34031134D01*
X207859319Y-34033471D01*
X208135033Y-34180071D01*
X208164484Y-34192210D01*
X208193853Y-34204798D01*
X208198549Y-34206251D01*
X208497486Y-34296505D01*
X208528763Y-34302698D01*
X208559987Y-34309335D01*
X208564876Y-34309848D01*
X208875650Y-34340320D01*
X208891333Y-34340320D01*
X208906934Y-34341987D01*
X208911849Y-34341995D01*
X208928604Y-34341907D01*
X208943958Y-34340320D01*
X208944348Y-34340320D01*
X208944468Y-34340296D01*
X208959880Y-34340350D01*
X208964770Y-34339853D01*
X209275209Y-34306129D01*
X209306412Y-34299611D01*
X209337756Y-34293518D01*
X209342456Y-34292081D01*
X209640432Y-34198701D01*
X209669777Y-34186245D01*
X209699338Y-34174181D01*
X209703669Y-34171858D01*
X209977834Y-34022379D01*
X210004193Y-34004465D01*
X210030855Y-33986885D01*
X210034653Y-33983765D01*
X210274561Y-33783881D01*
X210296962Y-33761165D01*
X210319678Y-33738764D01*
X210322797Y-33734966D01*
X210519313Y-33492289D01*
X210536866Y-33465669D01*
X210554807Y-33439269D01*
X210557130Y-33434937D01*
X210702766Y-33158713D01*
X210714807Y-33129206D01*
X210727286Y-33099808D01*
X210728722Y-33095108D01*
X210817934Y-32795856D01*
X210824019Y-32764549D01*
X210830546Y-32733309D01*
X210831042Y-32728419D01*
X210860428Y-32417540D01*
X210860317Y-32385645D01*
X210860651Y-32353737D01*
X210860188Y-32348844D01*
X210828632Y-32038177D01*
X210822335Y-32006950D01*
X210816458Y-31975544D01*
X210815053Y-31970833D01*
X210723756Y-31672213D01*
X210711511Y-31642795D01*
X210699648Y-31613136D01*
X210697355Y-31608788D01*
X210549793Y-31333588D01*
X210532055Y-31307092D01*
X210514671Y-31280322D01*
X210511577Y-31276502D01*
X210393371Y-31132595D01*
X210393371Y-31012000D01*
X212233000Y-31012000D01*
X212233000Y-33837394D01*
X210307394Y-35763000D01*
X207412606Y-35763000D01*
X205487000Y-33837394D01*
X205487000Y-31012000D01*
X207426629Y-31012000D01*
X207426629Y-31131922D01*
G37*
%TD.AperFunction*%
%TD*%
D26*
%TO.N,+3V3*%
X215138000Y-102922606D02*
X215138000Y-111557237D01*
X215093172Y-111624327D01*
X214970525Y-111920422D01*
X214908000Y-112234755D01*
X214908000Y-112555245D01*
X214970525Y-112869578D01*
X215093172Y-113165673D01*
X215138000Y-113232763D01*
X215138000Y-114124580D01*
X215129327Y-114128172D01*
X214862848Y-114306227D01*
X214636227Y-114532848D01*
X214458172Y-114799327D01*
X214367736Y-115017658D01*
X213942394Y-115443000D01*
X212892438Y-115443000D01*
X212860423Y-115429739D01*
X212449491Y-115348000D01*
X212030509Y-115348000D01*
X211619577Y-115429739D01*
X211587562Y-115443000D01*
X209752763Y-115443000D01*
X209685673Y-115398172D01*
X209389578Y-115275525D01*
X209075245Y-115213000D01*
X208754755Y-115213000D01*
X208440422Y-115275525D01*
X208144327Y-115398172D01*
X208077237Y-115443000D01*
X206392438Y-115443000D01*
X206360423Y-115429739D01*
X205949491Y-115348000D01*
X205530509Y-115348000D01*
X205119577Y-115429739D01*
X204732488Y-115590077D01*
X204384116Y-115822851D01*
X204087851Y-116119116D01*
X203855077Y-116467488D01*
X203694739Y-116854577D01*
X203613000Y-117265509D01*
X203613000Y-117684491D01*
X203675957Y-118001000D01*
X203388496Y-118001000D01*
X203327000Y-117994943D01*
X203265504Y-118001000D01*
X203265502Y-118001000D01*
X203081565Y-118019116D01*
X202845562Y-118090707D01*
X202628061Y-118206964D01*
X202437419Y-118363419D01*
X202398217Y-118411187D01*
X201028263Y-119781141D01*
X200849590Y-119816681D01*
X200571694Y-119931790D01*
X200321594Y-120098901D01*
X200108901Y-120311594D01*
X199941790Y-120561694D01*
X199826681Y-120839590D01*
X199768000Y-121134604D01*
X199768000Y-121435396D01*
X199826681Y-121730410D01*
X199887692Y-121877702D01*
X199653848Y-122111546D01*
X199317085Y-121972053D01*
X198944793Y-121898000D01*
X198565207Y-121898000D01*
X198192915Y-121972053D01*
X197842223Y-122117315D01*
X197526609Y-122328201D01*
X197485000Y-122369810D01*
X197443391Y-122328201D01*
X197127777Y-122117315D01*
X196777085Y-121972053D01*
X196404793Y-121898000D01*
X196025207Y-121898000D01*
X195652915Y-121972053D01*
X195302223Y-122117315D01*
X194986609Y-122328201D01*
X194945000Y-122369810D01*
X194903391Y-122328201D01*
X194587777Y-122117315D01*
X194237085Y-121972053D01*
X193864793Y-121898000D01*
X193485207Y-121898000D01*
X193112915Y-121972053D01*
X192762223Y-122117315D01*
X192446609Y-122328201D01*
X192405000Y-122369810D01*
X192363391Y-122328201D01*
X192047777Y-122117315D01*
X191697085Y-121972053D01*
X191324793Y-121898000D01*
X190945207Y-121898000D01*
X190572915Y-121972053D01*
X190222223Y-122117315D01*
X189906609Y-122328201D01*
X189806810Y-122428000D01*
X183160631Y-122428000D01*
X183174475Y-122394578D01*
X183237000Y-122080245D01*
X183237000Y-121759755D01*
X183174475Y-121445422D01*
X183051828Y-121149327D01*
X183038614Y-121129550D01*
X183049502Y-121109180D01*
X183085812Y-120989482D01*
X183098072Y-120865000D01*
X183095000Y-120300750D01*
X182936250Y-120142000D01*
X181737000Y-120142000D01*
X181737000Y-120162000D01*
X181483000Y-120162000D01*
X181483000Y-120142000D01*
X181463000Y-120142000D01*
X181463000Y-119888000D01*
X181483000Y-119888000D01*
X181483000Y-119868000D01*
X181737000Y-119868000D01*
X181737000Y-119888000D01*
X182936250Y-119888000D01*
X183095000Y-119729250D01*
X183098072Y-119165000D01*
X183085812Y-119040518D01*
X183049502Y-118920820D01*
X183018354Y-118862546D01*
X183145636Y-118735264D01*
X183151158Y-118727000D01*
X184723504Y-118727000D01*
X184785000Y-118733057D01*
X184846496Y-118727000D01*
X184846498Y-118727000D01*
X185030435Y-118708884D01*
X185266438Y-118637293D01*
X185483939Y-118521036D01*
X185674581Y-118364581D01*
X185713787Y-118316808D01*
X186428595Y-117602000D01*
X189376212Y-117602000D01*
X189393400Y-117634157D01*
X189534235Y-117805765D01*
X189705843Y-117946600D01*
X189901629Y-118051250D01*
X190114069Y-118115693D01*
X190335000Y-118137453D01*
X191935000Y-118137453D01*
X192155931Y-118115693D01*
X192368371Y-118051250D01*
X192564157Y-117946600D01*
X192675825Y-117854956D01*
X192762223Y-117912685D01*
X193112915Y-118057947D01*
X193485207Y-118132000D01*
X193864793Y-118132000D01*
X194237085Y-118057947D01*
X194587777Y-117912685D01*
X194903391Y-117701799D01*
X194945000Y-117660190D01*
X194986609Y-117701799D01*
X195302223Y-117912685D01*
X195652915Y-118057947D01*
X196025207Y-118132000D01*
X196404793Y-118132000D01*
X196777085Y-118057947D01*
X197127777Y-117912685D01*
X197443391Y-117701799D01*
X197485000Y-117660190D01*
X197526609Y-117701799D01*
X197842223Y-117912685D01*
X198192915Y-118057947D01*
X198565207Y-118132000D01*
X198944793Y-118132000D01*
X199317085Y-118057947D01*
X199667777Y-117912685D01*
X199983391Y-117701799D01*
X200251799Y-117433391D01*
X200462685Y-117117777D01*
X200607947Y-116767085D01*
X200682000Y-116394793D01*
X200682000Y-116015207D01*
X200634284Y-115775322D01*
X203252606Y-113157000D01*
X207962500Y-113157000D01*
X207987276Y-113154560D01*
X208011101Y-113147333D01*
X208032947Y-113135670D01*
X208350447Y-112924003D01*
X208363886Y-112912998D01*
X208557777Y-112832685D01*
X208873391Y-112621799D01*
X209141799Y-112353391D01*
X209352685Y-112037777D01*
X209497947Y-111687085D01*
X209572000Y-111314793D01*
X209572000Y-110935207D01*
X209497947Y-110562915D01*
X209352685Y-110212223D01*
X209141799Y-109896609D01*
X208873391Y-109628201D01*
X208557777Y-109417315D01*
X208207085Y-109272053D01*
X207834793Y-109198000D01*
X207455207Y-109198000D01*
X207082915Y-109272053D01*
X206732223Y-109417315D01*
X206416609Y-109628201D01*
X206375000Y-109669810D01*
X206333391Y-109628201D01*
X206017777Y-109417315D01*
X205667085Y-109272053D01*
X205294793Y-109198000D01*
X204915207Y-109198000D01*
X204542915Y-109272053D01*
X204192223Y-109417315D01*
X203876609Y-109628201D01*
X203835000Y-109669810D01*
X203793391Y-109628201D01*
X203477777Y-109417315D01*
X203127085Y-109272053D01*
X202754793Y-109198000D01*
X202375207Y-109198000D01*
X202002915Y-109272053D01*
X201652223Y-109417315D01*
X201336609Y-109628201D01*
X201295000Y-109669810D01*
X201253391Y-109628201D01*
X200937777Y-109417315D01*
X200587085Y-109272053D01*
X200214793Y-109198000D01*
X199835207Y-109198000D01*
X199462915Y-109272053D01*
X199112223Y-109417315D01*
X198796609Y-109628201D01*
X198755000Y-109669810D01*
X198713391Y-109628201D01*
X198397777Y-109417315D01*
X198047085Y-109272053D01*
X197674793Y-109198000D01*
X197295207Y-109198000D01*
X196922915Y-109272053D01*
X196572223Y-109417315D01*
X196256609Y-109628201D01*
X196215000Y-109669810D01*
X196173391Y-109628201D01*
X195857777Y-109417315D01*
X195507085Y-109272053D01*
X195134793Y-109198000D01*
X194755207Y-109198000D01*
X194382915Y-109272053D01*
X194032223Y-109417315D01*
X193716609Y-109628201D01*
X193675000Y-109669810D01*
X193633391Y-109628201D01*
X193317777Y-109417315D01*
X192967085Y-109272053D01*
X192594793Y-109198000D01*
X192515675Y-109198000D01*
X192488210Y-109131694D01*
X192321099Y-108881594D01*
X192108406Y-108668901D01*
X191858306Y-108501790D01*
X191580410Y-108386681D01*
X191285396Y-108328000D01*
X190984604Y-108328000D01*
X190689590Y-108386681D01*
X190411694Y-108501790D01*
X190161594Y-108668901D01*
X189948901Y-108881594D01*
X189781790Y-109131694D01*
X189756584Y-109192547D01*
X189065000Y-109192547D01*
X188844069Y-109214307D01*
X188631629Y-109278750D01*
X188435843Y-109383400D01*
X188264235Y-109524235D01*
X188123400Y-109695843D01*
X188106212Y-109728000D01*
X186107606Y-109728000D01*
X183587000Y-107207394D01*
X183587000Y-107120282D01*
X183511025Y-106738330D01*
X183361995Y-106378539D01*
X183145636Y-106054736D01*
X182870264Y-105779364D01*
X182546461Y-105563005D01*
X182186670Y-105413975D01*
X181804718Y-105338000D01*
X181415282Y-105338000D01*
X181033330Y-105413975D01*
X180673539Y-105563005D01*
X180349736Y-105779364D01*
X180211100Y-105918000D01*
X170867606Y-105918000D01*
X169844371Y-104894765D01*
X185063000Y-104894765D01*
X185063000Y-105215255D01*
X185125525Y-105529588D01*
X185248172Y-105825683D01*
X185426227Y-106092162D01*
X185652848Y-106318783D01*
X185919327Y-106496838D01*
X186215422Y-106619485D01*
X186529755Y-106682010D01*
X186850245Y-106682010D01*
X187164578Y-106619485D01*
X187460673Y-106496838D01*
X187727152Y-106318783D01*
X187953773Y-106092162D01*
X188131828Y-105825683D01*
X188254475Y-105529588D01*
X188317000Y-105215255D01*
X188317000Y-104894765D01*
X188254475Y-104580432D01*
X188131828Y-104284337D01*
X187953773Y-104017858D01*
X187789955Y-103854040D01*
X188473091Y-103854040D01*
X188567930Y-104118881D01*
X188712615Y-104360131D01*
X188901586Y-104568519D01*
X189127580Y-104736037D01*
X189381913Y-104856246D01*
X189515961Y-104896904D01*
X189738000Y-104774915D01*
X189738000Y-103632000D01*
X188594376Y-103632000D01*
X188473091Y-103854040D01*
X187789955Y-103854040D01*
X187727152Y-103791237D01*
X187460673Y-103613182D01*
X187164578Y-103490535D01*
X186850245Y-103428010D01*
X186529755Y-103428010D01*
X186215422Y-103490535D01*
X185919327Y-103613182D01*
X185652848Y-103791237D01*
X185426227Y-104017858D01*
X185248172Y-104284337D01*
X185125525Y-104580432D01*
X185063000Y-104894765D01*
X169844371Y-104894765D01*
X167767000Y-102817394D01*
X167767000Y-101816210D01*
X167989250Y-101815000D01*
X168148000Y-101656250D01*
X168148000Y-100457000D01*
X168402000Y-100457000D01*
X168402000Y-101656250D01*
X168560750Y-101815000D01*
X169125000Y-101818072D01*
X169249482Y-101805812D01*
X169369180Y-101769502D01*
X169389550Y-101758614D01*
X169409327Y-101771828D01*
X169705422Y-101894475D01*
X170019755Y-101957000D01*
X170340245Y-101957000D01*
X170654578Y-101894475D01*
X170950673Y-101771828D01*
X171217152Y-101593773D01*
X171443773Y-101367152D01*
X171621828Y-101100673D01*
X171625420Y-101092000D01*
X183141405Y-101092000D01*
X183856213Y-101806808D01*
X183895419Y-101854581D01*
X184086061Y-102011036D01*
X184303562Y-102127293D01*
X184539562Y-102198883D01*
X184539565Y-102198884D01*
X184785000Y-102223057D01*
X184846498Y-102217000D01*
X189248100Y-102217000D01*
X189127580Y-102273963D01*
X188901586Y-102441481D01*
X188712615Y-102649869D01*
X188567930Y-102891119D01*
X188473091Y-103155960D01*
X188594376Y-103378000D01*
X189738000Y-103378000D01*
X189738000Y-103358000D01*
X189992000Y-103358000D01*
X189992000Y-103378000D01*
X190012000Y-103378000D01*
X190012000Y-103632000D01*
X189992000Y-103632000D01*
X189992000Y-104774915D01*
X190214039Y-104896904D01*
X190348087Y-104856246D01*
X190602420Y-104736037D01*
X190782756Y-104602362D01*
X190896957Y-104716563D01*
X190908201Y-104733391D01*
X191176609Y-105001799D01*
X191492223Y-105212685D01*
X191842915Y-105357947D01*
X192215207Y-105432000D01*
X192594793Y-105432000D01*
X192967085Y-105357947D01*
X193317777Y-105212685D01*
X193633391Y-105001799D01*
X193675000Y-104960190D01*
X193716609Y-105001799D01*
X194032223Y-105212685D01*
X194382915Y-105357947D01*
X194755207Y-105432000D01*
X195134793Y-105432000D01*
X195507085Y-105357947D01*
X195857777Y-105212685D01*
X196173391Y-105001799D01*
X196215000Y-104960190D01*
X196256609Y-105001799D01*
X196572223Y-105212685D01*
X196922915Y-105357947D01*
X197295207Y-105432000D01*
X197674793Y-105432000D01*
X198047085Y-105357947D01*
X198397777Y-105212685D01*
X198713391Y-105001799D01*
X198755000Y-104960190D01*
X198796609Y-105001799D01*
X199112223Y-105212685D01*
X199462915Y-105357947D01*
X199835207Y-105432000D01*
X200214793Y-105432000D01*
X200587085Y-105357947D01*
X200937777Y-105212685D01*
X201253391Y-105001799D01*
X201295000Y-104960190D01*
X201336609Y-105001799D01*
X201652223Y-105212685D01*
X202002915Y-105357947D01*
X202375207Y-105432000D01*
X202754793Y-105432000D01*
X203127085Y-105357947D01*
X203477777Y-105212685D01*
X203793391Y-105001799D01*
X203835000Y-104960190D01*
X203876609Y-105001799D01*
X204192223Y-105212685D01*
X204542915Y-105357947D01*
X204915207Y-105432000D01*
X205294793Y-105432000D01*
X205667085Y-105357947D01*
X206017777Y-105212685D01*
X206333391Y-105001799D01*
X206375000Y-104960190D01*
X206416609Y-105001799D01*
X206732223Y-105212685D01*
X207082915Y-105357947D01*
X207455207Y-105432000D01*
X207834793Y-105432000D01*
X208207085Y-105357947D01*
X208557777Y-105212685D01*
X208873391Y-105001799D01*
X208884711Y-104990479D01*
X209075422Y-105069475D01*
X209389755Y-105132000D01*
X209710245Y-105132000D01*
X210024578Y-105069475D01*
X210320673Y-104946828D01*
X210587152Y-104768773D01*
X210813773Y-104542152D01*
X210991828Y-104275673D01*
X211114475Y-103979578D01*
X211177000Y-103665245D01*
X211177000Y-103344755D01*
X211114475Y-103030422D01*
X210991828Y-102734327D01*
X210813773Y-102467848D01*
X210587152Y-102241227D01*
X210320673Y-102063172D01*
X210024578Y-101940525D01*
X209710245Y-101878000D01*
X209389755Y-101878000D01*
X209075422Y-101940525D01*
X208884711Y-102019521D01*
X208873391Y-102008201D01*
X208557777Y-101797315D01*
X208207085Y-101652053D01*
X207834793Y-101578000D01*
X207455207Y-101578000D01*
X207137000Y-101641295D01*
X207137000Y-100382606D01*
X207207606Y-100312000D01*
X212527394Y-100312000D01*
X215138000Y-102922606D01*
%TA.AperFunction,Conductor*%
D27*
G36*
X215138000Y-102922606D02*
G01*
X215138000Y-111557237D01*
X215093172Y-111624327D01*
X214970525Y-111920422D01*
X214908000Y-112234755D01*
X214908000Y-112555245D01*
X214970525Y-112869578D01*
X215093172Y-113165673D01*
X215138000Y-113232763D01*
X215138000Y-114124580D01*
X215129327Y-114128172D01*
X214862848Y-114306227D01*
X214636227Y-114532848D01*
X214458172Y-114799327D01*
X214367736Y-115017658D01*
X213942394Y-115443000D01*
X212892438Y-115443000D01*
X212860423Y-115429739D01*
X212449491Y-115348000D01*
X212030509Y-115348000D01*
X211619577Y-115429739D01*
X211587562Y-115443000D01*
X209752763Y-115443000D01*
X209685673Y-115398172D01*
X209389578Y-115275525D01*
X209075245Y-115213000D01*
X208754755Y-115213000D01*
X208440422Y-115275525D01*
X208144327Y-115398172D01*
X208077237Y-115443000D01*
X206392438Y-115443000D01*
X206360423Y-115429739D01*
X205949491Y-115348000D01*
X205530509Y-115348000D01*
X205119577Y-115429739D01*
X204732488Y-115590077D01*
X204384116Y-115822851D01*
X204087851Y-116119116D01*
X203855077Y-116467488D01*
X203694739Y-116854577D01*
X203613000Y-117265509D01*
X203613000Y-117684491D01*
X203675957Y-118001000D01*
X203388496Y-118001000D01*
X203327000Y-117994943D01*
X203265504Y-118001000D01*
X203265502Y-118001000D01*
X203081565Y-118019116D01*
X202845562Y-118090707D01*
X202628061Y-118206964D01*
X202437419Y-118363419D01*
X202398217Y-118411187D01*
X201028263Y-119781141D01*
X200849590Y-119816681D01*
X200571694Y-119931790D01*
X200321594Y-120098901D01*
X200108901Y-120311594D01*
X199941790Y-120561694D01*
X199826681Y-120839590D01*
X199768000Y-121134604D01*
X199768000Y-121435396D01*
X199826681Y-121730410D01*
X199887692Y-121877702D01*
X199653848Y-122111546D01*
X199317085Y-121972053D01*
X198944793Y-121898000D01*
X198565207Y-121898000D01*
X198192915Y-121972053D01*
X197842223Y-122117315D01*
X197526609Y-122328201D01*
X197485000Y-122369810D01*
X197443391Y-122328201D01*
X197127777Y-122117315D01*
X196777085Y-121972053D01*
X196404793Y-121898000D01*
X196025207Y-121898000D01*
X195652915Y-121972053D01*
X195302223Y-122117315D01*
X194986609Y-122328201D01*
X194945000Y-122369810D01*
X194903391Y-122328201D01*
X194587777Y-122117315D01*
X194237085Y-121972053D01*
X193864793Y-121898000D01*
X193485207Y-121898000D01*
X193112915Y-121972053D01*
X192762223Y-122117315D01*
X192446609Y-122328201D01*
X192405000Y-122369810D01*
X192363391Y-122328201D01*
X192047777Y-122117315D01*
X191697085Y-121972053D01*
X191324793Y-121898000D01*
X190945207Y-121898000D01*
X190572915Y-121972053D01*
X190222223Y-122117315D01*
X189906609Y-122328201D01*
X189806810Y-122428000D01*
X183160631Y-122428000D01*
X183174475Y-122394578D01*
X183237000Y-122080245D01*
X183237000Y-121759755D01*
X183174475Y-121445422D01*
X183051828Y-121149327D01*
X183038614Y-121129550D01*
X183049502Y-121109180D01*
X183085812Y-120989482D01*
X183098072Y-120865000D01*
X183095000Y-120300750D01*
X182936250Y-120142000D01*
X181737000Y-120142000D01*
X181737000Y-120162000D01*
X181483000Y-120162000D01*
X181483000Y-120142000D01*
X181463000Y-120142000D01*
X181463000Y-119888000D01*
X181483000Y-119888000D01*
X181483000Y-119868000D01*
X181737000Y-119868000D01*
X181737000Y-119888000D01*
X182936250Y-119888000D01*
X183095000Y-119729250D01*
X183098072Y-119165000D01*
X183085812Y-119040518D01*
X183049502Y-118920820D01*
X183018354Y-118862546D01*
X183145636Y-118735264D01*
X183151158Y-118727000D01*
X184723504Y-118727000D01*
X184785000Y-118733057D01*
X184846496Y-118727000D01*
X184846498Y-118727000D01*
X185030435Y-118708884D01*
X185266438Y-118637293D01*
X185483939Y-118521036D01*
X185674581Y-118364581D01*
X185713787Y-118316808D01*
X186428595Y-117602000D01*
X189376212Y-117602000D01*
X189393400Y-117634157D01*
X189534235Y-117805765D01*
X189705843Y-117946600D01*
X189901629Y-118051250D01*
X190114069Y-118115693D01*
X190335000Y-118137453D01*
X191935000Y-118137453D01*
X192155931Y-118115693D01*
X192368371Y-118051250D01*
X192564157Y-117946600D01*
X192675825Y-117854956D01*
X192762223Y-117912685D01*
X193112915Y-118057947D01*
X193485207Y-118132000D01*
X193864793Y-118132000D01*
X194237085Y-118057947D01*
X194587777Y-117912685D01*
X194903391Y-117701799D01*
X194945000Y-117660190D01*
X194986609Y-117701799D01*
X195302223Y-117912685D01*
X195652915Y-118057947D01*
X196025207Y-118132000D01*
X196404793Y-118132000D01*
X196777085Y-118057947D01*
X197127777Y-117912685D01*
X197443391Y-117701799D01*
X197485000Y-117660190D01*
X197526609Y-117701799D01*
X197842223Y-117912685D01*
X198192915Y-118057947D01*
X198565207Y-118132000D01*
X198944793Y-118132000D01*
X199317085Y-118057947D01*
X199667777Y-117912685D01*
X199983391Y-117701799D01*
X200251799Y-117433391D01*
X200462685Y-117117777D01*
X200607947Y-116767085D01*
X200682000Y-116394793D01*
X200682000Y-116015207D01*
X200634284Y-115775322D01*
X203252606Y-113157000D01*
X207962500Y-113157000D01*
X207987276Y-113154560D01*
X208011101Y-113147333D01*
X208032947Y-113135670D01*
X208350447Y-112924003D01*
X208363886Y-112912998D01*
X208557777Y-112832685D01*
X208873391Y-112621799D01*
X209141799Y-112353391D01*
X209352685Y-112037777D01*
X209497947Y-111687085D01*
X209572000Y-111314793D01*
X209572000Y-110935207D01*
X209497947Y-110562915D01*
X209352685Y-110212223D01*
X209141799Y-109896609D01*
X208873391Y-109628201D01*
X208557777Y-109417315D01*
X208207085Y-109272053D01*
X207834793Y-109198000D01*
X207455207Y-109198000D01*
X207082915Y-109272053D01*
X206732223Y-109417315D01*
X206416609Y-109628201D01*
X206375000Y-109669810D01*
X206333391Y-109628201D01*
X206017777Y-109417315D01*
X205667085Y-109272053D01*
X205294793Y-109198000D01*
X204915207Y-109198000D01*
X204542915Y-109272053D01*
X204192223Y-109417315D01*
X203876609Y-109628201D01*
X203835000Y-109669810D01*
X203793391Y-109628201D01*
X203477777Y-109417315D01*
X203127085Y-109272053D01*
X202754793Y-109198000D01*
X202375207Y-109198000D01*
X202002915Y-109272053D01*
X201652223Y-109417315D01*
X201336609Y-109628201D01*
X201295000Y-109669810D01*
X201253391Y-109628201D01*
X200937777Y-109417315D01*
X200587085Y-109272053D01*
X200214793Y-109198000D01*
X199835207Y-109198000D01*
X199462915Y-109272053D01*
X199112223Y-109417315D01*
X198796609Y-109628201D01*
X198755000Y-109669810D01*
X198713391Y-109628201D01*
X198397777Y-109417315D01*
X198047085Y-109272053D01*
X197674793Y-109198000D01*
X197295207Y-109198000D01*
X196922915Y-109272053D01*
X196572223Y-109417315D01*
X196256609Y-109628201D01*
X196215000Y-109669810D01*
X196173391Y-109628201D01*
X195857777Y-109417315D01*
X195507085Y-109272053D01*
X195134793Y-109198000D01*
X194755207Y-109198000D01*
X194382915Y-109272053D01*
X194032223Y-109417315D01*
X193716609Y-109628201D01*
X193675000Y-109669810D01*
X193633391Y-109628201D01*
X193317777Y-109417315D01*
X192967085Y-109272053D01*
X192594793Y-109198000D01*
X192515675Y-109198000D01*
X192488210Y-109131694D01*
X192321099Y-108881594D01*
X192108406Y-108668901D01*
X191858306Y-108501790D01*
X191580410Y-108386681D01*
X191285396Y-108328000D01*
X190984604Y-108328000D01*
X190689590Y-108386681D01*
X190411694Y-108501790D01*
X190161594Y-108668901D01*
X189948901Y-108881594D01*
X189781790Y-109131694D01*
X189756584Y-109192547D01*
X189065000Y-109192547D01*
X188844069Y-109214307D01*
X188631629Y-109278750D01*
X188435843Y-109383400D01*
X188264235Y-109524235D01*
X188123400Y-109695843D01*
X188106212Y-109728000D01*
X186107606Y-109728000D01*
X183587000Y-107207394D01*
X183587000Y-107120282D01*
X183511025Y-106738330D01*
X183361995Y-106378539D01*
X183145636Y-106054736D01*
X182870264Y-105779364D01*
X182546461Y-105563005D01*
X182186670Y-105413975D01*
X181804718Y-105338000D01*
X181415282Y-105338000D01*
X181033330Y-105413975D01*
X180673539Y-105563005D01*
X180349736Y-105779364D01*
X180211100Y-105918000D01*
X170867606Y-105918000D01*
X169844371Y-104894765D01*
X185063000Y-104894765D01*
X185063000Y-105215255D01*
X185125525Y-105529588D01*
X185248172Y-105825683D01*
X185426227Y-106092162D01*
X185652848Y-106318783D01*
X185919327Y-106496838D01*
X186215422Y-106619485D01*
X186529755Y-106682010D01*
X186850245Y-106682010D01*
X187164578Y-106619485D01*
X187460673Y-106496838D01*
X187727152Y-106318783D01*
X187953773Y-106092162D01*
X188131828Y-105825683D01*
X188254475Y-105529588D01*
X188317000Y-105215255D01*
X188317000Y-104894765D01*
X188254475Y-104580432D01*
X188131828Y-104284337D01*
X187953773Y-104017858D01*
X187789955Y-103854040D01*
X188473091Y-103854040D01*
X188567930Y-104118881D01*
X188712615Y-104360131D01*
X188901586Y-104568519D01*
X189127580Y-104736037D01*
X189381913Y-104856246D01*
X189515961Y-104896904D01*
X189738000Y-104774915D01*
X189738000Y-103632000D01*
X188594376Y-103632000D01*
X188473091Y-103854040D01*
X187789955Y-103854040D01*
X187727152Y-103791237D01*
X187460673Y-103613182D01*
X187164578Y-103490535D01*
X186850245Y-103428010D01*
X186529755Y-103428010D01*
X186215422Y-103490535D01*
X185919327Y-103613182D01*
X185652848Y-103791237D01*
X185426227Y-104017858D01*
X185248172Y-104284337D01*
X185125525Y-104580432D01*
X185063000Y-104894765D01*
X169844371Y-104894765D01*
X167767000Y-102817394D01*
X167767000Y-101816210D01*
X167989250Y-101815000D01*
X168148000Y-101656250D01*
X168148000Y-100457000D01*
X168402000Y-100457000D01*
X168402000Y-101656250D01*
X168560750Y-101815000D01*
X169125000Y-101818072D01*
X169249482Y-101805812D01*
X169369180Y-101769502D01*
X169389550Y-101758614D01*
X169409327Y-101771828D01*
X169705422Y-101894475D01*
X170019755Y-101957000D01*
X170340245Y-101957000D01*
X170654578Y-101894475D01*
X170950673Y-101771828D01*
X171217152Y-101593773D01*
X171443773Y-101367152D01*
X171621828Y-101100673D01*
X171625420Y-101092000D01*
X183141405Y-101092000D01*
X183856213Y-101806808D01*
X183895419Y-101854581D01*
X184086061Y-102011036D01*
X184303562Y-102127293D01*
X184539562Y-102198883D01*
X184539565Y-102198884D01*
X184785000Y-102223057D01*
X184846498Y-102217000D01*
X189248100Y-102217000D01*
X189127580Y-102273963D01*
X188901586Y-102441481D01*
X188712615Y-102649869D01*
X188567930Y-102891119D01*
X188473091Y-103155960D01*
X188594376Y-103378000D01*
X189738000Y-103378000D01*
X189738000Y-103358000D01*
X189992000Y-103358000D01*
X189992000Y-103378000D01*
X190012000Y-103378000D01*
X190012000Y-103632000D01*
X189992000Y-103632000D01*
X189992000Y-104774915D01*
X190214039Y-104896904D01*
X190348087Y-104856246D01*
X190602420Y-104736037D01*
X190782756Y-104602362D01*
X190896957Y-104716563D01*
X190908201Y-104733391D01*
X191176609Y-105001799D01*
X191492223Y-105212685D01*
X191842915Y-105357947D01*
X192215207Y-105432000D01*
X192594793Y-105432000D01*
X192967085Y-105357947D01*
X193317777Y-105212685D01*
X193633391Y-105001799D01*
X193675000Y-104960190D01*
X193716609Y-105001799D01*
X194032223Y-105212685D01*
X194382915Y-105357947D01*
X194755207Y-105432000D01*
X195134793Y-105432000D01*
X195507085Y-105357947D01*
X195857777Y-105212685D01*
X196173391Y-105001799D01*
X196215000Y-104960190D01*
X196256609Y-105001799D01*
X196572223Y-105212685D01*
X196922915Y-105357947D01*
X197295207Y-105432000D01*
X197674793Y-105432000D01*
X198047085Y-105357947D01*
X198397777Y-105212685D01*
X198713391Y-105001799D01*
X198755000Y-104960190D01*
X198796609Y-105001799D01*
X199112223Y-105212685D01*
X199462915Y-105357947D01*
X199835207Y-105432000D01*
X200214793Y-105432000D01*
X200587085Y-105357947D01*
X200937777Y-105212685D01*
X201253391Y-105001799D01*
X201295000Y-104960190D01*
X201336609Y-105001799D01*
X201652223Y-105212685D01*
X202002915Y-105357947D01*
X202375207Y-105432000D01*
X202754793Y-105432000D01*
X203127085Y-105357947D01*
X203477777Y-105212685D01*
X203793391Y-105001799D01*
X203835000Y-104960190D01*
X203876609Y-105001799D01*
X204192223Y-105212685D01*
X204542915Y-105357947D01*
X204915207Y-105432000D01*
X205294793Y-105432000D01*
X205667085Y-105357947D01*
X206017777Y-105212685D01*
X206333391Y-105001799D01*
X206375000Y-104960190D01*
X206416609Y-105001799D01*
X206732223Y-105212685D01*
X207082915Y-105357947D01*
X207455207Y-105432000D01*
X207834793Y-105432000D01*
X208207085Y-105357947D01*
X208557777Y-105212685D01*
X208873391Y-105001799D01*
X208884711Y-104990479D01*
X209075422Y-105069475D01*
X209389755Y-105132000D01*
X209710245Y-105132000D01*
X210024578Y-105069475D01*
X210320673Y-104946828D01*
X210587152Y-104768773D01*
X210813773Y-104542152D01*
X210991828Y-104275673D01*
X211114475Y-103979578D01*
X211177000Y-103665245D01*
X211177000Y-103344755D01*
X211114475Y-103030422D01*
X210991828Y-102734327D01*
X210813773Y-102467848D01*
X210587152Y-102241227D01*
X210320673Y-102063172D01*
X210024578Y-101940525D01*
X209710245Y-101878000D01*
X209389755Y-101878000D01*
X209075422Y-101940525D01*
X208884711Y-102019521D01*
X208873391Y-102008201D01*
X208557777Y-101797315D01*
X208207085Y-101652053D01*
X207834793Y-101578000D01*
X207455207Y-101578000D01*
X207137000Y-101641295D01*
X207137000Y-100382606D01*
X207207606Y-100312000D01*
X212527394Y-100312000D01*
X215138000Y-102922606D01*
G37*
%TD.AperFunction*%
%TD*%
D26*
%TO.N,+3V3*%
X163322000Y-58293000D02*
X163342000Y-58293000D01*
X163342000Y-58547000D01*
X163322000Y-58547000D01*
X163322000Y-59740155D01*
X163551890Y-59861476D01*
X163699099Y-59816825D01*
X163961920Y-59691641D01*
X164125459Y-59569658D01*
X164199364Y-59680264D01*
X164474736Y-59955636D01*
X164540310Y-59999451D01*
X164381790Y-60236694D01*
X164266681Y-60514590D01*
X164208000Y-60809604D01*
X164208000Y-61110396D01*
X164266681Y-61405410D01*
X164381790Y-61683306D01*
X164548901Y-61933406D01*
X164761594Y-62146099D01*
X165011694Y-62313210D01*
X165289590Y-62428319D01*
X165584604Y-62487000D01*
X165885396Y-62487000D01*
X166180410Y-62428319D01*
X166458306Y-62313210D01*
X166609778Y-62212000D01*
X176786004Y-62212000D01*
X176847500Y-62218057D01*
X176908996Y-62212000D01*
X176908998Y-62212000D01*
X177092935Y-62193884D01*
X177328938Y-62122293D01*
X177546439Y-62006036D01*
X177737081Y-61849581D01*
X177776287Y-61801808D01*
X178491095Y-61087000D01*
X190447394Y-61087000D01*
X199088000Y-69727606D01*
X199088000Y-70044718D01*
X199163975Y-70426670D01*
X199313005Y-70786461D01*
X199529364Y-71110264D01*
X199804736Y-71385636D01*
X200128539Y-71601995D01*
X200488330Y-71751025D01*
X200870282Y-71827000D01*
X201259718Y-71827000D01*
X201641670Y-71751025D01*
X202001461Y-71601995D01*
X202325264Y-71385636D01*
X202600636Y-71110264D01*
X202606158Y-71102000D01*
X208694430Y-71102000D01*
X208620525Y-71280422D01*
X208558000Y-71594755D01*
X208558000Y-71915245D01*
X208620525Y-72229578D01*
X208743172Y-72525673D01*
X208921227Y-72792152D01*
X209147848Y-73018773D01*
X209414327Y-73196828D01*
X209710422Y-73319475D01*
X209972750Y-73371655D01*
X207939226Y-75405179D01*
X207939475Y-75404578D01*
X208002000Y-75090245D01*
X208002000Y-74769755D01*
X207939475Y-74455422D01*
X207816828Y-74159327D01*
X207638773Y-73892848D01*
X207412152Y-73666227D01*
X207145673Y-73488172D01*
X206849578Y-73365525D01*
X206535245Y-73303000D01*
X206214755Y-73303000D01*
X205900422Y-73365525D01*
X205604327Y-73488172D01*
X205337848Y-73666227D01*
X205111227Y-73892848D01*
X204933172Y-74159327D01*
X204810525Y-74455422D01*
X204748000Y-74769755D01*
X204748000Y-75090245D01*
X204810525Y-75404578D01*
X204933172Y-75700673D01*
X205111227Y-75967152D01*
X205337848Y-76193773D01*
X205604327Y-76371828D01*
X205900422Y-76494475D01*
X206214755Y-76557000D01*
X206535245Y-76557000D01*
X206849578Y-76494475D01*
X206850179Y-76494226D01*
X205221405Y-78123000D01*
X204827000Y-78123000D01*
X204827000Y-77944755D01*
X204764475Y-77630422D01*
X204641828Y-77334327D01*
X204463773Y-77067848D01*
X204237152Y-76841227D01*
X203970673Y-76663172D01*
X203674578Y-76540525D01*
X203360245Y-76478000D01*
X203255434Y-76478000D01*
X203272000Y-76394718D01*
X203272000Y-76005282D01*
X203196025Y-75623330D01*
X203046995Y-75263539D01*
X202830636Y-74939736D01*
X202555264Y-74664364D01*
X202231461Y-74448005D01*
X201871670Y-74298975D01*
X201489718Y-74223000D01*
X201100282Y-74223000D01*
X200718330Y-74298975D01*
X200358539Y-74448005D01*
X200034736Y-74664364D01*
X200025000Y-74674100D01*
X200015264Y-74664364D01*
X199691461Y-74448005D01*
X199331670Y-74298975D01*
X198949718Y-74223000D01*
X198560282Y-74223000D01*
X198178330Y-74298975D01*
X197818539Y-74448005D01*
X197776579Y-74476042D01*
X197694157Y-74408400D01*
X197498371Y-74303750D01*
X197285931Y-74239307D01*
X197065000Y-74217547D01*
X195365000Y-74217547D01*
X195144069Y-74239307D01*
X195086405Y-74256799D01*
X195034803Y-74205197D01*
X195015557Y-74189403D01*
X194993601Y-74177667D01*
X194969776Y-74170440D01*
X194945000Y-74168000D01*
X172137606Y-74168000D01*
X166818722Y-68849116D01*
X166822574Y-68810000D01*
X166800332Y-68584169D01*
X166734459Y-68367016D01*
X166627488Y-68166886D01*
X166483528Y-67991472D01*
X166308114Y-67847512D01*
X166107984Y-67740541D01*
X165890831Y-67674668D01*
X165721595Y-67658000D01*
X165665000Y-67652426D01*
X165608405Y-67658000D01*
X164357606Y-67658000D01*
X160782000Y-64082394D01*
X160782000Y-60397000D01*
X160849718Y-60397000D01*
X161231670Y-60321025D01*
X161591461Y-60171995D01*
X161915264Y-59955636D01*
X162190636Y-59680264D01*
X162264541Y-59569658D01*
X162428080Y-59691641D01*
X162690901Y-59816825D01*
X162838110Y-59861476D01*
X163068000Y-59740155D01*
X163068000Y-58547000D01*
X163048000Y-58547000D01*
X163048000Y-58293000D01*
X163068000Y-58293000D01*
X163068000Y-58273000D01*
X163322000Y-58273000D01*
X163322000Y-58293000D01*
%TA.AperFunction,Conductor*%
D27*
G36*
X163322000Y-58293000D02*
G01*
X163342000Y-58293000D01*
X163342000Y-58547000D01*
X163322000Y-58547000D01*
X163322000Y-59740155D01*
X163551890Y-59861476D01*
X163699099Y-59816825D01*
X163961920Y-59691641D01*
X164125459Y-59569658D01*
X164199364Y-59680264D01*
X164474736Y-59955636D01*
X164540310Y-59999451D01*
X164381790Y-60236694D01*
X164266681Y-60514590D01*
X164208000Y-60809604D01*
X164208000Y-61110396D01*
X164266681Y-61405410D01*
X164381790Y-61683306D01*
X164548901Y-61933406D01*
X164761594Y-62146099D01*
X165011694Y-62313210D01*
X165289590Y-62428319D01*
X165584604Y-62487000D01*
X165885396Y-62487000D01*
X166180410Y-62428319D01*
X166458306Y-62313210D01*
X166609778Y-62212000D01*
X176786004Y-62212000D01*
X176847500Y-62218057D01*
X176908996Y-62212000D01*
X176908998Y-62212000D01*
X177092935Y-62193884D01*
X177328938Y-62122293D01*
X177546439Y-62006036D01*
X177737081Y-61849581D01*
X177776287Y-61801808D01*
X178491095Y-61087000D01*
X190447394Y-61087000D01*
X199088000Y-69727606D01*
X199088000Y-70044718D01*
X199163975Y-70426670D01*
X199313005Y-70786461D01*
X199529364Y-71110264D01*
X199804736Y-71385636D01*
X200128539Y-71601995D01*
X200488330Y-71751025D01*
X200870282Y-71827000D01*
X201259718Y-71827000D01*
X201641670Y-71751025D01*
X202001461Y-71601995D01*
X202325264Y-71385636D01*
X202600636Y-71110264D01*
X202606158Y-71102000D01*
X208694430Y-71102000D01*
X208620525Y-71280422D01*
X208558000Y-71594755D01*
X208558000Y-71915245D01*
X208620525Y-72229578D01*
X208743172Y-72525673D01*
X208921227Y-72792152D01*
X209147848Y-73018773D01*
X209414327Y-73196828D01*
X209710422Y-73319475D01*
X209972750Y-73371655D01*
X207939226Y-75405179D01*
X207939475Y-75404578D01*
X208002000Y-75090245D01*
X208002000Y-74769755D01*
X207939475Y-74455422D01*
X207816828Y-74159327D01*
X207638773Y-73892848D01*
X207412152Y-73666227D01*
X207145673Y-73488172D01*
X206849578Y-73365525D01*
X206535245Y-73303000D01*
X206214755Y-73303000D01*
X205900422Y-73365525D01*
X205604327Y-73488172D01*
X205337848Y-73666227D01*
X205111227Y-73892848D01*
X204933172Y-74159327D01*
X204810525Y-74455422D01*
X204748000Y-74769755D01*
X204748000Y-75090245D01*
X204810525Y-75404578D01*
X204933172Y-75700673D01*
X205111227Y-75967152D01*
X205337848Y-76193773D01*
X205604327Y-76371828D01*
X205900422Y-76494475D01*
X206214755Y-76557000D01*
X206535245Y-76557000D01*
X206849578Y-76494475D01*
X206850179Y-76494226D01*
X205221405Y-78123000D01*
X204827000Y-78123000D01*
X204827000Y-77944755D01*
X204764475Y-77630422D01*
X204641828Y-77334327D01*
X204463773Y-77067848D01*
X204237152Y-76841227D01*
X203970673Y-76663172D01*
X203674578Y-76540525D01*
X203360245Y-76478000D01*
X203255434Y-76478000D01*
X203272000Y-76394718D01*
X203272000Y-76005282D01*
X203196025Y-75623330D01*
X203046995Y-75263539D01*
X202830636Y-74939736D01*
X202555264Y-74664364D01*
X202231461Y-74448005D01*
X201871670Y-74298975D01*
X201489718Y-74223000D01*
X201100282Y-74223000D01*
X200718330Y-74298975D01*
X200358539Y-74448005D01*
X200034736Y-74664364D01*
X200025000Y-74674100D01*
X200015264Y-74664364D01*
X199691461Y-74448005D01*
X199331670Y-74298975D01*
X198949718Y-74223000D01*
X198560282Y-74223000D01*
X198178330Y-74298975D01*
X197818539Y-74448005D01*
X197776579Y-74476042D01*
X197694157Y-74408400D01*
X197498371Y-74303750D01*
X197285931Y-74239307D01*
X197065000Y-74217547D01*
X195365000Y-74217547D01*
X195144069Y-74239307D01*
X195086405Y-74256799D01*
X195034803Y-74205197D01*
X195015557Y-74189403D01*
X194993601Y-74177667D01*
X194969776Y-74170440D01*
X194945000Y-74168000D01*
X172137606Y-74168000D01*
X166818722Y-68849116D01*
X166822574Y-68810000D01*
X166800332Y-68584169D01*
X166734459Y-68367016D01*
X166627488Y-68166886D01*
X166483528Y-67991472D01*
X166308114Y-67847512D01*
X166107984Y-67740541D01*
X165890831Y-67674668D01*
X165721595Y-67658000D01*
X165665000Y-67652426D01*
X165608405Y-67658000D01*
X164357606Y-67658000D01*
X160782000Y-64082394D01*
X160782000Y-60397000D01*
X160849718Y-60397000D01*
X161231670Y-60321025D01*
X161591461Y-60171995D01*
X161915264Y-59955636D01*
X162190636Y-59680264D01*
X162264541Y-59569658D01*
X162428080Y-59691641D01*
X162690901Y-59816825D01*
X162838110Y-59861476D01*
X163068000Y-59740155D01*
X163068000Y-58547000D01*
X163048000Y-58547000D01*
X163048000Y-58293000D01*
X163068000Y-58293000D01*
X163068000Y-58273000D01*
X163322000Y-58273000D01*
X163322000Y-58293000D01*
G37*
%TD.AperFunction*%
%TD*%
D26*
%TO.N,+3V3*%
X210849735Y-81489341D02*
X210826227Y-81512848D01*
X210648172Y-81779327D01*
X210525525Y-82075422D01*
X210463000Y-82389755D01*
X210463000Y-82710245D01*
X210525525Y-83024578D01*
X210648172Y-83320673D01*
X210826227Y-83587152D01*
X211052848Y-83813773D01*
X211062167Y-83820000D01*
X211052848Y-83826227D01*
X210826227Y-84052848D01*
X210648172Y-84319327D01*
X210525525Y-84615422D01*
X210463000Y-84929755D01*
X210463000Y-85250245D01*
X210525525Y-85564578D01*
X210648172Y-85860673D01*
X210826227Y-86127152D01*
X210849735Y-86150660D01*
X210767394Y-86233000D01*
X205307763Y-86233000D01*
X205240673Y-86188172D01*
X204944578Y-86065525D01*
X204630245Y-86003000D01*
X204309755Y-86003000D01*
X203995422Y-86065525D01*
X203699327Y-86188172D01*
X203632237Y-86233000D01*
X201353190Y-86233000D01*
X201253391Y-86133201D01*
X200937777Y-85922315D01*
X200587085Y-85777053D01*
X200214793Y-85703000D01*
X200135675Y-85703000D01*
X200108210Y-85636694D01*
X199941099Y-85386594D01*
X199728406Y-85173901D01*
X199478306Y-85006790D01*
X199200410Y-84891681D01*
X198905396Y-84833000D01*
X198604604Y-84833000D01*
X198309590Y-84891681D01*
X198031694Y-85006790D01*
X197781594Y-85173901D01*
X197568901Y-85386594D01*
X197401790Y-85636694D01*
X197374325Y-85703000D01*
X197295207Y-85703000D01*
X196922915Y-85777053D01*
X196572223Y-85922315D01*
X196256609Y-86133201D01*
X196215000Y-86174810D01*
X196173391Y-86133201D01*
X195857777Y-85922315D01*
X195507085Y-85777053D01*
X195134793Y-85703000D01*
X195055675Y-85703000D01*
X195028210Y-85636694D01*
X194861099Y-85386594D01*
X194648406Y-85173901D01*
X194398306Y-85006790D01*
X194120410Y-84891681D01*
X193825396Y-84833000D01*
X193524604Y-84833000D01*
X193229590Y-84891681D01*
X192951694Y-85006790D01*
X192701594Y-85173901D01*
X192488901Y-85386594D01*
X192321790Y-85636694D01*
X192294325Y-85703000D01*
X192215207Y-85703000D01*
X191842915Y-85777053D01*
X191492223Y-85922315D01*
X191176609Y-86133201D01*
X191135000Y-86174810D01*
X191093391Y-86133201D01*
X190777777Y-85922315D01*
X190427085Y-85777053D01*
X190054793Y-85703000D01*
X189675207Y-85703000D01*
X189302915Y-85777053D01*
X188952223Y-85922315D01*
X188636609Y-86133201D01*
X188595000Y-86174810D01*
X188553391Y-86133201D01*
X188237777Y-85922315D01*
X187887085Y-85777053D01*
X187514793Y-85703000D01*
X187135207Y-85703000D01*
X186762915Y-85777053D01*
X186412223Y-85922315D01*
X186096609Y-86133201D01*
X186055000Y-86174810D01*
X186013391Y-86133201D01*
X185697777Y-85922315D01*
X185347085Y-85777053D01*
X184974793Y-85703000D01*
X184595207Y-85703000D01*
X184222915Y-85777053D01*
X183872223Y-85922315D01*
X183556609Y-86133201D01*
X183515000Y-86174810D01*
X183473391Y-86133201D01*
X183157777Y-85922315D01*
X182807085Y-85777053D01*
X182434793Y-85703000D01*
X182055207Y-85703000D01*
X181682915Y-85777053D01*
X181332223Y-85922315D01*
X181016609Y-86133201D01*
X180975000Y-86174810D01*
X180933391Y-86133201D01*
X180617777Y-85922315D01*
X180267085Y-85777053D01*
X179894793Y-85703000D01*
X179515207Y-85703000D01*
X179142915Y-85777053D01*
X178792223Y-85922315D01*
X178476609Y-86133201D01*
X178208201Y-86401609D01*
X178108099Y-86551423D01*
X177902420Y-86398963D01*
X177648087Y-86278754D01*
X177514039Y-86238096D01*
X177292000Y-86360085D01*
X177292000Y-87503000D01*
X177038000Y-87503000D01*
X177038000Y-86360085D01*
X176815961Y-86238096D01*
X176681913Y-86278754D01*
X176427580Y-86398963D01*
X176201586Y-86566481D01*
X176022000Y-86764520D01*
X176022000Y-85262393D01*
X176084590Y-85288319D01*
X176379604Y-85347000D01*
X176680396Y-85347000D01*
X176975410Y-85288319D01*
X177253306Y-85173210D01*
X177503406Y-85006099D01*
X177716099Y-84793406D01*
X177883210Y-84543306D01*
X177998319Y-84265410D01*
X178057000Y-83970396D01*
X178057000Y-83790493D01*
X178138406Y-83736099D01*
X178351099Y-83523406D01*
X178518210Y-83273306D01*
X178633319Y-82995410D01*
X178692000Y-82700396D01*
X178692000Y-82532000D01*
X203138504Y-82532000D01*
X203200000Y-82538057D01*
X203261496Y-82532000D01*
X203261498Y-82532000D01*
X203445435Y-82513884D01*
X203681438Y-82442293D01*
X203898939Y-82326036D01*
X204089581Y-82169581D01*
X204128788Y-82121807D01*
X204353595Y-81897000D01*
X209488504Y-81897000D01*
X209550000Y-81903057D01*
X209611496Y-81897000D01*
X209611498Y-81897000D01*
X209795435Y-81878884D01*
X210031438Y-81807293D01*
X210248939Y-81691036D01*
X210439581Y-81534581D01*
X210478787Y-81486808D01*
X210558595Y-81407000D01*
X210767394Y-81407000D01*
X210849735Y-81489341D01*
%TA.AperFunction,Conductor*%
D27*
G36*
X210849735Y-81489341D02*
G01*
X210826227Y-81512848D01*
X210648172Y-81779327D01*
X210525525Y-82075422D01*
X210463000Y-82389755D01*
X210463000Y-82710245D01*
X210525525Y-83024578D01*
X210648172Y-83320673D01*
X210826227Y-83587152D01*
X211052848Y-83813773D01*
X211062167Y-83820000D01*
X211052848Y-83826227D01*
X210826227Y-84052848D01*
X210648172Y-84319327D01*
X210525525Y-84615422D01*
X210463000Y-84929755D01*
X210463000Y-85250245D01*
X210525525Y-85564578D01*
X210648172Y-85860673D01*
X210826227Y-86127152D01*
X210849735Y-86150660D01*
X210767394Y-86233000D01*
X205307763Y-86233000D01*
X205240673Y-86188172D01*
X204944578Y-86065525D01*
X204630245Y-86003000D01*
X204309755Y-86003000D01*
X203995422Y-86065525D01*
X203699327Y-86188172D01*
X203632237Y-86233000D01*
X201353190Y-86233000D01*
X201253391Y-86133201D01*
X200937777Y-85922315D01*
X200587085Y-85777053D01*
X200214793Y-85703000D01*
X200135675Y-85703000D01*
X200108210Y-85636694D01*
X199941099Y-85386594D01*
X199728406Y-85173901D01*
X199478306Y-85006790D01*
X199200410Y-84891681D01*
X198905396Y-84833000D01*
X198604604Y-84833000D01*
X198309590Y-84891681D01*
X198031694Y-85006790D01*
X197781594Y-85173901D01*
X197568901Y-85386594D01*
X197401790Y-85636694D01*
X197374325Y-85703000D01*
X197295207Y-85703000D01*
X196922915Y-85777053D01*
X196572223Y-85922315D01*
X196256609Y-86133201D01*
X196215000Y-86174810D01*
X196173391Y-86133201D01*
X195857777Y-85922315D01*
X195507085Y-85777053D01*
X195134793Y-85703000D01*
X195055675Y-85703000D01*
X195028210Y-85636694D01*
X194861099Y-85386594D01*
X194648406Y-85173901D01*
X194398306Y-85006790D01*
X194120410Y-84891681D01*
X193825396Y-84833000D01*
X193524604Y-84833000D01*
X193229590Y-84891681D01*
X192951694Y-85006790D01*
X192701594Y-85173901D01*
X192488901Y-85386594D01*
X192321790Y-85636694D01*
X192294325Y-85703000D01*
X192215207Y-85703000D01*
X191842915Y-85777053D01*
X191492223Y-85922315D01*
X191176609Y-86133201D01*
X191135000Y-86174810D01*
X191093391Y-86133201D01*
X190777777Y-85922315D01*
X190427085Y-85777053D01*
X190054793Y-85703000D01*
X189675207Y-85703000D01*
X189302915Y-85777053D01*
X188952223Y-85922315D01*
X188636609Y-86133201D01*
X188595000Y-86174810D01*
X188553391Y-86133201D01*
X188237777Y-85922315D01*
X187887085Y-85777053D01*
X187514793Y-85703000D01*
X187135207Y-85703000D01*
X186762915Y-85777053D01*
X186412223Y-85922315D01*
X186096609Y-86133201D01*
X186055000Y-86174810D01*
X186013391Y-86133201D01*
X185697777Y-85922315D01*
X185347085Y-85777053D01*
X184974793Y-85703000D01*
X184595207Y-85703000D01*
X184222915Y-85777053D01*
X183872223Y-85922315D01*
X183556609Y-86133201D01*
X183515000Y-86174810D01*
X183473391Y-86133201D01*
X183157777Y-85922315D01*
X182807085Y-85777053D01*
X182434793Y-85703000D01*
X182055207Y-85703000D01*
X181682915Y-85777053D01*
X181332223Y-85922315D01*
X181016609Y-86133201D01*
X180975000Y-86174810D01*
X180933391Y-86133201D01*
X180617777Y-85922315D01*
X180267085Y-85777053D01*
X179894793Y-85703000D01*
X179515207Y-85703000D01*
X179142915Y-85777053D01*
X178792223Y-85922315D01*
X178476609Y-86133201D01*
X178208201Y-86401609D01*
X178108099Y-86551423D01*
X177902420Y-86398963D01*
X177648087Y-86278754D01*
X177514039Y-86238096D01*
X177292000Y-86360085D01*
X177292000Y-87503000D01*
X177038000Y-87503000D01*
X177038000Y-86360085D01*
X176815961Y-86238096D01*
X176681913Y-86278754D01*
X176427580Y-86398963D01*
X176201586Y-86566481D01*
X176022000Y-86764520D01*
X176022000Y-85262393D01*
X176084590Y-85288319D01*
X176379604Y-85347000D01*
X176680396Y-85347000D01*
X176975410Y-85288319D01*
X177253306Y-85173210D01*
X177503406Y-85006099D01*
X177716099Y-84793406D01*
X177883210Y-84543306D01*
X177998319Y-84265410D01*
X178057000Y-83970396D01*
X178057000Y-83790493D01*
X178138406Y-83736099D01*
X178351099Y-83523406D01*
X178518210Y-83273306D01*
X178633319Y-82995410D01*
X178692000Y-82700396D01*
X178692000Y-82532000D01*
X203138504Y-82532000D01*
X203200000Y-82538057D01*
X203261496Y-82532000D01*
X203261498Y-82532000D01*
X203445435Y-82513884D01*
X203681438Y-82442293D01*
X203898939Y-82326036D01*
X204089581Y-82169581D01*
X204128788Y-82121807D01*
X204353595Y-81897000D01*
X209488504Y-81897000D01*
X209550000Y-81903057D01*
X209611496Y-81897000D01*
X209611498Y-81897000D01*
X209795435Y-81878884D01*
X210031438Y-81807293D01*
X210248939Y-81691036D01*
X210439581Y-81534581D01*
X210478787Y-81486808D01*
X210558595Y-81407000D01*
X210767394Y-81407000D01*
X210849735Y-81489341D01*
G37*
%TD.AperFunction*%
%TD*%
D26*
%TO.N,VSYS*%
X204317530Y-34317136D02*
X204318788Y-34321284D01*
X204422934Y-34516128D01*
X204563091Y-34686909D01*
X206563091Y-36686909D01*
X206733872Y-36827066D01*
X206928716Y-36931212D01*
X207140133Y-36995345D01*
X207360000Y-37017000D01*
X210360000Y-37017000D01*
X210579867Y-36995345D01*
X210791284Y-36931212D01*
X210986128Y-36827066D01*
X211156909Y-36686909D01*
X213156909Y-34686909D01*
X213297066Y-34516128D01*
X213350051Y-34417000D01*
X226642394Y-34417000D01*
X229108000Y-36882606D01*
X229108000Y-39194580D01*
X229099327Y-39198172D01*
X228832848Y-39376227D01*
X228606227Y-39602848D01*
X228428172Y-39869327D01*
X228305525Y-40165422D01*
X228243000Y-40479755D01*
X228243000Y-40800245D01*
X228305525Y-41114578D01*
X228428172Y-41410673D01*
X228606227Y-41677152D01*
X228832848Y-41903773D01*
X228842167Y-41910000D01*
X228832848Y-41916227D01*
X228606227Y-42142848D01*
X228428172Y-42409327D01*
X228305525Y-42705422D01*
X228243000Y-43019755D01*
X228243000Y-43340245D01*
X228305525Y-43654578D01*
X228428172Y-43950673D01*
X228606227Y-44217152D01*
X228629735Y-44240660D01*
X228547394Y-44323000D01*
X227382606Y-44323000D01*
X226187000Y-43127394D01*
X226187000Y-40640000D01*
X226184560Y-40615224D01*
X226177333Y-40591399D01*
X226165597Y-40569443D01*
X226149803Y-40550197D01*
X224244803Y-38645197D01*
X224225557Y-38629403D01*
X224203601Y-38617667D01*
X224179776Y-38610440D01*
X224155000Y-38608000D01*
X194362606Y-38608000D01*
X192008043Y-36253437D01*
X191996799Y-36236609D01*
X191728391Y-35968201D01*
X191412777Y-35757315D01*
X191062085Y-35612053D01*
X190689793Y-35538000D01*
X190310207Y-35538000D01*
X189937915Y-35612053D01*
X189587223Y-35757315D01*
X189271609Y-35968201D01*
X189230000Y-36009810D01*
X189188391Y-35968201D01*
X188872777Y-35757315D01*
X188522085Y-35612053D01*
X188149793Y-35538000D01*
X187770207Y-35538000D01*
X187397915Y-35612053D01*
X187047223Y-35757315D01*
X186731609Y-35968201D01*
X186690000Y-36009810D01*
X186648391Y-35968201D01*
X186332777Y-35757315D01*
X185982085Y-35612053D01*
X185609793Y-35538000D01*
X185230207Y-35538000D01*
X184857915Y-35612053D01*
X184507223Y-35757315D01*
X184191609Y-35968201D01*
X184150000Y-36009810D01*
X184108391Y-35968201D01*
X183792777Y-35757315D01*
X183442085Y-35612053D01*
X183069793Y-35538000D01*
X182690207Y-35538000D01*
X182317915Y-35612053D01*
X181967223Y-35757315D01*
X181651609Y-35968201D01*
X181610000Y-36009810D01*
X181568391Y-35968201D01*
X181252777Y-35757315D01*
X180902085Y-35612053D01*
X180529793Y-35538000D01*
X180150207Y-35538000D01*
X179777915Y-35612053D01*
X179427223Y-35757315D01*
X179111609Y-35968201D01*
X179070000Y-36009810D01*
X179028391Y-35968201D01*
X178712777Y-35757315D01*
X178362085Y-35612053D01*
X177989793Y-35538000D01*
X177610207Y-35538000D01*
X177237915Y-35612053D01*
X176887223Y-35757315D01*
X176571609Y-35968201D01*
X176303201Y-36236609D01*
X176203099Y-36386423D01*
X175997420Y-36233963D01*
X175743087Y-36113754D01*
X175609039Y-36073096D01*
X175387000Y-36195085D01*
X175387000Y-37338000D01*
X175407000Y-37338000D01*
X175407000Y-37592000D01*
X175387000Y-37592000D01*
X175387000Y-37612000D01*
X175133000Y-37612000D01*
X175133000Y-37592000D01*
X173989376Y-37592000D01*
X173868091Y-37814040D01*
X173962930Y-38078881D01*
X174070624Y-38258451D01*
X173996227Y-38332848D01*
X173818172Y-38599327D01*
X173695525Y-38895422D01*
X173633000Y-39209755D01*
X173633000Y-39530245D01*
X173695525Y-39844578D01*
X173818172Y-40140673D01*
X173996227Y-40407152D01*
X174222848Y-40633773D01*
X174489327Y-40811828D01*
X174785422Y-40934475D01*
X175099755Y-40997000D01*
X175420245Y-40997000D01*
X175734578Y-40934475D01*
X175768000Y-40920631D01*
X175768000Y-41222394D01*
X173265197Y-43725197D01*
X173249403Y-43744443D01*
X173237667Y-43766399D01*
X173230440Y-43790224D01*
X173228000Y-43815000D01*
X173228000Y-48842394D01*
X172503450Y-49566945D01*
X172423406Y-49486901D01*
X172173306Y-49319790D01*
X171895410Y-49204681D01*
X171600396Y-49146000D01*
X171299604Y-49146000D01*
X171004590Y-49204681D01*
X170726694Y-49319790D01*
X170476594Y-49486901D01*
X170263901Y-49699594D01*
X170096790Y-49949694D01*
X170060212Y-50038000D01*
X169475152Y-50038000D01*
X169292149Y-49764116D01*
X168995884Y-49467851D01*
X168647512Y-49235077D01*
X168260423Y-49074739D01*
X167849491Y-48993000D01*
X167430509Y-48993000D01*
X167019577Y-49074739D01*
X166632488Y-49235077D01*
X166284116Y-49467851D01*
X165987851Y-49764116D01*
X165918438Y-49868000D01*
X162861562Y-49868000D01*
X162792149Y-49764116D01*
X162495884Y-49467851D01*
X162147512Y-49235077D01*
X161760423Y-49074739D01*
X161349491Y-48993000D01*
X160930509Y-48993000D01*
X160519577Y-49074739D01*
X160132488Y-49235077D01*
X159784116Y-49467851D01*
X159487851Y-49764116D01*
X159255077Y-50112488D01*
X159094739Y-50499577D01*
X159013000Y-50910509D01*
X159013000Y-51329491D01*
X159094739Y-51740423D01*
X159255077Y-52127512D01*
X159258000Y-52131887D01*
X159258000Y-54557394D01*
X157377847Y-56437547D01*
X157265000Y-56437547D01*
X157044069Y-56459307D01*
X156831629Y-56523750D01*
X156635843Y-56628400D01*
X156464235Y-56769235D01*
X156323400Y-56940843D01*
X156238747Y-57099217D01*
X156079099Y-57023175D01*
X155931890Y-56978524D01*
X155702000Y-57099845D01*
X155702000Y-58214510D01*
X155575000Y-58278010D01*
X155448000Y-58214510D01*
X155448000Y-57099845D01*
X155218110Y-56978524D01*
X155070901Y-57023175D01*
X154808080Y-57148359D01*
X154644541Y-57270342D01*
X154570636Y-57159736D01*
X154432000Y-57021100D01*
X154432000Y-53277637D01*
X155139603Y-52984538D01*
X155848302Y-52511001D01*
X156451001Y-51908302D01*
X156924538Y-51199603D01*
X157250716Y-50412139D01*
X157417000Y-49576172D01*
X157417000Y-49137606D01*
X158802606Y-47752000D01*
X159338257Y-47752000D01*
X159487851Y-47975884D01*
X159784116Y-48272149D01*
X160132488Y-48504923D01*
X160519577Y-48665261D01*
X160930509Y-48747000D01*
X161349491Y-48747000D01*
X161760423Y-48665261D01*
X162147512Y-48504923D01*
X162495884Y-48272149D01*
X162792149Y-47975884D01*
X162941743Y-47752000D01*
X165838257Y-47752000D01*
X165987851Y-47975884D01*
X166284116Y-48272149D01*
X166632488Y-48504923D01*
X167019577Y-48665261D01*
X167430509Y-48747000D01*
X167849491Y-48747000D01*
X168260423Y-48665261D01*
X168647512Y-48504923D01*
X168995884Y-48272149D01*
X169292149Y-47975884D01*
X169524923Y-47627512D01*
X169685261Y-47240423D01*
X169767000Y-46829491D01*
X169767000Y-46410509D01*
X169685261Y-45999577D01*
X169524923Y-45612488D01*
X169292149Y-45264116D01*
X169037000Y-45008967D01*
X169037000Y-36882606D01*
X169119341Y-36800266D01*
X169142848Y-36823773D01*
X169409327Y-37001828D01*
X169705422Y-37124475D01*
X170019755Y-37187000D01*
X170340245Y-37187000D01*
X170654578Y-37124475D01*
X170675134Y-37115960D01*
X173868091Y-37115960D01*
X173989376Y-37338000D01*
X175133000Y-37338000D01*
X175133000Y-36195085D01*
X174910961Y-36073096D01*
X174776913Y-36113754D01*
X174522580Y-36233963D01*
X174296586Y-36401481D01*
X174107615Y-36609869D01*
X173962930Y-36851119D01*
X173868091Y-37115960D01*
X170675134Y-37115960D01*
X170950673Y-37001828D01*
X171217152Y-36823773D01*
X171443773Y-36597152D01*
X171621828Y-36330673D01*
X171625420Y-36322000D01*
X172085000Y-36322000D01*
X172109776Y-36319560D01*
X172133601Y-36312333D01*
X172155557Y-36300597D01*
X172174803Y-36284803D01*
X175647607Y-32811999D01*
X202812393Y-32811999D01*
X204317530Y-34317136D01*
%TA.AperFunction,Conductor*%
D27*
G36*
X204317530Y-34317136D02*
G01*
X204318788Y-34321284D01*
X204422934Y-34516128D01*
X204563091Y-34686909D01*
X206563091Y-36686909D01*
X206733872Y-36827066D01*
X206928716Y-36931212D01*
X207140133Y-36995345D01*
X207360000Y-37017000D01*
X210360000Y-37017000D01*
X210579867Y-36995345D01*
X210791284Y-36931212D01*
X210986128Y-36827066D01*
X211156909Y-36686909D01*
X213156909Y-34686909D01*
X213297066Y-34516128D01*
X213350051Y-34417000D01*
X226642394Y-34417000D01*
X229108000Y-36882606D01*
X229108000Y-39194580D01*
X229099327Y-39198172D01*
X228832848Y-39376227D01*
X228606227Y-39602848D01*
X228428172Y-39869327D01*
X228305525Y-40165422D01*
X228243000Y-40479755D01*
X228243000Y-40800245D01*
X228305525Y-41114578D01*
X228428172Y-41410673D01*
X228606227Y-41677152D01*
X228832848Y-41903773D01*
X228842167Y-41910000D01*
X228832848Y-41916227D01*
X228606227Y-42142848D01*
X228428172Y-42409327D01*
X228305525Y-42705422D01*
X228243000Y-43019755D01*
X228243000Y-43340245D01*
X228305525Y-43654578D01*
X228428172Y-43950673D01*
X228606227Y-44217152D01*
X228629735Y-44240660D01*
X228547394Y-44323000D01*
X227382606Y-44323000D01*
X226187000Y-43127394D01*
X226187000Y-40640000D01*
X226184560Y-40615224D01*
X226177333Y-40591399D01*
X226165597Y-40569443D01*
X226149803Y-40550197D01*
X224244803Y-38645197D01*
X224225557Y-38629403D01*
X224203601Y-38617667D01*
X224179776Y-38610440D01*
X224155000Y-38608000D01*
X194362606Y-38608000D01*
X192008043Y-36253437D01*
X191996799Y-36236609D01*
X191728391Y-35968201D01*
X191412777Y-35757315D01*
X191062085Y-35612053D01*
X190689793Y-35538000D01*
X190310207Y-35538000D01*
X189937915Y-35612053D01*
X189587223Y-35757315D01*
X189271609Y-35968201D01*
X189230000Y-36009810D01*
X189188391Y-35968201D01*
X188872777Y-35757315D01*
X188522085Y-35612053D01*
X188149793Y-35538000D01*
X187770207Y-35538000D01*
X187397915Y-35612053D01*
X187047223Y-35757315D01*
X186731609Y-35968201D01*
X186690000Y-36009810D01*
X186648391Y-35968201D01*
X186332777Y-35757315D01*
X185982085Y-35612053D01*
X185609793Y-35538000D01*
X185230207Y-35538000D01*
X184857915Y-35612053D01*
X184507223Y-35757315D01*
X184191609Y-35968201D01*
X184150000Y-36009810D01*
X184108391Y-35968201D01*
X183792777Y-35757315D01*
X183442085Y-35612053D01*
X183069793Y-35538000D01*
X182690207Y-35538000D01*
X182317915Y-35612053D01*
X181967223Y-35757315D01*
X181651609Y-35968201D01*
X181610000Y-36009810D01*
X181568391Y-35968201D01*
X181252777Y-35757315D01*
X180902085Y-35612053D01*
X180529793Y-35538000D01*
X180150207Y-35538000D01*
X179777915Y-35612053D01*
X179427223Y-35757315D01*
X179111609Y-35968201D01*
X179070000Y-36009810D01*
X179028391Y-35968201D01*
X178712777Y-35757315D01*
X178362085Y-35612053D01*
X177989793Y-35538000D01*
X177610207Y-35538000D01*
X177237915Y-35612053D01*
X176887223Y-35757315D01*
X176571609Y-35968201D01*
X176303201Y-36236609D01*
X176203099Y-36386423D01*
X175997420Y-36233963D01*
X175743087Y-36113754D01*
X175609039Y-36073096D01*
X175387000Y-36195085D01*
X175387000Y-37338000D01*
X175407000Y-37338000D01*
X175407000Y-37592000D01*
X175387000Y-37592000D01*
X175387000Y-37612000D01*
X175133000Y-37612000D01*
X175133000Y-37592000D01*
X173989376Y-37592000D01*
X173868091Y-37814040D01*
X173962930Y-38078881D01*
X174070624Y-38258451D01*
X173996227Y-38332848D01*
X173818172Y-38599327D01*
X173695525Y-38895422D01*
X173633000Y-39209755D01*
X173633000Y-39530245D01*
X173695525Y-39844578D01*
X173818172Y-40140673D01*
X173996227Y-40407152D01*
X174222848Y-40633773D01*
X174489327Y-40811828D01*
X174785422Y-40934475D01*
X175099755Y-40997000D01*
X175420245Y-40997000D01*
X175734578Y-40934475D01*
X175768000Y-40920631D01*
X175768000Y-41222394D01*
X173265197Y-43725197D01*
X173249403Y-43744443D01*
X173237667Y-43766399D01*
X173230440Y-43790224D01*
X173228000Y-43815000D01*
X173228000Y-48842394D01*
X172503450Y-49566945D01*
X172423406Y-49486901D01*
X172173306Y-49319790D01*
X171895410Y-49204681D01*
X171600396Y-49146000D01*
X171299604Y-49146000D01*
X171004590Y-49204681D01*
X170726694Y-49319790D01*
X170476594Y-49486901D01*
X170263901Y-49699594D01*
X170096790Y-49949694D01*
X170060212Y-50038000D01*
X169475152Y-50038000D01*
X169292149Y-49764116D01*
X168995884Y-49467851D01*
X168647512Y-49235077D01*
X168260423Y-49074739D01*
X167849491Y-48993000D01*
X167430509Y-48993000D01*
X167019577Y-49074739D01*
X166632488Y-49235077D01*
X166284116Y-49467851D01*
X165987851Y-49764116D01*
X165918438Y-49868000D01*
X162861562Y-49868000D01*
X162792149Y-49764116D01*
X162495884Y-49467851D01*
X162147512Y-49235077D01*
X161760423Y-49074739D01*
X161349491Y-48993000D01*
X160930509Y-48993000D01*
X160519577Y-49074739D01*
X160132488Y-49235077D01*
X159784116Y-49467851D01*
X159487851Y-49764116D01*
X159255077Y-50112488D01*
X159094739Y-50499577D01*
X159013000Y-50910509D01*
X159013000Y-51329491D01*
X159094739Y-51740423D01*
X159255077Y-52127512D01*
X159258000Y-52131887D01*
X159258000Y-54557394D01*
X157377847Y-56437547D01*
X157265000Y-56437547D01*
X157044069Y-56459307D01*
X156831629Y-56523750D01*
X156635843Y-56628400D01*
X156464235Y-56769235D01*
X156323400Y-56940843D01*
X156238747Y-57099217D01*
X156079099Y-57023175D01*
X155931890Y-56978524D01*
X155702000Y-57099845D01*
X155702000Y-58214510D01*
X155575000Y-58278010D01*
X155448000Y-58214510D01*
X155448000Y-57099845D01*
X155218110Y-56978524D01*
X155070901Y-57023175D01*
X154808080Y-57148359D01*
X154644541Y-57270342D01*
X154570636Y-57159736D01*
X154432000Y-57021100D01*
X154432000Y-53277637D01*
X155139603Y-52984538D01*
X155848302Y-52511001D01*
X156451001Y-51908302D01*
X156924538Y-51199603D01*
X157250716Y-50412139D01*
X157417000Y-49576172D01*
X157417000Y-49137606D01*
X158802606Y-47752000D01*
X159338257Y-47752000D01*
X159487851Y-47975884D01*
X159784116Y-48272149D01*
X160132488Y-48504923D01*
X160519577Y-48665261D01*
X160930509Y-48747000D01*
X161349491Y-48747000D01*
X161760423Y-48665261D01*
X162147512Y-48504923D01*
X162495884Y-48272149D01*
X162792149Y-47975884D01*
X162941743Y-47752000D01*
X165838257Y-47752000D01*
X165987851Y-47975884D01*
X166284116Y-48272149D01*
X166632488Y-48504923D01*
X167019577Y-48665261D01*
X167430509Y-48747000D01*
X167849491Y-48747000D01*
X168260423Y-48665261D01*
X168647512Y-48504923D01*
X168995884Y-48272149D01*
X169292149Y-47975884D01*
X169524923Y-47627512D01*
X169685261Y-47240423D01*
X169767000Y-46829491D01*
X169767000Y-46410509D01*
X169685261Y-45999577D01*
X169524923Y-45612488D01*
X169292149Y-45264116D01*
X169037000Y-45008967D01*
X169037000Y-36882606D01*
X169119341Y-36800266D01*
X169142848Y-36823773D01*
X169409327Y-37001828D01*
X169705422Y-37124475D01*
X170019755Y-37187000D01*
X170340245Y-37187000D01*
X170654578Y-37124475D01*
X170675134Y-37115960D01*
X173868091Y-37115960D01*
X173989376Y-37338000D01*
X175133000Y-37338000D01*
X175133000Y-36195085D01*
X174910961Y-36073096D01*
X174776913Y-36113754D01*
X174522580Y-36233963D01*
X174296586Y-36401481D01*
X174107615Y-36609869D01*
X173962930Y-36851119D01*
X173868091Y-37115960D01*
X170675134Y-37115960D01*
X170950673Y-37001828D01*
X171217152Y-36823773D01*
X171443773Y-36597152D01*
X171621828Y-36330673D01*
X171625420Y-36322000D01*
X172085000Y-36322000D01*
X172109776Y-36319560D01*
X172133601Y-36312333D01*
X172155557Y-36300597D01*
X172174803Y-36284803D01*
X175647607Y-32811999D01*
X202812393Y-32811999D01*
X204317530Y-34317136D01*
G37*
%TD.AperFunction*%
%TD*%
D26*
%TO.N,+3V3*%
X193381217Y-46561813D02*
X193420419Y-46609581D01*
X193468187Y-46648783D01*
X193611060Y-46766036D01*
X193729939Y-46829578D01*
X193828562Y-46882293D01*
X194064565Y-46953884D01*
X194248502Y-46972000D01*
X194248503Y-46972000D01*
X194309999Y-46978057D01*
X194371495Y-46972000D01*
X197922394Y-46972000D01*
X198343277Y-47392883D01*
X198283400Y-47465843D01*
X198178750Y-47661629D01*
X198114307Y-47874069D01*
X198092547Y-48095000D01*
X198092547Y-49290603D01*
X197959578Y-49235525D01*
X197645245Y-49173000D01*
X197324755Y-49173000D01*
X197010422Y-49235525D01*
X196714327Y-49358172D01*
X196447848Y-49536227D01*
X196221227Y-49762848D01*
X196043172Y-50029327D01*
X195920525Y-50325422D01*
X195858000Y-50639755D01*
X195858000Y-50818000D01*
X179766496Y-50818000D01*
X179705000Y-50811943D01*
X179643504Y-50818000D01*
X179643502Y-50818000D01*
X179459565Y-50836116D01*
X179223562Y-50907707D01*
X179006061Y-51023964D01*
X178815419Y-51180419D01*
X178776213Y-51228192D01*
X175053192Y-54951213D01*
X175005419Y-54990419D01*
X174900717Y-55118000D01*
X165100000Y-55118000D01*
X165075224Y-55120440D01*
X165051399Y-55127667D01*
X165029443Y-55139403D01*
X165010197Y-55155197D01*
X164375197Y-55790197D01*
X164359403Y-55809443D01*
X164347667Y-55831399D01*
X164340440Y-55855224D01*
X164338000Y-55880000D01*
X164338000Y-57021100D01*
X164199364Y-57159736D01*
X164125459Y-57270342D01*
X163961920Y-57148359D01*
X163699099Y-57023175D01*
X163551890Y-56978524D01*
X163322000Y-57099845D01*
X163322000Y-57658000D01*
X163068000Y-57658000D01*
X163068000Y-57099845D01*
X162838110Y-56978524D01*
X162690901Y-57023175D01*
X162428080Y-57148359D01*
X162264541Y-57270342D01*
X162190636Y-57159736D01*
X162052000Y-57021100D01*
X162052000Y-54027606D01*
X163247606Y-52832000D01*
X166373690Y-52832000D01*
X166632488Y-53004923D01*
X167019577Y-53165261D01*
X167430509Y-53247000D01*
X167849491Y-53247000D01*
X168260423Y-53165261D01*
X168647512Y-53004923D01*
X168995884Y-52772149D01*
X169292149Y-52475884D01*
X169524923Y-52127512D01*
X169685261Y-51740423D01*
X169767000Y-51329491D01*
X169767000Y-51292000D01*
X170053585Y-51292000D01*
X170096790Y-51396306D01*
X170263901Y-51646406D01*
X170476594Y-51859099D01*
X170726694Y-52026210D01*
X171004590Y-52141319D01*
X171299604Y-52200000D01*
X171600396Y-52200000D01*
X171895410Y-52141319D01*
X172173306Y-52026210D01*
X172423406Y-51859099D01*
X172636099Y-51646406D01*
X172803210Y-51396306D01*
X172918319Y-51118410D01*
X172966218Y-50877600D01*
X174151909Y-49691909D01*
X174292066Y-49521128D01*
X174396212Y-49326284D01*
X174460345Y-49114867D01*
X174482000Y-48895000D01*
X174482000Y-47947606D01*
X175246689Y-47182917D01*
X175343901Y-47328406D01*
X175556594Y-47541099D01*
X175638000Y-47595493D01*
X175638000Y-47775396D01*
X175696681Y-48070410D01*
X175811790Y-48348306D01*
X175978901Y-48598406D01*
X176191594Y-48811099D01*
X176441694Y-48978210D01*
X176719590Y-49093319D01*
X177014604Y-49152000D01*
X177315396Y-49152000D01*
X177610410Y-49093319D01*
X177888306Y-48978210D01*
X178138406Y-48811099D01*
X178351099Y-48598406D01*
X178518210Y-48348306D01*
X178562244Y-48242000D01*
X184088504Y-48242000D01*
X184150000Y-48248057D01*
X184211496Y-48242000D01*
X184211498Y-48242000D01*
X184395435Y-48223884D01*
X184631438Y-48152293D01*
X184848939Y-48036036D01*
X185039581Y-47879581D01*
X185078787Y-47831808D01*
X185472335Y-47438260D01*
X185652848Y-47618773D01*
X185919327Y-47796828D01*
X186215422Y-47919475D01*
X186529755Y-47982000D01*
X186850245Y-47982000D01*
X187164578Y-47919475D01*
X187460673Y-47796828D01*
X187727152Y-47618773D01*
X187953773Y-47392152D01*
X188131828Y-47125673D01*
X188181528Y-47005688D01*
X188522085Y-46937947D01*
X188872777Y-46792685D01*
X189188391Y-46581799D01*
X189230000Y-46540190D01*
X189271609Y-46581799D01*
X189587223Y-46792685D01*
X189937915Y-46937947D01*
X190310207Y-47012000D01*
X190689793Y-47012000D01*
X191062085Y-46937947D01*
X191412777Y-46792685D01*
X191728391Y-46581799D01*
X191828190Y-46482000D01*
X193301404Y-46482000D01*
X193381217Y-46561813D01*
%TA.AperFunction,Conductor*%
D27*
G36*
X193381217Y-46561813D02*
G01*
X193420419Y-46609581D01*
X193468187Y-46648783D01*
X193611060Y-46766036D01*
X193729939Y-46829578D01*
X193828562Y-46882293D01*
X194064565Y-46953884D01*
X194248502Y-46972000D01*
X194248503Y-46972000D01*
X194309999Y-46978057D01*
X194371495Y-46972000D01*
X197922394Y-46972000D01*
X198343277Y-47392883D01*
X198283400Y-47465843D01*
X198178750Y-47661629D01*
X198114307Y-47874069D01*
X198092547Y-48095000D01*
X198092547Y-49290603D01*
X197959578Y-49235525D01*
X197645245Y-49173000D01*
X197324755Y-49173000D01*
X197010422Y-49235525D01*
X196714327Y-49358172D01*
X196447848Y-49536227D01*
X196221227Y-49762848D01*
X196043172Y-50029327D01*
X195920525Y-50325422D01*
X195858000Y-50639755D01*
X195858000Y-50818000D01*
X179766496Y-50818000D01*
X179705000Y-50811943D01*
X179643504Y-50818000D01*
X179643502Y-50818000D01*
X179459565Y-50836116D01*
X179223562Y-50907707D01*
X179006061Y-51023964D01*
X178815419Y-51180419D01*
X178776213Y-51228192D01*
X175053192Y-54951213D01*
X175005419Y-54990419D01*
X174900717Y-55118000D01*
X165100000Y-55118000D01*
X165075224Y-55120440D01*
X165051399Y-55127667D01*
X165029443Y-55139403D01*
X165010197Y-55155197D01*
X164375197Y-55790197D01*
X164359403Y-55809443D01*
X164347667Y-55831399D01*
X164340440Y-55855224D01*
X164338000Y-55880000D01*
X164338000Y-57021100D01*
X164199364Y-57159736D01*
X164125459Y-57270342D01*
X163961920Y-57148359D01*
X163699099Y-57023175D01*
X163551890Y-56978524D01*
X163322000Y-57099845D01*
X163322000Y-57658000D01*
X163068000Y-57658000D01*
X163068000Y-57099845D01*
X162838110Y-56978524D01*
X162690901Y-57023175D01*
X162428080Y-57148359D01*
X162264541Y-57270342D01*
X162190636Y-57159736D01*
X162052000Y-57021100D01*
X162052000Y-54027606D01*
X163247606Y-52832000D01*
X166373690Y-52832000D01*
X166632488Y-53004923D01*
X167019577Y-53165261D01*
X167430509Y-53247000D01*
X167849491Y-53247000D01*
X168260423Y-53165261D01*
X168647512Y-53004923D01*
X168995884Y-52772149D01*
X169292149Y-52475884D01*
X169524923Y-52127512D01*
X169685261Y-51740423D01*
X169767000Y-51329491D01*
X169767000Y-51292000D01*
X170053585Y-51292000D01*
X170096790Y-51396306D01*
X170263901Y-51646406D01*
X170476594Y-51859099D01*
X170726694Y-52026210D01*
X171004590Y-52141319D01*
X171299604Y-52200000D01*
X171600396Y-52200000D01*
X171895410Y-52141319D01*
X172173306Y-52026210D01*
X172423406Y-51859099D01*
X172636099Y-51646406D01*
X172803210Y-51396306D01*
X172918319Y-51118410D01*
X172966218Y-50877600D01*
X174151909Y-49691909D01*
X174292066Y-49521128D01*
X174396212Y-49326284D01*
X174460345Y-49114867D01*
X174482000Y-48895000D01*
X174482000Y-47947606D01*
X175246689Y-47182917D01*
X175343901Y-47328406D01*
X175556594Y-47541099D01*
X175638000Y-47595493D01*
X175638000Y-47775396D01*
X175696681Y-48070410D01*
X175811790Y-48348306D01*
X175978901Y-48598406D01*
X176191594Y-48811099D01*
X176441694Y-48978210D01*
X176719590Y-49093319D01*
X177014604Y-49152000D01*
X177315396Y-49152000D01*
X177610410Y-49093319D01*
X177888306Y-48978210D01*
X178138406Y-48811099D01*
X178351099Y-48598406D01*
X178518210Y-48348306D01*
X178562244Y-48242000D01*
X184088504Y-48242000D01*
X184150000Y-48248057D01*
X184211496Y-48242000D01*
X184211498Y-48242000D01*
X184395435Y-48223884D01*
X184631438Y-48152293D01*
X184848939Y-48036036D01*
X185039581Y-47879581D01*
X185078787Y-47831808D01*
X185472335Y-47438260D01*
X185652848Y-47618773D01*
X185919327Y-47796828D01*
X186215422Y-47919475D01*
X186529755Y-47982000D01*
X186850245Y-47982000D01*
X187164578Y-47919475D01*
X187460673Y-47796828D01*
X187727152Y-47618773D01*
X187953773Y-47392152D01*
X188131828Y-47125673D01*
X188181528Y-47005688D01*
X188522085Y-46937947D01*
X188872777Y-46792685D01*
X189188391Y-46581799D01*
X189230000Y-46540190D01*
X189271609Y-46581799D01*
X189587223Y-46792685D01*
X189937915Y-46937947D01*
X190310207Y-47012000D01*
X190689793Y-47012000D01*
X191062085Y-46937947D01*
X191412777Y-46792685D01*
X191728391Y-46581799D01*
X191828190Y-46482000D01*
X193301404Y-46482000D01*
X193381217Y-46561813D01*
G37*
%TD.AperFunction*%
%TD*%
M02*
