%TF.GenerationSoftware,KiCad,Pcbnew,(5.1.9)-1*%
%TF.CreationDate,2021-10-24T18:26:44+08:00*%
%TF.ProjectId,XTA-35-TH,5854412d-3335-42d5-9448-2e6b69636164,rev?*%
%TF.SameCoordinates,Original*%
%TF.FileFunction,Soldermask,Bot*%
%TF.FilePolarity,Negative*%
%FSLAX46Y46*%
G04 Gerber Fmt 4.6, Leading zero omitted, Abs format (unit mm)*
G04 Created by KiCad (PCBNEW (5.1.9)-1) date 2021-10-24 18:26:44*
%MOMM*%
%LPD*%
G01*
G04 APERTURE LIST*
%ADD10O,1.700000X1.700000*%
%ADD11R,1.700000X1.700000*%
%ADD12O,1.600000X1.600000*%
%ADD13R,1.600000X1.600000*%
%ADD14C,1.700000*%
%ADD15C,1.000000*%
%ADD16C,2.000000*%
%ADD17C,2.540000*%
%ADD18C,4.000000*%
%ADD19C,2.600000*%
%ADD20C,6.400000*%
%ADD21C,0.254000*%
%ADD22C,0.100000*%
G04 APERTURE END LIST*
D10*
%TO.C,U5*%
X153035000Y-76200000D03*
X155575000Y-76200000D03*
D11*
X158115000Y-76200000D03*
D10*
X160655000Y-76200000D03*
X163195000Y-76200000D03*
X165735000Y-76200000D03*
X168275000Y-76200000D03*
D11*
X170815000Y-76200000D03*
D10*
X173355000Y-76200000D03*
X175895000Y-76200000D03*
X178435000Y-76200000D03*
X180975000Y-76200000D03*
D11*
X183515000Y-76200000D03*
D10*
X186055000Y-76200000D03*
X188595000Y-76200000D03*
X191135000Y-76200000D03*
X193675000Y-76200000D03*
D11*
X196215000Y-76200000D03*
D10*
X198755000Y-76200000D03*
X201295000Y-76200000D03*
X201295000Y-58420000D03*
X198755000Y-58420000D03*
D11*
X196215000Y-58420000D03*
D10*
X193675000Y-58420000D03*
X191135000Y-58420000D03*
X188595000Y-58420000D03*
X186055000Y-58420000D03*
D11*
X183515000Y-58420000D03*
D10*
X180975000Y-58420000D03*
X178435000Y-58420000D03*
X175895000Y-58420000D03*
X173355000Y-58420000D03*
D11*
X170815000Y-58420000D03*
D10*
X168275000Y-58420000D03*
X165735000Y-58420000D03*
X163195000Y-58420000D03*
X160655000Y-58420000D03*
D11*
X158115000Y-58420000D03*
D10*
X155575000Y-58420000D03*
X153035000Y-58420000D03*
X201065000Y-69850000D03*
D11*
X201065000Y-67310000D03*
D10*
X201065000Y-64770000D03*
%TD*%
D12*
%TO.C,U3*%
X175260000Y-37465000D03*
X190500000Y-45085000D03*
X177800000Y-37465000D03*
X187960000Y-45085000D03*
X180340000Y-37465000D03*
X185420000Y-45085000D03*
X182880000Y-37465000D03*
X182880000Y-45085000D03*
X185420000Y-37465000D03*
X180340000Y-45085000D03*
X187960000Y-37465000D03*
X177800000Y-45085000D03*
X190500000Y-37465000D03*
D13*
X175260000Y-45085000D03*
%TD*%
D12*
%TO.C,U4*%
X189865000Y-103505000D03*
X207645000Y-111125000D03*
X192405000Y-103505000D03*
X205105000Y-111125000D03*
X194945000Y-103505000D03*
X202565000Y-111125000D03*
X197485000Y-103505000D03*
X200025000Y-111125000D03*
X200025000Y-103505000D03*
X197485000Y-111125000D03*
X202565000Y-103505000D03*
X194945000Y-111125000D03*
X205105000Y-103505000D03*
X192405000Y-111125000D03*
X207645000Y-103505000D03*
D13*
X189865000Y-111125000D03*
%TD*%
D12*
%TO.C,U1*%
X177165000Y-87630000D03*
X200025000Y-95250000D03*
X179705000Y-87630000D03*
X197485000Y-95250000D03*
X182245000Y-87630000D03*
X194945000Y-95250000D03*
X184785000Y-87630000D03*
X192405000Y-95250000D03*
X187325000Y-87630000D03*
X189865000Y-95250000D03*
X189865000Y-87630000D03*
X187325000Y-95250000D03*
X192405000Y-87630000D03*
X184785000Y-95250000D03*
X194945000Y-87630000D03*
X182245000Y-95250000D03*
X197485000Y-87630000D03*
X179705000Y-95250000D03*
X200025000Y-87630000D03*
D13*
X177165000Y-95250000D03*
%TD*%
D12*
%TO.C,U2*%
X200025000Y-41275000D03*
X222885000Y-48895000D03*
X202565000Y-41275000D03*
X220345000Y-48895000D03*
X205105000Y-41275000D03*
X217805000Y-48895000D03*
X207645000Y-41275000D03*
X215265000Y-48895000D03*
X210185000Y-41275000D03*
X212725000Y-48895000D03*
X212725000Y-41275000D03*
X210185000Y-48895000D03*
X215265000Y-41275000D03*
X207645000Y-48895000D03*
X217805000Y-41275000D03*
X205105000Y-48895000D03*
X220345000Y-41275000D03*
X202565000Y-48895000D03*
X222885000Y-41275000D03*
D13*
X200025000Y-48895000D03*
%TD*%
D10*
%TO.C,J6*%
X212725000Y-77470000D03*
X212725000Y-74930000D03*
X212725000Y-72390000D03*
X212725000Y-69850000D03*
X212725000Y-67310000D03*
D11*
X212725000Y-64770000D03*
%TD*%
D10*
%TO.C,J5*%
X168275000Y-87630000D03*
X168275000Y-90170000D03*
X168275000Y-92710000D03*
X168275000Y-95250000D03*
X168275000Y-97790000D03*
D11*
X168275000Y-100330000D03*
%TD*%
D10*
%TO.C,J4*%
X181610000Y-107315000D03*
X181610000Y-109855000D03*
X181610000Y-112395000D03*
X181610000Y-114935000D03*
X181610000Y-117475000D03*
D11*
X181610000Y-120015000D03*
%TD*%
D14*
%TO.C,J1*%
X239395000Y-119380000D03*
X239395000Y-116840000D03*
X239395000Y-114300000D03*
X239395000Y-111760000D03*
X239395000Y-109220000D03*
X239395000Y-106680000D03*
X239395000Y-104140000D03*
X239395000Y-101600000D03*
X239395000Y-99060000D03*
X239395000Y-96520000D03*
X239395000Y-91440000D03*
X239395000Y-88900000D03*
X239395000Y-86360000D03*
X239395000Y-83820000D03*
X239395000Y-81280000D03*
X239395000Y-78740000D03*
X239395000Y-76200000D03*
X239395000Y-73660000D03*
X239395000Y-71120000D03*
X236855000Y-119380000D03*
X236855000Y-116840000D03*
X236855000Y-114300000D03*
X236855000Y-111760000D03*
X236855000Y-109220000D03*
X236855000Y-106680000D03*
X236855000Y-104140000D03*
X236855000Y-101600000D03*
X236855000Y-99060000D03*
X236855000Y-96520000D03*
X236855000Y-93980000D03*
X236855000Y-91440000D03*
X236855000Y-88900000D03*
X236855000Y-86360000D03*
X236855000Y-83820000D03*
X236855000Y-81280000D03*
X236855000Y-78740000D03*
X236855000Y-76200000D03*
X236855000Y-73660000D03*
G36*
G01*
X236005000Y-71720000D02*
X236005000Y-70520000D01*
G75*
G02*
X236255000Y-70270000I250000J0D01*
G01*
X237455000Y-70270000D01*
G75*
G02*
X237705000Y-70520000I0J-250000D01*
G01*
X237705000Y-71720000D01*
G75*
G02*
X237455000Y-71970000I-250000J0D01*
G01*
X236255000Y-71970000D01*
G75*
G02*
X236005000Y-71720000I0J250000D01*
G01*
G37*
%TD*%
D15*
%TO.C,MH3*%
X161945449Y-128254482D03*
X166894495Y-127111904D03*
X166411547Y-126076220D03*
X163296537Y-125357063D03*
X166874551Y-128254482D03*
X161925505Y-127111904D03*
X162408453Y-126076220D03*
X165523463Y-125357063D03*
X164410000Y-125100000D03*
%TD*%
%TO.C,MH2*%
X211374551Y-31775518D03*
X206425505Y-32918096D03*
X206908453Y-33953780D03*
X210023463Y-34672937D03*
X206445449Y-31775518D03*
X211394495Y-32918096D03*
X210911547Y-33953780D03*
X207796537Y-34672937D03*
X208910000Y-34930000D03*
%TD*%
%TO.C,MH1*%
X166874551Y-31775518D03*
X161925505Y-32918096D03*
X162408453Y-33953780D03*
X165523463Y-34672937D03*
X161945449Y-31775518D03*
X166894495Y-32918096D03*
X166411547Y-33953780D03*
X163296537Y-34672937D03*
X164410000Y-34930000D03*
%TD*%
%TO.C,MH4*%
X206445449Y-128254482D03*
X211394495Y-127111904D03*
X210911547Y-126076220D03*
X207796537Y-125357063D03*
X211374551Y-128254482D03*
X206425505Y-127111904D03*
X206908453Y-126076220D03*
X210023463Y-125357063D03*
X208910000Y-125100000D03*
%TD*%
D16*
%TO.C,SW3*%
X161140000Y-51120000D03*
X161140000Y-46620000D03*
X167640000Y-51120000D03*
X167640000Y-46620000D03*
%TD*%
%TO.C,SW2*%
X212240000Y-117475000D03*
X212240000Y-121975000D03*
X205740000Y-117475000D03*
X205740000Y-121975000D03*
%TD*%
D13*
%TO.C,SW1*%
X191135000Y-116205000D03*
D12*
X198755000Y-123825000D03*
X193675000Y-116205000D03*
X196215000Y-123825000D03*
X196215000Y-116205000D03*
X193675000Y-123825000D03*
X198755000Y-116205000D03*
X191135000Y-123825000D03*
%TD*%
D10*
%TO.C,J3*%
X161290000Y-38735000D03*
D11*
X161290000Y-41275000D03*
%TD*%
D17*
%TO.C,J2*%
X239090000Y-59690000D03*
D18*
X246710000Y-54610000D03*
D17*
X239090000Y-39370000D03*
D19*
X236550000Y-41910000D03*
X236550000Y-46990000D03*
X236550000Y-52070000D03*
X236550000Y-57150000D03*
D18*
X246710000Y-44450000D03*
%TD*%
D20*
%TO.C,MH5*%
X153090000Y-49150000D03*
%TD*%
%TO.C,MH7*%
X153090000Y-110870000D03*
%TD*%
%TO.C,MH8*%
X229690000Y-110870000D03*
%TD*%
%TO.C,MH6*%
X229690000Y-49150000D03*
%TD*%
D21*
X212233000Y-126192606D02*
X212233000Y-129360000D01*
X210041371Y-129360000D01*
X210041371Y-128771371D01*
X210204427Y-128580456D01*
X210335610Y-128366385D01*
X210431690Y-128134427D01*
X210490301Y-127890295D01*
X210510000Y-127640000D01*
X210490301Y-127389705D01*
X210431690Y-127145573D01*
X210335610Y-126913615D01*
X210204427Y-126699544D01*
X210041371Y-126508629D01*
X209850456Y-126345573D01*
X209636385Y-126214390D01*
X209404427Y-126118310D01*
X209160295Y-126059699D01*
X208910000Y-126040000D01*
X208659705Y-126059698D01*
X208415573Y-126118309D01*
X208183615Y-126214389D01*
X207969543Y-126345573D01*
X207778629Y-126508629D01*
X207615573Y-126699543D01*
X207484389Y-126913615D01*
X207388309Y-127145573D01*
X207329698Y-127389705D01*
X207310000Y-127640000D01*
X207329698Y-127890295D01*
X207388309Y-128134427D01*
X207484389Y-128366385D01*
X207615573Y-128580457D01*
X207778629Y-128771371D01*
X207778629Y-129360000D01*
X205487000Y-129360001D01*
X205487000Y-126192606D01*
X207412606Y-124267000D01*
X210307394Y-124267000D01*
X212233000Y-126192606D01*
D22*
G36*
X212233000Y-126192606D02*
G01*
X212233000Y-129360000D01*
X210041371Y-129360000D01*
X210041371Y-128771371D01*
X210204427Y-128580456D01*
X210335610Y-128366385D01*
X210431690Y-128134427D01*
X210490301Y-127890295D01*
X210510000Y-127640000D01*
X210490301Y-127389705D01*
X210431690Y-127145573D01*
X210335610Y-126913615D01*
X210204427Y-126699544D01*
X210041371Y-126508629D01*
X209850456Y-126345573D01*
X209636385Y-126214390D01*
X209404427Y-126118310D01*
X209160295Y-126059699D01*
X208910000Y-126040000D01*
X208659705Y-126059698D01*
X208415573Y-126118309D01*
X208183615Y-126214389D01*
X207969543Y-126345573D01*
X207778629Y-126508629D01*
X207615573Y-126699543D01*
X207484389Y-126913615D01*
X207388309Y-127145573D01*
X207329698Y-127389705D01*
X207310000Y-127640000D01*
X207329698Y-127890295D01*
X207388309Y-128134427D01*
X207484389Y-128366385D01*
X207615573Y-128580457D01*
X207778629Y-128771371D01*
X207778629Y-129360000D01*
X205487000Y-129360001D01*
X205487000Y-126192606D01*
X207412606Y-124267000D01*
X210307394Y-124267000D01*
X212233000Y-126192606D01*
G37*
D21*
X167783000Y-126192606D02*
X167783000Y-129360000D01*
X165541371Y-129360000D01*
X165541371Y-128771371D01*
X165704427Y-128580456D01*
X165835610Y-128366385D01*
X165931690Y-128134427D01*
X165990301Y-127890295D01*
X166010000Y-127640000D01*
X165990301Y-127389705D01*
X165931690Y-127145573D01*
X165835610Y-126913615D01*
X165704427Y-126699544D01*
X165541371Y-126508629D01*
X165350456Y-126345573D01*
X165136385Y-126214390D01*
X164904427Y-126118310D01*
X164660295Y-126059699D01*
X164410000Y-126040000D01*
X164159705Y-126059698D01*
X163915573Y-126118309D01*
X163683615Y-126214389D01*
X163469543Y-126345573D01*
X163278629Y-126508629D01*
X163115573Y-126699543D01*
X162984389Y-126913615D01*
X162888309Y-127145573D01*
X162829698Y-127389705D01*
X162810000Y-127640000D01*
X162829698Y-127890295D01*
X162888309Y-128134427D01*
X162984389Y-128366385D01*
X163115573Y-128580457D01*
X163278629Y-128771371D01*
X163278629Y-129360000D01*
X161037000Y-129360001D01*
X161037000Y-126192606D01*
X162962606Y-124267000D01*
X165857394Y-124267000D01*
X167783000Y-126192606D01*
D22*
G36*
X167783000Y-126192606D02*
G01*
X167783000Y-129360000D01*
X165541371Y-129360000D01*
X165541371Y-128771371D01*
X165704427Y-128580456D01*
X165835610Y-128366385D01*
X165931690Y-128134427D01*
X165990301Y-127890295D01*
X166010000Y-127640000D01*
X165990301Y-127389705D01*
X165931690Y-127145573D01*
X165835610Y-126913615D01*
X165704427Y-126699544D01*
X165541371Y-126508629D01*
X165350456Y-126345573D01*
X165136385Y-126214390D01*
X164904427Y-126118310D01*
X164660295Y-126059699D01*
X164410000Y-126040000D01*
X164159705Y-126059698D01*
X163915573Y-126118309D01*
X163683615Y-126214389D01*
X163469543Y-126345573D01*
X163278629Y-126508629D01*
X163115573Y-126699543D01*
X162984389Y-126913615D01*
X162888309Y-127145573D01*
X162829698Y-127389705D01*
X162810000Y-127640000D01*
X162829698Y-127890295D01*
X162888309Y-128134427D01*
X162984389Y-128366385D01*
X163115573Y-128580457D01*
X163278629Y-128771371D01*
X163278629Y-129360000D01*
X161037000Y-129360001D01*
X161037000Y-126192606D01*
X162962606Y-124267000D01*
X165857394Y-124267000D01*
X167783000Y-126192606D01*
G37*
D21*
X167783000Y-33837394D02*
X165857394Y-35763000D01*
X162962606Y-35763000D01*
X161037000Y-33837394D01*
X161037000Y-30660000D01*
X163278629Y-30660000D01*
X163278629Y-31258629D01*
X163115573Y-31449544D01*
X162984390Y-31663615D01*
X162888310Y-31895573D01*
X162829699Y-32139705D01*
X162810000Y-32390000D01*
X162829699Y-32640295D01*
X162888310Y-32884427D01*
X162984390Y-33116385D01*
X163115573Y-33330456D01*
X163278629Y-33521371D01*
X163469544Y-33684427D01*
X163683615Y-33815610D01*
X163915573Y-33911690D01*
X164159705Y-33970301D01*
X164410000Y-33990000D01*
X164660295Y-33970302D01*
X164904427Y-33911691D01*
X165136385Y-33815611D01*
X165350457Y-33684427D01*
X165541371Y-33521371D01*
X165704427Y-33330457D01*
X165835611Y-33116385D01*
X165931691Y-32884427D01*
X165990302Y-32640295D01*
X166010000Y-32390000D01*
X165990302Y-32139705D01*
X165931691Y-31895573D01*
X165835611Y-31663615D01*
X165704427Y-31449543D01*
X165541371Y-31258629D01*
X165541371Y-30660000D01*
X167783000Y-30659999D01*
X167783000Y-33837394D01*
D22*
G36*
X167783000Y-33837394D02*
G01*
X165857394Y-35763000D01*
X162962606Y-35763000D01*
X161037000Y-33837394D01*
X161037000Y-30660000D01*
X163278629Y-30660000D01*
X163278629Y-31258629D01*
X163115573Y-31449544D01*
X162984390Y-31663615D01*
X162888310Y-31895573D01*
X162829699Y-32139705D01*
X162810000Y-32390000D01*
X162829699Y-32640295D01*
X162888310Y-32884427D01*
X162984390Y-33116385D01*
X163115573Y-33330456D01*
X163278629Y-33521371D01*
X163469544Y-33684427D01*
X163683615Y-33815610D01*
X163915573Y-33911690D01*
X164159705Y-33970301D01*
X164410000Y-33990000D01*
X164660295Y-33970302D01*
X164904427Y-33911691D01*
X165136385Y-33815611D01*
X165350457Y-33684427D01*
X165541371Y-33521371D01*
X165704427Y-33330457D01*
X165835611Y-33116385D01*
X165931691Y-32884427D01*
X165990302Y-32640295D01*
X166010000Y-32390000D01*
X165990302Y-32139705D01*
X165931691Y-31895573D01*
X165835611Y-31663615D01*
X165704427Y-31449543D01*
X165541371Y-31258629D01*
X165541371Y-30660000D01*
X167783000Y-30659999D01*
X167783000Y-33837394D01*
G37*
D21*
X212233000Y-33837394D02*
X210307394Y-35763000D01*
X207412606Y-35763000D01*
X205487000Y-33837394D01*
X205487000Y-30660000D01*
X207778629Y-30660000D01*
X207778629Y-31258629D01*
X207615573Y-31449544D01*
X207484390Y-31663615D01*
X207388310Y-31895573D01*
X207329699Y-32139705D01*
X207310000Y-32390000D01*
X207329699Y-32640295D01*
X207388310Y-32884427D01*
X207484390Y-33116385D01*
X207615573Y-33330456D01*
X207778629Y-33521371D01*
X207969544Y-33684427D01*
X208183615Y-33815610D01*
X208415573Y-33911690D01*
X208659705Y-33970301D01*
X208910000Y-33990000D01*
X209160295Y-33970302D01*
X209404427Y-33911691D01*
X209636385Y-33815611D01*
X209850457Y-33684427D01*
X210041371Y-33521371D01*
X210204427Y-33330457D01*
X210335611Y-33116385D01*
X210431691Y-32884427D01*
X210490302Y-32640295D01*
X210510000Y-32390000D01*
X210490302Y-32139705D01*
X210431691Y-31895573D01*
X210335611Y-31663615D01*
X210204427Y-31449543D01*
X210041371Y-31258629D01*
X210041371Y-30660000D01*
X212233000Y-30659999D01*
X212233000Y-33837394D01*
D22*
G36*
X212233000Y-33837394D02*
G01*
X210307394Y-35763000D01*
X207412606Y-35763000D01*
X205487000Y-33837394D01*
X205487000Y-30660000D01*
X207778629Y-30660000D01*
X207778629Y-31258629D01*
X207615573Y-31449544D01*
X207484390Y-31663615D01*
X207388310Y-31895573D01*
X207329699Y-32139705D01*
X207310000Y-32390000D01*
X207329699Y-32640295D01*
X207388310Y-32884427D01*
X207484390Y-33116385D01*
X207615573Y-33330456D01*
X207778629Y-33521371D01*
X207969544Y-33684427D01*
X208183615Y-33815610D01*
X208415573Y-33911690D01*
X208659705Y-33970301D01*
X208910000Y-33990000D01*
X209160295Y-33970302D01*
X209404427Y-33911691D01*
X209636385Y-33815611D01*
X209850457Y-33684427D01*
X210041371Y-33521371D01*
X210204427Y-33330457D01*
X210335611Y-33116385D01*
X210431691Y-32884427D01*
X210490302Y-32640295D01*
X210510000Y-32390000D01*
X210490302Y-32139705D01*
X210431691Y-31895573D01*
X210335611Y-31663615D01*
X210204427Y-31449543D01*
X210041371Y-31258629D01*
X210041371Y-30660000D01*
X212233000Y-30659999D01*
X212233000Y-33837394D01*
G37*
M02*
