%TF.GenerationSoftware,KiCad,Pcbnew,(5.1.9)-1*%
%TF.CreationDate,2021-10-24T18:26:44+08:00*%
%TF.ProjectId,XTA-35-TH,5854412d-3335-42d5-9448-2e6b69636164,rev?*%
%TF.SameCoordinates,Original*%
%TF.FileFunction,Paste,Top*%
%TF.FilePolarity,Positive*%
%FSLAX46Y46*%
G04 Gerber Fmt 4.6, Leading zero omitted, Abs format (unit mm)*
G04 Created by KiCad (PCBNEW (5.1.9)-1) date 2021-10-24 18:26:44*
%MOMM*%
%LPD*%
G01*
G04 APERTURE LIST*
%ADD10R,0.900000X1.200000*%
G04 APERTURE END LIST*
D10*
%TO.C,D1*%
X231520000Y-41910000D03*
X228220000Y-41910000D03*
%TD*%
%TO.C,C2*%
G36*
G01*
X196199999Y-43650000D02*
X197500001Y-43650000D01*
G75*
G02*
X197750000Y-43899999I0J-249999D01*
G01*
X197750000Y-44550001D01*
G75*
G02*
X197500001Y-44800000I-249999J0D01*
G01*
X196199999Y-44800000D01*
G75*
G02*
X195950000Y-44550001I0J249999D01*
G01*
X195950000Y-43899999D01*
G75*
G02*
X196199999Y-43650000I249999J0D01*
G01*
G37*
G36*
G01*
X196199999Y-40700000D02*
X197500001Y-40700000D01*
G75*
G02*
X197750000Y-40949999I0J-249999D01*
G01*
X197750000Y-41600001D01*
G75*
G02*
X197500001Y-41850000I-249999J0D01*
G01*
X196199999Y-41850000D01*
G75*
G02*
X195950000Y-41600001I0J249999D01*
G01*
X195950000Y-40949999D01*
G75*
G02*
X196199999Y-40700000I249999J0D01*
G01*
G37*
%TD*%
%TO.C,C1*%
G36*
G01*
X173339999Y-90005000D02*
X174640001Y-90005000D01*
G75*
G02*
X174890000Y-90254999I0J-249999D01*
G01*
X174890000Y-90905001D01*
G75*
G02*
X174640001Y-91155000I-249999J0D01*
G01*
X173339999Y-91155000D01*
G75*
G02*
X173090000Y-90905001I0J249999D01*
G01*
X173090000Y-90254999D01*
G75*
G02*
X173339999Y-90005000I249999J0D01*
G01*
G37*
G36*
G01*
X173339999Y-87055000D02*
X174640001Y-87055000D01*
G75*
G02*
X174890000Y-87304999I0J-249999D01*
G01*
X174890000Y-87955001D01*
G75*
G02*
X174640001Y-88205000I-249999J0D01*
G01*
X173339999Y-88205000D01*
G75*
G02*
X173090000Y-87955001I0J249999D01*
G01*
X173090000Y-87304999D01*
G75*
G02*
X173339999Y-87055000I249999J0D01*
G01*
G37*
%TD*%
%TO.C,C4*%
G36*
G01*
X186039999Y-105880000D02*
X187340001Y-105880000D01*
G75*
G02*
X187590000Y-106129999I0J-249999D01*
G01*
X187590000Y-106780001D01*
G75*
G02*
X187340001Y-107030000I-249999J0D01*
G01*
X186039999Y-107030000D01*
G75*
G02*
X185790000Y-106780001I0J249999D01*
G01*
X185790000Y-106129999D01*
G75*
G02*
X186039999Y-105880000I249999J0D01*
G01*
G37*
G36*
G01*
X186039999Y-102930000D02*
X187340001Y-102930000D01*
G75*
G02*
X187590000Y-103179999I0J-249999D01*
G01*
X187590000Y-103830001D01*
G75*
G02*
X187340001Y-104080000I-249999J0D01*
G01*
X186039999Y-104080000D01*
G75*
G02*
X185790000Y-103830001I0J249999D01*
G01*
X185790000Y-103179999D01*
G75*
G02*
X186039999Y-102930000I249999J0D01*
G01*
G37*
%TD*%
%TO.C,C3*%
G36*
G01*
X171434999Y-39840000D02*
X172735001Y-39840000D01*
G75*
G02*
X172985000Y-40089999I0J-249999D01*
G01*
X172985000Y-40740001D01*
G75*
G02*
X172735001Y-40990000I-249999J0D01*
G01*
X171434999Y-40990000D01*
G75*
G02*
X171185000Y-40740001I0J249999D01*
G01*
X171185000Y-40089999D01*
G75*
G02*
X171434999Y-39840000I249999J0D01*
G01*
G37*
G36*
G01*
X171434999Y-36890000D02*
X172735001Y-36890000D01*
G75*
G02*
X172985000Y-37139999I0J-249999D01*
G01*
X172985000Y-37790001D01*
G75*
G02*
X172735001Y-38040000I-249999J0D01*
G01*
X171434999Y-38040000D01*
G75*
G02*
X171185000Y-37790001I0J249999D01*
G01*
X171185000Y-37139999D01*
G75*
G02*
X171434999Y-36890000I249999J0D01*
G01*
G37*
%TD*%
%TO.C,R4*%
G36*
G01*
X173725000Y-48269999D02*
X173725000Y-49520001D01*
G75*
G02*
X173475001Y-49770000I-249999J0D01*
G01*
X172849999Y-49770000D01*
G75*
G02*
X172600000Y-49520001I0J249999D01*
G01*
X172600000Y-48269999D01*
G75*
G02*
X172849999Y-48020000I249999J0D01*
G01*
X173475001Y-48020000D01*
G75*
G02*
X173725000Y-48269999I0J-249999D01*
G01*
G37*
G36*
G01*
X176650000Y-48269999D02*
X176650000Y-49520001D01*
G75*
G02*
X176400001Y-49770000I-249999J0D01*
G01*
X175774999Y-49770000D01*
G75*
G02*
X175525000Y-49520001I0J249999D01*
G01*
X175525000Y-48269999D01*
G75*
G02*
X175774999Y-48020000I249999J0D01*
G01*
X176400001Y-48020000D01*
G75*
G02*
X176650000Y-48269999I0J-249999D01*
G01*
G37*
%TD*%
%TO.C,R3*%
G36*
G01*
X213369999Y-83450000D02*
X214620001Y-83450000D01*
G75*
G02*
X214870000Y-83699999I0J-249999D01*
G01*
X214870000Y-84325001D01*
G75*
G02*
X214620001Y-84575000I-249999J0D01*
G01*
X213369999Y-84575000D01*
G75*
G02*
X213120000Y-84325001I0J249999D01*
G01*
X213120000Y-83699999D01*
G75*
G02*
X213369999Y-83450000I249999J0D01*
G01*
G37*
G36*
G01*
X213369999Y-80525000D02*
X214620001Y-80525000D01*
G75*
G02*
X214870000Y-80774999I0J-249999D01*
G01*
X214870000Y-81400001D01*
G75*
G02*
X214620001Y-81650000I-249999J0D01*
G01*
X213369999Y-81650000D01*
G75*
G02*
X213120000Y-81400001I0J249999D01*
G01*
X213120000Y-80774999D01*
G75*
G02*
X213369999Y-80525000I249999J0D01*
G01*
G37*
%TD*%
%TO.C,R2*%
G36*
G01*
X164835000Y-37474999D02*
X164835000Y-38725001D01*
G75*
G02*
X164585001Y-38975000I-249999J0D01*
G01*
X163959999Y-38975000D01*
G75*
G02*
X163710000Y-38725001I0J249999D01*
G01*
X163710000Y-37474999D01*
G75*
G02*
X163959999Y-37225000I249999J0D01*
G01*
X164585001Y-37225000D01*
G75*
G02*
X164835000Y-37474999I0J-249999D01*
G01*
G37*
G36*
G01*
X167760000Y-37474999D02*
X167760000Y-38725001D01*
G75*
G02*
X167510001Y-38975000I-249999J0D01*
G01*
X166884999Y-38975000D01*
G75*
G02*
X166635000Y-38725001I0J249999D01*
G01*
X166635000Y-37474999D01*
G75*
G02*
X166884999Y-37225000I249999J0D01*
G01*
X167510001Y-37225000D01*
G75*
G02*
X167760000Y-37474999I0J-249999D01*
G01*
G37*
%TD*%
%TO.C,R1*%
G36*
G01*
X166635000Y-42535001D02*
X166635000Y-41284999D01*
G75*
G02*
X166884999Y-41035000I249999J0D01*
G01*
X167510001Y-41035000D01*
G75*
G02*
X167760000Y-41284999I0J-249999D01*
G01*
X167760000Y-42535001D01*
G75*
G02*
X167510001Y-42785000I-249999J0D01*
G01*
X166884999Y-42785000D01*
G75*
G02*
X166635000Y-42535001I0J249999D01*
G01*
G37*
G36*
G01*
X163710000Y-42535001D02*
X163710000Y-41284999D01*
G75*
G02*
X163959999Y-41035000I249999J0D01*
G01*
X164585001Y-41035000D01*
G75*
G02*
X164835000Y-41284999I0J-249999D01*
G01*
X164835000Y-42535001D01*
G75*
G02*
X164585001Y-42785000I-249999J0D01*
G01*
X163959999Y-42785000D01*
G75*
G02*
X163710000Y-42535001I0J249999D01*
G01*
G37*
%TD*%
%TO.C,R9*%
G36*
G01*
X229879999Y-123455000D02*
X231130001Y-123455000D01*
G75*
G02*
X231380000Y-123704999I0J-249999D01*
G01*
X231380000Y-124330001D01*
G75*
G02*
X231130001Y-124580000I-249999J0D01*
G01*
X229879999Y-124580000D01*
G75*
G02*
X229630000Y-124330001I0J249999D01*
G01*
X229630000Y-123704999D01*
G75*
G02*
X229879999Y-123455000I249999J0D01*
G01*
G37*
G36*
G01*
X229879999Y-120530000D02*
X231130001Y-120530000D01*
G75*
G02*
X231380000Y-120779999I0J-249999D01*
G01*
X231380000Y-121405001D01*
G75*
G02*
X231130001Y-121655000I-249999J0D01*
G01*
X229879999Y-121655000D01*
G75*
G02*
X229630000Y-121405001I0J249999D01*
G01*
X229630000Y-120779999D01*
G75*
G02*
X229879999Y-120530000I249999J0D01*
G01*
G37*
%TD*%
%TO.C,R5*%
G36*
G01*
X217179999Y-123455000D02*
X218430001Y-123455000D01*
G75*
G02*
X218680000Y-123704999I0J-249999D01*
G01*
X218680000Y-124330001D01*
G75*
G02*
X218430001Y-124580000I-249999J0D01*
G01*
X217179999Y-124580000D01*
G75*
G02*
X216930000Y-124330001I0J249999D01*
G01*
X216930000Y-123704999D01*
G75*
G02*
X217179999Y-123455000I249999J0D01*
G01*
G37*
G36*
G01*
X217179999Y-120530000D02*
X218430001Y-120530000D01*
G75*
G02*
X218680000Y-120779999I0J-249999D01*
G01*
X218680000Y-121405001D01*
G75*
G02*
X218430001Y-121655000I-249999J0D01*
G01*
X217179999Y-121655000D01*
G75*
G02*
X216930000Y-121405001I0J249999D01*
G01*
X216930000Y-120779999D01*
G75*
G02*
X217179999Y-120530000I249999J0D01*
G01*
G37*
%TD*%
%TO.C,R7*%
G36*
G01*
X223529999Y-123455000D02*
X224780001Y-123455000D01*
G75*
G02*
X225030000Y-123704999I0J-249999D01*
G01*
X225030000Y-124330001D01*
G75*
G02*
X224780001Y-124580000I-249999J0D01*
G01*
X223529999Y-124580000D01*
G75*
G02*
X223280000Y-124330001I0J249999D01*
G01*
X223280000Y-123704999D01*
G75*
G02*
X223529999Y-123455000I249999J0D01*
G01*
G37*
G36*
G01*
X223529999Y-120530000D02*
X224780001Y-120530000D01*
G75*
G02*
X225030000Y-120779999I0J-249999D01*
G01*
X225030000Y-121405001D01*
G75*
G02*
X224780001Y-121655000I-249999J0D01*
G01*
X223529999Y-121655000D01*
G75*
G02*
X223280000Y-121405001I0J249999D01*
G01*
X223280000Y-120779999D01*
G75*
G02*
X223529999Y-120530000I249999J0D01*
G01*
G37*
%TD*%
%TO.C,R6*%
G36*
G01*
X220354999Y-123455000D02*
X221605001Y-123455000D01*
G75*
G02*
X221855000Y-123704999I0J-249999D01*
G01*
X221855000Y-124330001D01*
G75*
G02*
X221605001Y-124580000I-249999J0D01*
G01*
X220354999Y-124580000D01*
G75*
G02*
X220105000Y-124330001I0J249999D01*
G01*
X220105000Y-123704999D01*
G75*
G02*
X220354999Y-123455000I249999J0D01*
G01*
G37*
G36*
G01*
X220354999Y-120530000D02*
X221605001Y-120530000D01*
G75*
G02*
X221855000Y-120779999I0J-249999D01*
G01*
X221855000Y-121405001D01*
G75*
G02*
X221605001Y-121655000I-249999J0D01*
G01*
X220354999Y-121655000D01*
G75*
G02*
X220105000Y-121405001I0J249999D01*
G01*
X220105000Y-120779999D01*
G75*
G02*
X220354999Y-120530000I249999J0D01*
G01*
G37*
%TD*%
%TO.C,R8*%
G36*
G01*
X226704999Y-123455000D02*
X227955001Y-123455000D01*
G75*
G02*
X228205000Y-123704999I0J-249999D01*
G01*
X228205000Y-124330001D01*
G75*
G02*
X227955001Y-124580000I-249999J0D01*
G01*
X226704999Y-124580000D01*
G75*
G02*
X226455000Y-124330001I0J249999D01*
G01*
X226455000Y-123704999D01*
G75*
G02*
X226704999Y-123455000I249999J0D01*
G01*
G37*
G36*
G01*
X226704999Y-120530000D02*
X227955001Y-120530000D01*
G75*
G02*
X228205000Y-120779999I0J-249999D01*
G01*
X228205000Y-121405001D01*
G75*
G02*
X227955001Y-121655000I-249999J0D01*
G01*
X226704999Y-121655000D01*
G75*
G02*
X226455000Y-121405001I0J249999D01*
G01*
X226455000Y-120779999D01*
G75*
G02*
X226704999Y-120530000I249999J0D01*
G01*
G37*
%TD*%
M02*
