M48
; DRILL file {KiCad (5.1.9)-1} date 10/24/21 18:27:10
; FORMAT={-:-/ absolute / metric / decimal}
; #@! TF.CreationDate,2021-10-24T18:27:10+08:00
; #@! TF.GenerationSoftware,Kicad,Pcbnew,(5.1.9)-1
FMAT,2
METRIC
T1C0.400
T2C0.600
T3C0.800
T4C1.000
T5C1.020
T6C1.100
T7C1.520
T8C3.200
T9C1.200
T10C2.540
T11C4.000
%
G90
G05
T1
X160.655Y-117.475
X160.655Y-118.745
X161.925Y-97.79
X161.925Y-99.06
X161.926Y-32.918
X161.926Y-127.112
X161.945Y-31.776
X161.945Y-128.254
X162.408Y-33.954
X162.408Y-126.076
X162.56Y-109.855
X162.56Y-111.125
X163.297Y-34.673
X163.297Y-125.357
X163.83Y-86.36
X163.83Y-87.63
X163.83Y-89.535
X164.41Y-34.93
X164.41Y-125.1
X164.465Y-112.395
X164.465Y-113.665
X165.1Y-83.82
X165.1Y-85.09
X165.1Y-89.535
X165.523Y-34.673
X165.523Y-125.357
X165.735Y-36.83
X165.735Y-38.1
X165.735Y-41.91
X165.735Y-43.18
X165.735Y-60.96
X166.37Y-114.935
X166.37Y-116.205
X166.412Y-33.954
X166.412Y-126.076
X166.875Y-31.776
X166.875Y-128.254
X166.894Y-32.918
X166.894Y-127.112
X167.005Y-91.44
X167.64Y-82.55
X168.91Y-82.55
X169.545Y-96.52
X171.45Y-49.403
X171.45Y-50.673
X171.45Y-90.17
X171.45Y-91.44
X172.72Y-85.09
X173.99Y-85.09
X175.26Y-83.82
X176.53Y-43.815
X176.53Y-46.355
X176.53Y-83.82
X177.165Y-47.625
X177.165Y-82.55
X177.8Y-43.18
X178.435Y-93.98
X179.07Y-43.815
X180.34Y-111.125
X180.34Y-116.205
X181.61Y-43.815
X183.515Y-88.9
X183.515Y-93.98
X184.15Y-43.815
X188.595Y-88.9
X188.595Y-93.98
X191.135Y-109.855
X193.675Y-86.36
X193.675Y-93.98
X198.755Y-86.36
X201.295Y-121.285
X202.565Y-122.555
X203.2Y-79.375
X203.2Y-88.265
X205.105Y-46.99
X205.74Y-59.055
X205.74Y-60.325
X206.426Y-32.918
X206.426Y-127.112
X206.445Y-31.776
X206.445Y-128.254
X206.908Y-33.954
X206.908Y-126.076
X207.645Y-46.99
X207.797Y-34.673
X207.797Y-125.357
X208.28Y-57.785
X208.28Y-59.055
X208.91Y-34.93
X208.91Y-125.1
X208.915Y-42.545
X208.915Y-46.355
X210.023Y-34.673
X210.023Y-125.357
X210.185Y-46.99
X210.912Y-33.954
X210.912Y-126.076
X211.375Y-31.776
X211.375Y-128.254
X211.394Y-32.918
X211.394Y-127.112
X211.455Y-42.545
X211.455Y-46.355
X211.455Y-58.42
X211.455Y-59.69
X211.455Y-60.96
X212.725Y-46.99
X213.995Y-82.55
X213.995Y-85.725
X213.995Y-86.995
X215.265Y-46.99
X216.535Y-42.545
X217.805Y-46.99
X217.805Y-119.38
X217.805Y-125.73
X218.44Y-100.33
X218.44Y-101.6
X219.075Y-106.045
X220.345Y-46.99
X220.345Y-106.045
X220.98Y-122.555
X220.98Y-125.73
X221.615Y-42.545
X222.25Y-102.235
X222.885Y-103.505
X222.885Y-114.3
X222.885Y-115.57
X222.885Y-116.84
X223.52Y-118.11
X224.155Y-104.14
X224.155Y-122.555
X224.155Y-125.73
X224.79Y-118.11
X227.33Y-71.12
X227.33Y-72.39
X227.33Y-122.555
X227.33Y-125.73
X230.505Y-122.555
X230.505Y-125.73
X231.775Y-85.09
X233.045Y-83.82
X233.045Y-85.09
X234.315Y-82.55
X234.315Y-83.82
X234.95Y-111.76
T2
X170.18Y-35.56
X170.18Y-37.465
X170.18Y-100.33
X173.99Y-89.105
X173.99Y-92.055
X175.26Y-39.37
X177.165Y-89.535
X181.61Y-121.92
X184.785Y-103.505
X186.69Y-46.355
X186.69Y-47.879
X186.69Y-105.055
X190.5Y-46.99
X195.58Y-42.75
X196.215Y-49.53
X197.485Y-50.8
X203.2Y-78.105
X204.47Y-77.47
X204.47Y-87.63
X205.105Y-86.36
X205.74Y-76.2
X206.375Y-74.93
X207.645Y-74.295
X208.915Y-72.39
X208.915Y-101.6
X208.915Y-105.41
X208.915Y-109.22
X208.915Y-113.03
X208.915Y-114.935
X208.915Y-116.84
X209.55Y-103.505
X210.185Y-71.755
X211.01Y-81.915
X211.01Y-85.725
X211.455Y-103.505
X212.09Y-82.55
X212.09Y-85.09
X214.63Y-111.76
X214.63Y-114.3
X215.9Y-115.57
X216.535Y-112.395
X228.219Y-40.513
X228.219Y-43.307
X229.235Y-41.91
X229.87Y-40.64
X229.87Y-43.18
T3
X175.26Y-37.465
X175.26Y-45.085
X177.165Y-87.63
X177.165Y-95.25
X177.8Y-37.465
X177.8Y-45.085
X179.705Y-87.63
X179.705Y-95.25
X180.34Y-37.465
X180.34Y-45.085
X182.245Y-87.63
X182.245Y-95.25
X182.88Y-37.465
X182.88Y-45.085
X184.785Y-87.63
X184.785Y-95.25
X185.42Y-37.465
X185.42Y-45.085
X187.325Y-87.63
X187.325Y-95.25
X187.96Y-37.465
X187.96Y-45.085
X189.865Y-87.63
X189.865Y-95.25
X189.865Y-103.505
X189.865Y-111.125
X190.5Y-37.465
X190.5Y-45.085
X191.135Y-116.205
X191.135Y-123.825
X192.405Y-87.63
X192.405Y-95.25
X192.405Y-103.505
X192.405Y-111.125
X193.675Y-116.205
X193.675Y-123.825
X194.945Y-87.63
X194.945Y-95.25
X194.945Y-103.505
X194.945Y-111.125
X196.215Y-116.205
X196.215Y-123.825
X197.485Y-87.63
X197.485Y-95.25
X197.485Y-103.505
X197.485Y-111.125
X198.755Y-116.205
X198.755Y-123.825
X200.025Y-41.275
X200.025Y-48.895
X200.025Y-87.63
X200.025Y-95.25
X200.025Y-103.505
X200.025Y-111.125
X202.565Y-41.275
X202.565Y-48.895
X202.565Y-103.505
X202.565Y-111.125
X205.105Y-41.275
X205.105Y-48.895
X205.105Y-103.505
X205.105Y-111.125
X207.645Y-41.275
X207.645Y-48.895
X207.645Y-103.505
X207.645Y-111.125
X210.185Y-41.275
X210.185Y-48.895
X212.725Y-41.275
X212.725Y-48.895
X215.265Y-41.275
X215.265Y-48.895
X217.805Y-41.275
X217.805Y-48.895
X220.345Y-41.275
X220.345Y-48.895
X222.885Y-41.275
X222.885Y-48.895
T4
X161.29Y-38.735
X161.29Y-41.275
X168.275Y-87.63
X168.275Y-90.17
X168.275Y-92.71
X168.275Y-95.25
X168.275Y-97.79
X168.275Y-100.33
X181.61Y-107.315
X181.61Y-109.855
X181.61Y-112.395
X181.61Y-114.935
X181.61Y-117.475
X181.61Y-120.015
X212.725Y-64.77
X212.725Y-67.31
X212.725Y-69.85
X212.725Y-72.39
X212.725Y-74.93
X212.725Y-77.47
X236.855Y-71.12
X236.855Y-73.66
X236.855Y-76.2
X236.855Y-78.74
X236.855Y-81.28
X236.855Y-83.82
X236.855Y-86.36
X236.855Y-88.9
X236.855Y-91.44
X236.855Y-93.98
X236.855Y-96.52
X236.855Y-99.06
X236.855Y-101.6
X236.855Y-104.14
X236.855Y-106.68
X236.855Y-109.22
X236.855Y-111.76
X236.855Y-114.3
X236.855Y-116.84
X236.855Y-119.38
X239.395Y-71.12
X239.395Y-73.66
X239.395Y-76.2
X239.395Y-78.74
X239.395Y-81.28
X239.395Y-83.82
X239.395Y-86.36
X239.395Y-88.9
X239.395Y-91.44
X239.395Y-96.52
X239.395Y-99.06
X239.395Y-101.6
X239.395Y-104.14
X239.395Y-106.68
X239.395Y-109.22
X239.395Y-111.76
X239.395Y-114.3
X239.395Y-116.84
X239.395Y-119.38
T5
X153.035Y-58.42
X153.035Y-76.2
X155.575Y-58.42
X155.575Y-76.2
X158.115Y-58.42
X158.115Y-76.2
X160.655Y-58.42
X160.655Y-76.2
X163.195Y-58.42
X163.195Y-76.2
X165.735Y-58.42
X165.735Y-76.2
X168.275Y-58.42
X168.275Y-76.2
X170.815Y-58.42
X170.815Y-76.2
X173.355Y-58.42
X173.355Y-76.2
X175.895Y-58.42
X175.895Y-76.2
X178.435Y-58.42
X178.435Y-76.2
X180.975Y-58.42
X180.975Y-76.2
X183.515Y-58.42
X183.515Y-76.2
X186.055Y-58.42
X186.055Y-76.2
X188.595Y-58.42
X188.595Y-76.2
X191.135Y-58.42
X191.135Y-76.2
X193.675Y-58.42
X193.675Y-76.2
X196.215Y-58.42
X196.215Y-76.2
X198.755Y-58.42
X198.755Y-76.2
X201.065Y-64.77
X201.065Y-67.31
X201.065Y-69.85
X201.295Y-58.42
X201.295Y-76.2
T6
X161.14Y-46.62
X161.14Y-51.12
X167.64Y-46.62
X167.64Y-51.12
X205.74Y-117.475
X205.74Y-121.975
X212.24Y-117.475
X212.24Y-121.975
T7
X236.55Y-41.91
X236.55Y-46.99
X236.55Y-52.07
X236.55Y-57.15
T8
X153.09Y-49.15
X153.09Y-110.87
X229.69Y-49.15
X229.69Y-110.87
T9
X239.395Y-93.98
T10
X239.09Y-39.37
X239.09Y-59.69
T11
X246.71Y-44.45
X246.71Y-54.61
T0
M30
