%TF.GenerationSoftware,KiCad,Pcbnew,(5.1.9)-1*%
%TF.CreationDate,2021-10-24T18:26:44+08:00*%
%TF.ProjectId,XTA-35-TH,5854412d-3335-42d5-9448-2e6b69636164,rev?*%
%TF.SameCoordinates,Original*%
%TF.FileFunction,Legend,Bot*%
%TF.FilePolarity,Positive*%
%FSLAX46Y46*%
G04 Gerber Fmt 4.6, Leading zero omitted, Abs format (unit mm)*
G04 Created by KiCad (PCBNEW (5.1.9)-1) date 2021-10-24 18:26:44*
%MOMM*%
%LPD*%
G01*
G04 APERTURE LIST*
%ADD10C,0.150000*%
G04 APERTURE END LIST*
D10*
X232409047Y-60862380D02*
X231837619Y-60862380D01*
X232123333Y-61862380D02*
X232123333Y-60862380D01*
X231361428Y-61862380D02*
X231456666Y-61814761D01*
X231504285Y-61767142D01*
X231551904Y-61671904D01*
X231551904Y-61386190D01*
X231504285Y-61290952D01*
X231456666Y-61243333D01*
X231361428Y-61195714D01*
X231218571Y-61195714D01*
X231123333Y-61243333D01*
X231075714Y-61290952D01*
X231028095Y-61386190D01*
X231028095Y-61671904D01*
X231075714Y-61767142D01*
X231123333Y-61814761D01*
X231218571Y-61862380D01*
X231361428Y-61862380D01*
X229409047Y-61862380D02*
X229409047Y-61338571D01*
X229456666Y-61243333D01*
X229551904Y-61195714D01*
X229742380Y-61195714D01*
X229837619Y-61243333D01*
X229409047Y-61814761D02*
X229504285Y-61862380D01*
X229742380Y-61862380D01*
X229837619Y-61814761D01*
X229885238Y-61719523D01*
X229885238Y-61624285D01*
X229837619Y-61529047D01*
X229742380Y-61481428D01*
X229504285Y-61481428D01*
X229409047Y-61433809D01*
X228504285Y-61814761D02*
X228599523Y-61862380D01*
X228790000Y-61862380D01*
X228885238Y-61814761D01*
X228932857Y-61767142D01*
X228980476Y-61671904D01*
X228980476Y-61386190D01*
X228932857Y-61290952D01*
X228885238Y-61243333D01*
X228790000Y-61195714D01*
X228599523Y-61195714D01*
X228504285Y-61243333D01*
X227647142Y-61814761D02*
X227742380Y-61862380D01*
X227932857Y-61862380D01*
X228028095Y-61814761D01*
X228075714Y-61767142D01*
X228123333Y-61671904D01*
X228123333Y-61386190D01*
X228075714Y-61290952D01*
X228028095Y-61243333D01*
X227932857Y-61195714D01*
X227742380Y-61195714D01*
X227647142Y-61243333D01*
X226837619Y-61814761D02*
X226932857Y-61862380D01*
X227123333Y-61862380D01*
X227218571Y-61814761D01*
X227266190Y-61719523D01*
X227266190Y-61338571D01*
X227218571Y-61243333D01*
X227123333Y-61195714D01*
X226932857Y-61195714D01*
X226837619Y-61243333D01*
X226790000Y-61338571D01*
X226790000Y-61433809D01*
X227266190Y-61529047D01*
X226409047Y-61814761D02*
X226313809Y-61862380D01*
X226123333Y-61862380D01*
X226028095Y-61814761D01*
X225980476Y-61719523D01*
X225980476Y-61671904D01*
X226028095Y-61576666D01*
X226123333Y-61529047D01*
X226266190Y-61529047D01*
X226361428Y-61481428D01*
X226409047Y-61386190D01*
X226409047Y-61338571D01*
X226361428Y-61243333D01*
X226266190Y-61195714D01*
X226123333Y-61195714D01*
X226028095Y-61243333D01*
X225599523Y-61814761D02*
X225504285Y-61862380D01*
X225313809Y-61862380D01*
X225218571Y-61814761D01*
X225170952Y-61719523D01*
X225170952Y-61671904D01*
X225218571Y-61576666D01*
X225313809Y-61529047D01*
X225456666Y-61529047D01*
X225551904Y-61481428D01*
X225599523Y-61386190D01*
X225599523Y-61338571D01*
X225551904Y-61243333D01*
X225456666Y-61195714D01*
X225313809Y-61195714D01*
X225218571Y-61243333D01*
X224123333Y-61195714D02*
X223742380Y-61195714D01*
X223980476Y-60862380D02*
X223980476Y-61719523D01*
X223932857Y-61814761D01*
X223837619Y-61862380D01*
X223742380Y-61862380D01*
X223409047Y-61862380D02*
X223409047Y-60862380D01*
X222980476Y-61862380D02*
X222980476Y-61338571D01*
X223028095Y-61243333D01*
X223123333Y-61195714D01*
X223266190Y-61195714D01*
X223361428Y-61243333D01*
X223409047Y-61290952D01*
X222123333Y-61814761D02*
X222218571Y-61862380D01*
X222409047Y-61862380D01*
X222504285Y-61814761D01*
X222551904Y-61719523D01*
X222551904Y-61338571D01*
X222504285Y-61243333D01*
X222409047Y-61195714D01*
X222218571Y-61195714D01*
X222123333Y-61243333D01*
X222075714Y-61338571D01*
X222075714Y-61433809D01*
X222551904Y-61529047D01*
X220123333Y-61862380D02*
X220123333Y-60862380D01*
X220123333Y-61243333D02*
X220028095Y-61195714D01*
X219837619Y-61195714D01*
X219742380Y-61243333D01*
X219694761Y-61290952D01*
X219647142Y-61386190D01*
X219647142Y-61671904D01*
X219694761Y-61767142D01*
X219742380Y-61814761D01*
X219837619Y-61862380D01*
X220028095Y-61862380D01*
X220123333Y-61814761D01*
X219075714Y-61862380D02*
X219170952Y-61814761D01*
X219218571Y-61767142D01*
X219266190Y-61671904D01*
X219266190Y-61386190D01*
X219218571Y-61290952D01*
X219170952Y-61243333D01*
X219075714Y-61195714D01*
X218932857Y-61195714D01*
X218837619Y-61243333D01*
X218790000Y-61290952D01*
X218742380Y-61386190D01*
X218742380Y-61671904D01*
X218790000Y-61767142D01*
X218837619Y-61814761D01*
X218932857Y-61862380D01*
X219075714Y-61862380D01*
X218170952Y-61862380D02*
X218266190Y-61814761D01*
X218313809Y-61767142D01*
X218361428Y-61671904D01*
X218361428Y-61386190D01*
X218313809Y-61290952D01*
X218266190Y-61243333D01*
X218170952Y-61195714D01*
X218028095Y-61195714D01*
X217932857Y-61243333D01*
X217885238Y-61290952D01*
X217837619Y-61386190D01*
X217837619Y-61671904D01*
X217885238Y-61767142D01*
X217932857Y-61814761D01*
X218028095Y-61862380D01*
X218170952Y-61862380D01*
X217551904Y-61195714D02*
X217170952Y-61195714D01*
X217409047Y-60862380D02*
X217409047Y-61719523D01*
X217361428Y-61814761D01*
X217266190Y-61862380D01*
X217170952Y-61862380D01*
X233004285Y-63512380D02*
X233004285Y-62845714D01*
X233004285Y-62940952D02*
X232956666Y-62893333D01*
X232861428Y-62845714D01*
X232718571Y-62845714D01*
X232623333Y-62893333D01*
X232575714Y-62988571D01*
X232575714Y-63512380D01*
X232575714Y-62988571D02*
X232528095Y-62893333D01*
X232432857Y-62845714D01*
X232290000Y-62845714D01*
X232194761Y-62893333D01*
X232147142Y-62988571D01*
X232147142Y-63512380D01*
X231290000Y-63464761D02*
X231385238Y-63512380D01*
X231575714Y-63512380D01*
X231670952Y-63464761D01*
X231718571Y-63369523D01*
X231718571Y-62988571D01*
X231670952Y-62893333D01*
X231575714Y-62845714D01*
X231385238Y-62845714D01*
X231290000Y-62893333D01*
X231242380Y-62988571D01*
X231242380Y-63083809D01*
X231718571Y-63179047D01*
X230813809Y-62845714D02*
X230813809Y-63512380D01*
X230813809Y-62940952D02*
X230766190Y-62893333D01*
X230670952Y-62845714D01*
X230528095Y-62845714D01*
X230432857Y-62893333D01*
X230385238Y-62988571D01*
X230385238Y-63512380D01*
X229480476Y-62845714D02*
X229480476Y-63512380D01*
X229909047Y-62845714D02*
X229909047Y-63369523D01*
X229861428Y-63464761D01*
X229766190Y-63512380D01*
X229623333Y-63512380D01*
X229528095Y-63464761D01*
X229480476Y-63417142D01*
X228956666Y-63464761D02*
X228956666Y-63512380D01*
X229004285Y-63607619D01*
X229051904Y-63655238D01*
X227385238Y-63464761D02*
X227480476Y-63512380D01*
X227670952Y-63512380D01*
X227766190Y-63464761D01*
X227813809Y-63369523D01*
X227813809Y-62988571D01*
X227766190Y-62893333D01*
X227670952Y-62845714D01*
X227480476Y-62845714D01*
X227385238Y-62893333D01*
X227337619Y-62988571D01*
X227337619Y-63083809D01*
X227813809Y-63179047D01*
X226909047Y-62845714D02*
X226909047Y-63702857D01*
X226956666Y-63798095D01*
X227051904Y-63845714D01*
X227099523Y-63845714D01*
X226909047Y-62512380D02*
X226956666Y-62560000D01*
X226909047Y-62607619D01*
X226861428Y-62560000D01*
X226909047Y-62512380D01*
X226909047Y-62607619D01*
X226051904Y-63464761D02*
X226147142Y-63512380D01*
X226337619Y-63512380D01*
X226432857Y-63464761D01*
X226480476Y-63369523D01*
X226480476Y-62988571D01*
X226432857Y-62893333D01*
X226337619Y-62845714D01*
X226147142Y-62845714D01*
X226051904Y-62893333D01*
X226004285Y-62988571D01*
X226004285Y-63083809D01*
X226480476Y-63179047D01*
X225147142Y-63464761D02*
X225242380Y-63512380D01*
X225432857Y-63512380D01*
X225528095Y-63464761D01*
X225575714Y-63417142D01*
X225623333Y-63321904D01*
X225623333Y-63036190D01*
X225575714Y-62940952D01*
X225528095Y-62893333D01*
X225432857Y-62845714D01*
X225242380Y-62845714D01*
X225147142Y-62893333D01*
X224861428Y-62845714D02*
X224480476Y-62845714D01*
X224718571Y-62512380D02*
X224718571Y-63369523D01*
X224670952Y-63464761D01*
X224575714Y-63512380D01*
X224480476Y-63512380D01*
X222956666Y-63512380D02*
X222956666Y-62988571D01*
X223004285Y-62893333D01*
X223099523Y-62845714D01*
X223290000Y-62845714D01*
X223385238Y-62893333D01*
X222956666Y-63464761D02*
X223051904Y-63512380D01*
X223290000Y-63512380D01*
X223385238Y-63464761D01*
X223432857Y-63369523D01*
X223432857Y-63274285D01*
X223385238Y-63179047D01*
X223290000Y-63131428D01*
X223051904Y-63131428D01*
X222956666Y-63083809D01*
X222337619Y-63512380D02*
X222432857Y-63464761D01*
X222480476Y-63369523D01*
X222480476Y-62512380D01*
X221813809Y-63512380D02*
X221909047Y-63464761D01*
X221956666Y-63369523D01*
X221956666Y-62512380D01*
X220813809Y-62845714D02*
X220432857Y-62845714D01*
X220670952Y-63512380D02*
X220670952Y-62655238D01*
X220623333Y-62560000D01*
X220528095Y-62512380D01*
X220432857Y-62512380D01*
X219956666Y-63512380D02*
X220051904Y-63464761D01*
X220099523Y-63369523D01*
X220099523Y-62512380D01*
X219432857Y-63512380D02*
X219528095Y-63464761D01*
X219575714Y-63417142D01*
X219623333Y-63321904D01*
X219623333Y-63036190D01*
X219575714Y-62940952D01*
X219528095Y-62893333D01*
X219432857Y-62845714D01*
X219290000Y-62845714D01*
X219194761Y-62893333D01*
X219147142Y-62940952D01*
X219099523Y-63036190D01*
X219099523Y-63321904D01*
X219147142Y-63417142D01*
X219194761Y-63464761D01*
X219290000Y-63512380D01*
X219432857Y-63512380D01*
X218670952Y-62845714D02*
X218670952Y-63845714D01*
X218670952Y-62893333D02*
X218575714Y-62845714D01*
X218385238Y-62845714D01*
X218290000Y-62893333D01*
X218242380Y-62940952D01*
X218194761Y-63036190D01*
X218194761Y-63321904D01*
X218242380Y-63417142D01*
X218290000Y-63464761D01*
X218385238Y-63512380D01*
X218575714Y-63512380D01*
X218670952Y-63464761D01*
X217766190Y-62845714D02*
X217766190Y-63845714D01*
X217766190Y-62893333D02*
X217670952Y-62845714D01*
X217480476Y-62845714D01*
X217385238Y-62893333D01*
X217337619Y-62940952D01*
X217290000Y-63036190D01*
X217290000Y-63321904D01*
X217337619Y-63417142D01*
X217385238Y-63464761D01*
X217480476Y-63512380D01*
X217670952Y-63512380D01*
X217766190Y-63464761D01*
X216956666Y-62845714D02*
X216718571Y-63512380D01*
X216480476Y-62845714D02*
X216718571Y-63512380D01*
X216813809Y-63750476D01*
X216861428Y-63798095D01*
X216956666Y-63845714D01*
X232528095Y-65162380D02*
X232528095Y-64162380D01*
X232528095Y-65114761D02*
X232623333Y-65162380D01*
X232813809Y-65162380D01*
X232909047Y-65114761D01*
X232956666Y-65067142D01*
X233004285Y-64971904D01*
X233004285Y-64686190D01*
X232956666Y-64590952D01*
X232909047Y-64543333D01*
X232813809Y-64495714D01*
X232623333Y-64495714D01*
X232528095Y-64543333D01*
X232051904Y-65162380D02*
X232051904Y-64495714D01*
X232051904Y-64162380D02*
X232099523Y-64210000D01*
X232051904Y-64257619D01*
X232004285Y-64210000D01*
X232051904Y-64162380D01*
X232051904Y-64257619D01*
X231623333Y-65114761D02*
X231528095Y-65162380D01*
X231337619Y-65162380D01*
X231242380Y-65114761D01*
X231194761Y-65019523D01*
X231194761Y-64971904D01*
X231242380Y-64876666D01*
X231337619Y-64829047D01*
X231480476Y-64829047D01*
X231575714Y-64781428D01*
X231623333Y-64686190D01*
X231623333Y-64638571D01*
X231575714Y-64543333D01*
X231480476Y-64495714D01*
X231337619Y-64495714D01*
X231242380Y-64543333D01*
X230766190Y-65162380D02*
X230766190Y-64162380D01*
X230670952Y-64781428D02*
X230385238Y-65162380D01*
X230385238Y-64495714D02*
X230766190Y-64876666D01*
X230004285Y-65114761D02*
X229909047Y-65162380D01*
X229718571Y-65162380D01*
X229623333Y-65114761D01*
X229575714Y-65019523D01*
X229575714Y-64971904D01*
X229623333Y-64876666D01*
X229718571Y-64829047D01*
X229861428Y-64829047D01*
X229956666Y-64781428D01*
X230004285Y-64686190D01*
X230004285Y-64638571D01*
X229956666Y-64543333D01*
X229861428Y-64495714D01*
X229718571Y-64495714D01*
X229623333Y-64543333D01*
X229099523Y-65114761D02*
X229099523Y-65162380D01*
X229147142Y-65257619D01*
X229194761Y-65305238D01*
X228051904Y-64495714D02*
X227670952Y-64495714D01*
X227909047Y-64162380D02*
X227909047Y-65019523D01*
X227861428Y-65114761D01*
X227766190Y-65162380D01*
X227670952Y-65162380D01*
X227337619Y-65162380D02*
X227337619Y-64162380D01*
X226909047Y-65162380D02*
X226909047Y-64638571D01*
X226956666Y-64543333D01*
X227051904Y-64495714D01*
X227194761Y-64495714D01*
X227290000Y-64543333D01*
X227337619Y-64590952D01*
X226051904Y-65114761D02*
X226147142Y-65162380D01*
X226337619Y-65162380D01*
X226432857Y-65114761D01*
X226480476Y-65019523D01*
X226480476Y-64638571D01*
X226432857Y-64543333D01*
X226337619Y-64495714D01*
X226147142Y-64495714D01*
X226051904Y-64543333D01*
X226004285Y-64638571D01*
X226004285Y-64733809D01*
X226480476Y-64829047D01*
X225575714Y-64495714D02*
X225575714Y-65162380D01*
X225575714Y-64590952D02*
X225528095Y-64543333D01*
X225432857Y-64495714D01*
X225290000Y-64495714D01*
X225194761Y-64543333D01*
X225147142Y-64638571D01*
X225147142Y-65162380D01*
X223909047Y-65162380D02*
X223909047Y-64162380D01*
X223480476Y-65162380D02*
X223480476Y-64638571D01*
X223528095Y-64543333D01*
X223623333Y-64495714D01*
X223766190Y-64495714D01*
X223861428Y-64543333D01*
X223909047Y-64590952D01*
X222861428Y-65162380D02*
X222956666Y-65114761D01*
X223004285Y-65067142D01*
X223051904Y-64971904D01*
X223051904Y-64686190D01*
X223004285Y-64590952D01*
X222956666Y-64543333D01*
X222861428Y-64495714D01*
X222718571Y-64495714D01*
X222623333Y-64543333D01*
X222575714Y-64590952D01*
X222528095Y-64686190D01*
X222528095Y-64971904D01*
X222575714Y-65067142D01*
X222623333Y-65114761D01*
X222718571Y-65162380D01*
X222861428Y-65162380D01*
X221956666Y-65162380D02*
X222051904Y-65114761D01*
X222099523Y-65019523D01*
X222099523Y-64162380D01*
X221147142Y-65162380D02*
X221147142Y-64162380D01*
X221147142Y-65114761D02*
X221242380Y-65162380D01*
X221432857Y-65162380D01*
X221528095Y-65114761D01*
X221575714Y-65067142D01*
X221623333Y-64971904D01*
X221623333Y-64686190D01*
X221575714Y-64590952D01*
X221528095Y-64543333D01*
X221432857Y-64495714D01*
X221242380Y-64495714D01*
X221147142Y-64543333D01*
X219480476Y-65162380D02*
X219480476Y-64162380D01*
X219480476Y-65114761D02*
X219575714Y-65162380D01*
X219766190Y-65162380D01*
X219861428Y-65114761D01*
X219909047Y-65067142D01*
X219956666Y-64971904D01*
X219956666Y-64686190D01*
X219909047Y-64590952D01*
X219861428Y-64543333D01*
X219766190Y-64495714D01*
X219575714Y-64495714D01*
X219480476Y-64543333D01*
X218861428Y-65162380D02*
X218956666Y-65114761D01*
X219004285Y-65067142D01*
X219051904Y-64971904D01*
X219051904Y-64686190D01*
X219004285Y-64590952D01*
X218956666Y-64543333D01*
X218861428Y-64495714D01*
X218718571Y-64495714D01*
X218623333Y-64543333D01*
X218575714Y-64590952D01*
X218528095Y-64686190D01*
X218528095Y-64971904D01*
X218575714Y-65067142D01*
X218623333Y-65114761D01*
X218718571Y-65162380D01*
X218861428Y-65162380D01*
X218194761Y-64495714D02*
X218004285Y-65162380D01*
X217813809Y-64686190D01*
X217623333Y-65162380D01*
X217432857Y-64495714D01*
X217051904Y-64495714D02*
X217051904Y-65162380D01*
X217051904Y-64590952D02*
X217004285Y-64543333D01*
X216909047Y-64495714D01*
X216766190Y-64495714D01*
X216670952Y-64543333D01*
X216623333Y-64638571D01*
X216623333Y-65162380D01*
X232932857Y-66145714D02*
X232551904Y-66145714D01*
X232790000Y-65812380D02*
X232790000Y-66669523D01*
X232742380Y-66764761D01*
X232647142Y-66812380D01*
X232551904Y-66812380D01*
X232218571Y-66812380D02*
X232218571Y-65812380D01*
X231790000Y-66812380D02*
X231790000Y-66288571D01*
X231837619Y-66193333D01*
X231932857Y-66145714D01*
X232075714Y-66145714D01*
X232170952Y-66193333D01*
X232218571Y-66240952D01*
X230932857Y-66764761D02*
X231028095Y-66812380D01*
X231218571Y-66812380D01*
X231313809Y-66764761D01*
X231361428Y-66669523D01*
X231361428Y-66288571D01*
X231313809Y-66193333D01*
X231218571Y-66145714D01*
X231028095Y-66145714D01*
X230932857Y-66193333D01*
X230885238Y-66288571D01*
X230885238Y-66383809D01*
X231361428Y-66479047D01*
X229694761Y-66812380D02*
X229694761Y-65812380D01*
X229694761Y-66193333D02*
X229599523Y-66145714D01*
X229409047Y-66145714D01*
X229313809Y-66193333D01*
X229266190Y-66240952D01*
X229218571Y-66336190D01*
X229218571Y-66621904D01*
X229266190Y-66717142D01*
X229313809Y-66764761D01*
X229409047Y-66812380D01*
X229599523Y-66812380D01*
X229694761Y-66764761D01*
X228647142Y-66812380D02*
X228742380Y-66764761D01*
X228790000Y-66717142D01*
X228837619Y-66621904D01*
X228837619Y-66336190D01*
X228790000Y-66240952D01*
X228742380Y-66193333D01*
X228647142Y-66145714D01*
X228504285Y-66145714D01*
X228409047Y-66193333D01*
X228361428Y-66240952D01*
X228313809Y-66336190D01*
X228313809Y-66621904D01*
X228361428Y-66717142D01*
X228409047Y-66764761D01*
X228504285Y-66812380D01*
X228647142Y-66812380D01*
X227742380Y-66812380D02*
X227837619Y-66764761D01*
X227885238Y-66717142D01*
X227932857Y-66621904D01*
X227932857Y-66336190D01*
X227885238Y-66240952D01*
X227837619Y-66193333D01*
X227742380Y-66145714D01*
X227599523Y-66145714D01*
X227504285Y-66193333D01*
X227456666Y-66240952D01*
X227409047Y-66336190D01*
X227409047Y-66621904D01*
X227456666Y-66717142D01*
X227504285Y-66764761D01*
X227599523Y-66812380D01*
X227742380Y-66812380D01*
X227123333Y-66145714D02*
X226742380Y-66145714D01*
X226980476Y-65812380D02*
X226980476Y-66669523D01*
X226932857Y-66764761D01*
X226837619Y-66812380D01*
X226742380Y-66812380D01*
X225647142Y-66812380D02*
X225647142Y-66145714D01*
X225647142Y-66240952D02*
X225599523Y-66193333D01*
X225504285Y-66145714D01*
X225361428Y-66145714D01*
X225266190Y-66193333D01*
X225218571Y-66288571D01*
X225218571Y-66812380D01*
X225218571Y-66288571D02*
X225170952Y-66193333D01*
X225075714Y-66145714D01*
X224932857Y-66145714D01*
X224837619Y-66193333D01*
X224790000Y-66288571D01*
X224790000Y-66812380D01*
X223932857Y-66764761D02*
X224028095Y-66812380D01*
X224218571Y-66812380D01*
X224313809Y-66764761D01*
X224361428Y-66669523D01*
X224361428Y-66288571D01*
X224313809Y-66193333D01*
X224218571Y-66145714D01*
X224028095Y-66145714D01*
X223932857Y-66193333D01*
X223885238Y-66288571D01*
X223885238Y-66383809D01*
X224361428Y-66479047D01*
X223456666Y-66145714D02*
X223456666Y-66812380D01*
X223456666Y-66240952D02*
X223409047Y-66193333D01*
X223313809Y-66145714D01*
X223170952Y-66145714D01*
X223075714Y-66193333D01*
X223028095Y-66288571D01*
X223028095Y-66812380D01*
X222123333Y-66145714D02*
X222123333Y-66812380D01*
X222551904Y-66145714D02*
X222551904Y-66669523D01*
X222504285Y-66764761D01*
X222409047Y-66812380D01*
X222266190Y-66812380D01*
X222170952Y-66764761D01*
X222123333Y-66717142D01*
X220980476Y-66145714D02*
X220790000Y-66812380D01*
X220599523Y-66336190D01*
X220409047Y-66812380D01*
X220218571Y-66145714D01*
X219837619Y-66812380D02*
X219837619Y-65812380D01*
X219409047Y-66812380D02*
X219409047Y-66288571D01*
X219456666Y-66193333D01*
X219551904Y-66145714D01*
X219694761Y-66145714D01*
X219790000Y-66193333D01*
X219837619Y-66240952D01*
X218932857Y-66812380D02*
X218932857Y-66145714D01*
X218932857Y-65812380D02*
X218980476Y-65860000D01*
X218932857Y-65907619D01*
X218885238Y-65860000D01*
X218932857Y-65812380D01*
X218932857Y-65907619D01*
X218313809Y-66812380D02*
X218409047Y-66764761D01*
X218456666Y-66669523D01*
X218456666Y-65812380D01*
X217551904Y-66764761D02*
X217647142Y-66812380D01*
X217837619Y-66812380D01*
X217932857Y-66764761D01*
X217980476Y-66669523D01*
X217980476Y-66288571D01*
X217932857Y-66193333D01*
X217837619Y-66145714D01*
X217647142Y-66145714D01*
X217551904Y-66193333D01*
X217504285Y-66288571D01*
X217504285Y-66383809D01*
X217980476Y-66479047D01*
X232170952Y-67795714D02*
X231790000Y-67795714D01*
X232028095Y-67462380D02*
X232028095Y-68319523D01*
X231980476Y-68414761D01*
X231885238Y-68462380D01*
X231790000Y-68462380D01*
X231456666Y-68462380D02*
X231456666Y-67462380D01*
X231028095Y-68462380D02*
X231028095Y-67938571D01*
X231075714Y-67843333D01*
X231170952Y-67795714D01*
X231313809Y-67795714D01*
X231409047Y-67843333D01*
X231456666Y-67890952D01*
X230170952Y-68414761D02*
X230266190Y-68462380D01*
X230456666Y-68462380D01*
X230551904Y-68414761D01*
X230599523Y-68319523D01*
X230599523Y-67938571D01*
X230551904Y-67843333D01*
X230456666Y-67795714D01*
X230266190Y-67795714D01*
X230170952Y-67843333D01*
X230123333Y-67938571D01*
X230123333Y-68033809D01*
X230599523Y-68129047D01*
X228599523Y-67938571D02*
X228456666Y-67986190D01*
X228409047Y-68033809D01*
X228361428Y-68129047D01*
X228361428Y-68271904D01*
X228409047Y-68367142D01*
X228456666Y-68414761D01*
X228551904Y-68462380D01*
X228932857Y-68462380D01*
X228932857Y-67462380D01*
X228599523Y-67462380D01*
X228504285Y-67510000D01*
X228456666Y-67557619D01*
X228409047Y-67652857D01*
X228409047Y-67748095D01*
X228456666Y-67843333D01*
X228504285Y-67890952D01*
X228599523Y-67938571D01*
X228932857Y-67938571D01*
X227932857Y-68462380D02*
X227932857Y-67462380D01*
X227266190Y-67462380D02*
X227075714Y-67462380D01*
X226980476Y-67510000D01*
X226885238Y-67605238D01*
X226837619Y-67795714D01*
X226837619Y-68129047D01*
X226885238Y-68319523D01*
X226980476Y-68414761D01*
X227075714Y-68462380D01*
X227266190Y-68462380D01*
X227361428Y-68414761D01*
X227456666Y-68319523D01*
X227504285Y-68129047D01*
X227504285Y-67795714D01*
X227456666Y-67605238D01*
X227361428Y-67510000D01*
X227266190Y-67462380D01*
X226456666Y-68414761D02*
X226313809Y-68462380D01*
X226075714Y-68462380D01*
X225980476Y-68414761D01*
X225932857Y-68367142D01*
X225885238Y-68271904D01*
X225885238Y-68176666D01*
X225932857Y-68081428D01*
X225980476Y-68033809D01*
X226075714Y-67986190D01*
X226266190Y-67938571D01*
X226361428Y-67890952D01*
X226409047Y-67843333D01*
X226456666Y-67748095D01*
X226456666Y-67652857D01*
X226409047Y-67557619D01*
X226361428Y-67510000D01*
X226266190Y-67462380D01*
X226028095Y-67462380D01*
X225885238Y-67510000D01*
X224694761Y-68462380D02*
X224694761Y-67795714D01*
X224694761Y-67462380D02*
X224742380Y-67510000D01*
X224694761Y-67557619D01*
X224647142Y-67510000D01*
X224694761Y-67462380D01*
X224694761Y-67557619D01*
X224266190Y-68414761D02*
X224170952Y-68462380D01*
X223980476Y-68462380D01*
X223885238Y-68414761D01*
X223837619Y-68319523D01*
X223837619Y-68271904D01*
X223885238Y-68176666D01*
X223980476Y-68129047D01*
X224123333Y-68129047D01*
X224218571Y-68081428D01*
X224266190Y-67986190D01*
X224266190Y-67938571D01*
X224218571Y-67843333D01*
X224123333Y-67795714D01*
X223980476Y-67795714D01*
X223885238Y-67843333D01*
X222647142Y-68462380D02*
X222647142Y-67462380D01*
X222647142Y-67843333D02*
X222551904Y-67795714D01*
X222361428Y-67795714D01*
X222266190Y-67843333D01*
X222218571Y-67890952D01*
X222170952Y-67986190D01*
X222170952Y-68271904D01*
X222218571Y-68367142D01*
X222266190Y-68414761D01*
X222361428Y-68462380D01*
X222551904Y-68462380D01*
X222647142Y-68414761D01*
X221599523Y-68462380D02*
X221694761Y-68414761D01*
X221742380Y-68367142D01*
X221790000Y-68271904D01*
X221790000Y-67986190D01*
X221742380Y-67890952D01*
X221694761Y-67843333D01*
X221599523Y-67795714D01*
X221456666Y-67795714D01*
X221361428Y-67843333D01*
X221313809Y-67890952D01*
X221266190Y-67986190D01*
X221266190Y-68271904D01*
X221313809Y-68367142D01*
X221361428Y-68414761D01*
X221456666Y-68462380D01*
X221599523Y-68462380D01*
X220694761Y-68462380D02*
X220790000Y-68414761D01*
X220837619Y-68367142D01*
X220885238Y-68271904D01*
X220885238Y-67986190D01*
X220837619Y-67890952D01*
X220790000Y-67843333D01*
X220694761Y-67795714D01*
X220551904Y-67795714D01*
X220456666Y-67843333D01*
X220409047Y-67890952D01*
X220361428Y-67986190D01*
X220361428Y-68271904D01*
X220409047Y-68367142D01*
X220456666Y-68414761D01*
X220551904Y-68462380D01*
X220694761Y-68462380D01*
X220075714Y-67795714D02*
X219694761Y-67795714D01*
X219932857Y-67462380D02*
X219932857Y-68319523D01*
X219885238Y-68414761D01*
X219790000Y-68462380D01*
X219694761Y-68462380D01*
X219361428Y-68462380D02*
X219361428Y-67795714D01*
X219361428Y-67462380D02*
X219409047Y-67510000D01*
X219361428Y-67557619D01*
X219313809Y-67510000D01*
X219361428Y-67462380D01*
X219361428Y-67557619D01*
X218885238Y-67795714D02*
X218885238Y-68462380D01*
X218885238Y-67890952D02*
X218837619Y-67843333D01*
X218742380Y-67795714D01*
X218599523Y-67795714D01*
X218504285Y-67843333D01*
X218456666Y-67938571D01*
X218456666Y-68462380D01*
X217551904Y-67795714D02*
X217551904Y-68605238D01*
X217599523Y-68700476D01*
X217647142Y-68748095D01*
X217742380Y-68795714D01*
X217885238Y-68795714D01*
X217980476Y-68748095D01*
X217551904Y-68414761D02*
X217647142Y-68462380D01*
X217837619Y-68462380D01*
X217932857Y-68414761D01*
X217980476Y-68367142D01*
X218028095Y-68271904D01*
X218028095Y-67986190D01*
X217980476Y-67890952D01*
X217932857Y-67843333D01*
X217837619Y-67795714D01*
X217647142Y-67795714D01*
X217551904Y-67843333D01*
X232599523Y-69445714D02*
X232218571Y-69445714D01*
X232456666Y-70112380D02*
X232456666Y-69255238D01*
X232409047Y-69160000D01*
X232313809Y-69112380D01*
X232218571Y-69112380D01*
X231885238Y-70112380D02*
X231885238Y-69445714D01*
X231885238Y-69636190D02*
X231837619Y-69540952D01*
X231790000Y-69493333D01*
X231694761Y-69445714D01*
X231599523Y-69445714D01*
X231123333Y-70112380D02*
X231218571Y-70064761D01*
X231266190Y-70017142D01*
X231313809Y-69921904D01*
X231313809Y-69636190D01*
X231266190Y-69540952D01*
X231218571Y-69493333D01*
X231123333Y-69445714D01*
X230980476Y-69445714D01*
X230885238Y-69493333D01*
X230837619Y-69540952D01*
X230790000Y-69636190D01*
X230790000Y-69921904D01*
X230837619Y-70017142D01*
X230885238Y-70064761D01*
X230980476Y-70112380D01*
X231123333Y-70112380D01*
X230361428Y-70112380D02*
X230361428Y-69445714D01*
X230361428Y-69540952D02*
X230313809Y-69493333D01*
X230218571Y-69445714D01*
X230075714Y-69445714D01*
X229980476Y-69493333D01*
X229932857Y-69588571D01*
X229932857Y-70112380D01*
X229932857Y-69588571D02*
X229885238Y-69493333D01*
X229790000Y-69445714D01*
X229647142Y-69445714D01*
X229551904Y-69493333D01*
X229504285Y-69588571D01*
X229504285Y-70112380D01*
X228409047Y-69445714D02*
X228028095Y-69445714D01*
X228266190Y-69112380D02*
X228266190Y-69969523D01*
X228218571Y-70064761D01*
X228123333Y-70112380D01*
X228028095Y-70112380D01*
X227694761Y-70112380D02*
X227694761Y-69112380D01*
X227266190Y-70112380D02*
X227266190Y-69588571D01*
X227313809Y-69493333D01*
X227409047Y-69445714D01*
X227551904Y-69445714D01*
X227647142Y-69493333D01*
X227694761Y-69540952D01*
X226409047Y-70064761D02*
X226504285Y-70112380D01*
X226694761Y-70112380D01*
X226790000Y-70064761D01*
X226837619Y-69969523D01*
X226837619Y-69588571D01*
X226790000Y-69493333D01*
X226694761Y-69445714D01*
X226504285Y-69445714D01*
X226409047Y-69493333D01*
X226361428Y-69588571D01*
X226361428Y-69683809D01*
X226837619Y-69779047D01*
X225170952Y-70112380D02*
X225170952Y-69112380D01*
X224694761Y-69445714D02*
X224694761Y-70112380D01*
X224694761Y-69540952D02*
X224647142Y-69493333D01*
X224551904Y-69445714D01*
X224409047Y-69445714D01*
X224313809Y-69493333D01*
X224266190Y-69588571D01*
X224266190Y-70112380D01*
X223932857Y-69445714D02*
X223551904Y-69445714D01*
X223790000Y-69112380D02*
X223790000Y-69969523D01*
X223742380Y-70064761D01*
X223647142Y-70112380D01*
X223551904Y-70112380D01*
X222837619Y-70064761D02*
X222932857Y-70112380D01*
X223123333Y-70112380D01*
X223218571Y-70064761D01*
X223266190Y-69969523D01*
X223266190Y-69588571D01*
X223218571Y-69493333D01*
X223123333Y-69445714D01*
X222932857Y-69445714D01*
X222837619Y-69493333D01*
X222790000Y-69588571D01*
X222790000Y-69683809D01*
X223266190Y-69779047D01*
X222218571Y-70112380D02*
X222313809Y-70064761D01*
X222361428Y-69969523D01*
X222361428Y-69112380D01*
X221694761Y-70112380D02*
X221790000Y-70064761D01*
X221837619Y-69969523D01*
X221837619Y-69112380D01*
X221313809Y-70112380D02*
X221313809Y-69445714D01*
X221313809Y-69112380D02*
X221361428Y-69160000D01*
X221313809Y-69207619D01*
X221266190Y-69160000D01*
X221313809Y-69112380D01*
X221313809Y-69207619D01*
X220837619Y-70112380D02*
X220837619Y-69112380D01*
X220599523Y-69112380D01*
X220456666Y-69160000D01*
X220361428Y-69255238D01*
X220313809Y-69350476D01*
X220266190Y-69540952D01*
X220266190Y-69683809D01*
X220313809Y-69874285D01*
X220361428Y-69969523D01*
X220456666Y-70064761D01*
X220599523Y-70112380D01*
X220837619Y-70112380D01*
X219837619Y-70112380D02*
X219837619Y-69445714D01*
X219837619Y-69636190D02*
X219790000Y-69540952D01*
X219742380Y-69493333D01*
X219647142Y-69445714D01*
X219551904Y-69445714D01*
X219218571Y-70112380D02*
X219218571Y-69445714D01*
X219218571Y-69112380D02*
X219266190Y-69160000D01*
X219218571Y-69207619D01*
X219170952Y-69160000D01*
X219218571Y-69112380D01*
X219218571Y-69207619D01*
X218837619Y-69445714D02*
X218599523Y-70112380D01*
X218361428Y-69445714D01*
X217599523Y-70064761D02*
X217694761Y-70112380D01*
X217885238Y-70112380D01*
X217980476Y-70064761D01*
X218028095Y-69969523D01*
X218028095Y-69588571D01*
X217980476Y-69493333D01*
X217885238Y-69445714D01*
X217694761Y-69445714D01*
X217599523Y-69493333D01*
X217551904Y-69588571D01*
X217551904Y-69683809D01*
X218028095Y-69779047D01*
X217123333Y-70017142D02*
X217075714Y-70064761D01*
X217123333Y-70112380D01*
X217170952Y-70064761D01*
X217123333Y-70017142D01*
X217123333Y-70112380D01*
X232075714Y-72412380D02*
X231504285Y-72412380D01*
X231790000Y-73412380D02*
X231790000Y-72412380D01*
X231170952Y-73412380D02*
X231170952Y-72412380D01*
X230742380Y-73412380D02*
X230742380Y-72888571D01*
X230790000Y-72793333D01*
X230885238Y-72745714D01*
X231028095Y-72745714D01*
X231123333Y-72793333D01*
X231170952Y-72840952D01*
X229885238Y-73364761D02*
X229980476Y-73412380D01*
X230170952Y-73412380D01*
X230266190Y-73364761D01*
X230313809Y-73269523D01*
X230313809Y-72888571D01*
X230266190Y-72793333D01*
X230170952Y-72745714D01*
X229980476Y-72745714D01*
X229885238Y-72793333D01*
X229837619Y-72888571D01*
X229837619Y-72983809D01*
X230313809Y-73079047D01*
X228647142Y-73412380D02*
X228647142Y-72412380D01*
X228647142Y-72793333D02*
X228551904Y-72745714D01*
X228361428Y-72745714D01*
X228266190Y-72793333D01*
X228218571Y-72840952D01*
X228170952Y-72936190D01*
X228170952Y-73221904D01*
X228218571Y-73317142D01*
X228266190Y-73364761D01*
X228361428Y-73412380D01*
X228551904Y-73412380D01*
X228647142Y-73364761D01*
X227599523Y-73412380D02*
X227694761Y-73364761D01*
X227742380Y-73317142D01*
X227790000Y-73221904D01*
X227790000Y-72936190D01*
X227742380Y-72840952D01*
X227694761Y-72793333D01*
X227599523Y-72745714D01*
X227456666Y-72745714D01*
X227361428Y-72793333D01*
X227313809Y-72840952D01*
X227266190Y-72936190D01*
X227266190Y-73221904D01*
X227313809Y-73317142D01*
X227361428Y-73364761D01*
X227456666Y-73412380D01*
X227599523Y-73412380D01*
X226694761Y-73412380D02*
X226790000Y-73364761D01*
X226837619Y-73317142D01*
X226885238Y-73221904D01*
X226885238Y-72936190D01*
X226837619Y-72840952D01*
X226790000Y-72793333D01*
X226694761Y-72745714D01*
X226551904Y-72745714D01*
X226456666Y-72793333D01*
X226409047Y-72840952D01*
X226361428Y-72936190D01*
X226361428Y-73221904D01*
X226409047Y-73317142D01*
X226456666Y-73364761D01*
X226551904Y-73412380D01*
X226694761Y-73412380D01*
X226075714Y-72745714D02*
X225694761Y-72745714D01*
X225932857Y-72412380D02*
X225932857Y-73269523D01*
X225885238Y-73364761D01*
X225790000Y-73412380D01*
X225694761Y-73412380D01*
X224599523Y-73412380D02*
X224599523Y-72745714D01*
X224599523Y-72840952D02*
X224551904Y-72793333D01*
X224456666Y-72745714D01*
X224313809Y-72745714D01*
X224218571Y-72793333D01*
X224170952Y-72888571D01*
X224170952Y-73412380D01*
X224170952Y-72888571D02*
X224123333Y-72793333D01*
X224028095Y-72745714D01*
X223885238Y-72745714D01*
X223790000Y-72793333D01*
X223742380Y-72888571D01*
X223742380Y-73412380D01*
X222885238Y-73364761D02*
X222980476Y-73412380D01*
X223170952Y-73412380D01*
X223266190Y-73364761D01*
X223313809Y-73269523D01*
X223313809Y-72888571D01*
X223266190Y-72793333D01*
X223170952Y-72745714D01*
X222980476Y-72745714D01*
X222885238Y-72793333D01*
X222837619Y-72888571D01*
X222837619Y-72983809D01*
X223313809Y-73079047D01*
X222409047Y-72745714D02*
X222409047Y-73412380D01*
X222409047Y-72840952D02*
X222361428Y-72793333D01*
X222266190Y-72745714D01*
X222123333Y-72745714D01*
X222028095Y-72793333D01*
X221980476Y-72888571D01*
X221980476Y-73412380D01*
X221075714Y-72745714D02*
X221075714Y-73412380D01*
X221504285Y-72745714D02*
X221504285Y-73269523D01*
X221456666Y-73364761D01*
X221361428Y-73412380D01*
X221218571Y-73412380D01*
X221123333Y-73364761D01*
X221075714Y-73317142D01*
X219409047Y-73364761D02*
X219504285Y-73412380D01*
X219694761Y-73412380D01*
X219790000Y-73364761D01*
X219837619Y-73317142D01*
X219885238Y-73221904D01*
X219885238Y-72936190D01*
X219837619Y-72840952D01*
X219790000Y-72793333D01*
X219694761Y-72745714D01*
X219504285Y-72745714D01*
X219409047Y-72793333D01*
X218551904Y-73412380D02*
X218551904Y-72888571D01*
X218599523Y-72793333D01*
X218694761Y-72745714D01*
X218885238Y-72745714D01*
X218980476Y-72793333D01*
X218551904Y-73364761D02*
X218647142Y-73412380D01*
X218885238Y-73412380D01*
X218980476Y-73364761D01*
X219028095Y-73269523D01*
X219028095Y-73174285D01*
X218980476Y-73079047D01*
X218885238Y-73031428D01*
X218647142Y-73031428D01*
X218551904Y-72983809D01*
X218075714Y-72745714D02*
X218075714Y-73412380D01*
X218075714Y-72840952D02*
X218028095Y-72793333D01*
X217932857Y-72745714D01*
X217790000Y-72745714D01*
X217694761Y-72793333D01*
X217647142Y-72888571D01*
X217647142Y-73412380D01*
X232218571Y-75062380D02*
X232218571Y-74062380D01*
X232218571Y-74443333D02*
X232123333Y-74395714D01*
X231932857Y-74395714D01*
X231837619Y-74443333D01*
X231790000Y-74490952D01*
X231742380Y-74586190D01*
X231742380Y-74871904D01*
X231790000Y-74967142D01*
X231837619Y-75014761D01*
X231932857Y-75062380D01*
X232123333Y-75062380D01*
X232218571Y-75014761D01*
X230932857Y-75014761D02*
X231028095Y-75062380D01*
X231218571Y-75062380D01*
X231313809Y-75014761D01*
X231361428Y-74919523D01*
X231361428Y-74538571D01*
X231313809Y-74443333D01*
X231218571Y-74395714D01*
X231028095Y-74395714D01*
X230932857Y-74443333D01*
X230885238Y-74538571D01*
X230885238Y-74633809D01*
X231361428Y-74729047D01*
X229266190Y-75062380D02*
X229266190Y-74538571D01*
X229313809Y-74443333D01*
X229409047Y-74395714D01*
X229599523Y-74395714D01*
X229694761Y-74443333D01*
X229266190Y-75014761D02*
X229361428Y-75062380D01*
X229599523Y-75062380D01*
X229694761Y-75014761D01*
X229742380Y-74919523D01*
X229742380Y-74824285D01*
X229694761Y-74729047D01*
X229599523Y-74681428D01*
X229361428Y-74681428D01*
X229266190Y-74633809D01*
X228361428Y-75014761D02*
X228456666Y-75062380D01*
X228647142Y-75062380D01*
X228742380Y-75014761D01*
X228790000Y-74967142D01*
X228837619Y-74871904D01*
X228837619Y-74586190D01*
X228790000Y-74490952D01*
X228742380Y-74443333D01*
X228647142Y-74395714D01*
X228456666Y-74395714D01*
X228361428Y-74443333D01*
X227504285Y-75014761D02*
X227599523Y-75062380D01*
X227790000Y-75062380D01*
X227885238Y-75014761D01*
X227932857Y-74967142D01*
X227980476Y-74871904D01*
X227980476Y-74586190D01*
X227932857Y-74490952D01*
X227885238Y-74443333D01*
X227790000Y-74395714D01*
X227599523Y-74395714D01*
X227504285Y-74443333D01*
X226694761Y-75014761D02*
X226790000Y-75062380D01*
X226980476Y-75062380D01*
X227075714Y-75014761D01*
X227123333Y-74919523D01*
X227123333Y-74538571D01*
X227075714Y-74443333D01*
X226980476Y-74395714D01*
X226790000Y-74395714D01*
X226694761Y-74443333D01*
X226647142Y-74538571D01*
X226647142Y-74633809D01*
X227123333Y-74729047D01*
X226266190Y-75014761D02*
X226170952Y-75062380D01*
X225980476Y-75062380D01*
X225885238Y-75014761D01*
X225837619Y-74919523D01*
X225837619Y-74871904D01*
X225885238Y-74776666D01*
X225980476Y-74729047D01*
X226123333Y-74729047D01*
X226218571Y-74681428D01*
X226266190Y-74586190D01*
X226266190Y-74538571D01*
X226218571Y-74443333D01*
X226123333Y-74395714D01*
X225980476Y-74395714D01*
X225885238Y-74443333D01*
X225456666Y-75014761D02*
X225361428Y-75062380D01*
X225170952Y-75062380D01*
X225075714Y-75014761D01*
X225028095Y-74919523D01*
X225028095Y-74871904D01*
X225075714Y-74776666D01*
X225170952Y-74729047D01*
X225313809Y-74729047D01*
X225409047Y-74681428D01*
X225456666Y-74586190D01*
X225456666Y-74538571D01*
X225409047Y-74443333D01*
X225313809Y-74395714D01*
X225170952Y-74395714D01*
X225075714Y-74443333D01*
X224218571Y-75014761D02*
X224313809Y-75062380D01*
X224504285Y-75062380D01*
X224599523Y-75014761D01*
X224647142Y-74919523D01*
X224647142Y-74538571D01*
X224599523Y-74443333D01*
X224504285Y-74395714D01*
X224313809Y-74395714D01*
X224218571Y-74443333D01*
X224170952Y-74538571D01*
X224170952Y-74633809D01*
X224647142Y-74729047D01*
X223313809Y-75062380D02*
X223313809Y-74062380D01*
X223313809Y-75014761D02*
X223409047Y-75062380D01*
X223599523Y-75062380D01*
X223694761Y-75014761D01*
X223742380Y-74967142D01*
X223790000Y-74871904D01*
X223790000Y-74586190D01*
X223742380Y-74490952D01*
X223694761Y-74443333D01*
X223599523Y-74395714D01*
X223409047Y-74395714D01*
X223313809Y-74443333D01*
X221694761Y-75014761D02*
X221790000Y-75062380D01*
X221980476Y-75062380D01*
X222075714Y-75014761D01*
X222123333Y-74919523D01*
X222123333Y-74538571D01*
X222075714Y-74443333D01*
X221980476Y-74395714D01*
X221790000Y-74395714D01*
X221694761Y-74443333D01*
X221647142Y-74538571D01*
X221647142Y-74633809D01*
X222123333Y-74729047D01*
X221313809Y-74395714D02*
X221075714Y-75062380D01*
X220837619Y-74395714D01*
X220075714Y-75014761D02*
X220170952Y-75062380D01*
X220361428Y-75062380D01*
X220456666Y-75014761D01*
X220504285Y-74919523D01*
X220504285Y-74538571D01*
X220456666Y-74443333D01*
X220361428Y-74395714D01*
X220170952Y-74395714D01*
X220075714Y-74443333D01*
X220028095Y-74538571D01*
X220028095Y-74633809D01*
X220504285Y-74729047D01*
X219599523Y-74395714D02*
X219599523Y-75062380D01*
X219599523Y-74490952D02*
X219551904Y-74443333D01*
X219456666Y-74395714D01*
X219313809Y-74395714D01*
X219218571Y-74443333D01*
X219170952Y-74538571D01*
X219170952Y-75062380D01*
X217932857Y-75062380D02*
X217932857Y-74395714D01*
X217932857Y-74062380D02*
X217980476Y-74110000D01*
X217932857Y-74157619D01*
X217885238Y-74110000D01*
X217932857Y-74062380D01*
X217932857Y-74157619D01*
X217599523Y-74395714D02*
X217218571Y-74395714D01*
X217456666Y-75062380D02*
X217456666Y-74205238D01*
X217409047Y-74110000D01*
X217313809Y-74062380D01*
X217218571Y-74062380D01*
X233004285Y-76045714D02*
X233004285Y-76712380D01*
X233004285Y-76140952D02*
X232956666Y-76093333D01*
X232861428Y-76045714D01*
X232718571Y-76045714D01*
X232623333Y-76093333D01*
X232575714Y-76188571D01*
X232575714Y-76712380D01*
X231956666Y-76712380D02*
X232051904Y-76664761D01*
X232099523Y-76617142D01*
X232147142Y-76521904D01*
X232147142Y-76236190D01*
X232099523Y-76140952D01*
X232051904Y-76093333D01*
X231956666Y-76045714D01*
X231813809Y-76045714D01*
X231718571Y-76093333D01*
X231670952Y-76140952D01*
X231623333Y-76236190D01*
X231623333Y-76521904D01*
X231670952Y-76617142D01*
X231718571Y-76664761D01*
X231813809Y-76712380D01*
X231956666Y-76712380D01*
X230480476Y-76664761D02*
X230337619Y-76712380D01*
X230099523Y-76712380D01*
X230004285Y-76664761D01*
X229956666Y-76617142D01*
X229909047Y-76521904D01*
X229909047Y-76426666D01*
X229956666Y-76331428D01*
X230004285Y-76283809D01*
X230099523Y-76236190D01*
X230290000Y-76188571D01*
X230385238Y-76140952D01*
X230432857Y-76093333D01*
X230480476Y-75998095D01*
X230480476Y-75902857D01*
X230432857Y-75807619D01*
X230385238Y-75760000D01*
X230290000Y-75712380D01*
X230051904Y-75712380D01*
X229909047Y-75760000D01*
X229480476Y-76712380D02*
X229480476Y-75712380D01*
X229242380Y-75712380D01*
X229099523Y-75760000D01*
X229004285Y-75855238D01*
X228956666Y-75950476D01*
X228909047Y-76140952D01*
X228909047Y-76283809D01*
X228956666Y-76474285D01*
X229004285Y-76569523D01*
X229099523Y-76664761D01*
X229242380Y-76712380D01*
X229480476Y-76712380D01*
X227290000Y-76664761D02*
X227385238Y-76712380D01*
X227575714Y-76712380D01*
X227670952Y-76664761D01*
X227718571Y-76617142D01*
X227766190Y-76521904D01*
X227766190Y-76236190D01*
X227718571Y-76140952D01*
X227670952Y-76093333D01*
X227575714Y-76045714D01*
X227385238Y-76045714D01*
X227290000Y-76093333D01*
X226432857Y-76712380D02*
X226432857Y-76188571D01*
X226480476Y-76093333D01*
X226575714Y-76045714D01*
X226766190Y-76045714D01*
X226861428Y-76093333D01*
X226432857Y-76664761D02*
X226528095Y-76712380D01*
X226766190Y-76712380D01*
X226861428Y-76664761D01*
X226909047Y-76569523D01*
X226909047Y-76474285D01*
X226861428Y-76379047D01*
X226766190Y-76331428D01*
X226528095Y-76331428D01*
X226432857Y-76283809D01*
X225956666Y-76712380D02*
X225956666Y-76045714D01*
X225956666Y-76236190D02*
X225909047Y-76140952D01*
X225861428Y-76093333D01*
X225766190Y-76045714D01*
X225670952Y-76045714D01*
X224909047Y-76712380D02*
X224909047Y-75712380D01*
X224909047Y-76664761D02*
X225004285Y-76712380D01*
X225194761Y-76712380D01*
X225290000Y-76664761D01*
X225337619Y-76617142D01*
X225385238Y-76521904D01*
X225385238Y-76236190D01*
X225337619Y-76140952D01*
X225290000Y-76093333D01*
X225194761Y-76045714D01*
X225004285Y-76045714D01*
X224909047Y-76093333D01*
X223670952Y-76712380D02*
X223670952Y-76045714D01*
X223670952Y-75712380D02*
X223718571Y-75760000D01*
X223670952Y-75807619D01*
X223623333Y-75760000D01*
X223670952Y-75712380D01*
X223670952Y-75807619D01*
X223242380Y-76664761D02*
X223147142Y-76712380D01*
X222956666Y-76712380D01*
X222861428Y-76664761D01*
X222813809Y-76569523D01*
X222813809Y-76521904D01*
X222861428Y-76426666D01*
X222956666Y-76379047D01*
X223099523Y-76379047D01*
X223194761Y-76331428D01*
X223242380Y-76236190D01*
X223242380Y-76188571D01*
X223194761Y-76093333D01*
X223099523Y-76045714D01*
X222956666Y-76045714D01*
X222861428Y-76093333D01*
X221623333Y-76045714D02*
X221623333Y-77045714D01*
X221623333Y-76093333D02*
X221528095Y-76045714D01*
X221337619Y-76045714D01*
X221242380Y-76093333D01*
X221194761Y-76140952D01*
X221147142Y-76236190D01*
X221147142Y-76521904D01*
X221194761Y-76617142D01*
X221242380Y-76664761D01*
X221337619Y-76712380D01*
X221528095Y-76712380D01*
X221623333Y-76664761D01*
X220718571Y-76712380D02*
X220718571Y-76045714D01*
X220718571Y-76236190D02*
X220670952Y-76140952D01*
X220623333Y-76093333D01*
X220528095Y-76045714D01*
X220432857Y-76045714D01*
X219718571Y-76664761D02*
X219813809Y-76712380D01*
X220004285Y-76712380D01*
X220099523Y-76664761D01*
X220147142Y-76569523D01*
X220147142Y-76188571D01*
X220099523Y-76093333D01*
X220004285Y-76045714D01*
X219813809Y-76045714D01*
X219718571Y-76093333D01*
X219670952Y-76188571D01*
X219670952Y-76283809D01*
X220147142Y-76379047D01*
X219290000Y-76664761D02*
X219194761Y-76712380D01*
X219004285Y-76712380D01*
X218909047Y-76664761D01*
X218861428Y-76569523D01*
X218861428Y-76521904D01*
X218909047Y-76426666D01*
X219004285Y-76379047D01*
X219147142Y-76379047D01*
X219242380Y-76331428D01*
X219290000Y-76236190D01*
X219290000Y-76188571D01*
X219242380Y-76093333D01*
X219147142Y-76045714D01*
X219004285Y-76045714D01*
X218909047Y-76093333D01*
X218051904Y-76664761D02*
X218147142Y-76712380D01*
X218337619Y-76712380D01*
X218432857Y-76664761D01*
X218480476Y-76569523D01*
X218480476Y-76188571D01*
X218432857Y-76093333D01*
X218337619Y-76045714D01*
X218147142Y-76045714D01*
X218051904Y-76093333D01*
X218004285Y-76188571D01*
X218004285Y-76283809D01*
X218480476Y-76379047D01*
X217575714Y-76045714D02*
X217575714Y-76712380D01*
X217575714Y-76140952D02*
X217528095Y-76093333D01*
X217432857Y-76045714D01*
X217290000Y-76045714D01*
X217194761Y-76093333D01*
X217147142Y-76188571D01*
X217147142Y-76712380D01*
X216813809Y-76045714D02*
X216432857Y-76045714D01*
X216670952Y-75712380D02*
X216670952Y-76569523D01*
X216623333Y-76664761D01*
X216528095Y-76712380D01*
X216432857Y-76712380D01*
X233313809Y-78362380D02*
X233409047Y-78314761D01*
X233456666Y-78267142D01*
X233504285Y-78171904D01*
X233504285Y-77886190D01*
X233456666Y-77790952D01*
X233409047Y-77743333D01*
X233313809Y-77695714D01*
X233170952Y-77695714D01*
X233075714Y-77743333D01*
X233028095Y-77790952D01*
X232980476Y-77886190D01*
X232980476Y-78171904D01*
X233028095Y-78267142D01*
X233075714Y-78314761D01*
X233170952Y-78362380D01*
X233313809Y-78362380D01*
X232551904Y-78362380D02*
X232551904Y-77695714D01*
X232551904Y-77886190D02*
X232504285Y-77790952D01*
X232456666Y-77743333D01*
X232361428Y-77695714D01*
X232266190Y-77695714D01*
X231170952Y-77695714D02*
X231170952Y-78362380D01*
X231170952Y-77790952D02*
X231123333Y-77743333D01*
X231028095Y-77695714D01*
X230885238Y-77695714D01*
X230790000Y-77743333D01*
X230742380Y-77838571D01*
X230742380Y-78362380D01*
X230123333Y-78362380D02*
X230218571Y-78314761D01*
X230266190Y-78267142D01*
X230313809Y-78171904D01*
X230313809Y-77886190D01*
X230266190Y-77790952D01*
X230218571Y-77743333D01*
X230123333Y-77695714D01*
X229980476Y-77695714D01*
X229885238Y-77743333D01*
X229837619Y-77790952D01*
X229790000Y-77886190D01*
X229790000Y-78171904D01*
X229837619Y-78267142D01*
X229885238Y-78314761D01*
X229980476Y-78362380D01*
X230123333Y-78362380D01*
X228456666Y-78362380D02*
X228551904Y-78314761D01*
X228599523Y-78267142D01*
X228647142Y-78171904D01*
X228647142Y-77886190D01*
X228599523Y-77790952D01*
X228551904Y-77743333D01*
X228456666Y-77695714D01*
X228313809Y-77695714D01*
X228218571Y-77743333D01*
X228170952Y-77790952D01*
X228123333Y-77886190D01*
X228123333Y-78171904D01*
X228170952Y-78267142D01*
X228218571Y-78314761D01*
X228313809Y-78362380D01*
X228456666Y-78362380D01*
X227694761Y-77695714D02*
X227694761Y-78695714D01*
X227694761Y-77743333D02*
X227599523Y-77695714D01*
X227409047Y-77695714D01*
X227313809Y-77743333D01*
X227266190Y-77790952D01*
X227218571Y-77886190D01*
X227218571Y-78171904D01*
X227266190Y-78267142D01*
X227313809Y-78314761D01*
X227409047Y-78362380D01*
X227599523Y-78362380D01*
X227694761Y-78314761D01*
X226409047Y-78314761D02*
X226504285Y-78362380D01*
X226694761Y-78362380D01*
X226790000Y-78314761D01*
X226837619Y-78219523D01*
X226837619Y-77838571D01*
X226790000Y-77743333D01*
X226694761Y-77695714D01*
X226504285Y-77695714D01*
X226409047Y-77743333D01*
X226361428Y-77838571D01*
X226361428Y-77933809D01*
X226837619Y-78029047D01*
X225932857Y-78362380D02*
X225932857Y-77695714D01*
X225932857Y-77886190D02*
X225885238Y-77790952D01*
X225837619Y-77743333D01*
X225742380Y-77695714D01*
X225647142Y-77695714D01*
X224885238Y-78362380D02*
X224885238Y-77838571D01*
X224932857Y-77743333D01*
X225028095Y-77695714D01*
X225218571Y-77695714D01*
X225313809Y-77743333D01*
X224885238Y-78314761D02*
X224980476Y-78362380D01*
X225218571Y-78362380D01*
X225313809Y-78314761D01*
X225361428Y-78219523D01*
X225361428Y-78124285D01*
X225313809Y-78029047D01*
X225218571Y-77981428D01*
X224980476Y-77981428D01*
X224885238Y-77933809D01*
X224551904Y-77695714D02*
X224170952Y-77695714D01*
X224409047Y-77362380D02*
X224409047Y-78219523D01*
X224361428Y-78314761D01*
X224266190Y-78362380D01*
X224170952Y-78362380D01*
X223837619Y-78362380D02*
X223837619Y-77695714D01*
X223837619Y-77362380D02*
X223885238Y-77410000D01*
X223837619Y-77457619D01*
X223790000Y-77410000D01*
X223837619Y-77362380D01*
X223837619Y-77457619D01*
X223361428Y-77695714D02*
X223361428Y-78362380D01*
X223361428Y-77790952D02*
X223313809Y-77743333D01*
X223218571Y-77695714D01*
X223075714Y-77695714D01*
X222980476Y-77743333D01*
X222932857Y-77838571D01*
X222932857Y-78362380D01*
X222028095Y-77695714D02*
X222028095Y-78505238D01*
X222075714Y-78600476D01*
X222123333Y-78648095D01*
X222218571Y-78695714D01*
X222361428Y-78695714D01*
X222456666Y-78648095D01*
X222028095Y-78314761D02*
X222123333Y-78362380D01*
X222313809Y-78362380D01*
X222409047Y-78314761D01*
X222456666Y-78267142D01*
X222504285Y-78171904D01*
X222504285Y-77886190D01*
X222456666Y-77790952D01*
X222409047Y-77743333D01*
X222313809Y-77695714D01*
X222123333Y-77695714D01*
X222028095Y-77743333D01*
X220837619Y-78314761D02*
X220742380Y-78362380D01*
X220551904Y-78362380D01*
X220456666Y-78314761D01*
X220409047Y-78219523D01*
X220409047Y-78171904D01*
X220456666Y-78076666D01*
X220551904Y-78029047D01*
X220694761Y-78029047D01*
X220790000Y-77981428D01*
X220837619Y-77886190D01*
X220837619Y-77838571D01*
X220790000Y-77743333D01*
X220694761Y-77695714D01*
X220551904Y-77695714D01*
X220456666Y-77743333D01*
X220075714Y-77695714D02*
X219837619Y-78362380D01*
X219599523Y-77695714D02*
X219837619Y-78362380D01*
X219932857Y-78600476D01*
X219980476Y-78648095D01*
X220075714Y-78695714D01*
X219266190Y-78314761D02*
X219170952Y-78362380D01*
X218980476Y-78362380D01*
X218885238Y-78314761D01*
X218837619Y-78219523D01*
X218837619Y-78171904D01*
X218885238Y-78076666D01*
X218980476Y-78029047D01*
X219123333Y-78029047D01*
X219218571Y-77981428D01*
X219266190Y-77886190D01*
X219266190Y-77838571D01*
X219218571Y-77743333D01*
X219123333Y-77695714D01*
X218980476Y-77695714D01*
X218885238Y-77743333D01*
X218551904Y-77695714D02*
X218170952Y-77695714D01*
X218409047Y-77362380D02*
X218409047Y-78219523D01*
X218361428Y-78314761D01*
X218266190Y-78362380D01*
X218170952Y-78362380D01*
X217456666Y-78314761D02*
X217551904Y-78362380D01*
X217742380Y-78362380D01*
X217837619Y-78314761D01*
X217885238Y-78219523D01*
X217885238Y-77838571D01*
X217837619Y-77743333D01*
X217742380Y-77695714D01*
X217551904Y-77695714D01*
X217456666Y-77743333D01*
X217409047Y-77838571D01*
X217409047Y-77933809D01*
X217885238Y-78029047D01*
X216980476Y-78362380D02*
X216980476Y-77695714D01*
X216980476Y-77790952D02*
X216932857Y-77743333D01*
X216837619Y-77695714D01*
X216694761Y-77695714D01*
X216599523Y-77743333D01*
X216551904Y-77838571D01*
X216551904Y-78362380D01*
X216551904Y-77838571D02*
X216504285Y-77743333D01*
X216409047Y-77695714D01*
X216266190Y-77695714D01*
X216170952Y-77743333D01*
X216123333Y-77838571D01*
X216123333Y-78362380D01*
X229051904Y-80012380D02*
X229051904Y-79345714D01*
X229051904Y-79012380D02*
X229099523Y-79060000D01*
X229051904Y-79107619D01*
X229004285Y-79060000D01*
X229051904Y-79012380D01*
X229051904Y-79107619D01*
X228623333Y-79964761D02*
X228528095Y-80012380D01*
X228337619Y-80012380D01*
X228242380Y-79964761D01*
X228194761Y-79869523D01*
X228194761Y-79821904D01*
X228242380Y-79726666D01*
X228337619Y-79679047D01*
X228480476Y-79679047D01*
X228575714Y-79631428D01*
X228623333Y-79536190D01*
X228623333Y-79488571D01*
X228575714Y-79393333D01*
X228480476Y-79345714D01*
X228337619Y-79345714D01*
X228242380Y-79393333D01*
X227004285Y-80012380D02*
X227004285Y-79345714D01*
X227004285Y-79012380D02*
X227051904Y-79060000D01*
X227004285Y-79107619D01*
X226956666Y-79060000D01*
X227004285Y-79012380D01*
X227004285Y-79107619D01*
X226528095Y-79345714D02*
X226528095Y-80012380D01*
X226528095Y-79440952D02*
X226480476Y-79393333D01*
X226385238Y-79345714D01*
X226242380Y-79345714D01*
X226147142Y-79393333D01*
X226099523Y-79488571D01*
X226099523Y-80012380D01*
X225670952Y-79964761D02*
X225575714Y-80012380D01*
X225385238Y-80012380D01*
X225290000Y-79964761D01*
X225242380Y-79869523D01*
X225242380Y-79821904D01*
X225290000Y-79726666D01*
X225385238Y-79679047D01*
X225528095Y-79679047D01*
X225623333Y-79631428D01*
X225670952Y-79536190D01*
X225670952Y-79488571D01*
X225623333Y-79393333D01*
X225528095Y-79345714D01*
X225385238Y-79345714D01*
X225290000Y-79393333D01*
X224956666Y-79345714D02*
X224575714Y-79345714D01*
X224813809Y-79012380D02*
X224813809Y-79869523D01*
X224766190Y-79964761D01*
X224670952Y-80012380D01*
X224575714Y-80012380D01*
X223813809Y-80012380D02*
X223813809Y-79488571D01*
X223861428Y-79393333D01*
X223956666Y-79345714D01*
X224147142Y-79345714D01*
X224242380Y-79393333D01*
X223813809Y-79964761D02*
X223909047Y-80012380D01*
X224147142Y-80012380D01*
X224242380Y-79964761D01*
X224290000Y-79869523D01*
X224290000Y-79774285D01*
X224242380Y-79679047D01*
X224147142Y-79631428D01*
X223909047Y-79631428D01*
X223813809Y-79583809D01*
X223194761Y-80012380D02*
X223290000Y-79964761D01*
X223337619Y-79869523D01*
X223337619Y-79012380D01*
X222670952Y-80012380D02*
X222766190Y-79964761D01*
X222813809Y-79869523D01*
X222813809Y-79012380D01*
X221909047Y-79964761D02*
X222004285Y-80012380D01*
X222194761Y-80012380D01*
X222290000Y-79964761D01*
X222337619Y-79869523D01*
X222337619Y-79488571D01*
X222290000Y-79393333D01*
X222194761Y-79345714D01*
X222004285Y-79345714D01*
X221909047Y-79393333D01*
X221861428Y-79488571D01*
X221861428Y-79583809D01*
X222337619Y-79679047D01*
X221004285Y-80012380D02*
X221004285Y-79012380D01*
X221004285Y-79964761D02*
X221099523Y-80012380D01*
X221290000Y-80012380D01*
X221385238Y-79964761D01*
X221432857Y-79917142D01*
X221480476Y-79821904D01*
X221480476Y-79536190D01*
X221432857Y-79440952D01*
X221385238Y-79393333D01*
X221290000Y-79345714D01*
X221099523Y-79345714D01*
X221004285Y-79393333D01*
X220528095Y-79917142D02*
X220480476Y-79964761D01*
X220528095Y-80012380D01*
X220575714Y-79964761D01*
X220528095Y-79917142D01*
X220528095Y-80012380D01*
X196323928Y-61812380D02*
X196133452Y-61812380D01*
X196038214Y-61860000D01*
X195942976Y-61955238D01*
X195895357Y-62145714D01*
X195895357Y-62479047D01*
X195942976Y-62669523D01*
X196038214Y-62764761D01*
X196133452Y-62812380D01*
X196323928Y-62812380D01*
X196419166Y-62764761D01*
X196514404Y-62669523D01*
X196562023Y-62479047D01*
X196562023Y-62145714D01*
X196514404Y-61955238D01*
X196419166Y-61860000D01*
X196323928Y-61812380D01*
X195466785Y-62812380D02*
X195466785Y-61812380D01*
X195085833Y-61812380D01*
X194990595Y-61860000D01*
X194942976Y-61907619D01*
X194895357Y-62002857D01*
X194895357Y-62145714D01*
X194942976Y-62240952D01*
X194990595Y-62288571D01*
X195085833Y-62336190D01*
X195466785Y-62336190D01*
X194609642Y-61812380D02*
X194038214Y-61812380D01*
X194323928Y-62812380D02*
X194323928Y-61812380D01*
X193704880Y-62812380D02*
X193704880Y-61812380D01*
X193038214Y-61812380D02*
X192847738Y-61812380D01*
X192752500Y-61860000D01*
X192657261Y-61955238D01*
X192609642Y-62145714D01*
X192609642Y-62479047D01*
X192657261Y-62669523D01*
X192752500Y-62764761D01*
X192847738Y-62812380D01*
X193038214Y-62812380D01*
X193133452Y-62764761D01*
X193228690Y-62669523D01*
X193276309Y-62479047D01*
X193276309Y-62145714D01*
X193228690Y-61955238D01*
X193133452Y-61860000D01*
X193038214Y-61812380D01*
X192181071Y-62812380D02*
X192181071Y-61812380D01*
X191609642Y-62812380D01*
X191609642Y-61812380D01*
X191181071Y-62764761D02*
X191038214Y-62812380D01*
X190800119Y-62812380D01*
X190704880Y-62764761D01*
X190657261Y-62717142D01*
X190609642Y-62621904D01*
X190609642Y-62526666D01*
X190657261Y-62431428D01*
X190704880Y-62383809D01*
X190800119Y-62336190D01*
X190990595Y-62288571D01*
X191085833Y-62240952D01*
X191133452Y-62193333D01*
X191181071Y-62098095D01*
X191181071Y-62002857D01*
X191133452Y-61907619D01*
X191085833Y-61860000D01*
X190990595Y-61812380D01*
X190752500Y-61812380D01*
X190609642Y-61860000D01*
X190181071Y-62717142D02*
X190133452Y-62764761D01*
X190181071Y-62812380D01*
X190228690Y-62764761D01*
X190181071Y-62717142D01*
X190181071Y-62812380D01*
X190181071Y-62193333D02*
X190133452Y-62240952D01*
X190181071Y-62288571D01*
X190228690Y-62240952D01*
X190181071Y-62193333D01*
X190181071Y-62288571D01*
X195990595Y-64462380D02*
X196562023Y-64462380D01*
X196276309Y-64462380D02*
X196276309Y-63462380D01*
X196371547Y-63605238D01*
X196466785Y-63700476D01*
X196562023Y-63748095D01*
X194800119Y-64462380D02*
X194800119Y-63462380D01*
X193752500Y-64462380D02*
X194085833Y-63986190D01*
X194323928Y-64462380D02*
X194323928Y-63462380D01*
X193942976Y-63462380D01*
X193847738Y-63510000D01*
X193800119Y-63557619D01*
X193752500Y-63652857D01*
X193752500Y-63795714D01*
X193800119Y-63890952D01*
X193847738Y-63938571D01*
X193942976Y-63986190D01*
X194323928Y-63986190D01*
X192657261Y-64557619D02*
X192752500Y-64510000D01*
X192847738Y-64414761D01*
X192990595Y-64271904D01*
X193085833Y-64224285D01*
X193181071Y-64224285D01*
X193133452Y-64462380D02*
X193228690Y-64414761D01*
X193323928Y-64319523D01*
X193371547Y-64129047D01*
X193371547Y-63795714D01*
X193323928Y-63605238D01*
X193228690Y-63510000D01*
X193133452Y-63462380D01*
X192942976Y-63462380D01*
X192847738Y-63510000D01*
X192752500Y-63605238D01*
X192704880Y-63795714D01*
X192704880Y-64129047D01*
X192752500Y-64319523D01*
X192847738Y-64414761D01*
X192942976Y-64462380D01*
X193133452Y-64462380D01*
X191562023Y-64414761D02*
X191466785Y-64462380D01*
X191276309Y-64462380D01*
X191181071Y-64414761D01*
X191133452Y-64319523D01*
X191133452Y-64271904D01*
X191181071Y-64176666D01*
X191276309Y-64129047D01*
X191419166Y-64129047D01*
X191514404Y-64081428D01*
X191562023Y-63986190D01*
X191562023Y-63938571D01*
X191514404Y-63843333D01*
X191419166Y-63795714D01*
X191276309Y-63795714D01*
X191181071Y-63843333D01*
X190323928Y-64414761D02*
X190419166Y-64462380D01*
X190609642Y-64462380D01*
X190704880Y-64414761D01*
X190752500Y-64319523D01*
X190752500Y-63938571D01*
X190704880Y-63843333D01*
X190609642Y-63795714D01*
X190419166Y-63795714D01*
X190323928Y-63843333D01*
X190276309Y-63938571D01*
X190276309Y-64033809D01*
X190752500Y-64129047D01*
X189704880Y-64462380D02*
X189800119Y-64414761D01*
X189847738Y-64319523D01*
X189847738Y-63462380D01*
X188942976Y-64414761D02*
X189038214Y-64462380D01*
X189228690Y-64462380D01*
X189323928Y-64414761D01*
X189371547Y-64319523D01*
X189371547Y-63938571D01*
X189323928Y-63843333D01*
X189228690Y-63795714D01*
X189038214Y-63795714D01*
X188942976Y-63843333D01*
X188895357Y-63938571D01*
X188895357Y-64033809D01*
X189371547Y-64129047D01*
X188038214Y-64414761D02*
X188133452Y-64462380D01*
X188323928Y-64462380D01*
X188419166Y-64414761D01*
X188466785Y-64367142D01*
X188514404Y-64271904D01*
X188514404Y-63986190D01*
X188466785Y-63890952D01*
X188419166Y-63843333D01*
X188323928Y-63795714D01*
X188133452Y-63795714D01*
X188038214Y-63843333D01*
X187752500Y-63795714D02*
X187371547Y-63795714D01*
X187609642Y-63462380D02*
X187609642Y-64319523D01*
X187562023Y-64414761D01*
X187466785Y-64462380D01*
X187371547Y-64462380D01*
X187038214Y-64462380D02*
X187038214Y-63795714D01*
X187038214Y-63462380D02*
X187085833Y-63510000D01*
X187038214Y-63557619D01*
X186990595Y-63510000D01*
X187038214Y-63462380D01*
X187038214Y-63557619D01*
X186419166Y-64462380D02*
X186514404Y-64414761D01*
X186562023Y-64367142D01*
X186609642Y-64271904D01*
X186609642Y-63986190D01*
X186562023Y-63890952D01*
X186514404Y-63843333D01*
X186419166Y-63795714D01*
X186276309Y-63795714D01*
X186181071Y-63843333D01*
X186133452Y-63890952D01*
X186085833Y-63986190D01*
X186085833Y-64271904D01*
X186133452Y-64367142D01*
X186181071Y-64414761D01*
X186276309Y-64462380D01*
X186419166Y-64462380D01*
X185657261Y-63795714D02*
X185657261Y-64462380D01*
X185657261Y-63890952D02*
X185609642Y-63843333D01*
X185514404Y-63795714D01*
X185371547Y-63795714D01*
X185276309Y-63843333D01*
X185228690Y-63938571D01*
X185228690Y-64462380D01*
X184752500Y-64367142D02*
X184704880Y-64414761D01*
X184752500Y-64462380D01*
X184800119Y-64414761D01*
X184752500Y-64367142D01*
X184752500Y-64462380D01*
X183323928Y-63462380D02*
X183133452Y-63462380D01*
X183038214Y-63510000D01*
X182942976Y-63605238D01*
X182895357Y-63795714D01*
X182895357Y-64129047D01*
X182942976Y-64319523D01*
X183038214Y-64414761D01*
X183133452Y-64462380D01*
X183323928Y-64462380D01*
X183419166Y-64414761D01*
X183514404Y-64319523D01*
X183562023Y-64129047D01*
X183562023Y-63795714D01*
X183514404Y-63605238D01*
X183419166Y-63510000D01*
X183323928Y-63462380D01*
X182133452Y-63938571D02*
X182466785Y-63938571D01*
X182466785Y-64462380D02*
X182466785Y-63462380D01*
X181990595Y-63462380D01*
X181276309Y-63938571D02*
X181609642Y-63938571D01*
X181609642Y-64462380D02*
X181609642Y-63462380D01*
X181133452Y-63462380D01*
X180752500Y-64367142D02*
X180704880Y-64414761D01*
X180752500Y-64462380D01*
X180800119Y-64414761D01*
X180752500Y-64367142D01*
X180752500Y-64462380D01*
X180752500Y-63843333D02*
X180704880Y-63890952D01*
X180752500Y-63938571D01*
X180800119Y-63890952D01*
X180752500Y-63843333D01*
X180752500Y-63938571D01*
X179514404Y-64462380D02*
X179514404Y-63462380D01*
X179276309Y-63462380D01*
X179133452Y-63510000D01*
X179038214Y-63605238D01*
X178990595Y-63700476D01*
X178942976Y-63890952D01*
X178942976Y-64033809D01*
X178990595Y-64224285D01*
X179038214Y-64319523D01*
X179133452Y-64414761D01*
X179276309Y-64462380D01*
X179514404Y-64462380D01*
X178133452Y-64414761D02*
X178228690Y-64462380D01*
X178419166Y-64462380D01*
X178514404Y-64414761D01*
X178562023Y-64319523D01*
X178562023Y-63938571D01*
X178514404Y-63843333D01*
X178419166Y-63795714D01*
X178228690Y-63795714D01*
X178133452Y-63843333D01*
X178085833Y-63938571D01*
X178085833Y-64033809D01*
X178562023Y-64129047D01*
X177800119Y-63795714D02*
X177419166Y-63795714D01*
X177657261Y-64462380D02*
X177657261Y-63605238D01*
X177609642Y-63510000D01*
X177514404Y-63462380D01*
X177419166Y-63462380D01*
X176657261Y-64462380D02*
X176657261Y-63938571D01*
X176704880Y-63843333D01*
X176800119Y-63795714D01*
X176990595Y-63795714D01*
X177085833Y-63843333D01*
X176657261Y-64414761D02*
X176752500Y-64462380D01*
X176990595Y-64462380D01*
X177085833Y-64414761D01*
X177133452Y-64319523D01*
X177133452Y-64224285D01*
X177085833Y-64129047D01*
X176990595Y-64081428D01*
X176752500Y-64081428D01*
X176657261Y-64033809D01*
X175752500Y-63795714D02*
X175752500Y-64462380D01*
X176181071Y-63795714D02*
X176181071Y-64319523D01*
X176133452Y-64414761D01*
X176038214Y-64462380D01*
X175895357Y-64462380D01*
X175800119Y-64414761D01*
X175752500Y-64367142D01*
X175133452Y-64462380D02*
X175228690Y-64414761D01*
X175276309Y-64319523D01*
X175276309Y-63462380D01*
X174895357Y-63795714D02*
X174514404Y-63795714D01*
X174752500Y-63462380D02*
X174752500Y-64319523D01*
X174704880Y-64414761D01*
X174609642Y-64462380D01*
X174514404Y-64462380D01*
X174181071Y-64367142D02*
X174133452Y-64414761D01*
X174181071Y-64462380D01*
X174228690Y-64414761D01*
X174181071Y-64367142D01*
X174181071Y-64462380D01*
X172752500Y-63462380D02*
X172562023Y-63462380D01*
X172466785Y-63510000D01*
X172371547Y-63605238D01*
X172323928Y-63795714D01*
X172323928Y-64129047D01*
X172371547Y-64319523D01*
X172466785Y-64414761D01*
X172562023Y-64462380D01*
X172752500Y-64462380D01*
X172847738Y-64414761D01*
X172942976Y-64319523D01*
X172990595Y-64129047D01*
X172990595Y-63795714D01*
X172942976Y-63605238D01*
X172847738Y-63510000D01*
X172752500Y-63462380D01*
X171895357Y-64462380D02*
X171895357Y-63462380D01*
X171323928Y-64462380D01*
X171323928Y-63462380D01*
X170847738Y-64367142D02*
X170800119Y-64414761D01*
X170847738Y-64462380D01*
X170895357Y-64414761D01*
X170847738Y-64367142D01*
X170847738Y-64462380D01*
X170847738Y-63843333D02*
X170800119Y-63890952D01*
X170847738Y-63938571D01*
X170895357Y-63890952D01*
X170847738Y-63843333D01*
X170847738Y-63938571D01*
X169657261Y-64176666D02*
X169181071Y-64176666D01*
X169752500Y-64462380D02*
X169419166Y-63462380D01*
X169085833Y-64462380D01*
X168609642Y-64462380D02*
X168704880Y-64414761D01*
X168752500Y-64319523D01*
X168752500Y-63462380D01*
X168371547Y-63795714D02*
X167990595Y-63795714D01*
X168228690Y-63462380D02*
X168228690Y-64319523D01*
X168181071Y-64414761D01*
X168085833Y-64462380D01*
X167990595Y-64462380D01*
X167276309Y-64414761D02*
X167371547Y-64462380D01*
X167562023Y-64462380D01*
X167657261Y-64414761D01*
X167704880Y-64319523D01*
X167704880Y-63938571D01*
X167657261Y-63843333D01*
X167562023Y-63795714D01*
X167371547Y-63795714D01*
X167276309Y-63843333D01*
X167228690Y-63938571D01*
X167228690Y-64033809D01*
X167704880Y-64129047D01*
X166800119Y-64462380D02*
X166800119Y-63795714D01*
X166800119Y-63986190D02*
X166752500Y-63890952D01*
X166704880Y-63843333D01*
X166609642Y-63795714D01*
X166514404Y-63795714D01*
X166181071Y-63795714D02*
X166181071Y-64462380D01*
X166181071Y-63890952D02*
X166133452Y-63843333D01*
X166038214Y-63795714D01*
X165895357Y-63795714D01*
X165800119Y-63843333D01*
X165752500Y-63938571D01*
X165752500Y-64462380D01*
X164847738Y-64462380D02*
X164847738Y-63938571D01*
X164895357Y-63843333D01*
X164990595Y-63795714D01*
X165181071Y-63795714D01*
X165276309Y-63843333D01*
X164847738Y-64414761D02*
X164942976Y-64462380D01*
X165181071Y-64462380D01*
X165276309Y-64414761D01*
X165323928Y-64319523D01*
X165323928Y-64224285D01*
X165276309Y-64129047D01*
X165181071Y-64081428D01*
X164942976Y-64081428D01*
X164847738Y-64033809D01*
X164514404Y-63795714D02*
X164133452Y-63795714D01*
X164371547Y-63462380D02*
X164371547Y-64319523D01*
X164323928Y-64414761D01*
X164228690Y-64462380D01*
X164133452Y-64462380D01*
X163419166Y-64414761D02*
X163514404Y-64462380D01*
X163704880Y-64462380D01*
X163800119Y-64414761D01*
X163847738Y-64319523D01*
X163847738Y-63938571D01*
X163800119Y-63843333D01*
X163704880Y-63795714D01*
X163514404Y-63795714D01*
X163419166Y-63843333D01*
X163371547Y-63938571D01*
X163371547Y-64033809D01*
X163847738Y-64129047D01*
X194419166Y-66112380D02*
X194752500Y-65636190D01*
X194990595Y-66112380D02*
X194990595Y-65112380D01*
X194609642Y-65112380D01*
X194514404Y-65160000D01*
X194466785Y-65207619D01*
X194419166Y-65302857D01*
X194419166Y-65445714D01*
X194466785Y-65540952D01*
X194514404Y-65588571D01*
X194609642Y-65636190D01*
X194990595Y-65636190D01*
X193609642Y-66064761D02*
X193704880Y-66112380D01*
X193895357Y-66112380D01*
X193990595Y-66064761D01*
X194038214Y-65969523D01*
X194038214Y-65588571D01*
X193990595Y-65493333D01*
X193895357Y-65445714D01*
X193704880Y-65445714D01*
X193609642Y-65493333D01*
X193562023Y-65588571D01*
X193562023Y-65683809D01*
X194038214Y-65779047D01*
X192704880Y-65445714D02*
X192704880Y-66445714D01*
X192704880Y-66064761D02*
X192800119Y-66112380D01*
X192990595Y-66112380D01*
X193085833Y-66064761D01*
X193133452Y-66017142D01*
X193181071Y-65921904D01*
X193181071Y-65636190D01*
X193133452Y-65540952D01*
X193085833Y-65493333D01*
X192990595Y-65445714D01*
X192800119Y-65445714D01*
X192704880Y-65493333D01*
X191800119Y-65445714D02*
X191800119Y-66112380D01*
X192228690Y-65445714D02*
X192228690Y-65969523D01*
X192181071Y-66064761D01*
X192085833Y-66112380D01*
X191942976Y-66112380D01*
X191847738Y-66064761D01*
X191800119Y-66017142D01*
X191323928Y-66112380D02*
X191323928Y-65445714D01*
X191323928Y-65112380D02*
X191371547Y-65160000D01*
X191323928Y-65207619D01*
X191276309Y-65160000D01*
X191323928Y-65112380D01*
X191323928Y-65207619D01*
X190847738Y-66112380D02*
X190847738Y-65445714D01*
X190847738Y-65636190D02*
X190800119Y-65540952D01*
X190752500Y-65493333D01*
X190657261Y-65445714D01*
X190562023Y-65445714D01*
X189847738Y-66064761D02*
X189942976Y-66112380D01*
X190133452Y-66112380D01*
X190228690Y-66064761D01*
X190276309Y-65969523D01*
X190276309Y-65588571D01*
X190228690Y-65493333D01*
X190133452Y-65445714D01*
X189942976Y-65445714D01*
X189847738Y-65493333D01*
X189800119Y-65588571D01*
X189800119Y-65683809D01*
X190276309Y-65779047D01*
X189419166Y-66064761D02*
X189323928Y-66112380D01*
X189133452Y-66112380D01*
X189038214Y-66064761D01*
X188990595Y-65969523D01*
X188990595Y-65921904D01*
X189038214Y-65826666D01*
X189133452Y-65779047D01*
X189276309Y-65779047D01*
X189371547Y-65731428D01*
X189419166Y-65636190D01*
X189419166Y-65588571D01*
X189371547Y-65493333D01*
X189276309Y-65445714D01*
X189133452Y-65445714D01*
X189038214Y-65493333D01*
X187800119Y-66112380D02*
X187800119Y-65445714D01*
X187800119Y-65540952D02*
X187752500Y-65493333D01*
X187657261Y-65445714D01*
X187514404Y-65445714D01*
X187419166Y-65493333D01*
X187371547Y-65588571D01*
X187371547Y-66112380D01*
X187371547Y-65588571D02*
X187323928Y-65493333D01*
X187228690Y-65445714D01*
X187085833Y-65445714D01*
X186990595Y-65493333D01*
X186942976Y-65588571D01*
X186942976Y-66112380D01*
X186038214Y-66112380D02*
X186038214Y-65588571D01*
X186085833Y-65493333D01*
X186181071Y-65445714D01*
X186371547Y-65445714D01*
X186466785Y-65493333D01*
X186038214Y-66064761D02*
X186133452Y-66112380D01*
X186371547Y-66112380D01*
X186466785Y-66064761D01*
X186514404Y-65969523D01*
X186514404Y-65874285D01*
X186466785Y-65779047D01*
X186371547Y-65731428D01*
X186133452Y-65731428D01*
X186038214Y-65683809D01*
X185562023Y-66112380D02*
X185562023Y-65445714D01*
X185562023Y-65112380D02*
X185609642Y-65160000D01*
X185562023Y-65207619D01*
X185514404Y-65160000D01*
X185562023Y-65112380D01*
X185562023Y-65207619D01*
X185085833Y-65445714D02*
X185085833Y-66112380D01*
X185085833Y-65540952D02*
X185038214Y-65493333D01*
X184942976Y-65445714D01*
X184800119Y-65445714D01*
X184704880Y-65493333D01*
X184657261Y-65588571D01*
X184657261Y-66112380D01*
X184181071Y-66112380D02*
X184181071Y-65112380D01*
X184181071Y-65493333D02*
X184085833Y-65445714D01*
X183895357Y-65445714D01*
X183800119Y-65493333D01*
X183752500Y-65540952D01*
X183704880Y-65636190D01*
X183704880Y-65921904D01*
X183752500Y-66017142D01*
X183800119Y-66064761D01*
X183895357Y-66112380D01*
X184085833Y-66112380D01*
X184181071Y-66064761D01*
X183133452Y-66112380D02*
X183228690Y-66064761D01*
X183276309Y-66017142D01*
X183323928Y-65921904D01*
X183323928Y-65636190D01*
X183276309Y-65540952D01*
X183228690Y-65493333D01*
X183133452Y-65445714D01*
X182990595Y-65445714D01*
X182895357Y-65493333D01*
X182847738Y-65540952D01*
X182800119Y-65636190D01*
X182800119Y-65921904D01*
X182847738Y-66017142D01*
X182895357Y-66064761D01*
X182990595Y-66112380D01*
X183133452Y-66112380D01*
X181942976Y-66112380D02*
X181942976Y-65588571D01*
X181990595Y-65493333D01*
X182085833Y-65445714D01*
X182276309Y-65445714D01*
X182371547Y-65493333D01*
X181942976Y-66064761D02*
X182038214Y-66112380D01*
X182276309Y-66112380D01*
X182371547Y-66064761D01*
X182419166Y-65969523D01*
X182419166Y-65874285D01*
X182371547Y-65779047D01*
X182276309Y-65731428D01*
X182038214Y-65731428D01*
X181942976Y-65683809D01*
X181466785Y-66112380D02*
X181466785Y-65445714D01*
X181466785Y-65636190D02*
X181419166Y-65540952D01*
X181371547Y-65493333D01*
X181276309Y-65445714D01*
X181181071Y-65445714D01*
X180419166Y-66112380D02*
X180419166Y-65112380D01*
X180419166Y-66064761D02*
X180514404Y-66112380D01*
X180704880Y-66112380D01*
X180800119Y-66064761D01*
X180847738Y-66017142D01*
X180895357Y-65921904D01*
X180895357Y-65636190D01*
X180847738Y-65540952D01*
X180800119Y-65493333D01*
X180704880Y-65445714D01*
X180514404Y-65445714D01*
X180419166Y-65493333D01*
X178466785Y-65064761D02*
X179323928Y-66350476D01*
X177371547Y-66112380D02*
X177371547Y-65445714D01*
X177371547Y-65112380D02*
X177419166Y-65160000D01*
X177371547Y-65207619D01*
X177323928Y-65160000D01*
X177371547Y-65112380D01*
X177371547Y-65207619D01*
X176895357Y-65445714D02*
X176895357Y-66112380D01*
X176895357Y-65540952D02*
X176847738Y-65493333D01*
X176752500Y-65445714D01*
X176609642Y-65445714D01*
X176514404Y-65493333D01*
X176466785Y-65588571D01*
X176466785Y-66112380D01*
X176133452Y-65445714D02*
X175752500Y-65445714D01*
X175990595Y-65112380D02*
X175990595Y-65969523D01*
X175942976Y-66064761D01*
X175847738Y-66112380D01*
X175752500Y-66112380D01*
X175038214Y-66064761D02*
X175133452Y-66112380D01*
X175323928Y-66112380D01*
X175419166Y-66064761D01*
X175466785Y-65969523D01*
X175466785Y-65588571D01*
X175419166Y-65493333D01*
X175323928Y-65445714D01*
X175133452Y-65445714D01*
X175038214Y-65493333D01*
X174990595Y-65588571D01*
X174990595Y-65683809D01*
X175466785Y-65779047D01*
X174562023Y-66112380D02*
X174562023Y-65445714D01*
X174562023Y-65636190D02*
X174514404Y-65540952D01*
X174466785Y-65493333D01*
X174371547Y-65445714D01*
X174276309Y-65445714D01*
X174085833Y-65445714D02*
X173704880Y-65445714D01*
X173942976Y-66112380D02*
X173942976Y-65255238D01*
X173895357Y-65160000D01*
X173800119Y-65112380D01*
X173704880Y-65112380D01*
X172942976Y-66112380D02*
X172942976Y-65588571D01*
X172990595Y-65493333D01*
X173085833Y-65445714D01*
X173276309Y-65445714D01*
X173371547Y-65493333D01*
X172942976Y-66064761D02*
X173038214Y-66112380D01*
X173276309Y-66112380D01*
X173371547Y-66064761D01*
X173419166Y-65969523D01*
X173419166Y-65874285D01*
X173371547Y-65779047D01*
X173276309Y-65731428D01*
X173038214Y-65731428D01*
X172942976Y-65683809D01*
X172038214Y-66064761D02*
X172133452Y-66112380D01*
X172323928Y-66112380D01*
X172419166Y-66064761D01*
X172466785Y-66017142D01*
X172514404Y-65921904D01*
X172514404Y-65636190D01*
X172466785Y-65540952D01*
X172419166Y-65493333D01*
X172323928Y-65445714D01*
X172133452Y-65445714D01*
X172038214Y-65493333D01*
X171228690Y-66064761D02*
X171323928Y-66112380D01*
X171514404Y-66112380D01*
X171609642Y-66064761D01*
X171657261Y-65969523D01*
X171657261Y-65588571D01*
X171609642Y-65493333D01*
X171514404Y-65445714D01*
X171323928Y-65445714D01*
X171228690Y-65493333D01*
X171181071Y-65588571D01*
X171181071Y-65683809D01*
X171657261Y-65779047D01*
X169562023Y-66064761D02*
X169657261Y-66112380D01*
X169847738Y-66112380D01*
X169942976Y-66064761D01*
X169990595Y-66017142D01*
X170038214Y-65921904D01*
X170038214Y-65636190D01*
X169990595Y-65540952D01*
X169942976Y-65493333D01*
X169847738Y-65445714D01*
X169657261Y-65445714D01*
X169562023Y-65493333D01*
X168704880Y-66112380D02*
X168704880Y-65588571D01*
X168752500Y-65493333D01*
X168847738Y-65445714D01*
X169038214Y-65445714D01*
X169133452Y-65493333D01*
X168704880Y-66064761D02*
X168800119Y-66112380D01*
X169038214Y-66112380D01*
X169133452Y-66064761D01*
X169181071Y-65969523D01*
X169181071Y-65874285D01*
X169133452Y-65779047D01*
X169038214Y-65731428D01*
X168800119Y-65731428D01*
X168704880Y-65683809D01*
X168228690Y-66112380D02*
X168228690Y-65445714D01*
X168228690Y-65636190D02*
X168181071Y-65540952D01*
X168133452Y-65493333D01*
X168038214Y-65445714D01*
X167942976Y-65445714D01*
X167181071Y-66112380D02*
X167181071Y-65112380D01*
X167181071Y-66064761D02*
X167276309Y-66112380D01*
X167466785Y-66112380D01*
X167562023Y-66064761D01*
X167609642Y-66017142D01*
X167657261Y-65921904D01*
X167657261Y-65636190D01*
X167609642Y-65540952D01*
X167562023Y-65493333D01*
X167466785Y-65445714D01*
X167276309Y-65445714D01*
X167181071Y-65493333D01*
X194990595Y-67762380D02*
X194990595Y-66762380D01*
X193942976Y-67762380D02*
X194276309Y-67286190D01*
X194514404Y-67762380D02*
X194514404Y-66762380D01*
X194133452Y-66762380D01*
X194038214Y-66810000D01*
X193990595Y-66857619D01*
X193942976Y-66952857D01*
X193942976Y-67095714D01*
X193990595Y-67190952D01*
X194038214Y-67238571D01*
X194133452Y-67286190D01*
X194514404Y-67286190D01*
X192847738Y-67857619D02*
X192942976Y-67810000D01*
X193038214Y-67714761D01*
X193181071Y-67571904D01*
X193276309Y-67524285D01*
X193371547Y-67524285D01*
X193323928Y-67762380D02*
X193419166Y-67714761D01*
X193514404Y-67619523D01*
X193562023Y-67429047D01*
X193562023Y-67095714D01*
X193514404Y-66905238D01*
X193419166Y-66810000D01*
X193323928Y-66762380D01*
X193133452Y-66762380D01*
X193038214Y-66810000D01*
X192942976Y-66905238D01*
X192895357Y-67095714D01*
X192895357Y-67429047D01*
X192942976Y-67619523D01*
X193038214Y-67714761D01*
X193133452Y-67762380D01*
X193323928Y-67762380D01*
X191847738Y-67095714D02*
X191466785Y-67095714D01*
X191704880Y-66762380D02*
X191704880Y-67619523D01*
X191657261Y-67714761D01*
X191562023Y-67762380D01*
X191466785Y-67762380D01*
X190990595Y-67762380D02*
X191085833Y-67714761D01*
X191133452Y-67667142D01*
X191181071Y-67571904D01*
X191181071Y-67286190D01*
X191133452Y-67190952D01*
X191085833Y-67143333D01*
X190990595Y-67095714D01*
X190847738Y-67095714D01*
X190752500Y-67143333D01*
X190704880Y-67190952D01*
X190657261Y-67286190D01*
X190657261Y-67571904D01*
X190704880Y-67667142D01*
X190752500Y-67714761D01*
X190847738Y-67762380D01*
X190990595Y-67762380D01*
X189466785Y-67762380D02*
X189466785Y-66762380D01*
X189466785Y-67143333D02*
X189371547Y-67095714D01*
X189181071Y-67095714D01*
X189085833Y-67143333D01*
X189038214Y-67190952D01*
X188990595Y-67286190D01*
X188990595Y-67571904D01*
X189038214Y-67667142D01*
X189085833Y-67714761D01*
X189181071Y-67762380D01*
X189371547Y-67762380D01*
X189466785Y-67714761D01*
X188181071Y-67714761D02*
X188276309Y-67762380D01*
X188466785Y-67762380D01*
X188562023Y-67714761D01*
X188609642Y-67619523D01*
X188609642Y-67238571D01*
X188562023Y-67143333D01*
X188466785Y-67095714D01*
X188276309Y-67095714D01*
X188181071Y-67143333D01*
X188133452Y-67238571D01*
X188133452Y-67333809D01*
X188609642Y-67429047D01*
X186990595Y-67714761D02*
X186895357Y-67762380D01*
X186704880Y-67762380D01*
X186609642Y-67714761D01*
X186562023Y-67619523D01*
X186562023Y-67571904D01*
X186609642Y-67476666D01*
X186704880Y-67429047D01*
X186847738Y-67429047D01*
X186942976Y-67381428D01*
X186990595Y-67286190D01*
X186990595Y-67238571D01*
X186942976Y-67143333D01*
X186847738Y-67095714D01*
X186704880Y-67095714D01*
X186609642Y-67143333D01*
X185752500Y-67714761D02*
X185847738Y-67762380D01*
X186038214Y-67762380D01*
X186133452Y-67714761D01*
X186181071Y-67619523D01*
X186181071Y-67238571D01*
X186133452Y-67143333D01*
X186038214Y-67095714D01*
X185847738Y-67095714D01*
X185752500Y-67143333D01*
X185704880Y-67238571D01*
X185704880Y-67333809D01*
X186181071Y-67429047D01*
X185419166Y-67095714D02*
X185038214Y-67095714D01*
X185276309Y-66762380D02*
X185276309Y-67619523D01*
X185228690Y-67714761D01*
X185133452Y-67762380D01*
X185038214Y-67762380D01*
X184085833Y-67095714D02*
X183704880Y-67095714D01*
X183942976Y-66762380D02*
X183942976Y-67619523D01*
X183895357Y-67714761D01*
X183800119Y-67762380D01*
X183704880Y-67762380D01*
X183228690Y-67762380D02*
X183323928Y-67714761D01*
X183371547Y-67667142D01*
X183419166Y-67571904D01*
X183419166Y-67286190D01*
X183371547Y-67190952D01*
X183323928Y-67143333D01*
X183228690Y-67095714D01*
X183085833Y-67095714D01*
X182990595Y-67143333D01*
X182942976Y-67190952D01*
X182895357Y-67286190D01*
X182895357Y-67571904D01*
X182942976Y-67667142D01*
X182990595Y-67714761D01*
X183085833Y-67762380D01*
X183228690Y-67762380D01*
X181704880Y-67762380D02*
X181704880Y-67095714D01*
X181704880Y-67190952D02*
X181657261Y-67143333D01*
X181562023Y-67095714D01*
X181419166Y-67095714D01*
X181323928Y-67143333D01*
X181276309Y-67238571D01*
X181276309Y-67762380D01*
X181276309Y-67238571D02*
X181228690Y-67143333D01*
X181133452Y-67095714D01*
X180990595Y-67095714D01*
X180895357Y-67143333D01*
X180847738Y-67238571D01*
X180847738Y-67762380D01*
X179942976Y-67762380D02*
X179942976Y-67238571D01*
X179990595Y-67143333D01*
X180085833Y-67095714D01*
X180276309Y-67095714D01*
X180371547Y-67143333D01*
X179942976Y-67714761D02*
X180038214Y-67762380D01*
X180276309Y-67762380D01*
X180371547Y-67714761D01*
X180419166Y-67619523D01*
X180419166Y-67524285D01*
X180371547Y-67429047D01*
X180276309Y-67381428D01*
X180038214Y-67381428D01*
X179942976Y-67333809D01*
X179609642Y-67095714D02*
X179228690Y-67095714D01*
X179466785Y-66762380D02*
X179466785Y-67619523D01*
X179419166Y-67714761D01*
X179323928Y-67762380D01*
X179228690Y-67762380D01*
X178466785Y-67714761D02*
X178562023Y-67762380D01*
X178752500Y-67762380D01*
X178847738Y-67714761D01*
X178895357Y-67667142D01*
X178942976Y-67571904D01*
X178942976Y-67286190D01*
X178895357Y-67190952D01*
X178847738Y-67143333D01*
X178752500Y-67095714D01*
X178562023Y-67095714D01*
X178466785Y-67143333D01*
X178038214Y-67762380D02*
X178038214Y-66762380D01*
X177609642Y-67762380D02*
X177609642Y-67238571D01*
X177657261Y-67143333D01*
X177752500Y-67095714D01*
X177895357Y-67095714D01*
X177990595Y-67143333D01*
X178038214Y-67190952D01*
X177133452Y-67667142D02*
X177085833Y-67714761D01*
X177133452Y-67762380D01*
X177181071Y-67714761D01*
X177133452Y-67667142D01*
X177133452Y-67762380D01*
X196562023Y-68507619D02*
X196514404Y-68460000D01*
X196419166Y-68412380D01*
X196181071Y-68412380D01*
X196085833Y-68460000D01*
X196038214Y-68507619D01*
X195990595Y-68602857D01*
X195990595Y-68698095D01*
X196038214Y-68840952D01*
X196609642Y-69412380D01*
X195990595Y-69412380D01*
X195562023Y-69317142D02*
X195514404Y-69364761D01*
X195562023Y-69412380D01*
X195609642Y-69364761D01*
X195562023Y-69317142D01*
X195562023Y-69412380D01*
X193752500Y-69412380D02*
X194085833Y-68936190D01*
X194323928Y-69412380D02*
X194323928Y-68412380D01*
X193942976Y-68412380D01*
X193847738Y-68460000D01*
X193800119Y-68507619D01*
X193752500Y-68602857D01*
X193752500Y-68745714D01*
X193800119Y-68840952D01*
X193847738Y-68888571D01*
X193942976Y-68936190D01*
X194323928Y-68936190D01*
X192942976Y-69364761D02*
X193038214Y-69412380D01*
X193228690Y-69412380D01*
X193323928Y-69364761D01*
X193371547Y-69269523D01*
X193371547Y-68888571D01*
X193323928Y-68793333D01*
X193228690Y-68745714D01*
X193038214Y-68745714D01*
X192942976Y-68793333D01*
X192895357Y-68888571D01*
X192895357Y-68983809D01*
X193371547Y-69079047D01*
X192514404Y-69364761D02*
X192419166Y-69412380D01*
X192228690Y-69412380D01*
X192133452Y-69364761D01*
X192085833Y-69269523D01*
X192085833Y-69221904D01*
X192133452Y-69126666D01*
X192228690Y-69079047D01*
X192371547Y-69079047D01*
X192466785Y-69031428D01*
X192514404Y-68936190D01*
X192514404Y-68888571D01*
X192466785Y-68793333D01*
X192371547Y-68745714D01*
X192228690Y-68745714D01*
X192133452Y-68793333D01*
X191276309Y-69364761D02*
X191371547Y-69412380D01*
X191562023Y-69412380D01*
X191657261Y-69364761D01*
X191704880Y-69269523D01*
X191704880Y-68888571D01*
X191657261Y-68793333D01*
X191562023Y-68745714D01*
X191371547Y-68745714D01*
X191276309Y-68793333D01*
X191228690Y-68888571D01*
X191228690Y-68983809D01*
X191704880Y-69079047D01*
X190942976Y-68745714D02*
X190562023Y-68745714D01*
X190800119Y-68412380D02*
X190800119Y-69269523D01*
X190752500Y-69364761D01*
X190657261Y-69412380D01*
X190562023Y-69412380D01*
X189323928Y-69412380D02*
X189419166Y-69364761D01*
X189466785Y-69269523D01*
X189466785Y-68412380D01*
X188562023Y-69364761D02*
X188657261Y-69412380D01*
X188847738Y-69412380D01*
X188942976Y-69364761D01*
X188990595Y-69269523D01*
X188990595Y-68888571D01*
X188942976Y-68793333D01*
X188847738Y-68745714D01*
X188657261Y-68745714D01*
X188562023Y-68793333D01*
X188514404Y-68888571D01*
X188514404Y-68983809D01*
X188990595Y-69079047D01*
X188181071Y-68745714D02*
X187942976Y-69412380D01*
X187704880Y-68745714D01*
X186942976Y-69364761D02*
X187038214Y-69412380D01*
X187228690Y-69412380D01*
X187323928Y-69364761D01*
X187371547Y-69269523D01*
X187371547Y-68888571D01*
X187323928Y-68793333D01*
X187228690Y-68745714D01*
X187038214Y-68745714D01*
X186942976Y-68793333D01*
X186895357Y-68888571D01*
X186895357Y-68983809D01*
X187371547Y-69079047D01*
X186323928Y-69412380D02*
X186419166Y-69364761D01*
X186466785Y-69269523D01*
X186466785Y-68412380D01*
X185942976Y-69317142D02*
X185895357Y-69364761D01*
X185942976Y-69412380D01*
X185990595Y-69364761D01*
X185942976Y-69317142D01*
X185942976Y-69412380D01*
X184514404Y-68412380D02*
X184323928Y-68412380D01*
X184228690Y-68460000D01*
X184133452Y-68555238D01*
X184085833Y-68745714D01*
X184085833Y-69079047D01*
X184133452Y-69269523D01*
X184228690Y-69364761D01*
X184323928Y-69412380D01*
X184514404Y-69412380D01*
X184609642Y-69364761D01*
X184704880Y-69269523D01*
X184752500Y-69079047D01*
X184752500Y-68745714D01*
X184704880Y-68555238D01*
X184609642Y-68460000D01*
X184514404Y-68412380D01*
X183323928Y-68888571D02*
X183657261Y-68888571D01*
X183657261Y-69412380D02*
X183657261Y-68412380D01*
X183181071Y-68412380D01*
X182466785Y-68888571D02*
X182800119Y-68888571D01*
X182800119Y-69412380D02*
X182800119Y-68412380D01*
X182323928Y-68412380D01*
X181942976Y-69317142D02*
X181895357Y-69364761D01*
X181942976Y-69412380D01*
X181990595Y-69364761D01*
X181942976Y-69317142D01*
X181942976Y-69412380D01*
X181942976Y-68793333D02*
X181895357Y-68840952D01*
X181942976Y-68888571D01*
X181990595Y-68840952D01*
X181942976Y-68793333D01*
X181942976Y-68888571D01*
X180228690Y-69412380D02*
X180704880Y-69412380D01*
X180704880Y-68412380D01*
X179752500Y-69412380D02*
X179847738Y-69364761D01*
X179895357Y-69317142D01*
X179942976Y-69221904D01*
X179942976Y-68936190D01*
X179895357Y-68840952D01*
X179847738Y-68793333D01*
X179752500Y-68745714D01*
X179609642Y-68745714D01*
X179514404Y-68793333D01*
X179466785Y-68840952D01*
X179419166Y-68936190D01*
X179419166Y-69221904D01*
X179466785Y-69317142D01*
X179514404Y-69364761D01*
X179609642Y-69412380D01*
X179752500Y-69412380D01*
X179085833Y-68745714D02*
X178895357Y-69412380D01*
X178704880Y-68936190D01*
X178514404Y-69412380D01*
X178323928Y-68745714D01*
X177895357Y-69364761D02*
X177895357Y-69412380D01*
X177942976Y-69507619D01*
X177990595Y-69555238D01*
X176514404Y-68412380D02*
X176323928Y-68412380D01*
X176228690Y-68460000D01*
X176133452Y-68555238D01*
X176085833Y-68745714D01*
X176085833Y-69079047D01*
X176133452Y-69269523D01*
X176228690Y-69364761D01*
X176323928Y-69412380D01*
X176514404Y-69412380D01*
X176609642Y-69364761D01*
X176704880Y-69269523D01*
X176752500Y-69079047D01*
X176752500Y-68745714D01*
X176704880Y-68555238D01*
X176609642Y-68460000D01*
X176514404Y-68412380D01*
X175657261Y-69412380D02*
X175657261Y-68412380D01*
X175085833Y-69412380D01*
X175085833Y-68412380D01*
X174609642Y-69317142D02*
X174562023Y-69364761D01*
X174609642Y-69412380D01*
X174657261Y-69364761D01*
X174609642Y-69317142D01*
X174609642Y-69412380D01*
X174609642Y-68793333D02*
X174562023Y-68840952D01*
X174609642Y-68888571D01*
X174657261Y-68840952D01*
X174609642Y-68793333D01*
X174609642Y-68888571D01*
X173371547Y-69412380D02*
X173371547Y-68412380D01*
X173371547Y-68888571D02*
X172800119Y-68888571D01*
X172800119Y-69412380D02*
X172800119Y-68412380D01*
X172323928Y-69412380D02*
X172323928Y-68745714D01*
X172323928Y-68412380D02*
X172371547Y-68460000D01*
X172323928Y-68507619D01*
X172276309Y-68460000D01*
X172323928Y-68412380D01*
X172323928Y-68507619D01*
X171419166Y-68745714D02*
X171419166Y-69555238D01*
X171466785Y-69650476D01*
X171514404Y-69698095D01*
X171609642Y-69745714D01*
X171752500Y-69745714D01*
X171847738Y-69698095D01*
X171419166Y-69364761D02*
X171514404Y-69412380D01*
X171704880Y-69412380D01*
X171800119Y-69364761D01*
X171847738Y-69317142D01*
X171895357Y-69221904D01*
X171895357Y-68936190D01*
X171847738Y-68840952D01*
X171800119Y-68793333D01*
X171704880Y-68745714D01*
X171514404Y-68745714D01*
X171419166Y-68793333D01*
X170942976Y-69412380D02*
X170942976Y-68412380D01*
X170514404Y-69412380D02*
X170514404Y-68888571D01*
X170562023Y-68793333D01*
X170657261Y-68745714D01*
X170800119Y-68745714D01*
X170895357Y-68793333D01*
X170942976Y-68840952D01*
X196609642Y-70062380D02*
X195990595Y-70062380D01*
X196323928Y-70443333D01*
X196181071Y-70443333D01*
X196085833Y-70490952D01*
X196038214Y-70538571D01*
X195990595Y-70633809D01*
X195990595Y-70871904D01*
X196038214Y-70967142D01*
X196085833Y-71014761D01*
X196181071Y-71062380D01*
X196466785Y-71062380D01*
X196562023Y-71014761D01*
X196609642Y-70967142D01*
X195562023Y-70967142D02*
X195514404Y-71014761D01*
X195562023Y-71062380D01*
X195609642Y-71014761D01*
X195562023Y-70967142D01*
X195562023Y-71062380D01*
X193752500Y-71062380D02*
X194085833Y-70586190D01*
X194323928Y-71062380D02*
X194323928Y-70062380D01*
X193942976Y-70062380D01*
X193847738Y-70110000D01*
X193800119Y-70157619D01*
X193752500Y-70252857D01*
X193752500Y-70395714D01*
X193800119Y-70490952D01*
X193847738Y-70538571D01*
X193942976Y-70586190D01*
X194323928Y-70586190D01*
X192942976Y-71014761D02*
X193038214Y-71062380D01*
X193228690Y-71062380D01*
X193323928Y-71014761D01*
X193371547Y-70919523D01*
X193371547Y-70538571D01*
X193323928Y-70443333D01*
X193228690Y-70395714D01*
X193038214Y-70395714D01*
X192942976Y-70443333D01*
X192895357Y-70538571D01*
X192895357Y-70633809D01*
X193371547Y-70729047D01*
X192514404Y-71014761D02*
X192419166Y-71062380D01*
X192228690Y-71062380D01*
X192133452Y-71014761D01*
X192085833Y-70919523D01*
X192085833Y-70871904D01*
X192133452Y-70776666D01*
X192228690Y-70729047D01*
X192371547Y-70729047D01*
X192466785Y-70681428D01*
X192514404Y-70586190D01*
X192514404Y-70538571D01*
X192466785Y-70443333D01*
X192371547Y-70395714D01*
X192228690Y-70395714D01*
X192133452Y-70443333D01*
X191276309Y-71014761D02*
X191371547Y-71062380D01*
X191562023Y-71062380D01*
X191657261Y-71014761D01*
X191704880Y-70919523D01*
X191704880Y-70538571D01*
X191657261Y-70443333D01*
X191562023Y-70395714D01*
X191371547Y-70395714D01*
X191276309Y-70443333D01*
X191228690Y-70538571D01*
X191228690Y-70633809D01*
X191704880Y-70729047D01*
X190800119Y-71062380D02*
X190800119Y-70395714D01*
X190800119Y-70586190D02*
X190752500Y-70490952D01*
X190704880Y-70443333D01*
X190609642Y-70395714D01*
X190514404Y-70395714D01*
X190276309Y-70395714D02*
X190038214Y-71062380D01*
X189800119Y-70395714D01*
X189038214Y-71014761D02*
X189133452Y-71062380D01*
X189323928Y-71062380D01*
X189419166Y-71014761D01*
X189466785Y-70919523D01*
X189466785Y-70538571D01*
X189419166Y-70443333D01*
X189323928Y-70395714D01*
X189133452Y-70395714D01*
X189038214Y-70443333D01*
X188990595Y-70538571D01*
X188990595Y-70633809D01*
X189466785Y-70729047D01*
X188133452Y-71062380D02*
X188133452Y-70062380D01*
X188133452Y-71014761D02*
X188228690Y-71062380D01*
X188419166Y-71062380D01*
X188514404Y-71014761D01*
X188562023Y-70967142D01*
X188609642Y-70871904D01*
X188609642Y-70586190D01*
X188562023Y-70490952D01*
X188514404Y-70443333D01*
X188419166Y-70395714D01*
X188228690Y-70395714D01*
X188133452Y-70443333D01*
X187038214Y-70395714D02*
X186657261Y-70395714D01*
X186895357Y-71062380D02*
X186895357Y-70205238D01*
X186847738Y-70110000D01*
X186752500Y-70062380D01*
X186657261Y-70062380D01*
X186181071Y-71062380D02*
X186276309Y-71014761D01*
X186323928Y-70967142D01*
X186371547Y-70871904D01*
X186371547Y-70586190D01*
X186323928Y-70490952D01*
X186276309Y-70443333D01*
X186181071Y-70395714D01*
X186038214Y-70395714D01*
X185942976Y-70443333D01*
X185895357Y-70490952D01*
X185847738Y-70586190D01*
X185847738Y-70871904D01*
X185895357Y-70967142D01*
X185942976Y-71014761D01*
X186038214Y-71062380D01*
X186181071Y-71062380D01*
X185419166Y-71062380D02*
X185419166Y-70395714D01*
X185419166Y-70586190D02*
X185371547Y-70490952D01*
X185323928Y-70443333D01*
X185228690Y-70395714D01*
X185133452Y-70395714D01*
X184181071Y-70395714D02*
X183800119Y-70395714D01*
X184038214Y-71062380D02*
X184038214Y-70205238D01*
X183990595Y-70110000D01*
X183895357Y-70062380D01*
X183800119Y-70062380D01*
X183038214Y-70395714D02*
X183038214Y-71062380D01*
X183466785Y-70395714D02*
X183466785Y-70919523D01*
X183419166Y-71014761D01*
X183323928Y-71062380D01*
X183181071Y-71062380D01*
X183085833Y-71014761D01*
X183038214Y-70967142D01*
X182704880Y-70395714D02*
X182323928Y-70395714D01*
X182562023Y-70062380D02*
X182562023Y-70919523D01*
X182514404Y-71014761D01*
X182419166Y-71062380D01*
X182323928Y-71062380D01*
X181562023Y-70395714D02*
X181562023Y-71062380D01*
X181990595Y-70395714D02*
X181990595Y-70919523D01*
X181942976Y-71014761D01*
X181847738Y-71062380D01*
X181704880Y-71062380D01*
X181609642Y-71014761D01*
X181562023Y-70967142D01*
X181085833Y-71062380D02*
X181085833Y-70395714D01*
X181085833Y-70586190D02*
X181038214Y-70490952D01*
X180990595Y-70443333D01*
X180895357Y-70395714D01*
X180800119Y-70395714D01*
X180085833Y-71014761D02*
X180181071Y-71062380D01*
X180371547Y-71062380D01*
X180466785Y-71014761D01*
X180514404Y-70919523D01*
X180514404Y-70538571D01*
X180466785Y-70443333D01*
X180371547Y-70395714D01*
X180181071Y-70395714D01*
X180085833Y-70443333D01*
X180038214Y-70538571D01*
X180038214Y-70633809D01*
X180514404Y-70729047D01*
X178419166Y-70395714D02*
X178419166Y-71062380D01*
X178847738Y-70395714D02*
X178847738Y-70919523D01*
X178800119Y-71014761D01*
X178704880Y-71062380D01*
X178562023Y-71062380D01*
X178466785Y-71014761D01*
X178419166Y-70967142D01*
X177990595Y-71014761D02*
X177895357Y-71062380D01*
X177704880Y-71062380D01*
X177609642Y-71014761D01*
X177562023Y-70919523D01*
X177562023Y-70871904D01*
X177609642Y-70776666D01*
X177704880Y-70729047D01*
X177847738Y-70729047D01*
X177942976Y-70681428D01*
X177990595Y-70586190D01*
X177990595Y-70538571D01*
X177942976Y-70443333D01*
X177847738Y-70395714D01*
X177704880Y-70395714D01*
X177609642Y-70443333D01*
X176752500Y-71014761D02*
X176847738Y-71062380D01*
X177038214Y-71062380D01*
X177133452Y-71014761D01*
X177181071Y-70919523D01*
X177181071Y-70538571D01*
X177133452Y-70443333D01*
X177038214Y-70395714D01*
X176847738Y-70395714D01*
X176752500Y-70443333D01*
X176704880Y-70538571D01*
X176704880Y-70633809D01*
X177181071Y-70729047D01*
X176276309Y-70967142D02*
X176228690Y-71014761D01*
X176276309Y-71062380D01*
X176323928Y-71014761D01*
X176276309Y-70967142D01*
X176276309Y-71062380D01*
X196085833Y-72045714D02*
X196085833Y-72712380D01*
X196323928Y-71664761D02*
X196562023Y-72379047D01*
X195942976Y-72379047D01*
X195562023Y-72617142D02*
X195514404Y-72664761D01*
X195562023Y-72712380D01*
X195609642Y-72664761D01*
X195562023Y-72617142D01*
X195562023Y-72712380D01*
X193752500Y-72712380D02*
X194085833Y-72236190D01*
X194323928Y-72712380D02*
X194323928Y-71712380D01*
X193942976Y-71712380D01*
X193847738Y-71760000D01*
X193800119Y-71807619D01*
X193752500Y-71902857D01*
X193752500Y-72045714D01*
X193800119Y-72140952D01*
X193847738Y-72188571D01*
X193942976Y-72236190D01*
X194323928Y-72236190D01*
X192942976Y-72664761D02*
X193038214Y-72712380D01*
X193228690Y-72712380D01*
X193323928Y-72664761D01*
X193371547Y-72569523D01*
X193371547Y-72188571D01*
X193323928Y-72093333D01*
X193228690Y-72045714D01*
X193038214Y-72045714D01*
X192942976Y-72093333D01*
X192895357Y-72188571D01*
X192895357Y-72283809D01*
X193371547Y-72379047D01*
X192514404Y-72664761D02*
X192419166Y-72712380D01*
X192228690Y-72712380D01*
X192133452Y-72664761D01*
X192085833Y-72569523D01*
X192085833Y-72521904D01*
X192133452Y-72426666D01*
X192228690Y-72379047D01*
X192371547Y-72379047D01*
X192466785Y-72331428D01*
X192514404Y-72236190D01*
X192514404Y-72188571D01*
X192466785Y-72093333D01*
X192371547Y-72045714D01*
X192228690Y-72045714D01*
X192133452Y-72093333D01*
X191276309Y-72664761D02*
X191371547Y-72712380D01*
X191562023Y-72712380D01*
X191657261Y-72664761D01*
X191704880Y-72569523D01*
X191704880Y-72188571D01*
X191657261Y-72093333D01*
X191562023Y-72045714D01*
X191371547Y-72045714D01*
X191276309Y-72093333D01*
X191228690Y-72188571D01*
X191228690Y-72283809D01*
X191704880Y-72379047D01*
X190800119Y-72712380D02*
X190800119Y-72045714D01*
X190800119Y-72236190D02*
X190752500Y-72140952D01*
X190704880Y-72093333D01*
X190609642Y-72045714D01*
X190514404Y-72045714D01*
X190276309Y-72045714D02*
X190038214Y-72712380D01*
X189800119Y-72045714D01*
X189038214Y-72664761D02*
X189133452Y-72712380D01*
X189323928Y-72712380D01*
X189419166Y-72664761D01*
X189466785Y-72569523D01*
X189466785Y-72188571D01*
X189419166Y-72093333D01*
X189323928Y-72045714D01*
X189133452Y-72045714D01*
X189038214Y-72093333D01*
X188990595Y-72188571D01*
X188990595Y-72283809D01*
X189466785Y-72379047D01*
X188133452Y-72712380D02*
X188133452Y-71712380D01*
X188133452Y-72664761D02*
X188228690Y-72712380D01*
X188419166Y-72712380D01*
X188514404Y-72664761D01*
X188562023Y-72617142D01*
X188609642Y-72521904D01*
X188609642Y-72236190D01*
X188562023Y-72140952D01*
X188514404Y-72093333D01*
X188419166Y-72045714D01*
X188228690Y-72045714D01*
X188133452Y-72093333D01*
X187038214Y-72045714D02*
X186657261Y-72045714D01*
X186895357Y-72712380D02*
X186895357Y-71855238D01*
X186847738Y-71760000D01*
X186752500Y-71712380D01*
X186657261Y-71712380D01*
X186181071Y-72712380D02*
X186276309Y-72664761D01*
X186323928Y-72617142D01*
X186371547Y-72521904D01*
X186371547Y-72236190D01*
X186323928Y-72140952D01*
X186276309Y-72093333D01*
X186181071Y-72045714D01*
X186038214Y-72045714D01*
X185942976Y-72093333D01*
X185895357Y-72140952D01*
X185847738Y-72236190D01*
X185847738Y-72521904D01*
X185895357Y-72617142D01*
X185942976Y-72664761D01*
X186038214Y-72712380D01*
X186181071Y-72712380D01*
X185419166Y-72712380D02*
X185419166Y-72045714D01*
X185419166Y-72236190D02*
X185371547Y-72140952D01*
X185323928Y-72093333D01*
X185228690Y-72045714D01*
X185133452Y-72045714D01*
X184181071Y-72045714D02*
X183800119Y-72045714D01*
X184038214Y-72712380D02*
X184038214Y-71855238D01*
X183990595Y-71760000D01*
X183895357Y-71712380D01*
X183800119Y-71712380D01*
X183038214Y-72045714D02*
X183038214Y-72712380D01*
X183466785Y-72045714D02*
X183466785Y-72569523D01*
X183419166Y-72664761D01*
X183323928Y-72712380D01*
X183181071Y-72712380D01*
X183085833Y-72664761D01*
X183038214Y-72617142D01*
X182704880Y-72045714D02*
X182323928Y-72045714D01*
X182562023Y-71712380D02*
X182562023Y-72569523D01*
X182514404Y-72664761D01*
X182419166Y-72712380D01*
X182323928Y-72712380D01*
X181562023Y-72045714D02*
X181562023Y-72712380D01*
X181990595Y-72045714D02*
X181990595Y-72569523D01*
X181942976Y-72664761D01*
X181847738Y-72712380D01*
X181704880Y-72712380D01*
X181609642Y-72664761D01*
X181562023Y-72617142D01*
X181085833Y-72712380D02*
X181085833Y-72045714D01*
X181085833Y-72236190D02*
X181038214Y-72140952D01*
X180990595Y-72093333D01*
X180895357Y-72045714D01*
X180800119Y-72045714D01*
X180085833Y-72664761D02*
X180181071Y-72712380D01*
X180371547Y-72712380D01*
X180466785Y-72664761D01*
X180514404Y-72569523D01*
X180514404Y-72188571D01*
X180466785Y-72093333D01*
X180371547Y-72045714D01*
X180181071Y-72045714D01*
X180085833Y-72093333D01*
X180038214Y-72188571D01*
X180038214Y-72283809D01*
X180514404Y-72379047D01*
X178419166Y-72045714D02*
X178419166Y-72712380D01*
X178847738Y-72045714D02*
X178847738Y-72569523D01*
X178800119Y-72664761D01*
X178704880Y-72712380D01*
X178562023Y-72712380D01*
X178466785Y-72664761D01*
X178419166Y-72617142D01*
X177990595Y-72664761D02*
X177895357Y-72712380D01*
X177704880Y-72712380D01*
X177609642Y-72664761D01*
X177562023Y-72569523D01*
X177562023Y-72521904D01*
X177609642Y-72426666D01*
X177704880Y-72379047D01*
X177847738Y-72379047D01*
X177942976Y-72331428D01*
X177990595Y-72236190D01*
X177990595Y-72188571D01*
X177942976Y-72093333D01*
X177847738Y-72045714D01*
X177704880Y-72045714D01*
X177609642Y-72093333D01*
X176752500Y-72664761D02*
X176847738Y-72712380D01*
X177038214Y-72712380D01*
X177133452Y-72664761D01*
X177181071Y-72569523D01*
X177181071Y-72188571D01*
X177133452Y-72093333D01*
X177038214Y-72045714D01*
X176847738Y-72045714D01*
X176752500Y-72093333D01*
X176704880Y-72188571D01*
X176704880Y-72283809D01*
X177181071Y-72379047D01*
X176276309Y-72617142D02*
X176228690Y-72664761D01*
X176276309Y-72712380D01*
X176323928Y-72664761D01*
X176276309Y-72617142D01*
X176276309Y-72712380D01*
M02*
