%TF.GenerationSoftware,KiCad,Pcbnew,(5.1.9)-1*%
%TF.CreationDate,2021-10-31T12:04:18+08:00*%
%TF.ProjectId,HCT145Interposer,48435431-3435-4496-9e74-6572706f7365,rev?*%
%TF.SameCoordinates,Original*%
%TF.FileFunction,Soldermask,Bot*%
%TF.FilePolarity,Negative*%
%FSLAX46Y46*%
G04 Gerber Fmt 4.6, Leading zero omitted, Abs format (unit mm)*
G04 Created by KiCad (PCBNEW (5.1.9)-1) date 2021-10-31 12:04:18*
%MOMM*%
%LPD*%
G01*
G04 APERTURE LIST*
%ADD10O,1.700000X1.700000*%
%ADD11R,1.700000X1.700000*%
%ADD12O,1.600000X1.600000*%
%ADD13R,1.600000X1.600000*%
%ADD14C,1.600000*%
G04 APERTURE END LIST*
D10*
%TO.C,J7*%
X129540000Y-88900000D03*
X127000000Y-88900000D03*
X129540000Y-86360000D03*
X127000000Y-86360000D03*
X129540000Y-83820000D03*
X127000000Y-83820000D03*
X129540000Y-81280000D03*
D11*
X127000000Y-81280000D03*
%TD*%
D10*
%TO.C,J8*%
X120650000Y-88900000D03*
X118110000Y-88900000D03*
X120650000Y-86360000D03*
X118110000Y-86360000D03*
X120650000Y-83820000D03*
X118110000Y-83820000D03*
X120650000Y-81280000D03*
D11*
X118110000Y-81280000D03*
%TD*%
D12*
%TO.C,U1*%
X132080000Y-97790000D03*
X124460000Y-113030000D03*
X132080000Y-100330000D03*
X124460000Y-110490000D03*
X132080000Y-102870000D03*
X124460000Y-107950000D03*
X132080000Y-105410000D03*
X124460000Y-105410000D03*
X132080000Y-107950000D03*
X124460000Y-102870000D03*
X132080000Y-110490000D03*
X124460000Y-100330000D03*
X132080000Y-113030000D03*
D13*
X124460000Y-97790000D03*
%TD*%
D12*
%TO.C,U2*%
X109220000Y-93980000D03*
X101600000Y-116840000D03*
X109220000Y-96520000D03*
X101600000Y-114300000D03*
X109220000Y-99060000D03*
X101600000Y-111760000D03*
X109220000Y-101600000D03*
X101600000Y-109220000D03*
X109220000Y-104140000D03*
X101600000Y-106680000D03*
X109220000Y-106680000D03*
X101600000Y-104140000D03*
X109220000Y-109220000D03*
X101600000Y-101600000D03*
X109220000Y-111760000D03*
X101600000Y-99060000D03*
X109220000Y-114300000D03*
X101600000Y-96520000D03*
X109220000Y-116840000D03*
D13*
X101600000Y-93980000D03*
%TD*%
D12*
%TO.C,J3*%
X121920000Y-93980000D03*
X114300000Y-109220000D03*
X121920000Y-96520000D03*
X114300000Y-106680000D03*
X121920000Y-99060000D03*
X114300000Y-104140000D03*
X121920000Y-101600000D03*
X114300000Y-101600000D03*
X121920000Y-104140000D03*
X114300000Y-99060000D03*
X121920000Y-106680000D03*
X114300000Y-96520000D03*
X121920000Y-109220000D03*
D13*
X114300000Y-93980000D03*
%TD*%
D14*
%TO.C,C1*%
X125730000Y-93980000D03*
X130730000Y-93980000D03*
%TD*%
%TO.C,C2*%
X110410000Y-90170000D03*
X105410000Y-90170000D03*
%TD*%
D11*
%TO.C,J1*%
X101600000Y-90170000D03*
%TD*%
M02*
