%TF.GenerationSoftware,KiCad,Pcbnew,(5.1.7)-1*%
%TF.CreationDate,2021-10-25T18:28:30+08:00*%
%TF.ProjectId,HCT145Interposer,48435431-3435-4496-9e74-6572706f7365,rev?*%
%TF.SameCoordinates,Original*%
%TF.FileFunction,Copper,L2,Bot*%
%TF.FilePolarity,Positive*%
%FSLAX46Y46*%
G04 Gerber Fmt 4.6, Leading zero omitted, Abs format (unit mm)*
G04 Created by KiCad (PCBNEW (5.1.7)-1) date 2021-10-25 18:28:30*
%MOMM*%
%LPD*%
G01*
G04 APERTURE LIST*
%TA.AperFunction,ComponentPad*%
%ADD10O,1.700000X1.700000*%
%TD*%
%TA.AperFunction,ComponentPad*%
%ADD11R,1.700000X1.700000*%
%TD*%
%TA.AperFunction,ComponentPad*%
%ADD12O,1.600000X1.600000*%
%TD*%
%TA.AperFunction,ComponentPad*%
%ADD13R,1.600000X1.600000*%
%TD*%
%TA.AperFunction,ComponentPad*%
%ADD14C,1.600000*%
%TD*%
%TA.AperFunction,ViaPad*%
%ADD15C,1.000000*%
%TD*%
%TA.AperFunction,ViaPad*%
%ADD16C,0.800000*%
%TD*%
%TA.AperFunction,Conductor*%
%ADD17C,0.250000*%
%TD*%
%TA.AperFunction,Conductor*%
%ADD18C,1.600000*%
%TD*%
%TA.AperFunction,Conductor*%
%ADD19C,2.000000*%
%TD*%
%TA.AperFunction,Conductor*%
%ADD20C,0.254000*%
%TD*%
%TA.AperFunction,Conductor*%
%ADD21C,0.100000*%
%TD*%
G04 APERTURE END LIST*
D10*
%TO.P,J7,8*%
%TO.N,GATE3_125_OUT*%
X129540000Y-88900000D03*
%TO.P,J7,7*%
%TO.N,GATE3_OUT*%
X127000000Y-88900000D03*
%TO.P,J7,6*%
%TO.N,GATE2_125_OUT*%
X129540000Y-86360000D03*
%TO.P,J7,5*%
%TO.N,GATE2_OUT*%
X127000000Y-86360000D03*
%TO.P,J7,4*%
%TO.N,GATE1_125_OUT*%
X129540000Y-83820000D03*
%TO.P,J7,3*%
%TO.N,GATE1_OUT*%
X127000000Y-83820000D03*
%TO.P,J7,2*%
%TO.N,GATE0_125_OUT*%
X129540000Y-81280000D03*
D11*
%TO.P,J7,1*%
%TO.N,GATE0_OUT*%
X127000000Y-81280000D03*
%TD*%
D10*
%TO.P,J8,8*%
%TO.N,GATE3_IN*%
X120650000Y-88900000D03*
%TO.P,J8,7*%
%TO.N,GATE3_245_OUT*%
X118110000Y-88900000D03*
%TO.P,J8,6*%
%TO.N,GATE2_IN*%
X120650000Y-86360000D03*
%TO.P,J8,5*%
%TO.N,GATE2_245_OUT*%
X118110000Y-86360000D03*
%TO.P,J8,4*%
%TO.N,GATE1_IN*%
X120650000Y-83820000D03*
%TO.P,J8,3*%
%TO.N,GATE1_245_OUT*%
X118110000Y-83820000D03*
%TO.P,J8,2*%
%TO.N,GATE0_IN*%
X120650000Y-81280000D03*
D11*
%TO.P,J8,1*%
%TO.N,GATE0_245_OUT*%
X118110000Y-81280000D03*
%TD*%
D12*
%TO.P,U1,14*%
%TO.N,+5V*%
X132080000Y-97790000D03*
%TO.P,U1,7*%
%TO.N,GND*%
X124460000Y-113030000D03*
%TO.P,U1,13*%
%TO.N,GATE3_~OE*%
X132080000Y-100330000D03*
%TO.P,U1,6*%
%TO.N,GATE1_125_OUT*%
X124460000Y-110490000D03*
%TO.P,U1,12*%
%TO.N,GATE3_IN*%
X132080000Y-102870000D03*
%TO.P,U1,5*%
%TO.N,GATE1_IN*%
X124460000Y-107950000D03*
%TO.P,U1,11*%
%TO.N,GATE3_125_OUT*%
X132080000Y-105410000D03*
%TO.P,U1,4*%
%TO.N,GATE1_~OE*%
X124460000Y-105410000D03*
%TO.P,U1,10*%
%TO.N,GATE2_~OE*%
X132080000Y-107950000D03*
%TO.P,U1,3*%
%TO.N,GATE0_125_OUT*%
X124460000Y-102870000D03*
%TO.P,U1,9*%
%TO.N,GATE2_IN*%
X132080000Y-110490000D03*
%TO.P,U1,2*%
%TO.N,GATE0_IN*%
X124460000Y-100330000D03*
%TO.P,U1,8*%
%TO.N,GATE2_125_OUT*%
X132080000Y-113030000D03*
D13*
%TO.P,U1,1*%
%TO.N,GATE0_~OE*%
X124460000Y-97790000D03*
%TD*%
D12*
%TO.P,U2,20*%
%TO.N,+3V3*%
X109220000Y-93980000D03*
%TO.P,U2,10*%
%TO.N,GND*%
X101600000Y-116840000D03*
%TO.P,U2,19*%
X109220000Y-96520000D03*
%TO.P,U2,9*%
X101600000Y-114300000D03*
%TO.P,U2,18*%
%TO.N,GATE0_245_OUT*%
X109220000Y-99060000D03*
%TO.P,U2,8*%
%TO.N,GND*%
X101600000Y-111760000D03*
%TO.P,U2,17*%
%TO.N,GATE1_245_OUT*%
X109220000Y-101600000D03*
%TO.P,U2,7*%
%TO.N,GND*%
X101600000Y-109220000D03*
%TO.P,U2,16*%
%TO.N,GATE2_245_OUT*%
X109220000Y-104140000D03*
%TO.P,U2,6*%
%TO.N,GND*%
X101600000Y-106680000D03*
%TO.P,U2,15*%
%TO.N,GATE3_245_OUT*%
X109220000Y-106680000D03*
%TO.P,U2,5*%
%TO.N,GATE3_OUT*%
X101600000Y-104140000D03*
%TO.P,U2,14*%
%TO.N,Net-(U2-Pad14)*%
X109220000Y-109220000D03*
%TO.P,U2,4*%
%TO.N,GATE2_OUT*%
X101600000Y-101600000D03*
%TO.P,U2,13*%
%TO.N,Net-(U2-Pad13)*%
X109220000Y-111760000D03*
%TO.P,U2,3*%
%TO.N,GATE1_OUT*%
X101600000Y-99060000D03*
%TO.P,U2,12*%
%TO.N,Net-(U2-Pad12)*%
X109220000Y-114300000D03*
%TO.P,U2,2*%
%TO.N,GATE0_OUT*%
X101600000Y-96520000D03*
%TO.P,U2,11*%
%TO.N,Net-(U2-Pad11)*%
X109220000Y-116840000D03*
D13*
%TO.P,U2,1*%
%TO.N,+3V3*%
X101600000Y-93980000D03*
%TD*%
D12*
%TO.P,J3,14*%
%TO.N,+5V*%
X121920000Y-93980000D03*
%TO.P,J3,7*%
%TO.N,GND*%
X114300000Y-109220000D03*
%TO.P,J3,13*%
%TO.N,GATE3_~OE*%
X121920000Y-96520000D03*
%TO.P,J3,6*%
%TO.N,GATE1_OUT*%
X114300000Y-106680000D03*
%TO.P,J3,12*%
%TO.N,GATE3_IN*%
X121920000Y-99060000D03*
%TO.P,J3,5*%
%TO.N,GATE1_IN*%
X114300000Y-104140000D03*
%TO.P,J3,11*%
%TO.N,GATE3_OUT*%
X121920000Y-101600000D03*
%TO.P,J3,4*%
%TO.N,GATE1_~OE*%
X114300000Y-101600000D03*
%TO.P,J3,10*%
%TO.N,GATE2_~OE*%
X121920000Y-104140000D03*
%TO.P,J3,3*%
%TO.N,GATE0_OUT*%
X114300000Y-99060000D03*
%TO.P,J3,9*%
%TO.N,GATE2_IN*%
X121920000Y-106680000D03*
%TO.P,J3,2*%
%TO.N,GATE0_IN*%
X114300000Y-96520000D03*
%TO.P,J3,8*%
%TO.N,GATE2_OUT*%
X121920000Y-109220000D03*
D13*
%TO.P,J3,1*%
%TO.N,GATE0_~OE*%
X114300000Y-93980000D03*
%TD*%
D14*
%TO.P,C1,1*%
%TO.N,+5V*%
X125730000Y-93980000D03*
%TO.P,C1,2*%
%TO.N,GND*%
X130730000Y-93980000D03*
%TD*%
%TO.P,C2,2*%
%TO.N,GND*%
X110410000Y-90170000D03*
%TO.P,C2,1*%
%TO.N,+3V3*%
X105410000Y-90170000D03*
%TD*%
D11*
%TO.P,J1,1*%
%TO.N,+3V3*%
X101600000Y-90170000D03*
%TD*%
D15*
%TO.N,GND*%
X107950000Y-90805000D03*
X107950000Y-88900000D03*
X112395000Y-88900000D03*
X104140000Y-96520000D03*
X106045000Y-96520000D03*
X106045000Y-94615000D03*
X104140000Y-92710000D03*
X104140000Y-94615000D03*
D16*
%TO.N,GATE3_IN*%
X118110000Y-98425000D03*
%TO.N,GATE1_IN*%
X120650000Y-102870000D03*
%TO.N,GATE3_OUT*%
X125730000Y-101600000D03*
X103505000Y-99060000D03*
%TO.N,GATE1_~OE*%
X117602000Y-105410000D03*
X117602000Y-102870000D03*
%TO.N,GATE0_OUT*%
X118745000Y-91440000D03*
X124333000Y-89408000D03*
%TO.N,GATE3_125_OUT*%
X127725010Y-101600000D03*
%TO.N,GATE1_125_OUT*%
X129032000Y-110490000D03*
%TO.N,GATE0_125_OUT*%
X130265000Y-105409986D03*
%TD*%
D17*
%TO.N,GND*%
X105410000Y-107950000D02*
X110490000Y-107950000D01*
X105410000Y-110490000D02*
X110490000Y-110490000D01*
X105410000Y-113030000D02*
X110490000Y-113030000D01*
D18*
X124460000Y-113030000D02*
X121285000Y-113030000D01*
X101600000Y-116840000D02*
X103505000Y-116840000D01*
D17*
X103505000Y-116840000D02*
X105410000Y-116840000D01*
D18*
X114300000Y-109220000D02*
X114300000Y-110490000D01*
X114300000Y-109220000D02*
X113030000Y-110490000D01*
D19*
X110410000Y-90170000D02*
X109220000Y-90170000D01*
D18*
X110410000Y-90170000D02*
X109220000Y-88980000D01*
X110410000Y-90170000D02*
X110410000Y-88980000D01*
D19*
X110410000Y-90170000D02*
X111125000Y-89535000D01*
D18*
X113538000Y-109220000D02*
X112268000Y-107950000D01*
X114300000Y-109220000D02*
X113538000Y-109220000D01*
X114808000Y-109728000D02*
X116078000Y-109728000D01*
X114300000Y-109220000D02*
X114808000Y-109728000D01*
X124460000Y-113030000D02*
X123698000Y-113030000D01*
X102362000Y-116840000D02*
X103632000Y-115570000D01*
X101600000Y-116840000D02*
X102362000Y-116840000D01*
D17*
X105410000Y-115570000D02*
X110490000Y-115570000D01*
X105410000Y-116840000D02*
X105410000Y-115570000D01*
X105410000Y-115570000D02*
X105410000Y-107950000D01*
D18*
X123698000Y-113030000D02*
X122428000Y-111760000D01*
X124460000Y-113030000D02*
X125095000Y-113030000D01*
X125095000Y-113030000D02*
X125730000Y-112395000D01*
X124460000Y-113030000D02*
X126365000Y-113030000D01*
X124460000Y-113030000D02*
X125730000Y-114300000D01*
X124460000Y-113030000D02*
X124460000Y-114935000D01*
X124460000Y-113030000D02*
X123190000Y-114300000D01*
D17*
%TO.N,GATE1_OUT*%
X125476000Y-90043000D02*
X125476000Y-85344000D01*
X123190000Y-92329000D02*
X125476000Y-90043000D01*
X122555000Y-107950000D02*
X123190000Y-107315000D01*
X125476000Y-85344000D02*
X127000000Y-83820000D01*
X115570000Y-107950000D02*
X122555000Y-107950000D01*
X123190000Y-107315000D02*
X123190000Y-92329000D01*
X114300000Y-106680000D02*
X115570000Y-107950000D01*
%TO.N,GATE3_IN*%
X120650000Y-90805000D02*
X120650000Y-88900000D01*
X118364000Y-93091000D02*
X120650000Y-90805000D01*
X118364000Y-98171000D02*
X118364000Y-93091000D01*
X118110000Y-98425000D02*
X118364000Y-98171000D01*
%TO.N,GATE1_IN*%
X123190000Y-90805000D02*
X123190000Y-86360000D01*
X120396000Y-93599000D02*
X123190000Y-90805000D01*
X123190000Y-86360000D02*
X120650000Y-83820000D01*
X120396000Y-102616000D02*
X120396000Y-93599000D01*
X120650000Y-102870000D02*
X120396000Y-102616000D01*
%TO.N,GATE3_OUT*%
X125984000Y-96520000D02*
X125984000Y-101346000D01*
X124142500Y-94678500D02*
X125984000Y-96520000D01*
X125984000Y-101346000D02*
X125730000Y-101600000D01*
X124142500Y-93027500D02*
X124142500Y-94678500D01*
X127000000Y-90170000D02*
X124142500Y-93027500D01*
X127000000Y-88900000D02*
X127000000Y-90170000D01*
X103505000Y-102235000D02*
X101600000Y-104140000D01*
X103505000Y-99060000D02*
X103505000Y-102235000D01*
%TO.N,GATE1_~OE*%
X117602000Y-105410000D02*
X117602000Y-102870000D01*
%TO.N,GATE0_OUT*%
X127000000Y-81280000D02*
X125900000Y-81280000D01*
X125900000Y-81280000D02*
X124333000Y-82847000D01*
X124333000Y-82847000D02*
X124333000Y-89408000D01*
X117348000Y-96012000D02*
X114300000Y-99060000D01*
X117348000Y-92837000D02*
X117348000Y-96012000D01*
X118745000Y-91440000D02*
X117348000Y-92837000D01*
%TO.N,GATE2_IN*%
X120650000Y-106680000D02*
X121920000Y-106680000D01*
X119380000Y-93345000D02*
X119380000Y-105410000D01*
X122174000Y-90551000D02*
X119380000Y-93345000D01*
X119380000Y-105410000D02*
X120650000Y-106680000D01*
X122174000Y-87884000D02*
X122174000Y-90551000D01*
X120650000Y-86360000D02*
X122174000Y-87884000D01*
%TO.N,GATE0_IN*%
X115507205Y-96520000D02*
X114300000Y-96520000D01*
X116586000Y-95441205D02*
X115507205Y-96520000D01*
X116586000Y-92327590D02*
X116586000Y-95441205D01*
X119285001Y-89628589D02*
X116586000Y-92327590D01*
X119285001Y-82644999D02*
X119285001Y-89628589D01*
X120650000Y-81280000D02*
X119285001Y-82644999D01*
%TO.N,GATE2_OUT*%
X125476000Y-109220000D02*
X121920000Y-109220000D01*
X126492000Y-108204000D02*
X125476000Y-109220000D01*
X126746000Y-102870000D02*
X126492000Y-103124000D01*
X126746000Y-95377000D02*
X126746000Y-102870000D01*
X127000000Y-95123000D02*
X126746000Y-95377000D01*
X127000000Y-91440000D02*
X127000000Y-95123000D01*
X128270000Y-90170000D02*
X127000000Y-91440000D01*
X126492000Y-103124000D02*
X126492000Y-108204000D01*
X128270000Y-87630000D02*
X128270000Y-90170000D01*
X127000000Y-86360000D02*
X128270000Y-87630000D01*
%TO.N,GATE3_125_OUT*%
X127725010Y-91985695D02*
X129540000Y-90170705D01*
X127725010Y-101600000D02*
X127725010Y-91985695D01*
X129540000Y-90170705D02*
X129540000Y-88900000D01*
%TO.N,GATE2_125_OUT*%
X129286000Y-113030000D02*
X132080000Y-113030000D01*
X127762000Y-103886000D02*
X127762000Y-111506000D01*
X128778000Y-102870000D02*
X127762000Y-103886000D01*
X128524000Y-96266000D02*
X128778000Y-96520000D01*
X127762000Y-111506000D02*
X129286000Y-113030000D01*
X128778000Y-96520000D02*
X128778000Y-102870000D01*
X128524000Y-92456000D02*
X128524000Y-96266000D01*
X131064000Y-89916000D02*
X128524000Y-92456000D01*
X131064000Y-87884000D02*
X131064000Y-89916000D01*
X129540000Y-86360000D02*
X131064000Y-87884000D01*
%TO.N,GATE1_125_OUT*%
X131826000Y-86106000D02*
X129540000Y-83820000D01*
X131826000Y-90424000D02*
X131826000Y-86106000D01*
X129286000Y-95123000D02*
X129286000Y-92964000D01*
X129540000Y-95377000D02*
X129286000Y-95123000D01*
X129540000Y-103632000D02*
X129540000Y-95377000D01*
X129286000Y-92964000D02*
X131826000Y-90424000D01*
X129032000Y-104140000D02*
X129540000Y-103632000D01*
X129032000Y-110490000D02*
X129032000Y-104140000D01*
%TO.N,GATE0_125_OUT*%
X130556000Y-105118986D02*
X130265000Y-105409986D01*
X130556000Y-97028000D02*
X130556000Y-105118986D01*
X132588000Y-94996000D02*
X130556000Y-97028000D01*
X132588000Y-84328000D02*
X132588000Y-94996000D01*
X129540000Y-81280000D02*
X132588000Y-84328000D01*
%TO.N,GATE3_245_OUT*%
X112776000Y-103124000D02*
X109220000Y-106680000D01*
X112776000Y-96139000D02*
X112776000Y-103124000D01*
X113665000Y-95250000D02*
X112776000Y-96139000D01*
X115316000Y-95250000D02*
X113665000Y-95250000D01*
X115824000Y-94742000D02*
X115316000Y-95250000D01*
X115824000Y-91694000D02*
X115824000Y-94742000D01*
X118110000Y-89408000D02*
X115824000Y-91694000D01*
X118110000Y-88900000D02*
X118110000Y-89408000D01*
%TO.N,GATE2_245_OUT*%
X111760000Y-101600000D02*
X109220000Y-104140000D01*
X111760000Y-93980000D02*
X111760000Y-101600000D01*
X116586000Y-89154000D02*
X111760000Y-93980000D01*
X116586000Y-87884000D02*
X116586000Y-89154000D01*
X118110000Y-86360000D02*
X116586000Y-87884000D01*
%TO.N,GATE1_245_OUT*%
X110744000Y-93726000D02*
X110744000Y-100076000D01*
X110744000Y-100076000D02*
X109220000Y-101600000D01*
X115824000Y-88646000D02*
X110744000Y-93726000D01*
X115824000Y-86106000D02*
X115824000Y-88646000D01*
X118110000Y-83820000D02*
X115824000Y-86106000D01*
%TO.N,GATE0_245_OUT*%
X108585000Y-99060000D02*
X109220000Y-99060000D01*
X107315000Y-97790000D02*
X108585000Y-99060000D01*
X108712000Y-92202000D02*
X107315000Y-93599000D01*
X115062000Y-88138000D02*
X110998000Y-92202000D01*
X110998000Y-92202000D02*
X108712000Y-92202000D01*
X115062000Y-84328000D02*
X115062000Y-88138000D01*
X107315000Y-93599000D02*
X107315000Y-97790000D01*
X118110000Y-81280000D02*
X115062000Y-84328000D01*
%TD*%
D20*
%TO.N,GND*%
X111845000Y-90280199D02*
X111845000Y-90028665D01*
X111789853Y-89751426D01*
X111681680Y-89490273D01*
X111524637Y-89255241D01*
X111324759Y-89055363D01*
X111089727Y-88898320D01*
X110828574Y-88790147D01*
X110551335Y-88735000D01*
X110268665Y-88735000D01*
X109991426Y-88790147D01*
X109730273Y-88898320D01*
X109495241Y-89055363D01*
X109295363Y-89255241D01*
X109138320Y-89490273D01*
X109030147Y-89751426D01*
X108975000Y-90028665D01*
X108975000Y-90311335D01*
X109030147Y-90588574D01*
X109138320Y-90849727D01*
X109295363Y-91084759D01*
X109495241Y-91284637D01*
X109730273Y-91441680D01*
X109731046Y-91442000D01*
X108749322Y-91442000D01*
X108711999Y-91438324D01*
X108674676Y-91442000D01*
X108674667Y-91442000D01*
X108563014Y-91452997D01*
X108419753Y-91496454D01*
X108287724Y-91567026D01*
X108171999Y-91661999D01*
X108148201Y-91690997D01*
X106804003Y-93035196D01*
X106774999Y-93058999D01*
X106730694Y-93112985D01*
X106680026Y-93174724D01*
X106645143Y-93239985D01*
X106609454Y-93306754D01*
X106565997Y-93450015D01*
X106555000Y-93561668D01*
X106555000Y-93561678D01*
X106551324Y-93599000D01*
X106555000Y-93636323D01*
X106555001Y-97752668D01*
X106551324Y-97790000D01*
X106555001Y-97827333D01*
X106565998Y-97938986D01*
X106570856Y-97955000D01*
X106609454Y-98082246D01*
X106680026Y-98214276D01*
X106747361Y-98296323D01*
X106775000Y-98330001D01*
X106803998Y-98353799D01*
X107818141Y-99367943D01*
X107840147Y-99478574D01*
X107948320Y-99739727D01*
X108105363Y-99974759D01*
X108305241Y-100174637D01*
X108537759Y-100330000D01*
X108305241Y-100485363D01*
X108105363Y-100685241D01*
X107948320Y-100920273D01*
X107840147Y-101181426D01*
X107785000Y-101458665D01*
X107785000Y-101741335D01*
X107840147Y-102018574D01*
X107948320Y-102279727D01*
X108105363Y-102514759D01*
X108305241Y-102714637D01*
X108537759Y-102870000D01*
X108305241Y-103025363D01*
X108105363Y-103225241D01*
X107948320Y-103460273D01*
X107840147Y-103721426D01*
X107785000Y-103998665D01*
X107785000Y-104281335D01*
X107840147Y-104558574D01*
X107948320Y-104819727D01*
X108105363Y-105054759D01*
X108305241Y-105254637D01*
X108537759Y-105410000D01*
X108305241Y-105565363D01*
X108105363Y-105765241D01*
X107948320Y-106000273D01*
X107840147Y-106261426D01*
X107785000Y-106538665D01*
X107785000Y-106821335D01*
X107840147Y-107098574D01*
X107948320Y-107359727D01*
X108105363Y-107594759D01*
X108305241Y-107794637D01*
X108537759Y-107950000D01*
X108305241Y-108105363D01*
X108105363Y-108305241D01*
X107948320Y-108540273D01*
X107840147Y-108801426D01*
X107785000Y-109078665D01*
X107785000Y-109361335D01*
X107840147Y-109638574D01*
X107948320Y-109899727D01*
X108105363Y-110134759D01*
X108305241Y-110334637D01*
X108537759Y-110490000D01*
X108305241Y-110645363D01*
X108105363Y-110845241D01*
X107948320Y-111080273D01*
X107840147Y-111341426D01*
X107785000Y-111618665D01*
X107785000Y-111901335D01*
X107840147Y-112178574D01*
X107948320Y-112439727D01*
X108105363Y-112674759D01*
X108305241Y-112874637D01*
X108537759Y-113030000D01*
X108305241Y-113185363D01*
X108105363Y-113385241D01*
X107948320Y-113620273D01*
X107840147Y-113881426D01*
X107785000Y-114158665D01*
X107785000Y-114441335D01*
X107840147Y-114718574D01*
X107948320Y-114979727D01*
X108105363Y-115214759D01*
X108305241Y-115414637D01*
X108537759Y-115570000D01*
X108305241Y-115725363D01*
X108105363Y-115925241D01*
X107948320Y-116160273D01*
X107840147Y-116421426D01*
X107785000Y-116698665D01*
X107785000Y-116981335D01*
X107840147Y-117258574D01*
X107919438Y-117450000D01*
X102900562Y-117450000D01*
X102979853Y-117258574D01*
X103035000Y-116981335D01*
X103035000Y-116698665D01*
X102979853Y-116421426D01*
X102871680Y-116160273D01*
X102714637Y-115925241D01*
X102514759Y-115725363D01*
X102282241Y-115570000D01*
X102514759Y-115414637D01*
X102714637Y-115214759D01*
X102871680Y-114979727D01*
X102979853Y-114718574D01*
X103035000Y-114441335D01*
X103035000Y-114158665D01*
X102979853Y-113881426D01*
X102871680Y-113620273D01*
X102714637Y-113385241D01*
X102514759Y-113185363D01*
X102282241Y-113030000D01*
X102514759Y-112874637D01*
X102714637Y-112674759D01*
X102871680Y-112439727D01*
X102979853Y-112178574D01*
X103035000Y-111901335D01*
X103035000Y-111618665D01*
X102979853Y-111341426D01*
X102871680Y-111080273D01*
X102714637Y-110845241D01*
X102514759Y-110645363D01*
X102282241Y-110490000D01*
X102514759Y-110334637D01*
X102714637Y-110134759D01*
X102871680Y-109899727D01*
X102979853Y-109638574D01*
X103035000Y-109361335D01*
X103035000Y-109078665D01*
X102979853Y-108801426D01*
X102871680Y-108540273D01*
X102714637Y-108305241D01*
X102514759Y-108105363D01*
X102282241Y-107950000D01*
X102514759Y-107794637D01*
X102714637Y-107594759D01*
X102871680Y-107359727D01*
X102979853Y-107098574D01*
X103035000Y-106821335D01*
X103035000Y-106538665D01*
X102979853Y-106261426D01*
X102871680Y-106000273D01*
X102714637Y-105765241D01*
X102514759Y-105565363D01*
X102282241Y-105410000D01*
X102514759Y-105254637D01*
X102714637Y-105054759D01*
X102871680Y-104819727D01*
X102979853Y-104558574D01*
X103035000Y-104281335D01*
X103035000Y-103998665D01*
X102998688Y-103816114D01*
X104016003Y-102798799D01*
X104045001Y-102775001D01*
X104139974Y-102659276D01*
X104210546Y-102527247D01*
X104254003Y-102383986D01*
X104265000Y-102272333D01*
X104265000Y-102272323D01*
X104268676Y-102235000D01*
X104265000Y-102197677D01*
X104265000Y-99763711D01*
X104308937Y-99719774D01*
X104422205Y-99550256D01*
X104500226Y-99361898D01*
X104540000Y-99161939D01*
X104540000Y-98958061D01*
X104500226Y-98758102D01*
X104422205Y-98569744D01*
X104308937Y-98400226D01*
X104164774Y-98256063D01*
X103995256Y-98142795D01*
X103806898Y-98064774D01*
X103606939Y-98025000D01*
X103403061Y-98025000D01*
X103203102Y-98064774D01*
X103014744Y-98142795D01*
X102845226Y-98256063D01*
X102811333Y-98289956D01*
X102714637Y-98145241D01*
X102514759Y-97945363D01*
X102282241Y-97790000D01*
X102514759Y-97634637D01*
X102714637Y-97434759D01*
X102871680Y-97199727D01*
X102979853Y-96938574D01*
X103035000Y-96661335D01*
X103035000Y-96378665D01*
X102979853Y-96101426D01*
X102871680Y-95840273D01*
X102714637Y-95605241D01*
X102516039Y-95406643D01*
X102524482Y-95405812D01*
X102644180Y-95369502D01*
X102754494Y-95310537D01*
X102851185Y-95231185D01*
X102930537Y-95134494D01*
X102989502Y-95024180D01*
X103025812Y-94904482D01*
X103038072Y-94780000D01*
X103038072Y-93180000D01*
X103025812Y-93055518D01*
X102989502Y-92935820D01*
X102930537Y-92825506D01*
X102851185Y-92728815D01*
X102754494Y-92649463D01*
X102644180Y-92590498D01*
X102524482Y-92554188D01*
X102400000Y-92541928D01*
X100990000Y-92541928D01*
X100990000Y-91658072D01*
X102450000Y-91658072D01*
X102574482Y-91645812D01*
X102694180Y-91609502D01*
X102804494Y-91550537D01*
X102901185Y-91471185D01*
X102980537Y-91374494D01*
X103039502Y-91264180D01*
X103075812Y-91144482D01*
X103088072Y-91020000D01*
X103088072Y-90028665D01*
X103975000Y-90028665D01*
X103975000Y-90311335D01*
X104030147Y-90588574D01*
X104138320Y-90849727D01*
X104295363Y-91084759D01*
X104495241Y-91284637D01*
X104730273Y-91441680D01*
X104991426Y-91549853D01*
X105268665Y-91605000D01*
X105551335Y-91605000D01*
X105828574Y-91549853D01*
X106089727Y-91441680D01*
X106324759Y-91284637D01*
X106524637Y-91084759D01*
X106681680Y-90849727D01*
X106789853Y-90588574D01*
X106845000Y-90311335D01*
X106845000Y-90028665D01*
X106789853Y-89751426D01*
X106681680Y-89490273D01*
X106524637Y-89255241D01*
X106324759Y-89055363D01*
X106089727Y-88898320D01*
X105828574Y-88790147D01*
X105551335Y-88735000D01*
X105268665Y-88735000D01*
X104991426Y-88790147D01*
X104730273Y-88898320D01*
X104495241Y-89055363D01*
X104295363Y-89255241D01*
X104138320Y-89490273D01*
X104030147Y-89751426D01*
X103975000Y-90028665D01*
X103088072Y-90028665D01*
X103088072Y-89320000D01*
X103075812Y-89195518D01*
X103039502Y-89075820D01*
X102980537Y-88965506D01*
X102901185Y-88868815D01*
X102804494Y-88789463D01*
X102694180Y-88730498D01*
X102574482Y-88694188D01*
X102450000Y-88681928D01*
X100990000Y-88681928D01*
X100990000Y-88297275D01*
X100990666Y-88290487D01*
X100995301Y-88290000D01*
X113697419Y-88290000D01*
X113725419Y-88287242D01*
X113729255Y-88287269D01*
X113738426Y-88286369D01*
X113850622Y-88274576D01*
X111845000Y-90280199D01*
%TA.AperFunction,Conductor*%
D21*
G36*
X111845000Y-90280199D02*
G01*
X111845000Y-90028665D01*
X111789853Y-89751426D01*
X111681680Y-89490273D01*
X111524637Y-89255241D01*
X111324759Y-89055363D01*
X111089727Y-88898320D01*
X110828574Y-88790147D01*
X110551335Y-88735000D01*
X110268665Y-88735000D01*
X109991426Y-88790147D01*
X109730273Y-88898320D01*
X109495241Y-89055363D01*
X109295363Y-89255241D01*
X109138320Y-89490273D01*
X109030147Y-89751426D01*
X108975000Y-90028665D01*
X108975000Y-90311335D01*
X109030147Y-90588574D01*
X109138320Y-90849727D01*
X109295363Y-91084759D01*
X109495241Y-91284637D01*
X109730273Y-91441680D01*
X109731046Y-91442000D01*
X108749322Y-91442000D01*
X108711999Y-91438324D01*
X108674676Y-91442000D01*
X108674667Y-91442000D01*
X108563014Y-91452997D01*
X108419753Y-91496454D01*
X108287724Y-91567026D01*
X108171999Y-91661999D01*
X108148201Y-91690997D01*
X106804003Y-93035196D01*
X106774999Y-93058999D01*
X106730694Y-93112985D01*
X106680026Y-93174724D01*
X106645143Y-93239985D01*
X106609454Y-93306754D01*
X106565997Y-93450015D01*
X106555000Y-93561668D01*
X106555000Y-93561678D01*
X106551324Y-93599000D01*
X106555000Y-93636323D01*
X106555001Y-97752668D01*
X106551324Y-97790000D01*
X106555001Y-97827333D01*
X106565998Y-97938986D01*
X106570856Y-97955000D01*
X106609454Y-98082246D01*
X106680026Y-98214276D01*
X106747361Y-98296323D01*
X106775000Y-98330001D01*
X106803998Y-98353799D01*
X107818141Y-99367943D01*
X107840147Y-99478574D01*
X107948320Y-99739727D01*
X108105363Y-99974759D01*
X108305241Y-100174637D01*
X108537759Y-100330000D01*
X108305241Y-100485363D01*
X108105363Y-100685241D01*
X107948320Y-100920273D01*
X107840147Y-101181426D01*
X107785000Y-101458665D01*
X107785000Y-101741335D01*
X107840147Y-102018574D01*
X107948320Y-102279727D01*
X108105363Y-102514759D01*
X108305241Y-102714637D01*
X108537759Y-102870000D01*
X108305241Y-103025363D01*
X108105363Y-103225241D01*
X107948320Y-103460273D01*
X107840147Y-103721426D01*
X107785000Y-103998665D01*
X107785000Y-104281335D01*
X107840147Y-104558574D01*
X107948320Y-104819727D01*
X108105363Y-105054759D01*
X108305241Y-105254637D01*
X108537759Y-105410000D01*
X108305241Y-105565363D01*
X108105363Y-105765241D01*
X107948320Y-106000273D01*
X107840147Y-106261426D01*
X107785000Y-106538665D01*
X107785000Y-106821335D01*
X107840147Y-107098574D01*
X107948320Y-107359727D01*
X108105363Y-107594759D01*
X108305241Y-107794637D01*
X108537759Y-107950000D01*
X108305241Y-108105363D01*
X108105363Y-108305241D01*
X107948320Y-108540273D01*
X107840147Y-108801426D01*
X107785000Y-109078665D01*
X107785000Y-109361335D01*
X107840147Y-109638574D01*
X107948320Y-109899727D01*
X108105363Y-110134759D01*
X108305241Y-110334637D01*
X108537759Y-110490000D01*
X108305241Y-110645363D01*
X108105363Y-110845241D01*
X107948320Y-111080273D01*
X107840147Y-111341426D01*
X107785000Y-111618665D01*
X107785000Y-111901335D01*
X107840147Y-112178574D01*
X107948320Y-112439727D01*
X108105363Y-112674759D01*
X108305241Y-112874637D01*
X108537759Y-113030000D01*
X108305241Y-113185363D01*
X108105363Y-113385241D01*
X107948320Y-113620273D01*
X107840147Y-113881426D01*
X107785000Y-114158665D01*
X107785000Y-114441335D01*
X107840147Y-114718574D01*
X107948320Y-114979727D01*
X108105363Y-115214759D01*
X108305241Y-115414637D01*
X108537759Y-115570000D01*
X108305241Y-115725363D01*
X108105363Y-115925241D01*
X107948320Y-116160273D01*
X107840147Y-116421426D01*
X107785000Y-116698665D01*
X107785000Y-116981335D01*
X107840147Y-117258574D01*
X107919438Y-117450000D01*
X102900562Y-117450000D01*
X102979853Y-117258574D01*
X103035000Y-116981335D01*
X103035000Y-116698665D01*
X102979853Y-116421426D01*
X102871680Y-116160273D01*
X102714637Y-115925241D01*
X102514759Y-115725363D01*
X102282241Y-115570000D01*
X102514759Y-115414637D01*
X102714637Y-115214759D01*
X102871680Y-114979727D01*
X102979853Y-114718574D01*
X103035000Y-114441335D01*
X103035000Y-114158665D01*
X102979853Y-113881426D01*
X102871680Y-113620273D01*
X102714637Y-113385241D01*
X102514759Y-113185363D01*
X102282241Y-113030000D01*
X102514759Y-112874637D01*
X102714637Y-112674759D01*
X102871680Y-112439727D01*
X102979853Y-112178574D01*
X103035000Y-111901335D01*
X103035000Y-111618665D01*
X102979853Y-111341426D01*
X102871680Y-111080273D01*
X102714637Y-110845241D01*
X102514759Y-110645363D01*
X102282241Y-110490000D01*
X102514759Y-110334637D01*
X102714637Y-110134759D01*
X102871680Y-109899727D01*
X102979853Y-109638574D01*
X103035000Y-109361335D01*
X103035000Y-109078665D01*
X102979853Y-108801426D01*
X102871680Y-108540273D01*
X102714637Y-108305241D01*
X102514759Y-108105363D01*
X102282241Y-107950000D01*
X102514759Y-107794637D01*
X102714637Y-107594759D01*
X102871680Y-107359727D01*
X102979853Y-107098574D01*
X103035000Y-106821335D01*
X103035000Y-106538665D01*
X102979853Y-106261426D01*
X102871680Y-106000273D01*
X102714637Y-105765241D01*
X102514759Y-105565363D01*
X102282241Y-105410000D01*
X102514759Y-105254637D01*
X102714637Y-105054759D01*
X102871680Y-104819727D01*
X102979853Y-104558574D01*
X103035000Y-104281335D01*
X103035000Y-103998665D01*
X102998688Y-103816114D01*
X104016003Y-102798799D01*
X104045001Y-102775001D01*
X104139974Y-102659276D01*
X104210546Y-102527247D01*
X104254003Y-102383986D01*
X104265000Y-102272333D01*
X104265000Y-102272323D01*
X104268676Y-102235000D01*
X104265000Y-102197677D01*
X104265000Y-99763711D01*
X104308937Y-99719774D01*
X104422205Y-99550256D01*
X104500226Y-99361898D01*
X104540000Y-99161939D01*
X104540000Y-98958061D01*
X104500226Y-98758102D01*
X104422205Y-98569744D01*
X104308937Y-98400226D01*
X104164774Y-98256063D01*
X103995256Y-98142795D01*
X103806898Y-98064774D01*
X103606939Y-98025000D01*
X103403061Y-98025000D01*
X103203102Y-98064774D01*
X103014744Y-98142795D01*
X102845226Y-98256063D01*
X102811333Y-98289956D01*
X102714637Y-98145241D01*
X102514759Y-97945363D01*
X102282241Y-97790000D01*
X102514759Y-97634637D01*
X102714637Y-97434759D01*
X102871680Y-97199727D01*
X102979853Y-96938574D01*
X103035000Y-96661335D01*
X103035000Y-96378665D01*
X102979853Y-96101426D01*
X102871680Y-95840273D01*
X102714637Y-95605241D01*
X102516039Y-95406643D01*
X102524482Y-95405812D01*
X102644180Y-95369502D01*
X102754494Y-95310537D01*
X102851185Y-95231185D01*
X102930537Y-95134494D01*
X102989502Y-95024180D01*
X103025812Y-94904482D01*
X103038072Y-94780000D01*
X103038072Y-93180000D01*
X103025812Y-93055518D01*
X102989502Y-92935820D01*
X102930537Y-92825506D01*
X102851185Y-92728815D01*
X102754494Y-92649463D01*
X102644180Y-92590498D01*
X102524482Y-92554188D01*
X102400000Y-92541928D01*
X100990000Y-92541928D01*
X100990000Y-91658072D01*
X102450000Y-91658072D01*
X102574482Y-91645812D01*
X102694180Y-91609502D01*
X102804494Y-91550537D01*
X102901185Y-91471185D01*
X102980537Y-91374494D01*
X103039502Y-91264180D01*
X103075812Y-91144482D01*
X103088072Y-91020000D01*
X103088072Y-90028665D01*
X103975000Y-90028665D01*
X103975000Y-90311335D01*
X104030147Y-90588574D01*
X104138320Y-90849727D01*
X104295363Y-91084759D01*
X104495241Y-91284637D01*
X104730273Y-91441680D01*
X104991426Y-91549853D01*
X105268665Y-91605000D01*
X105551335Y-91605000D01*
X105828574Y-91549853D01*
X106089727Y-91441680D01*
X106324759Y-91284637D01*
X106524637Y-91084759D01*
X106681680Y-90849727D01*
X106789853Y-90588574D01*
X106845000Y-90311335D01*
X106845000Y-90028665D01*
X106789853Y-89751426D01*
X106681680Y-89490273D01*
X106524637Y-89255241D01*
X106324759Y-89055363D01*
X106089727Y-88898320D01*
X105828574Y-88790147D01*
X105551335Y-88735000D01*
X105268665Y-88735000D01*
X104991426Y-88790147D01*
X104730273Y-88898320D01*
X104495241Y-89055363D01*
X104295363Y-89255241D01*
X104138320Y-89490273D01*
X104030147Y-89751426D01*
X103975000Y-90028665D01*
X103088072Y-90028665D01*
X103088072Y-89320000D01*
X103075812Y-89195518D01*
X103039502Y-89075820D01*
X102980537Y-88965506D01*
X102901185Y-88868815D01*
X102804494Y-88789463D01*
X102694180Y-88730498D01*
X102574482Y-88694188D01*
X102450000Y-88681928D01*
X100990000Y-88681928D01*
X100990000Y-88297275D01*
X100990666Y-88290487D01*
X100995301Y-88290000D01*
X113697419Y-88290000D01*
X113725419Y-88287242D01*
X113729255Y-88287269D01*
X113738426Y-88286369D01*
X113850622Y-88274576D01*
X111845000Y-90280199D01*
G37*
%TD.AperFunction*%
D20*
X112865000Y-104281335D02*
X112920147Y-104558574D01*
X113028320Y-104819727D01*
X113185363Y-105054759D01*
X113385241Y-105254637D01*
X113617759Y-105410000D01*
X113385241Y-105565363D01*
X113185363Y-105765241D01*
X113028320Y-106000273D01*
X112920147Y-106261426D01*
X112865000Y-106538665D01*
X112865000Y-106821335D01*
X112920147Y-107098574D01*
X113028320Y-107359727D01*
X113185363Y-107594759D01*
X113385241Y-107794637D01*
X113617759Y-107950000D01*
X113385241Y-108105363D01*
X113185363Y-108305241D01*
X113028320Y-108540273D01*
X112920147Y-108801426D01*
X112865000Y-109078665D01*
X112865000Y-109361335D01*
X112920147Y-109638574D01*
X113028320Y-109899727D01*
X113185363Y-110134759D01*
X113385241Y-110334637D01*
X113620273Y-110491680D01*
X113881426Y-110599853D01*
X114158665Y-110655000D01*
X114441335Y-110655000D01*
X114718574Y-110599853D01*
X114979727Y-110491680D01*
X115214759Y-110334637D01*
X115414637Y-110134759D01*
X115571680Y-109899727D01*
X115679853Y-109638574D01*
X115735000Y-109361335D01*
X115735000Y-109078665D01*
X115679853Y-108801426D01*
X115641983Y-108710000D01*
X120578017Y-108710000D01*
X120540147Y-108801426D01*
X120485000Y-109078665D01*
X120485000Y-109361335D01*
X120540147Y-109638574D01*
X120648320Y-109899727D01*
X120805363Y-110134759D01*
X121005241Y-110334637D01*
X121240273Y-110491680D01*
X121501426Y-110599853D01*
X121778665Y-110655000D01*
X122061335Y-110655000D01*
X122338574Y-110599853D01*
X122599727Y-110491680D01*
X122834759Y-110334637D01*
X123034637Y-110134759D01*
X123085354Y-110058856D01*
X123080147Y-110071426D01*
X123025000Y-110348665D01*
X123025000Y-110631335D01*
X123080147Y-110908574D01*
X123188320Y-111169727D01*
X123345363Y-111404759D01*
X123545241Y-111604637D01*
X123777759Y-111760000D01*
X123545241Y-111915363D01*
X123345363Y-112115241D01*
X123188320Y-112350273D01*
X123080147Y-112611426D01*
X123025000Y-112888665D01*
X123025000Y-113171335D01*
X123080147Y-113448574D01*
X123188320Y-113709727D01*
X123345363Y-113944759D01*
X123545241Y-114144637D01*
X123780273Y-114301680D01*
X124041426Y-114409853D01*
X124318665Y-114465000D01*
X124601335Y-114465000D01*
X124878574Y-114409853D01*
X125139727Y-114301680D01*
X125374759Y-114144637D01*
X125574637Y-113944759D01*
X125731680Y-113709727D01*
X125839853Y-113448574D01*
X125895000Y-113171335D01*
X125895000Y-112888665D01*
X125839853Y-112611426D01*
X125731680Y-112350273D01*
X125574637Y-112115241D01*
X125374759Y-111915363D01*
X125142241Y-111760000D01*
X125374759Y-111604637D01*
X125574637Y-111404759D01*
X125731680Y-111169727D01*
X125839853Y-110908574D01*
X125895000Y-110631335D01*
X125895000Y-110348665D01*
X125839853Y-110071426D01*
X125777401Y-109920653D01*
X125900276Y-109854974D01*
X126016001Y-109760001D01*
X126039804Y-109730998D01*
X127002001Y-108768801D01*
X127002001Y-111468668D01*
X126998324Y-111506000D01*
X127012998Y-111654985D01*
X127056454Y-111798246D01*
X127127026Y-111930276D01*
X127198201Y-112017002D01*
X127222000Y-112046001D01*
X127250998Y-112069799D01*
X128722205Y-113541008D01*
X128745999Y-113570001D01*
X128774992Y-113593795D01*
X128774996Y-113593799D01*
X128845685Y-113651811D01*
X128861724Y-113664974D01*
X128993753Y-113735546D01*
X129137014Y-113779003D01*
X129248667Y-113790000D01*
X129248676Y-113790000D01*
X129285999Y-113793676D01*
X129323322Y-113790000D01*
X130861957Y-113790000D01*
X130965363Y-113944759D01*
X131165241Y-114144637D01*
X131400273Y-114301680D01*
X131661426Y-114409853D01*
X131938665Y-114465000D01*
X132221335Y-114465000D01*
X132498574Y-114409853D01*
X132690000Y-114330562D01*
X132690000Y-115664725D01*
X132689335Y-115671513D01*
X132684699Y-115672000D01*
X111092581Y-115672000D01*
X111064581Y-115674758D01*
X111060745Y-115674731D01*
X111051574Y-115675631D01*
X110928323Y-115688586D01*
X110869733Y-115700613D01*
X110810971Y-115711822D01*
X110802149Y-115714486D01*
X110683762Y-115751133D01*
X110628632Y-115774308D01*
X110573153Y-115796722D01*
X110565017Y-115801049D01*
X110456002Y-115859993D01*
X110406422Y-115893435D01*
X110356355Y-115926197D01*
X110349214Y-115932022D01*
X110342744Y-115937374D01*
X110334637Y-115925241D01*
X110134759Y-115725363D01*
X109902241Y-115570000D01*
X110134759Y-115414637D01*
X110334637Y-115214759D01*
X110491680Y-114979727D01*
X110599853Y-114718574D01*
X110655000Y-114441335D01*
X110655000Y-114158665D01*
X110599853Y-113881426D01*
X110491680Y-113620273D01*
X110334637Y-113385241D01*
X110134759Y-113185363D01*
X109902241Y-113030000D01*
X110134759Y-112874637D01*
X110334637Y-112674759D01*
X110491680Y-112439727D01*
X110599853Y-112178574D01*
X110655000Y-111901335D01*
X110655000Y-111618665D01*
X110599853Y-111341426D01*
X110491680Y-111080273D01*
X110334637Y-110845241D01*
X110134759Y-110645363D01*
X109902241Y-110490000D01*
X110134759Y-110334637D01*
X110334637Y-110134759D01*
X110491680Y-109899727D01*
X110599853Y-109638574D01*
X110655000Y-109361335D01*
X110655000Y-109078665D01*
X110599853Y-108801426D01*
X110491680Y-108540273D01*
X110334637Y-108305241D01*
X110134759Y-108105363D01*
X109902241Y-107950000D01*
X110134759Y-107794637D01*
X110334637Y-107594759D01*
X110491680Y-107359727D01*
X110599853Y-107098574D01*
X110655000Y-106821335D01*
X110655000Y-106538665D01*
X110618688Y-106356114D01*
X112865000Y-104109803D01*
X112865000Y-104281335D01*
%TA.AperFunction,Conductor*%
D21*
G36*
X112865000Y-104281335D02*
G01*
X112920147Y-104558574D01*
X113028320Y-104819727D01*
X113185363Y-105054759D01*
X113385241Y-105254637D01*
X113617759Y-105410000D01*
X113385241Y-105565363D01*
X113185363Y-105765241D01*
X113028320Y-106000273D01*
X112920147Y-106261426D01*
X112865000Y-106538665D01*
X112865000Y-106821335D01*
X112920147Y-107098574D01*
X113028320Y-107359727D01*
X113185363Y-107594759D01*
X113385241Y-107794637D01*
X113617759Y-107950000D01*
X113385241Y-108105363D01*
X113185363Y-108305241D01*
X113028320Y-108540273D01*
X112920147Y-108801426D01*
X112865000Y-109078665D01*
X112865000Y-109361335D01*
X112920147Y-109638574D01*
X113028320Y-109899727D01*
X113185363Y-110134759D01*
X113385241Y-110334637D01*
X113620273Y-110491680D01*
X113881426Y-110599853D01*
X114158665Y-110655000D01*
X114441335Y-110655000D01*
X114718574Y-110599853D01*
X114979727Y-110491680D01*
X115214759Y-110334637D01*
X115414637Y-110134759D01*
X115571680Y-109899727D01*
X115679853Y-109638574D01*
X115735000Y-109361335D01*
X115735000Y-109078665D01*
X115679853Y-108801426D01*
X115641983Y-108710000D01*
X120578017Y-108710000D01*
X120540147Y-108801426D01*
X120485000Y-109078665D01*
X120485000Y-109361335D01*
X120540147Y-109638574D01*
X120648320Y-109899727D01*
X120805363Y-110134759D01*
X121005241Y-110334637D01*
X121240273Y-110491680D01*
X121501426Y-110599853D01*
X121778665Y-110655000D01*
X122061335Y-110655000D01*
X122338574Y-110599853D01*
X122599727Y-110491680D01*
X122834759Y-110334637D01*
X123034637Y-110134759D01*
X123085354Y-110058856D01*
X123080147Y-110071426D01*
X123025000Y-110348665D01*
X123025000Y-110631335D01*
X123080147Y-110908574D01*
X123188320Y-111169727D01*
X123345363Y-111404759D01*
X123545241Y-111604637D01*
X123777759Y-111760000D01*
X123545241Y-111915363D01*
X123345363Y-112115241D01*
X123188320Y-112350273D01*
X123080147Y-112611426D01*
X123025000Y-112888665D01*
X123025000Y-113171335D01*
X123080147Y-113448574D01*
X123188320Y-113709727D01*
X123345363Y-113944759D01*
X123545241Y-114144637D01*
X123780273Y-114301680D01*
X124041426Y-114409853D01*
X124318665Y-114465000D01*
X124601335Y-114465000D01*
X124878574Y-114409853D01*
X125139727Y-114301680D01*
X125374759Y-114144637D01*
X125574637Y-113944759D01*
X125731680Y-113709727D01*
X125839853Y-113448574D01*
X125895000Y-113171335D01*
X125895000Y-112888665D01*
X125839853Y-112611426D01*
X125731680Y-112350273D01*
X125574637Y-112115241D01*
X125374759Y-111915363D01*
X125142241Y-111760000D01*
X125374759Y-111604637D01*
X125574637Y-111404759D01*
X125731680Y-111169727D01*
X125839853Y-110908574D01*
X125895000Y-110631335D01*
X125895000Y-110348665D01*
X125839853Y-110071426D01*
X125777401Y-109920653D01*
X125900276Y-109854974D01*
X126016001Y-109760001D01*
X126039804Y-109730998D01*
X127002001Y-108768801D01*
X127002001Y-111468668D01*
X126998324Y-111506000D01*
X127012998Y-111654985D01*
X127056454Y-111798246D01*
X127127026Y-111930276D01*
X127198201Y-112017002D01*
X127222000Y-112046001D01*
X127250998Y-112069799D01*
X128722205Y-113541008D01*
X128745999Y-113570001D01*
X128774992Y-113593795D01*
X128774996Y-113593799D01*
X128845685Y-113651811D01*
X128861724Y-113664974D01*
X128993753Y-113735546D01*
X129137014Y-113779003D01*
X129248667Y-113790000D01*
X129248676Y-113790000D01*
X129285999Y-113793676D01*
X129323322Y-113790000D01*
X130861957Y-113790000D01*
X130965363Y-113944759D01*
X131165241Y-114144637D01*
X131400273Y-114301680D01*
X131661426Y-114409853D01*
X131938665Y-114465000D01*
X132221335Y-114465000D01*
X132498574Y-114409853D01*
X132690000Y-114330562D01*
X132690000Y-115664725D01*
X132689335Y-115671513D01*
X132684699Y-115672000D01*
X111092581Y-115672000D01*
X111064581Y-115674758D01*
X111060745Y-115674731D01*
X111051574Y-115675631D01*
X110928323Y-115688586D01*
X110869733Y-115700613D01*
X110810971Y-115711822D01*
X110802149Y-115714486D01*
X110683762Y-115751133D01*
X110628632Y-115774308D01*
X110573153Y-115796722D01*
X110565017Y-115801049D01*
X110456002Y-115859993D01*
X110406422Y-115893435D01*
X110356355Y-115926197D01*
X110349214Y-115932022D01*
X110342744Y-115937374D01*
X110334637Y-115925241D01*
X110134759Y-115725363D01*
X109902241Y-115570000D01*
X110134759Y-115414637D01*
X110334637Y-115214759D01*
X110491680Y-114979727D01*
X110599853Y-114718574D01*
X110655000Y-114441335D01*
X110655000Y-114158665D01*
X110599853Y-113881426D01*
X110491680Y-113620273D01*
X110334637Y-113385241D01*
X110134759Y-113185363D01*
X109902241Y-113030000D01*
X110134759Y-112874637D01*
X110334637Y-112674759D01*
X110491680Y-112439727D01*
X110599853Y-112178574D01*
X110655000Y-111901335D01*
X110655000Y-111618665D01*
X110599853Y-111341426D01*
X110491680Y-111080273D01*
X110334637Y-110845241D01*
X110134759Y-110645363D01*
X109902241Y-110490000D01*
X110134759Y-110334637D01*
X110334637Y-110134759D01*
X110491680Y-109899727D01*
X110599853Y-109638574D01*
X110655000Y-109361335D01*
X110655000Y-109078665D01*
X110599853Y-108801426D01*
X110491680Y-108540273D01*
X110334637Y-108305241D01*
X110134759Y-108105363D01*
X109902241Y-107950000D01*
X110134759Y-107794637D01*
X110334637Y-107594759D01*
X110491680Y-107359727D01*
X110599853Y-107098574D01*
X110655000Y-106821335D01*
X110655000Y-106538665D01*
X110618688Y-106356114D01*
X112865000Y-104109803D01*
X112865000Y-104281335D01*
G37*
%TD.AperFunction*%
%TD*%
M02*
