M48
; DRILL file {KiCad (5.1.9)-1} date 10/31/21 12:04:21
; FORMAT={-:-/ absolute / metric / decimal}
; #@! TF.CreationDate,2021-10-31T12:04:21+08:00
; #@! TF.GenerationSoftware,Kicad,Pcbnew,(5.1.9)-1
FMAT,2
METRIC
T1C0.400
T2C0.600
T3C0.800
T4C1.000
%
G90
G05
T1
X103.505Y-99.06
X116.205Y-95.885
X118.11Y-97.79
X118.745Y-91.44
X120.015Y-102.87
X124.333Y-89.408
X125.73Y-101.6
X127.725Y-101.6
X129.032Y-110.49
X130.265Y-105.41
T2
X104.14Y-92.71
X104.14Y-94.615
X104.14Y-96.52
X106.045Y-94.615
X106.045Y-96.52
X107.95Y-88.9
X107.95Y-90.805
X112.395Y-88.9
T3
X101.6Y-93.98
X101.6Y-96.52
X101.6Y-99.06
X101.6Y-101.6
X101.6Y-104.14
X101.6Y-106.68
X101.6Y-109.22
X101.6Y-111.76
X101.6Y-114.3
X101.6Y-116.84
X105.41Y-90.17
X109.22Y-93.98
X109.22Y-96.52
X109.22Y-99.06
X109.22Y-101.6
X109.22Y-104.14
X109.22Y-106.68
X109.22Y-109.22
X109.22Y-111.76
X109.22Y-114.3
X109.22Y-116.84
X110.41Y-90.17
X114.3Y-93.98
X114.3Y-96.52
X114.3Y-99.06
X114.3Y-101.6
X114.3Y-104.14
X114.3Y-106.68
X114.3Y-109.22
X121.92Y-93.98
X121.92Y-96.52
X121.92Y-99.06
X121.92Y-101.6
X121.92Y-104.14
X121.92Y-106.68
X121.92Y-109.22
X124.46Y-97.79
X124.46Y-100.33
X124.46Y-102.87
X124.46Y-105.41
X124.46Y-107.95
X124.46Y-110.49
X124.46Y-113.03
X125.73Y-93.98
X130.73Y-93.98
X132.08Y-97.79
X132.08Y-100.33
X132.08Y-102.87
X132.08Y-105.41
X132.08Y-107.95
X132.08Y-110.49
X132.08Y-113.03
T4
X101.6Y-90.17
X118.11Y-81.28
X118.11Y-83.82
X118.11Y-86.36
X118.11Y-88.9
X120.65Y-81.28
X120.65Y-83.82
X120.65Y-86.36
X120.65Y-88.9
X127.0Y-81.28
X127.0Y-83.82
X127.0Y-86.36
X127.0Y-88.9
X129.54Y-81.28
X129.54Y-83.82
X129.54Y-86.36
X129.54Y-88.9
T0
M30
