%TF.GenerationSoftware,KiCad,Pcbnew,(5.1.9)-1*%
%TF.CreationDate,2021-10-31T12:04:18+08:00*%
%TF.ProjectId,HCT145Interposer,48435431-3435-4496-9e74-6572706f7365,rev?*%
%TF.SameCoordinates,Original*%
%TF.FileFunction,Legend,Top*%
%TF.FilePolarity,Positive*%
%FSLAX46Y46*%
G04 Gerber Fmt 4.6, Leading zero omitted, Abs format (unit mm)*
G04 Created by KiCad (PCBNEW (5.1.9)-1) date 2021-10-31 12:04:18*
%MOMM*%
%LPD*%
G01*
G04 APERTURE LIST*
%ADD10C,0.150000*%
%ADD11C,0.120000*%
G04 APERTURE END LIST*
D10*
X112253333Y-115244571D02*
X111920000Y-115244571D01*
X111920000Y-115768380D02*
X111920000Y-114768380D01*
X112396190Y-114768380D01*
X112777142Y-115768380D02*
X112777142Y-115101714D01*
X112777142Y-114768380D02*
X112729523Y-114816000D01*
X112777142Y-114863619D01*
X112824761Y-114816000D01*
X112777142Y-114768380D01*
X112777142Y-114863619D01*
X113110476Y-115101714D02*
X113491428Y-115101714D01*
X113253333Y-114768380D02*
X113253333Y-115625523D01*
X113300952Y-115720761D01*
X113396190Y-115768380D01*
X113491428Y-115768380D01*
X114729523Y-115768380D02*
X114634285Y-115720761D01*
X114586666Y-115673142D01*
X114539047Y-115577904D01*
X114539047Y-115292190D01*
X114586666Y-115196952D01*
X114634285Y-115149333D01*
X114729523Y-115101714D01*
X114872380Y-115101714D01*
X114967619Y-115149333D01*
X115015238Y-115196952D01*
X115062857Y-115292190D01*
X115062857Y-115577904D01*
X115015238Y-115673142D01*
X114967619Y-115720761D01*
X114872380Y-115768380D01*
X114729523Y-115768380D01*
X115491428Y-115101714D02*
X115491428Y-115768380D01*
X115491428Y-115196952D02*
X115539047Y-115149333D01*
X115634285Y-115101714D01*
X115777142Y-115101714D01*
X115872380Y-115149333D01*
X115920000Y-115244571D01*
X115920000Y-115768380D01*
X116539047Y-115768380D02*
X116443809Y-115720761D01*
X116396190Y-115625523D01*
X116396190Y-114768380D01*
X116824761Y-115101714D02*
X117062857Y-115768380D01*
X117300952Y-115101714D02*
X117062857Y-115768380D01*
X116967619Y-116006476D01*
X116920000Y-116054095D01*
X116824761Y-116101714D01*
X118967619Y-115768380D02*
X118396190Y-115768380D01*
X118681904Y-115768380D02*
X118681904Y-114768380D01*
X118586666Y-114911238D01*
X118491428Y-115006476D01*
X118396190Y-115054095D01*
X120158095Y-115101714D02*
X120158095Y-115958857D01*
X120110476Y-116054095D01*
X120015238Y-116101714D01*
X119967619Y-116101714D01*
X120158095Y-114768380D02*
X120110476Y-114816000D01*
X120158095Y-114863619D01*
X120205714Y-114816000D01*
X120158095Y-114768380D01*
X120158095Y-114863619D01*
X121062857Y-115101714D02*
X121062857Y-115768380D01*
X120634285Y-115101714D02*
X120634285Y-115625523D01*
X120681904Y-115720761D01*
X120777142Y-115768380D01*
X120920000Y-115768380D01*
X121015238Y-115720761D01*
X121062857Y-115673142D01*
X121539047Y-115768380D02*
X121539047Y-115101714D01*
X121539047Y-115196952D02*
X121586666Y-115149333D01*
X121681904Y-115101714D01*
X121824761Y-115101714D01*
X121920000Y-115149333D01*
X121967619Y-115244571D01*
X121967619Y-115768380D01*
X121967619Y-115244571D02*
X122015238Y-115149333D01*
X122110476Y-115101714D01*
X122253333Y-115101714D01*
X122348571Y-115149333D01*
X122396190Y-115244571D01*
X122396190Y-115768380D01*
X122872380Y-115101714D02*
X122872380Y-116101714D01*
X122872380Y-115149333D02*
X122967619Y-115101714D01*
X123158095Y-115101714D01*
X123253333Y-115149333D01*
X123300952Y-115196952D01*
X123348571Y-115292190D01*
X123348571Y-115577904D01*
X123300952Y-115673142D01*
X123253333Y-115720761D01*
X123158095Y-115768380D01*
X122967619Y-115768380D01*
X122872380Y-115720761D01*
X124158095Y-115720761D02*
X124062857Y-115768380D01*
X123872380Y-115768380D01*
X123777142Y-115720761D01*
X123729523Y-115625523D01*
X123729523Y-115244571D01*
X123777142Y-115149333D01*
X123872380Y-115101714D01*
X124062857Y-115101714D01*
X124158095Y-115149333D01*
X124205714Y-115244571D01*
X124205714Y-115339809D01*
X123729523Y-115435047D01*
X124634285Y-115768380D02*
X124634285Y-115101714D01*
X124634285Y-115292190D02*
X124681904Y-115196952D01*
X124729523Y-115149333D01*
X124824761Y-115101714D01*
X124920000Y-115101714D01*
X126015238Y-115101714D02*
X126015238Y-116101714D01*
X126015238Y-115149333D02*
X126110476Y-115101714D01*
X126300952Y-115101714D01*
X126396190Y-115149333D01*
X126443809Y-115196952D01*
X126491428Y-115292190D01*
X126491428Y-115577904D01*
X126443809Y-115673142D01*
X126396190Y-115720761D01*
X126300952Y-115768380D01*
X126110476Y-115768380D01*
X126015238Y-115720761D01*
X127300952Y-115720761D02*
X127205714Y-115768380D01*
X127015238Y-115768380D01*
X126920000Y-115720761D01*
X126872380Y-115625523D01*
X126872380Y-115244571D01*
X126920000Y-115149333D01*
X127015238Y-115101714D01*
X127205714Y-115101714D01*
X127300952Y-115149333D01*
X127348571Y-115244571D01*
X127348571Y-115339809D01*
X126872380Y-115435047D01*
X127777142Y-115768380D02*
X127777142Y-115101714D01*
X127777142Y-115292190D02*
X127824761Y-115196952D01*
X127872380Y-115149333D01*
X127967619Y-115101714D01*
X128062857Y-115101714D01*
X129586666Y-115101714D02*
X129586666Y-115911238D01*
X129539047Y-116006476D01*
X129491428Y-116054095D01*
X129396190Y-116101714D01*
X129253333Y-116101714D01*
X129158095Y-116054095D01*
X129586666Y-115720761D02*
X129491428Y-115768380D01*
X129300952Y-115768380D01*
X129205714Y-115720761D01*
X129158095Y-115673142D01*
X129110476Y-115577904D01*
X129110476Y-115292190D01*
X129158095Y-115196952D01*
X129205714Y-115149333D01*
X129300952Y-115101714D01*
X129491428Y-115101714D01*
X129586666Y-115149333D01*
X130491428Y-115768380D02*
X130491428Y-115244571D01*
X130443809Y-115149333D01*
X130348571Y-115101714D01*
X130158095Y-115101714D01*
X130062857Y-115149333D01*
X130491428Y-115720761D02*
X130396190Y-115768380D01*
X130158095Y-115768380D01*
X130062857Y-115720761D01*
X130015238Y-115625523D01*
X130015238Y-115530285D01*
X130062857Y-115435047D01*
X130158095Y-115387428D01*
X130396190Y-115387428D01*
X130491428Y-115339809D01*
X130824761Y-115101714D02*
X131205714Y-115101714D01*
X130967619Y-114768380D02*
X130967619Y-115625523D01*
X131015238Y-115720761D01*
X131110476Y-115768380D01*
X131205714Y-115768380D01*
X131920000Y-115720761D02*
X131824761Y-115768380D01*
X131634285Y-115768380D01*
X131539047Y-115720761D01*
X131491428Y-115625523D01*
X131491428Y-115244571D01*
X131539047Y-115149333D01*
X131634285Y-115101714D01*
X131824761Y-115101714D01*
X131920000Y-115149333D01*
X131967619Y-115244571D01*
X131967619Y-115339809D01*
X131491428Y-115435047D01*
X124015476Y-88685714D02*
X124015476Y-89352380D01*
X123777380Y-88304761D02*
X123539285Y-89019047D01*
X124158333Y-89019047D01*
X123491666Y-85812380D02*
X124110714Y-85812380D01*
X123777380Y-86193333D01*
X123920238Y-86193333D01*
X124015476Y-86240952D01*
X124063095Y-86288571D01*
X124110714Y-86383809D01*
X124110714Y-86621904D01*
X124063095Y-86717142D01*
X124015476Y-86764761D01*
X123920238Y-86812380D01*
X123634523Y-86812380D01*
X123539285Y-86764761D01*
X123491666Y-86717142D01*
X123539285Y-83367619D02*
X123586904Y-83320000D01*
X123682142Y-83272380D01*
X123920238Y-83272380D01*
X124015476Y-83320000D01*
X124063095Y-83367619D01*
X124110714Y-83462857D01*
X124110714Y-83558095D01*
X124063095Y-83700952D01*
X123491666Y-84272380D01*
X124110714Y-84272380D01*
X124110714Y-81732380D02*
X123539285Y-81732380D01*
X123825000Y-81732380D02*
X123825000Y-80732380D01*
X123729761Y-80875238D01*
X123634523Y-80970476D01*
X123539285Y-81018095D01*
X102451047Y-87953904D02*
X102946285Y-87953904D01*
X102679619Y-88258666D01*
X102793904Y-88258666D01*
X102870095Y-88296761D01*
X102908190Y-88334857D01*
X102946285Y-88411047D01*
X102946285Y-88601523D01*
X102908190Y-88677714D01*
X102870095Y-88715809D01*
X102793904Y-88753904D01*
X102565333Y-88753904D01*
X102489142Y-88715809D01*
X102451047Y-88677714D01*
X103289142Y-88677714D02*
X103327238Y-88715809D01*
X103289142Y-88753904D01*
X103251047Y-88715809D01*
X103289142Y-88677714D01*
X103289142Y-88753904D01*
X103593904Y-87953904D02*
X104089142Y-87953904D01*
X103822476Y-88258666D01*
X103936761Y-88258666D01*
X104012952Y-88296761D01*
X104051047Y-88334857D01*
X104089142Y-88411047D01*
X104089142Y-88601523D01*
X104051047Y-88677714D01*
X104012952Y-88715809D01*
X103936761Y-88753904D01*
X103708190Y-88753904D01*
X103632000Y-88715809D01*
X103593904Y-88677714D01*
X104317714Y-87953904D02*
X104584380Y-88753904D01*
X104851047Y-87953904D01*
D11*
%TO.C,J7*%
X125670000Y-79950000D02*
X127000000Y-79950000D01*
X125670000Y-81280000D02*
X125670000Y-79950000D01*
X128270000Y-79950000D02*
X130870000Y-79950000D01*
X128270000Y-82550000D02*
X128270000Y-79950000D01*
X125670000Y-82550000D02*
X128270000Y-82550000D01*
X130870000Y-79950000D02*
X130870000Y-90230000D01*
X125670000Y-82550000D02*
X125670000Y-90230000D01*
X125670000Y-90230000D02*
X130870000Y-90230000D01*
%TO.C,J8*%
X116780000Y-79950000D02*
X118110000Y-79950000D01*
X116780000Y-81280000D02*
X116780000Y-79950000D01*
X119380000Y-79950000D02*
X121980000Y-79950000D01*
X119380000Y-82550000D02*
X119380000Y-79950000D01*
X116780000Y-82550000D02*
X119380000Y-82550000D01*
X121980000Y-79950000D02*
X121980000Y-90230000D01*
X116780000Y-82550000D02*
X116780000Y-90230000D01*
X116780000Y-90230000D02*
X121980000Y-90230000D01*
%TO.C,U1*%
X133410000Y-96400000D02*
X123130000Y-96400000D01*
X133410000Y-114420000D02*
X133410000Y-96400000D01*
X123130000Y-114420000D02*
X133410000Y-114420000D01*
X123130000Y-96400000D02*
X123130000Y-114420000D01*
X130920000Y-96460000D02*
X129270000Y-96460000D01*
X130920000Y-114360000D02*
X130920000Y-96460000D01*
X125620000Y-114360000D02*
X130920000Y-114360000D01*
X125620000Y-96460000D02*
X125620000Y-114360000D01*
X127270000Y-96460000D02*
X125620000Y-96460000D01*
X129270000Y-96460000D02*
G75*
G02*
X127270000Y-96460000I-1000000J0D01*
G01*
%TO.C,U2*%
X110550000Y-92590000D02*
X100270000Y-92590000D01*
X110550000Y-118230000D02*
X110550000Y-92590000D01*
X100270000Y-118230000D02*
X110550000Y-118230000D01*
X100270000Y-92590000D02*
X100270000Y-118230000D01*
X108060000Y-92650000D02*
X106410000Y-92650000D01*
X108060000Y-118170000D02*
X108060000Y-92650000D01*
X102760000Y-118170000D02*
X108060000Y-118170000D01*
X102760000Y-92650000D02*
X102760000Y-118170000D01*
X104410000Y-92650000D02*
X102760000Y-92650000D01*
X106410000Y-92650000D02*
G75*
G02*
X104410000Y-92650000I-1000000J0D01*
G01*
%TO.C,J3*%
X120760000Y-92590000D02*
X123250000Y-92590000D01*
X112970000Y-92590000D02*
X115460000Y-92590000D01*
X112970000Y-110610000D02*
X115460000Y-110610000D01*
X123250000Y-110610000D02*
X120760000Y-110610000D01*
X123250000Y-110610000D02*
X123250000Y-92590000D01*
X112970000Y-92590000D02*
X112970000Y-110610000D01*
X120760000Y-110610000D02*
X120760000Y-92590000D01*
X115460000Y-92590000D02*
X115460000Y-110610000D01*
%TO.C,C1*%
X125110000Y-92610000D02*
X131350000Y-92610000D01*
X125110000Y-95350000D02*
X131350000Y-95350000D01*
X125110000Y-92610000D02*
X125110000Y-93055000D01*
X125110000Y-94905000D02*
X125110000Y-95350000D01*
X131350000Y-92610000D02*
X131350000Y-93055000D01*
X131350000Y-94905000D02*
X131350000Y-95350000D01*
%TO.C,C2*%
X111030000Y-91095000D02*
X111030000Y-91540000D01*
X111030000Y-88800000D02*
X111030000Y-89245000D01*
X104790000Y-91095000D02*
X104790000Y-91540000D01*
X104790000Y-88800000D02*
X104790000Y-89245000D01*
X104790000Y-91540000D02*
X111030000Y-91540000D01*
X104790000Y-88800000D02*
X111030000Y-88800000D01*
%TO.C,J1*%
X100270000Y-88840000D02*
X101600000Y-88840000D01*
X100270000Y-90170000D02*
X100270000Y-88840000D01*
X100270000Y-91440000D02*
X102930000Y-91440000D01*
X102930000Y-91440000D02*
X102930000Y-91500000D01*
X100270000Y-91440000D02*
X100270000Y-91500000D01*
X100270000Y-91500000D02*
X102930000Y-91500000D01*
%TO.C,J7*%
D10*
X131746666Y-84542380D02*
X131746666Y-85256666D01*
X131699047Y-85399523D01*
X131603809Y-85494761D01*
X131460952Y-85542380D01*
X131365714Y-85542380D01*
X132127619Y-84542380D02*
X132794285Y-84542380D01*
X132365714Y-85542380D01*
X125389047Y-78668571D02*
X125055714Y-78668571D01*
X125055714Y-79192380D02*
X125055714Y-78192380D01*
X125531904Y-78192380D01*
X126103333Y-78192380D02*
X126293809Y-78192380D01*
X126389047Y-78240000D01*
X126484285Y-78335238D01*
X126531904Y-78525714D01*
X126531904Y-78859047D01*
X126484285Y-79049523D01*
X126389047Y-79144761D01*
X126293809Y-79192380D01*
X126103333Y-79192380D01*
X126008095Y-79144761D01*
X125912857Y-79049523D01*
X125865238Y-78859047D01*
X125865238Y-78525714D01*
X125912857Y-78335238D01*
X126008095Y-78240000D01*
X126103333Y-78192380D01*
X127531904Y-79192380D02*
X127198571Y-78716190D01*
X126960476Y-79192380D02*
X126960476Y-78192380D01*
X127341428Y-78192380D01*
X127436666Y-78240000D01*
X127484285Y-78287619D01*
X127531904Y-78382857D01*
X127531904Y-78525714D01*
X127484285Y-78620952D01*
X127436666Y-78668571D01*
X127341428Y-78716190D01*
X126960476Y-78716190D01*
X127865238Y-78192380D02*
X128103333Y-79192380D01*
X128293809Y-78478095D01*
X128484285Y-79192380D01*
X128722380Y-78192380D01*
X129055714Y-78906666D02*
X129531904Y-78906666D01*
X128960476Y-79192380D02*
X129293809Y-78192380D01*
X129627142Y-79192380D01*
X130531904Y-79192380D02*
X130198571Y-78716190D01*
X129960476Y-79192380D02*
X129960476Y-78192380D01*
X130341428Y-78192380D01*
X130436666Y-78240000D01*
X130484285Y-78287619D01*
X130531904Y-78382857D01*
X130531904Y-78525714D01*
X130484285Y-78620952D01*
X130436666Y-78668571D01*
X130341428Y-78716190D01*
X129960476Y-78716190D01*
X130960476Y-79192380D02*
X130960476Y-78192380D01*
X131198571Y-78192380D01*
X131341428Y-78240000D01*
X131436666Y-78335238D01*
X131484285Y-78430476D01*
X131531904Y-78620952D01*
X131531904Y-78763809D01*
X131484285Y-78954285D01*
X131436666Y-79049523D01*
X131341428Y-79144761D01*
X131198571Y-79192380D01*
X130960476Y-79192380D01*
%TO.C,J8*%
X115236666Y-84542380D02*
X115236666Y-85256666D01*
X115189047Y-85399523D01*
X115093809Y-85494761D01*
X114950952Y-85542380D01*
X114855714Y-85542380D01*
X115855714Y-84970952D02*
X115760476Y-84923333D01*
X115712857Y-84875714D01*
X115665238Y-84780476D01*
X115665238Y-84732857D01*
X115712857Y-84637619D01*
X115760476Y-84590000D01*
X115855714Y-84542380D01*
X116046190Y-84542380D01*
X116141428Y-84590000D01*
X116189047Y-84637619D01*
X116236666Y-84732857D01*
X116236666Y-84780476D01*
X116189047Y-84875714D01*
X116141428Y-84923333D01*
X116046190Y-84970952D01*
X115855714Y-84970952D01*
X115760476Y-85018571D01*
X115712857Y-85066190D01*
X115665238Y-85161428D01*
X115665238Y-85351904D01*
X115712857Y-85447142D01*
X115760476Y-85494761D01*
X115855714Y-85542380D01*
X116046190Y-85542380D01*
X116141428Y-85494761D01*
X116189047Y-85447142D01*
X116236666Y-85351904D01*
X116236666Y-85161428D01*
X116189047Y-85066190D01*
X116141428Y-85018571D01*
X116046190Y-84970952D01*
X116927619Y-79192380D02*
X116594285Y-78716190D01*
X116356190Y-79192380D02*
X116356190Y-78192380D01*
X116737142Y-78192380D01*
X116832380Y-78240000D01*
X116880000Y-78287619D01*
X116927619Y-78382857D01*
X116927619Y-78525714D01*
X116880000Y-78620952D01*
X116832380Y-78668571D01*
X116737142Y-78716190D01*
X116356190Y-78716190D01*
X117356190Y-78668571D02*
X117689523Y-78668571D01*
X117832380Y-79192380D02*
X117356190Y-79192380D01*
X117356190Y-78192380D01*
X117832380Y-78192380D01*
X118118095Y-78192380D02*
X118451428Y-79192380D01*
X118784761Y-78192380D01*
X119118095Y-78668571D02*
X119451428Y-78668571D01*
X119594285Y-79192380D02*
X119118095Y-79192380D01*
X119118095Y-78192380D01*
X119594285Y-78192380D01*
X120594285Y-79192380D02*
X120260952Y-78716190D01*
X120022857Y-79192380D02*
X120022857Y-78192380D01*
X120403809Y-78192380D01*
X120499047Y-78240000D01*
X120546666Y-78287619D01*
X120594285Y-78382857D01*
X120594285Y-78525714D01*
X120546666Y-78620952D01*
X120499047Y-78668571D01*
X120403809Y-78716190D01*
X120022857Y-78716190D01*
X120975238Y-79144761D02*
X121118095Y-79192380D01*
X121356190Y-79192380D01*
X121451428Y-79144761D01*
X121499047Y-79097142D01*
X121546666Y-79001904D01*
X121546666Y-78906666D01*
X121499047Y-78811428D01*
X121451428Y-78763809D01*
X121356190Y-78716190D01*
X121165714Y-78668571D01*
X121070476Y-78620952D01*
X121022857Y-78573333D01*
X120975238Y-78478095D01*
X120975238Y-78382857D01*
X121022857Y-78287619D01*
X121070476Y-78240000D01*
X121165714Y-78192380D01*
X121403809Y-78192380D01*
X121546666Y-78240000D01*
X121975238Y-78668571D02*
X122308571Y-78668571D01*
X122451428Y-79192380D02*
X121975238Y-79192380D01*
X121975238Y-78192380D01*
X122451428Y-78192380D01*
%TO.C,U1*%
X121158095Y-111212380D02*
X121158095Y-112021904D01*
X121205714Y-112117142D01*
X121253333Y-112164761D01*
X121348571Y-112212380D01*
X121539047Y-112212380D01*
X121634285Y-112164761D01*
X121681904Y-112117142D01*
X121729523Y-112021904D01*
X121729523Y-111212380D01*
X122729523Y-112212380D02*
X122158095Y-112212380D01*
X122443809Y-112212380D02*
X122443809Y-111212380D01*
X122348571Y-111355238D01*
X122253333Y-111450476D01*
X122158095Y-111498095D01*
X115483142Y-112482380D02*
X116149809Y-112482380D01*
X115721238Y-113482380D01*
X116959333Y-112815714D02*
X116959333Y-113482380D01*
X116721238Y-112434761D02*
X116483142Y-113149047D01*
X117102190Y-113149047D01*
X117483142Y-113482380D02*
X117483142Y-112482380D01*
X117483142Y-112958571D02*
X118054571Y-112958571D01*
X118054571Y-113482380D02*
X118054571Y-112482380D01*
X119102190Y-113387142D02*
X119054571Y-113434761D01*
X118911714Y-113482380D01*
X118816476Y-113482380D01*
X118673619Y-113434761D01*
X118578380Y-113339523D01*
X118530761Y-113244285D01*
X118483142Y-113053809D01*
X118483142Y-112910952D01*
X118530761Y-112720476D01*
X118578380Y-112625238D01*
X118673619Y-112530000D01*
X118816476Y-112482380D01*
X118911714Y-112482380D01*
X119054571Y-112530000D01*
X119102190Y-112577619D01*
X119387904Y-112482380D02*
X119959333Y-112482380D01*
X119673619Y-113482380D02*
X119673619Y-112482380D01*
X120816476Y-113482380D02*
X120245047Y-113482380D01*
X120530761Y-113482380D02*
X120530761Y-112482380D01*
X120435523Y-112625238D01*
X120340285Y-112720476D01*
X120245047Y-112768095D01*
X121197428Y-112577619D02*
X121245047Y-112530000D01*
X121340285Y-112482380D01*
X121578380Y-112482380D01*
X121673619Y-112530000D01*
X121721238Y-112577619D01*
X121768857Y-112672857D01*
X121768857Y-112768095D01*
X121721238Y-112910952D01*
X121149809Y-113482380D01*
X121768857Y-113482380D01*
X122673619Y-112482380D02*
X122197428Y-112482380D01*
X122149809Y-112958571D01*
X122197428Y-112910952D01*
X122292666Y-112863333D01*
X122530761Y-112863333D01*
X122626000Y-112910952D01*
X122673619Y-112958571D01*
X122721238Y-113053809D01*
X122721238Y-113291904D01*
X122673619Y-113387142D01*
X122626000Y-113434761D01*
X122530761Y-113482380D01*
X122292666Y-113482380D01*
X122197428Y-113434761D01*
X122149809Y-113387142D01*
%TO.C,U2*%
X110998095Y-112482380D02*
X110998095Y-113291904D01*
X111045714Y-113387142D01*
X111093333Y-113434761D01*
X111188571Y-113482380D01*
X111379047Y-113482380D01*
X111474285Y-113434761D01*
X111521904Y-113387142D01*
X111569523Y-113291904D01*
X111569523Y-112482380D01*
X111998095Y-112577619D02*
X112045714Y-112530000D01*
X112140952Y-112482380D01*
X112379047Y-112482380D01*
X112474285Y-112530000D01*
X112521904Y-112577619D01*
X112569523Y-112672857D01*
X112569523Y-112768095D01*
X112521904Y-112910952D01*
X111950476Y-113482380D01*
X112569523Y-113482380D01*
X110728571Y-111212380D02*
X111395238Y-111212380D01*
X110966666Y-112212380D01*
X112204761Y-111545714D02*
X112204761Y-112212380D01*
X111966666Y-111164761D02*
X111728571Y-111879047D01*
X112347619Y-111879047D01*
X113204761Y-112212380D02*
X112728571Y-112212380D01*
X112728571Y-111212380D01*
X113395238Y-111212380D02*
X113728571Y-112212380D01*
X114061904Y-111212380D01*
X114966666Y-112117142D02*
X114919047Y-112164761D01*
X114776190Y-112212380D01*
X114680952Y-112212380D01*
X114538095Y-112164761D01*
X114442857Y-112069523D01*
X114395238Y-111974285D01*
X114347619Y-111783809D01*
X114347619Y-111640952D01*
X114395238Y-111450476D01*
X114442857Y-111355238D01*
X114538095Y-111260000D01*
X114680952Y-111212380D01*
X114776190Y-111212380D01*
X114919047Y-111260000D01*
X114966666Y-111307619D01*
X115347619Y-111307619D02*
X115395238Y-111260000D01*
X115490476Y-111212380D01*
X115728571Y-111212380D01*
X115823809Y-111260000D01*
X115871428Y-111307619D01*
X115919047Y-111402857D01*
X115919047Y-111498095D01*
X115871428Y-111640952D01*
X115300000Y-112212380D01*
X115919047Y-112212380D01*
X116776190Y-111545714D02*
X116776190Y-112212380D01*
X116538095Y-111164761D02*
X116300000Y-111879047D01*
X116919047Y-111879047D01*
X117776190Y-111212380D02*
X117300000Y-111212380D01*
X117252380Y-111688571D01*
X117300000Y-111640952D01*
X117395238Y-111593333D01*
X117633333Y-111593333D01*
X117728571Y-111640952D01*
X117776190Y-111688571D01*
X117823809Y-111783809D01*
X117823809Y-112021904D01*
X117776190Y-112117142D01*
X117728571Y-112164761D01*
X117633333Y-112212380D01*
X117395238Y-112212380D01*
X117300000Y-112164761D01*
X117252380Y-112117142D01*
%TO.C,J3*%
X117776666Y-93432380D02*
X117776666Y-94146666D01*
X117729047Y-94289523D01*
X117633809Y-94384761D01*
X117490952Y-94432380D01*
X117395714Y-94432380D01*
X118157619Y-93432380D02*
X118776666Y-93432380D01*
X118443333Y-93813333D01*
X118586190Y-93813333D01*
X118681428Y-93860952D01*
X118729047Y-93908571D01*
X118776666Y-94003809D01*
X118776666Y-94241904D01*
X118729047Y-94337142D01*
X118681428Y-94384761D01*
X118586190Y-94432380D01*
X118300476Y-94432380D01*
X118205238Y-94384761D01*
X118157619Y-94337142D01*
X115752857Y-96337380D02*
X115752857Y-95337380D01*
X115752857Y-95813571D02*
X116324285Y-95813571D01*
X116324285Y-96337380D02*
X116324285Y-95337380D01*
X117181428Y-96289761D02*
X117086190Y-96337380D01*
X116895714Y-96337380D01*
X116800476Y-96289761D01*
X116752857Y-96194523D01*
X116752857Y-95813571D01*
X116800476Y-95718333D01*
X116895714Y-95670714D01*
X117086190Y-95670714D01*
X117181428Y-95718333D01*
X117229047Y-95813571D01*
X117229047Y-95908809D01*
X116752857Y-96004047D01*
X118086190Y-96337380D02*
X118086190Y-95813571D01*
X118038571Y-95718333D01*
X117943333Y-95670714D01*
X117752857Y-95670714D01*
X117657619Y-95718333D01*
X118086190Y-96289761D02*
X117990952Y-96337380D01*
X117752857Y-96337380D01*
X117657619Y-96289761D01*
X117610000Y-96194523D01*
X117610000Y-96099285D01*
X117657619Y-96004047D01*
X117752857Y-95956428D01*
X117990952Y-95956428D01*
X118086190Y-95908809D01*
X118990952Y-96337380D02*
X118990952Y-95337380D01*
X118990952Y-96289761D02*
X118895714Y-96337380D01*
X118705238Y-96337380D01*
X118610000Y-96289761D01*
X118562380Y-96242142D01*
X118514761Y-96146904D01*
X118514761Y-95861190D01*
X118562380Y-95765952D01*
X118610000Y-95718333D01*
X118705238Y-95670714D01*
X118895714Y-95670714D01*
X118990952Y-95718333D01*
X119848095Y-96289761D02*
X119752857Y-96337380D01*
X119562380Y-96337380D01*
X119467142Y-96289761D01*
X119419523Y-96194523D01*
X119419523Y-95813571D01*
X119467142Y-95718333D01*
X119562380Y-95670714D01*
X119752857Y-95670714D01*
X119848095Y-95718333D01*
X119895714Y-95813571D01*
X119895714Y-95908809D01*
X119419523Y-96004047D01*
X120324285Y-96337380D02*
X120324285Y-95670714D01*
X120324285Y-95861190D02*
X120371904Y-95765952D01*
X120419523Y-95718333D01*
X120514761Y-95670714D01*
X120610000Y-95670714D01*
%TO.C,C1*%
X126071333Y-92051142D02*
X126023714Y-92098761D01*
X125880857Y-92146380D01*
X125785619Y-92146380D01*
X125642761Y-92098761D01*
X125547523Y-92003523D01*
X125499904Y-91908285D01*
X125452285Y-91717809D01*
X125452285Y-91574952D01*
X125499904Y-91384476D01*
X125547523Y-91289238D01*
X125642761Y-91194000D01*
X125785619Y-91146380D01*
X125880857Y-91146380D01*
X126023714Y-91194000D01*
X126071333Y-91241619D01*
X127023714Y-92146380D02*
X126452285Y-92146380D01*
X126738000Y-92146380D02*
X126738000Y-91146380D01*
X126642761Y-91289238D01*
X126547523Y-91384476D01*
X126452285Y-91432095D01*
X128659142Y-91146380D02*
X128754380Y-91146380D01*
X128849619Y-91194000D01*
X128897238Y-91241619D01*
X128944857Y-91336857D01*
X128992476Y-91527333D01*
X128992476Y-91765428D01*
X128944857Y-91955904D01*
X128897238Y-92051142D01*
X128849619Y-92098761D01*
X128754380Y-92146380D01*
X128659142Y-92146380D01*
X128563904Y-92098761D01*
X128516285Y-92051142D01*
X128468666Y-91955904D01*
X128421047Y-91765428D01*
X128421047Y-91527333D01*
X128468666Y-91336857D01*
X128516285Y-91241619D01*
X128563904Y-91194000D01*
X128659142Y-91146380D01*
X129421047Y-92051142D02*
X129468666Y-92098761D01*
X129421047Y-92146380D01*
X129373428Y-92098761D01*
X129421047Y-92051142D01*
X129421047Y-92146380D01*
X130421047Y-92146380D02*
X129849619Y-92146380D01*
X130135333Y-92146380D02*
X130135333Y-91146380D01*
X130040095Y-91289238D01*
X129944857Y-91384476D01*
X129849619Y-91432095D01*
X131278190Y-91479714D02*
X131278190Y-92146380D01*
X130849619Y-91479714D02*
X130849619Y-92003523D01*
X130897238Y-92098761D01*
X130992476Y-92146380D01*
X131135333Y-92146380D01*
X131230571Y-92098761D01*
X131278190Y-92051142D01*
X132087714Y-91622571D02*
X131754380Y-91622571D01*
X131754380Y-92146380D02*
X131754380Y-91146380D01*
X132230571Y-91146380D01*
%TO.C,C2*%
X112228333Y-89765142D02*
X112180714Y-89812761D01*
X112037857Y-89860380D01*
X111942619Y-89860380D01*
X111799761Y-89812761D01*
X111704523Y-89717523D01*
X111656904Y-89622285D01*
X111609285Y-89431809D01*
X111609285Y-89288952D01*
X111656904Y-89098476D01*
X111704523Y-89003238D01*
X111799761Y-88908000D01*
X111942619Y-88860380D01*
X112037857Y-88860380D01*
X112180714Y-88908000D01*
X112228333Y-88955619D01*
X112609285Y-88955619D02*
X112656904Y-88908000D01*
X112752142Y-88860380D01*
X112990238Y-88860380D01*
X113085476Y-88908000D01*
X113133095Y-88955619D01*
X113180714Y-89050857D01*
X113180714Y-89146095D01*
X113133095Y-89288952D01*
X112561666Y-89860380D01*
X113180714Y-89860380D01*
X111641142Y-90384380D02*
X111736380Y-90384380D01*
X111831619Y-90432000D01*
X111879238Y-90479619D01*
X111926857Y-90574857D01*
X111974476Y-90765333D01*
X111974476Y-91003428D01*
X111926857Y-91193904D01*
X111879238Y-91289142D01*
X111831619Y-91336761D01*
X111736380Y-91384380D01*
X111641142Y-91384380D01*
X111545904Y-91336761D01*
X111498285Y-91289142D01*
X111450666Y-91193904D01*
X111403047Y-91003428D01*
X111403047Y-90765333D01*
X111450666Y-90574857D01*
X111498285Y-90479619D01*
X111545904Y-90432000D01*
X111641142Y-90384380D01*
X112403047Y-91289142D02*
X112450666Y-91336761D01*
X112403047Y-91384380D01*
X112355428Y-91336761D01*
X112403047Y-91289142D01*
X112403047Y-91384380D01*
X113403047Y-91384380D02*
X112831619Y-91384380D01*
X113117333Y-91384380D02*
X113117333Y-90384380D01*
X113022095Y-90527238D01*
X112926857Y-90622476D01*
X112831619Y-90670095D01*
X114260190Y-90717714D02*
X114260190Y-91384380D01*
X113831619Y-90717714D02*
X113831619Y-91241523D01*
X113879238Y-91336761D01*
X113974476Y-91384380D01*
X114117333Y-91384380D01*
X114212571Y-91336761D01*
X114260190Y-91289142D01*
X115069714Y-90860571D02*
X114736380Y-90860571D01*
X114736380Y-91384380D02*
X114736380Y-90384380D01*
X115212571Y-90384380D01*
%TO.C,J1*%
X103365333Y-91255904D02*
X103365333Y-91827333D01*
X103327238Y-91941619D01*
X103251047Y-92017809D01*
X103136761Y-92055904D01*
X103060571Y-92055904D01*
X104165333Y-92055904D02*
X103708190Y-92055904D01*
X103936761Y-92055904D02*
X103936761Y-91255904D01*
X103860571Y-91370190D01*
X103784380Y-91446380D01*
X103708190Y-91484476D01*
%TD*%
M02*
