%TF.GenerationSoftware,KiCad,Pcbnew,(5.1.9)-1*%
%TF.CreationDate,2021-10-31T12:04:18+08:00*%
%TF.ProjectId,HCT145Interposer,48435431-3435-4496-9e74-6572706f7365,rev?*%
%TF.SameCoordinates,Original*%
%TF.FileFunction,Copper,L1,Top*%
%TF.FilePolarity,Positive*%
%FSLAX46Y46*%
G04 Gerber Fmt 4.6, Leading zero omitted, Abs format (unit mm)*
G04 Created by KiCad (PCBNEW (5.1.9)-1) date 2021-10-31 12:04:18*
%MOMM*%
%LPD*%
G01*
G04 APERTURE LIST*
%TA.AperFunction,ComponentPad*%
%ADD10O,1.700000X1.700000*%
%TD*%
%TA.AperFunction,ComponentPad*%
%ADD11R,1.700000X1.700000*%
%TD*%
%TA.AperFunction,ComponentPad*%
%ADD12O,1.600000X1.600000*%
%TD*%
%TA.AperFunction,ComponentPad*%
%ADD13R,1.600000X1.600000*%
%TD*%
%TA.AperFunction,ComponentPad*%
%ADD14C,1.600000*%
%TD*%
%TA.AperFunction,ViaPad*%
%ADD15C,1.000000*%
%TD*%
%TA.AperFunction,ViaPad*%
%ADD16C,0.800000*%
%TD*%
%TA.AperFunction,Conductor*%
%ADD17C,0.250000*%
%TD*%
%TA.AperFunction,Conductor*%
%ADD18C,1.600000*%
%TD*%
%TA.AperFunction,Conductor*%
%ADD19C,2.700000*%
%TD*%
%TA.AperFunction,Conductor*%
%ADD20C,0.254000*%
%TD*%
%TA.AperFunction,Conductor*%
%ADD21C,0.100000*%
%TD*%
G04 APERTURE END LIST*
D10*
%TO.P,J7,8*%
%TO.N,GATE3_125_OUT*%
X129540000Y-88900000D03*
%TO.P,J7,7*%
%TO.N,GATE3_OUT*%
X127000000Y-88900000D03*
%TO.P,J7,6*%
%TO.N,GATE2_125_OUT*%
X129540000Y-86360000D03*
%TO.P,J7,5*%
%TO.N,GATE2_OUT*%
X127000000Y-86360000D03*
%TO.P,J7,4*%
%TO.N,GATE1_125_OUT*%
X129540000Y-83820000D03*
%TO.P,J7,3*%
%TO.N,GATE1_OUT*%
X127000000Y-83820000D03*
%TO.P,J7,2*%
%TO.N,GATE0_125_OUT*%
X129540000Y-81280000D03*
D11*
%TO.P,J7,1*%
%TO.N,GATE0_OUT*%
X127000000Y-81280000D03*
%TD*%
D10*
%TO.P,J8,8*%
%TO.N,GATE3_~OE*%
X120650000Y-88900000D03*
%TO.P,J8,7*%
%TO.N,GATE3_245_OUT*%
X118110000Y-88900000D03*
%TO.P,J8,6*%
%TO.N,GATE2_~OE*%
X120650000Y-86360000D03*
%TO.P,J8,5*%
%TO.N,GATE2_245_OUT*%
X118110000Y-86360000D03*
%TO.P,J8,4*%
%TO.N,GATE1_~OE*%
X120650000Y-83820000D03*
%TO.P,J8,3*%
%TO.N,GATE1_245_OUT*%
X118110000Y-83820000D03*
%TO.P,J8,2*%
%TO.N,GATE0_~OE*%
X120650000Y-81280000D03*
D11*
%TO.P,J8,1*%
%TO.N,GATE0_245_OUT*%
X118110000Y-81280000D03*
%TD*%
D12*
%TO.P,U1,14*%
%TO.N,+5V*%
X132080000Y-97790000D03*
%TO.P,U1,7*%
%TO.N,GND*%
X124460000Y-113030000D03*
%TO.P,U1,13*%
%TO.N,GATE3_~OE*%
X132080000Y-100330000D03*
%TO.P,U1,6*%
%TO.N,GATE1_125_OUT*%
X124460000Y-110490000D03*
%TO.P,U1,12*%
%TO.N,GATE3_IN*%
X132080000Y-102870000D03*
%TO.P,U1,5*%
%TO.N,GATE1_IN*%
X124460000Y-107950000D03*
%TO.P,U1,11*%
%TO.N,GATE3_125_OUT*%
X132080000Y-105410000D03*
%TO.P,U1,4*%
%TO.N,GATE1_~OE*%
X124460000Y-105410000D03*
%TO.P,U1,10*%
%TO.N,GATE2_~OE*%
X132080000Y-107950000D03*
%TO.P,U1,3*%
%TO.N,GATE0_125_OUT*%
X124460000Y-102870000D03*
%TO.P,U1,9*%
%TO.N,GATE2_IN*%
X132080000Y-110490000D03*
%TO.P,U1,2*%
%TO.N,GATE0_IN*%
X124460000Y-100330000D03*
%TO.P,U1,8*%
%TO.N,GATE2_125_OUT*%
X132080000Y-113030000D03*
D13*
%TO.P,U1,1*%
%TO.N,GATE0_~OE*%
X124460000Y-97790000D03*
%TD*%
D12*
%TO.P,U2,20*%
%TO.N,+3V3*%
X109220000Y-93980000D03*
%TO.P,U2,10*%
%TO.N,GND*%
X101600000Y-116840000D03*
%TO.P,U2,19*%
X109220000Y-96520000D03*
%TO.P,U2,9*%
X101600000Y-114300000D03*
%TO.P,U2,18*%
%TO.N,GATE0_245_OUT*%
X109220000Y-99060000D03*
%TO.P,U2,8*%
%TO.N,GND*%
X101600000Y-111760000D03*
%TO.P,U2,17*%
%TO.N,GATE1_245_OUT*%
X109220000Y-101600000D03*
%TO.P,U2,7*%
%TO.N,GND*%
X101600000Y-109220000D03*
%TO.P,U2,16*%
%TO.N,GATE2_245_OUT*%
X109220000Y-104140000D03*
%TO.P,U2,6*%
%TO.N,GND*%
X101600000Y-106680000D03*
%TO.P,U2,15*%
%TO.N,GATE3_245_OUT*%
X109220000Y-106680000D03*
%TO.P,U2,5*%
%TO.N,GATE3_OUT*%
X101600000Y-104140000D03*
%TO.P,U2,14*%
%TO.N,Net-(U2-Pad14)*%
X109220000Y-109220000D03*
%TO.P,U2,4*%
%TO.N,GATE2_OUT*%
X101600000Y-101600000D03*
%TO.P,U2,13*%
%TO.N,Net-(U2-Pad13)*%
X109220000Y-111760000D03*
%TO.P,U2,3*%
%TO.N,GATE1_OUT*%
X101600000Y-99060000D03*
%TO.P,U2,12*%
%TO.N,Net-(U2-Pad12)*%
X109220000Y-114300000D03*
%TO.P,U2,2*%
%TO.N,GATE0_OUT*%
X101600000Y-96520000D03*
%TO.P,U2,11*%
%TO.N,Net-(U2-Pad11)*%
X109220000Y-116840000D03*
D13*
%TO.P,U2,1*%
%TO.N,+3V3*%
X101600000Y-93980000D03*
%TD*%
D12*
%TO.P,J3,14*%
%TO.N,+5V*%
X121920000Y-93980000D03*
%TO.P,J3,7*%
%TO.N,GND*%
X114300000Y-109220000D03*
%TO.P,J3,13*%
%TO.N,GATE3_~OE*%
X121920000Y-96520000D03*
%TO.P,J3,6*%
%TO.N,GATE1_OUT*%
X114300000Y-106680000D03*
%TO.P,J3,12*%
%TO.N,GATE3_IN*%
X121920000Y-99060000D03*
%TO.P,J3,5*%
%TO.N,GATE1_IN*%
X114300000Y-104140000D03*
%TO.P,J3,11*%
%TO.N,GATE3_OUT*%
X121920000Y-101600000D03*
%TO.P,J3,4*%
%TO.N,GATE1_~OE*%
X114300000Y-101600000D03*
%TO.P,J3,10*%
%TO.N,GATE2_~OE*%
X121920000Y-104140000D03*
%TO.P,J3,3*%
%TO.N,GATE0_OUT*%
X114300000Y-99060000D03*
%TO.P,J3,9*%
%TO.N,GATE2_IN*%
X121920000Y-106680000D03*
%TO.P,J3,2*%
%TO.N,GATE0_IN*%
X114300000Y-96520000D03*
%TO.P,J3,8*%
%TO.N,GATE2_OUT*%
X121920000Y-109220000D03*
D13*
%TO.P,J3,1*%
%TO.N,GATE0_~OE*%
X114300000Y-93980000D03*
%TD*%
D14*
%TO.P,C1,1*%
%TO.N,+5V*%
X125730000Y-93980000D03*
%TO.P,C1,2*%
%TO.N,GND*%
X130730000Y-93980000D03*
%TD*%
%TO.P,C2,2*%
%TO.N,GND*%
X110410000Y-90170000D03*
%TO.P,C2,1*%
%TO.N,+3V3*%
X105410000Y-90170000D03*
%TD*%
D11*
%TO.P,J1,1*%
%TO.N,+3V3*%
X101600000Y-90170000D03*
%TD*%
D15*
%TO.N,GND*%
X107950000Y-90805000D03*
X107950000Y-88900000D03*
X112395000Y-88900000D03*
X104140000Y-96520000D03*
X106045000Y-96520000D03*
X106045000Y-94615000D03*
X104140000Y-92710000D03*
X104140000Y-94615000D03*
D16*
%TO.N,GATE3_~OE*%
X118110000Y-97790000D03*
%TO.N,GATE3_OUT*%
X125730000Y-101600000D03*
X103505000Y-99060000D03*
%TO.N,GATE1_~OE*%
X120015000Y-102870000D03*
%TO.N,GATE0_OUT*%
X118745000Y-91440000D03*
X124333000Y-89408000D03*
%TO.N,GATE0_~OE*%
X116205000Y-95885000D03*
%TO.N,GATE3_125_OUT*%
X127725010Y-101600000D03*
%TO.N,GATE1_125_OUT*%
X129032000Y-110490000D03*
%TO.N,GATE0_125_OUT*%
X130265000Y-105409986D03*
%TD*%
D17*
%TO.N,GND*%
X105410000Y-107950000D02*
X110490000Y-107950000D01*
X105410000Y-110490000D02*
X110490000Y-110490000D01*
X105410000Y-113030000D02*
X110490000Y-113030000D01*
D18*
X124460000Y-113030000D02*
X121285000Y-113030000D01*
X114300000Y-109220000D02*
X112395000Y-109220000D01*
X114300000Y-109220000D02*
X115570000Y-110490000D01*
X114300000Y-109220000D02*
X114300000Y-110490000D01*
X114300000Y-109220000D02*
X113030000Y-110490000D01*
D17*
X101600000Y-114300000D02*
X105410000Y-114300000D01*
X105410000Y-114300000D02*
X105410000Y-113030000D01*
X101600000Y-111760000D02*
X105410000Y-111760000D01*
X105410000Y-111760000D02*
X105410000Y-110490000D01*
X105410000Y-113030000D02*
X105410000Y-111760000D01*
X101600000Y-109220000D02*
X105410000Y-109220000D01*
X105410000Y-109220000D02*
X105410000Y-107950000D01*
X105410000Y-110490000D02*
X105410000Y-109220000D01*
X105410000Y-107950000D02*
X105410000Y-106680000D01*
X105410000Y-106680000D02*
X101600000Y-106680000D01*
D19*
X110410000Y-90170000D02*
X112395000Y-90170000D01*
D18*
X124460000Y-113030000D02*
X123698000Y-113030000D01*
X101600000Y-116840000D02*
X103505000Y-116840000D01*
D17*
X105410000Y-114808000D02*
X105410000Y-114300000D01*
D18*
X102362000Y-116840000D02*
X103632000Y-115570000D01*
X101600000Y-116840000D02*
X102362000Y-116840000D01*
D17*
X110410000Y-90170000D02*
X107950000Y-90170000D01*
X107950000Y-90170000D02*
X107950000Y-88900000D01*
X107950000Y-90170000D02*
X107950000Y-90805000D01*
X111680000Y-88900000D02*
X112395000Y-88900000D01*
X110410000Y-90170000D02*
X111680000Y-88900000D01*
X132080000Y-92630000D02*
X130730000Y-93980000D01*
X132080000Y-78740000D02*
X132080000Y-92630000D01*
X115570000Y-78740000D02*
X132080000Y-78740000D01*
X115570000Y-90170000D02*
X115570000Y-78740000D01*
X112395000Y-90170000D02*
X115570000Y-90170000D01*
X105410000Y-114808000D02*
X105410000Y-115570000D01*
X105410000Y-115570000D02*
X110490000Y-115570000D01*
X105410000Y-115570000D02*
X105410000Y-116840000D01*
X105410000Y-116840000D02*
X102362000Y-116840000D01*
D18*
X109855000Y-96520000D02*
X110490000Y-95885000D01*
X109220000Y-96520000D02*
X109855000Y-96520000D01*
X108585000Y-96520000D02*
X107950000Y-95885000D01*
X109220000Y-96520000D02*
X108585000Y-96520000D01*
X109220000Y-96520000D02*
X107950000Y-96520000D01*
X107950000Y-96520000D02*
X107315000Y-95885000D01*
X110490000Y-96520000D02*
X111125000Y-95885000D01*
X109220000Y-96520000D02*
X110490000Y-96520000D01*
D19*
X128905000Y-92075000D02*
X130730000Y-93980000D01*
X130730000Y-93980000D02*
X131365000Y-94615000D01*
D18*
X124460000Y-113030000D02*
X126365000Y-113030000D01*
X123698000Y-113030000D02*
X122428000Y-111760000D01*
X123190000Y-114300000D02*
X124460000Y-113030000D01*
X124460000Y-113030000D02*
X124460000Y-114300000D01*
X124460000Y-113030000D02*
X125730000Y-114300000D01*
X124460000Y-113030000D02*
X125095000Y-113030000D01*
X125095000Y-113030000D02*
X125730000Y-112395000D01*
%TO.N,+5V*%
X121920000Y-93980000D02*
X125730000Y-93980000D01*
X130810000Y-97790000D02*
X132080000Y-97790000D01*
X127000000Y-93980000D02*
X130810000Y-97790000D01*
X125730000Y-93980000D02*
X127000000Y-93980000D01*
%TO.N,+3V3*%
X101600000Y-90170000D02*
X105410000Y-90170000D01*
X107950000Y-93980000D02*
X109220000Y-93980000D01*
X105410000Y-91440000D02*
X107950000Y-93980000D01*
X105410000Y-90170000D02*
X105410000Y-91440000D01*
D17*
X101600000Y-93980000D02*
X101600000Y-90170000D01*
%TO.N,GATE3_~OE*%
X127000000Y-96520000D02*
X121920000Y-96520000D01*
X130810000Y-100330000D02*
X127000000Y-96520000D01*
X132080000Y-100330000D02*
X130810000Y-100330000D01*
X119380000Y-96520000D02*
X118110000Y-97790000D01*
X121920000Y-96520000D02*
X119380000Y-96520000D01*
%TO.N,GATE1_OUT*%
X110490000Y-102870000D02*
X105410000Y-102870000D01*
X105410000Y-102870000D02*
X101600000Y-99060000D01*
X114300000Y-106680000D02*
X110490000Y-102870000D01*
%TO.N,GATE3_IN*%
X127635000Y-99060000D02*
X121920000Y-99060000D01*
X131445000Y-102870000D02*
X127635000Y-99060000D01*
X132080000Y-102870000D02*
X131445000Y-102870000D01*
%TO.N,GATE1_IN*%
X118110000Y-107950000D02*
X124460000Y-107950000D01*
X114300000Y-104140000D02*
X118110000Y-107950000D01*
%TO.N,GATE3_OUT*%
X121920000Y-101600000D02*
X125730000Y-101600000D01*
X115450001Y-100330000D02*
X116720001Y-101600000D01*
X104775000Y-100330000D02*
X115450001Y-100330000D01*
X103505000Y-99060000D02*
X104775000Y-100330000D01*
X116720001Y-101600000D02*
X121920000Y-101600000D01*
%TO.N,GATE1_~OE*%
X124460000Y-105410000D02*
X120650000Y-105410000D01*
X115570000Y-102870000D02*
X114300000Y-101600000D01*
X120015000Y-102870000D02*
X115570000Y-102870000D01*
X120015000Y-102870000D02*
X120015000Y-104775000D01*
X120015000Y-104775000D02*
X120650000Y-105410000D01*
%TO.N,GATE2_~OE*%
X127254000Y-104140000D02*
X121920000Y-104140000D01*
X131064000Y-107950000D02*
X127254000Y-104140000D01*
X132080000Y-107950000D02*
X131064000Y-107950000D01*
%TO.N,GATE0_OUT*%
X118745000Y-91440000D02*
X122301000Y-91440000D01*
X122301000Y-91440000D02*
X124333000Y-89408000D01*
X113030000Y-97790000D02*
X102870000Y-97790000D01*
X102870000Y-97790000D02*
X101600000Y-96520000D01*
X114300000Y-99060000D02*
X113030000Y-97790000D01*
%TO.N,GATE2_IN*%
X127762000Y-106680000D02*
X121920000Y-106680000D01*
X131572000Y-110490000D02*
X127762000Y-106680000D01*
X132080000Y-110490000D02*
X131572000Y-110490000D01*
%TO.N,GATE0_IN*%
X118110000Y-100330000D02*
X124460000Y-100330000D01*
X117094000Y-100330000D02*
X118110000Y-100330000D01*
X115824000Y-99060000D02*
X117094000Y-100330000D01*
X115824000Y-98044000D02*
X115824000Y-99060000D01*
X114300000Y-96520000D02*
X115824000Y-98044000D01*
%TO.N,GATE2_OUT*%
X110490000Y-105410000D02*
X105410000Y-105410000D01*
X113030000Y-107950000D02*
X110490000Y-105410000D01*
X115450001Y-107950000D02*
X113030000Y-107950000D01*
X116720001Y-109220000D02*
X115450001Y-107950000D01*
X105410000Y-105410000D02*
X101600000Y-101600000D01*
X121920000Y-109220000D02*
X116720001Y-109220000D01*
%TO.N,GATE0_~OE*%
X114300000Y-93980000D02*
X116205000Y-95885000D01*
X116205000Y-95885000D02*
X116205000Y-95885000D01*
X120650000Y-97790000D02*
X124460000Y-97790000D01*
X119380000Y-99060000D02*
X120650000Y-97790000D01*
X117475000Y-99060000D02*
X119380000Y-99060000D01*
X116840000Y-98425000D02*
X117475000Y-99060000D01*
X116840000Y-96520000D02*
X116840000Y-98425000D01*
X116205000Y-95885000D02*
X116840000Y-96520000D01*
%TO.N,GATE3_125_OUT*%
X128270000Y-101600000D02*
X132080000Y-105410000D01*
X127725010Y-101600000D02*
X128270000Y-101600000D01*
%TO.N,GATE1_125_OUT*%
X124460000Y-110490000D02*
X129032000Y-110490000D01*
%TO.N,GATE0_125_OUT*%
X127725014Y-102870000D02*
X130265000Y-105409986D01*
X126746000Y-102870000D02*
X127725014Y-102870000D01*
X124460000Y-102870000D02*
X126746000Y-102870000D01*
%TD*%
D20*
%TO.N,GND*%
X104846200Y-105921002D02*
X104869999Y-105950001D01*
X104985724Y-106044974D01*
X105117753Y-106115546D01*
X105261014Y-106159003D01*
X105372667Y-106170000D01*
X105372675Y-106170000D01*
X105410000Y-106173676D01*
X105447325Y-106170000D01*
X107878017Y-106170000D01*
X107840147Y-106261426D01*
X107785000Y-106538665D01*
X107785000Y-106821335D01*
X107840147Y-107098574D01*
X107948320Y-107359727D01*
X108105363Y-107594759D01*
X108305241Y-107794637D01*
X108537759Y-107950000D01*
X108305241Y-108105363D01*
X108105363Y-108305241D01*
X107948320Y-108540273D01*
X107840147Y-108801426D01*
X107785000Y-109078665D01*
X107785000Y-109361335D01*
X107840147Y-109638574D01*
X107948320Y-109899727D01*
X108105363Y-110134759D01*
X108305241Y-110334637D01*
X108537759Y-110490000D01*
X108305241Y-110645363D01*
X108105363Y-110845241D01*
X107948320Y-111080273D01*
X107840147Y-111341426D01*
X107785000Y-111618665D01*
X107785000Y-111901335D01*
X107840147Y-112178574D01*
X107948320Y-112439727D01*
X108105363Y-112674759D01*
X108305241Y-112874637D01*
X108537759Y-113030000D01*
X108305241Y-113185363D01*
X108105363Y-113385241D01*
X107948320Y-113620273D01*
X107840147Y-113881426D01*
X107785000Y-114158665D01*
X107785000Y-114441335D01*
X107840147Y-114718574D01*
X107948320Y-114979727D01*
X108105363Y-115214759D01*
X108305241Y-115414637D01*
X108537759Y-115570000D01*
X108305241Y-115725363D01*
X108105363Y-115925241D01*
X107948320Y-116160273D01*
X107840147Y-116421426D01*
X107785000Y-116698665D01*
X107785000Y-116981335D01*
X107840147Y-117258574D01*
X107919438Y-117450000D01*
X102900562Y-117450000D01*
X102979853Y-117258574D01*
X103035000Y-116981335D01*
X103035000Y-116698665D01*
X102979853Y-116421426D01*
X102871680Y-116160273D01*
X102714637Y-115925241D01*
X102514759Y-115725363D01*
X102282241Y-115570000D01*
X102514759Y-115414637D01*
X102714637Y-115214759D01*
X102871680Y-114979727D01*
X102979853Y-114718574D01*
X103035000Y-114441335D01*
X103035000Y-114158665D01*
X102979853Y-113881426D01*
X102871680Y-113620273D01*
X102714637Y-113385241D01*
X102514759Y-113185363D01*
X102282241Y-113030000D01*
X102514759Y-112874637D01*
X102714637Y-112674759D01*
X102871680Y-112439727D01*
X102979853Y-112178574D01*
X103035000Y-111901335D01*
X103035000Y-111618665D01*
X102979853Y-111341426D01*
X102871680Y-111080273D01*
X102714637Y-110845241D01*
X102514759Y-110645363D01*
X102282241Y-110490000D01*
X102514759Y-110334637D01*
X102714637Y-110134759D01*
X102871680Y-109899727D01*
X102979853Y-109638574D01*
X103035000Y-109361335D01*
X103035000Y-109078665D01*
X102979853Y-108801426D01*
X102871680Y-108540273D01*
X102714637Y-108305241D01*
X102514759Y-108105363D01*
X102282241Y-107950000D01*
X102514759Y-107794637D01*
X102714637Y-107594759D01*
X102871680Y-107359727D01*
X102979853Y-107098574D01*
X103035000Y-106821335D01*
X103035000Y-106538665D01*
X102979853Y-106261426D01*
X102871680Y-106000273D01*
X102714637Y-105765241D01*
X102514759Y-105565363D01*
X102282241Y-105410000D01*
X102514759Y-105254637D01*
X102714637Y-105054759D01*
X102871680Y-104819727D01*
X102979853Y-104558574D01*
X103035000Y-104281335D01*
X103035000Y-104109802D01*
X104846200Y-105921002D01*
%TA.AperFunction,Conductor*%
D21*
G36*
X104846200Y-105921002D02*
G01*
X104869999Y-105950001D01*
X104985724Y-106044974D01*
X105117753Y-106115546D01*
X105261014Y-106159003D01*
X105372667Y-106170000D01*
X105372675Y-106170000D01*
X105410000Y-106173676D01*
X105447325Y-106170000D01*
X107878017Y-106170000D01*
X107840147Y-106261426D01*
X107785000Y-106538665D01*
X107785000Y-106821335D01*
X107840147Y-107098574D01*
X107948320Y-107359727D01*
X108105363Y-107594759D01*
X108305241Y-107794637D01*
X108537759Y-107950000D01*
X108305241Y-108105363D01*
X108105363Y-108305241D01*
X107948320Y-108540273D01*
X107840147Y-108801426D01*
X107785000Y-109078665D01*
X107785000Y-109361335D01*
X107840147Y-109638574D01*
X107948320Y-109899727D01*
X108105363Y-110134759D01*
X108305241Y-110334637D01*
X108537759Y-110490000D01*
X108305241Y-110645363D01*
X108105363Y-110845241D01*
X107948320Y-111080273D01*
X107840147Y-111341426D01*
X107785000Y-111618665D01*
X107785000Y-111901335D01*
X107840147Y-112178574D01*
X107948320Y-112439727D01*
X108105363Y-112674759D01*
X108305241Y-112874637D01*
X108537759Y-113030000D01*
X108305241Y-113185363D01*
X108105363Y-113385241D01*
X107948320Y-113620273D01*
X107840147Y-113881426D01*
X107785000Y-114158665D01*
X107785000Y-114441335D01*
X107840147Y-114718574D01*
X107948320Y-114979727D01*
X108105363Y-115214759D01*
X108305241Y-115414637D01*
X108537759Y-115570000D01*
X108305241Y-115725363D01*
X108105363Y-115925241D01*
X107948320Y-116160273D01*
X107840147Y-116421426D01*
X107785000Y-116698665D01*
X107785000Y-116981335D01*
X107840147Y-117258574D01*
X107919438Y-117450000D01*
X102900562Y-117450000D01*
X102979853Y-117258574D01*
X103035000Y-116981335D01*
X103035000Y-116698665D01*
X102979853Y-116421426D01*
X102871680Y-116160273D01*
X102714637Y-115925241D01*
X102514759Y-115725363D01*
X102282241Y-115570000D01*
X102514759Y-115414637D01*
X102714637Y-115214759D01*
X102871680Y-114979727D01*
X102979853Y-114718574D01*
X103035000Y-114441335D01*
X103035000Y-114158665D01*
X102979853Y-113881426D01*
X102871680Y-113620273D01*
X102714637Y-113385241D01*
X102514759Y-113185363D01*
X102282241Y-113030000D01*
X102514759Y-112874637D01*
X102714637Y-112674759D01*
X102871680Y-112439727D01*
X102979853Y-112178574D01*
X103035000Y-111901335D01*
X103035000Y-111618665D01*
X102979853Y-111341426D01*
X102871680Y-111080273D01*
X102714637Y-110845241D01*
X102514759Y-110645363D01*
X102282241Y-110490000D01*
X102514759Y-110334637D01*
X102714637Y-110134759D01*
X102871680Y-109899727D01*
X102979853Y-109638574D01*
X103035000Y-109361335D01*
X103035000Y-109078665D01*
X102979853Y-108801426D01*
X102871680Y-108540273D01*
X102714637Y-108305241D01*
X102514759Y-108105363D01*
X102282241Y-107950000D01*
X102514759Y-107794637D01*
X102714637Y-107594759D01*
X102871680Y-107359727D01*
X102979853Y-107098574D01*
X103035000Y-106821335D01*
X103035000Y-106538665D01*
X102979853Y-106261426D01*
X102871680Y-106000273D01*
X102714637Y-105765241D01*
X102514759Y-105565363D01*
X102282241Y-105410000D01*
X102514759Y-105254637D01*
X102714637Y-105054759D01*
X102871680Y-104819727D01*
X102979853Y-104558574D01*
X103035000Y-104281335D01*
X103035000Y-104109802D01*
X104846200Y-105921002D01*
G37*
%TD.AperFunction*%
D20*
X112466205Y-108461008D02*
X112489999Y-108490001D01*
X112518992Y-108513795D01*
X112518996Y-108513799D01*
X112589685Y-108571811D01*
X112605724Y-108584974D01*
X112737753Y-108655546D01*
X112881014Y-108699003D01*
X112959375Y-108706721D01*
X112920147Y-108801426D01*
X112865000Y-109078665D01*
X112865000Y-109361335D01*
X112920147Y-109638574D01*
X113028320Y-109899727D01*
X113185363Y-110134759D01*
X113385241Y-110334637D01*
X113620273Y-110491680D01*
X113881426Y-110599853D01*
X114158665Y-110655000D01*
X114441335Y-110655000D01*
X114718574Y-110599853D01*
X114979727Y-110491680D01*
X115214759Y-110334637D01*
X115414637Y-110134759D01*
X115571680Y-109899727D01*
X115679853Y-109638574D01*
X115735000Y-109361335D01*
X115735000Y-109309801D01*
X116156202Y-109731003D01*
X116180000Y-109760001D01*
X116295725Y-109854974D01*
X116427754Y-109925546D01*
X116571015Y-109969003D01*
X116682668Y-109980000D01*
X116682677Y-109980000D01*
X116720000Y-109983676D01*
X116757323Y-109980000D01*
X120701957Y-109980000D01*
X120805363Y-110134759D01*
X121005241Y-110334637D01*
X121240273Y-110491680D01*
X121501426Y-110599853D01*
X121778665Y-110655000D01*
X122061335Y-110655000D01*
X122338574Y-110599853D01*
X122599727Y-110491680D01*
X122834759Y-110334637D01*
X123034637Y-110134759D01*
X123085354Y-110058856D01*
X123080147Y-110071426D01*
X123025000Y-110348665D01*
X123025000Y-110631335D01*
X123080147Y-110908574D01*
X123188320Y-111169727D01*
X123345363Y-111404759D01*
X123545241Y-111604637D01*
X123777759Y-111760000D01*
X123545241Y-111915363D01*
X123345363Y-112115241D01*
X123188320Y-112350273D01*
X123080147Y-112611426D01*
X123025000Y-112888665D01*
X123025000Y-113171335D01*
X123080147Y-113448574D01*
X123188320Y-113709727D01*
X123345363Y-113944759D01*
X123545241Y-114144637D01*
X123780273Y-114301680D01*
X124041426Y-114409853D01*
X124318665Y-114465000D01*
X124601335Y-114465000D01*
X124878574Y-114409853D01*
X125139727Y-114301680D01*
X125374759Y-114144637D01*
X125574637Y-113944759D01*
X125731680Y-113709727D01*
X125839853Y-113448574D01*
X125895000Y-113171335D01*
X125895000Y-112888665D01*
X125839853Y-112611426D01*
X125731680Y-112350273D01*
X125574637Y-112115241D01*
X125374759Y-111915363D01*
X125142241Y-111760000D01*
X125374759Y-111604637D01*
X125574637Y-111404759D01*
X125678043Y-111250000D01*
X128328289Y-111250000D01*
X128372226Y-111293937D01*
X128541744Y-111407205D01*
X128730102Y-111485226D01*
X128930061Y-111525000D01*
X129133939Y-111525000D01*
X129333898Y-111485226D01*
X129522256Y-111407205D01*
X129691774Y-111293937D01*
X129835937Y-111149774D01*
X129949205Y-110980256D01*
X130027226Y-110791898D01*
X130067000Y-110591939D01*
X130067000Y-110388061D01*
X130027226Y-110188102D01*
X129949205Y-109999744D01*
X129835937Y-109830226D01*
X129691774Y-109686063D01*
X129522256Y-109572795D01*
X129333898Y-109494774D01*
X129133939Y-109455000D01*
X128930061Y-109455000D01*
X128730102Y-109494774D01*
X128541744Y-109572795D01*
X128372226Y-109686063D01*
X128328289Y-109730000D01*
X125678043Y-109730000D01*
X125574637Y-109575241D01*
X125374759Y-109375363D01*
X125142241Y-109220000D01*
X125374759Y-109064637D01*
X125574637Y-108864759D01*
X125731680Y-108629727D01*
X125839853Y-108368574D01*
X125895000Y-108091335D01*
X125895000Y-107808665D01*
X125839853Y-107531426D01*
X125801983Y-107440000D01*
X127447199Y-107440000D01*
X130646606Y-110639408D01*
X130700147Y-110908574D01*
X130808320Y-111169727D01*
X130965363Y-111404759D01*
X131165241Y-111604637D01*
X131397759Y-111760000D01*
X131165241Y-111915363D01*
X130965363Y-112115241D01*
X130808320Y-112350273D01*
X130700147Y-112611426D01*
X130645000Y-112888665D01*
X130645000Y-113171335D01*
X130700147Y-113448574D01*
X130808320Y-113709727D01*
X130965363Y-113944759D01*
X131165241Y-114144637D01*
X131400273Y-114301680D01*
X131661426Y-114409853D01*
X131938665Y-114465000D01*
X132221335Y-114465000D01*
X132498574Y-114409853D01*
X132690000Y-114330562D01*
X132690000Y-115664725D01*
X132689335Y-115671513D01*
X132684699Y-115672000D01*
X111092581Y-115672000D01*
X111064581Y-115674758D01*
X111060745Y-115674731D01*
X111051574Y-115675631D01*
X110928323Y-115688586D01*
X110869733Y-115700613D01*
X110810971Y-115711822D01*
X110802149Y-115714486D01*
X110683762Y-115751133D01*
X110628632Y-115774308D01*
X110573153Y-115796722D01*
X110565017Y-115801049D01*
X110456002Y-115859993D01*
X110406422Y-115893435D01*
X110356355Y-115926197D01*
X110349214Y-115932022D01*
X110342744Y-115937374D01*
X110334637Y-115925241D01*
X110134759Y-115725363D01*
X109902241Y-115570000D01*
X110134759Y-115414637D01*
X110334637Y-115214759D01*
X110491680Y-114979727D01*
X110599853Y-114718574D01*
X110655000Y-114441335D01*
X110655000Y-114158665D01*
X110599853Y-113881426D01*
X110491680Y-113620273D01*
X110334637Y-113385241D01*
X110134759Y-113185363D01*
X109902241Y-113030000D01*
X110134759Y-112874637D01*
X110334637Y-112674759D01*
X110491680Y-112439727D01*
X110599853Y-112178574D01*
X110655000Y-111901335D01*
X110655000Y-111618665D01*
X110599853Y-111341426D01*
X110491680Y-111080273D01*
X110334637Y-110845241D01*
X110134759Y-110645363D01*
X109902241Y-110490000D01*
X110134759Y-110334637D01*
X110334637Y-110134759D01*
X110491680Y-109899727D01*
X110599853Y-109638574D01*
X110655000Y-109361335D01*
X110655000Y-109078665D01*
X110599853Y-108801426D01*
X110491680Y-108540273D01*
X110334637Y-108305241D01*
X110134759Y-108105363D01*
X109902241Y-107950000D01*
X110134759Y-107794637D01*
X110334637Y-107594759D01*
X110491680Y-107359727D01*
X110599853Y-107098574D01*
X110655000Y-106821335D01*
X110655000Y-106649802D01*
X112466205Y-108461008D01*
%TA.AperFunction,Conductor*%
D21*
G36*
X112466205Y-108461008D02*
G01*
X112489999Y-108490001D01*
X112518992Y-108513795D01*
X112518996Y-108513799D01*
X112589685Y-108571811D01*
X112605724Y-108584974D01*
X112737753Y-108655546D01*
X112881014Y-108699003D01*
X112959375Y-108706721D01*
X112920147Y-108801426D01*
X112865000Y-109078665D01*
X112865000Y-109361335D01*
X112920147Y-109638574D01*
X113028320Y-109899727D01*
X113185363Y-110134759D01*
X113385241Y-110334637D01*
X113620273Y-110491680D01*
X113881426Y-110599853D01*
X114158665Y-110655000D01*
X114441335Y-110655000D01*
X114718574Y-110599853D01*
X114979727Y-110491680D01*
X115214759Y-110334637D01*
X115414637Y-110134759D01*
X115571680Y-109899727D01*
X115679853Y-109638574D01*
X115735000Y-109361335D01*
X115735000Y-109309801D01*
X116156202Y-109731003D01*
X116180000Y-109760001D01*
X116295725Y-109854974D01*
X116427754Y-109925546D01*
X116571015Y-109969003D01*
X116682668Y-109980000D01*
X116682677Y-109980000D01*
X116720000Y-109983676D01*
X116757323Y-109980000D01*
X120701957Y-109980000D01*
X120805363Y-110134759D01*
X121005241Y-110334637D01*
X121240273Y-110491680D01*
X121501426Y-110599853D01*
X121778665Y-110655000D01*
X122061335Y-110655000D01*
X122338574Y-110599853D01*
X122599727Y-110491680D01*
X122834759Y-110334637D01*
X123034637Y-110134759D01*
X123085354Y-110058856D01*
X123080147Y-110071426D01*
X123025000Y-110348665D01*
X123025000Y-110631335D01*
X123080147Y-110908574D01*
X123188320Y-111169727D01*
X123345363Y-111404759D01*
X123545241Y-111604637D01*
X123777759Y-111760000D01*
X123545241Y-111915363D01*
X123345363Y-112115241D01*
X123188320Y-112350273D01*
X123080147Y-112611426D01*
X123025000Y-112888665D01*
X123025000Y-113171335D01*
X123080147Y-113448574D01*
X123188320Y-113709727D01*
X123345363Y-113944759D01*
X123545241Y-114144637D01*
X123780273Y-114301680D01*
X124041426Y-114409853D01*
X124318665Y-114465000D01*
X124601335Y-114465000D01*
X124878574Y-114409853D01*
X125139727Y-114301680D01*
X125374759Y-114144637D01*
X125574637Y-113944759D01*
X125731680Y-113709727D01*
X125839853Y-113448574D01*
X125895000Y-113171335D01*
X125895000Y-112888665D01*
X125839853Y-112611426D01*
X125731680Y-112350273D01*
X125574637Y-112115241D01*
X125374759Y-111915363D01*
X125142241Y-111760000D01*
X125374759Y-111604637D01*
X125574637Y-111404759D01*
X125678043Y-111250000D01*
X128328289Y-111250000D01*
X128372226Y-111293937D01*
X128541744Y-111407205D01*
X128730102Y-111485226D01*
X128930061Y-111525000D01*
X129133939Y-111525000D01*
X129333898Y-111485226D01*
X129522256Y-111407205D01*
X129691774Y-111293937D01*
X129835937Y-111149774D01*
X129949205Y-110980256D01*
X130027226Y-110791898D01*
X130067000Y-110591939D01*
X130067000Y-110388061D01*
X130027226Y-110188102D01*
X129949205Y-109999744D01*
X129835937Y-109830226D01*
X129691774Y-109686063D01*
X129522256Y-109572795D01*
X129333898Y-109494774D01*
X129133939Y-109455000D01*
X128930061Y-109455000D01*
X128730102Y-109494774D01*
X128541744Y-109572795D01*
X128372226Y-109686063D01*
X128328289Y-109730000D01*
X125678043Y-109730000D01*
X125574637Y-109575241D01*
X125374759Y-109375363D01*
X125142241Y-109220000D01*
X125374759Y-109064637D01*
X125574637Y-108864759D01*
X125731680Y-108629727D01*
X125839853Y-108368574D01*
X125895000Y-108091335D01*
X125895000Y-107808665D01*
X125839853Y-107531426D01*
X125801983Y-107440000D01*
X127447199Y-107440000D01*
X130646606Y-110639408D01*
X130700147Y-110908574D01*
X130808320Y-111169727D01*
X130965363Y-111404759D01*
X131165241Y-111604637D01*
X131397759Y-111760000D01*
X131165241Y-111915363D01*
X130965363Y-112115241D01*
X130808320Y-112350273D01*
X130700147Y-112611426D01*
X130645000Y-112888665D01*
X130645000Y-113171335D01*
X130700147Y-113448574D01*
X130808320Y-113709727D01*
X130965363Y-113944759D01*
X131165241Y-114144637D01*
X131400273Y-114301680D01*
X131661426Y-114409853D01*
X131938665Y-114465000D01*
X132221335Y-114465000D01*
X132498574Y-114409853D01*
X132690000Y-114330562D01*
X132690000Y-115664725D01*
X132689335Y-115671513D01*
X132684699Y-115672000D01*
X111092581Y-115672000D01*
X111064581Y-115674758D01*
X111060745Y-115674731D01*
X111051574Y-115675631D01*
X110928323Y-115688586D01*
X110869733Y-115700613D01*
X110810971Y-115711822D01*
X110802149Y-115714486D01*
X110683762Y-115751133D01*
X110628632Y-115774308D01*
X110573153Y-115796722D01*
X110565017Y-115801049D01*
X110456002Y-115859993D01*
X110406422Y-115893435D01*
X110356355Y-115926197D01*
X110349214Y-115932022D01*
X110342744Y-115937374D01*
X110334637Y-115925241D01*
X110134759Y-115725363D01*
X109902241Y-115570000D01*
X110134759Y-115414637D01*
X110334637Y-115214759D01*
X110491680Y-114979727D01*
X110599853Y-114718574D01*
X110655000Y-114441335D01*
X110655000Y-114158665D01*
X110599853Y-113881426D01*
X110491680Y-113620273D01*
X110334637Y-113385241D01*
X110134759Y-113185363D01*
X109902241Y-113030000D01*
X110134759Y-112874637D01*
X110334637Y-112674759D01*
X110491680Y-112439727D01*
X110599853Y-112178574D01*
X110655000Y-111901335D01*
X110655000Y-111618665D01*
X110599853Y-111341426D01*
X110491680Y-111080273D01*
X110334637Y-110845241D01*
X110134759Y-110645363D01*
X109902241Y-110490000D01*
X110134759Y-110334637D01*
X110334637Y-110134759D01*
X110491680Y-109899727D01*
X110599853Y-109638574D01*
X110655000Y-109361335D01*
X110655000Y-109078665D01*
X110599853Y-108801426D01*
X110491680Y-108540273D01*
X110334637Y-108305241D01*
X110134759Y-108105363D01*
X109902241Y-107950000D01*
X110134759Y-107794637D01*
X110334637Y-107594759D01*
X110491680Y-107359727D01*
X110599853Y-107098574D01*
X110655000Y-106821335D01*
X110655000Y-106649802D01*
X112466205Y-108461008D01*
G37*
%TD.AperFunction*%
D20*
X103995764Y-91721309D02*
X104077818Y-91991808D01*
X104211069Y-92241101D01*
X104390393Y-92459608D01*
X104445155Y-92504550D01*
X106885454Y-94944851D01*
X106930392Y-94999608D01*
X107148899Y-95178932D01*
X107398192Y-95312182D01*
X107555344Y-95359853D01*
X107668690Y-95394236D01*
X107949999Y-95421943D01*
X108020491Y-95415000D01*
X108295604Y-95415000D01*
X108105363Y-95605241D01*
X107948320Y-95840273D01*
X107840147Y-96101426D01*
X107785000Y-96378665D01*
X107785000Y-96661335D01*
X107840147Y-96938574D01*
X107878017Y-97030000D01*
X103184802Y-97030000D01*
X102998688Y-96843886D01*
X103035000Y-96661335D01*
X103035000Y-96378665D01*
X102979853Y-96101426D01*
X102871680Y-95840273D01*
X102714637Y-95605241D01*
X102516039Y-95406643D01*
X102524482Y-95405812D01*
X102644180Y-95369502D01*
X102754494Y-95310537D01*
X102851185Y-95231185D01*
X102930537Y-95134494D01*
X102989502Y-95024180D01*
X103025812Y-94904482D01*
X103038072Y-94780000D01*
X103038072Y-93180000D01*
X103025812Y-93055518D01*
X102989502Y-92935820D01*
X102930537Y-92825506D01*
X102851185Y-92728815D01*
X102754494Y-92649463D01*
X102644180Y-92590498D01*
X102524482Y-92554188D01*
X102400000Y-92541928D01*
X102360000Y-92541928D01*
X102360000Y-91658072D01*
X102450000Y-91658072D01*
X102574482Y-91645812D01*
X102694180Y-91609502D01*
X102702603Y-91605000D01*
X103984308Y-91605000D01*
X103995764Y-91721309D01*
%TA.AperFunction,Conductor*%
D21*
G36*
X103995764Y-91721309D02*
G01*
X104077818Y-91991808D01*
X104211069Y-92241101D01*
X104390393Y-92459608D01*
X104445155Y-92504550D01*
X106885454Y-94944851D01*
X106930392Y-94999608D01*
X107148899Y-95178932D01*
X107398192Y-95312182D01*
X107555344Y-95359853D01*
X107668690Y-95394236D01*
X107949999Y-95421943D01*
X108020491Y-95415000D01*
X108295604Y-95415000D01*
X108105363Y-95605241D01*
X107948320Y-95840273D01*
X107840147Y-96101426D01*
X107785000Y-96378665D01*
X107785000Y-96661335D01*
X107840147Y-96938574D01*
X107878017Y-97030000D01*
X103184802Y-97030000D01*
X102998688Y-96843886D01*
X103035000Y-96661335D01*
X103035000Y-96378665D01*
X102979853Y-96101426D01*
X102871680Y-95840273D01*
X102714637Y-95605241D01*
X102516039Y-95406643D01*
X102524482Y-95405812D01*
X102644180Y-95369502D01*
X102754494Y-95310537D01*
X102851185Y-95231185D01*
X102930537Y-95134494D01*
X102989502Y-95024180D01*
X103025812Y-94904482D01*
X103038072Y-94780000D01*
X103038072Y-93180000D01*
X103025812Y-93055518D01*
X102989502Y-92935820D01*
X102930537Y-92825506D01*
X102851185Y-92728815D01*
X102754494Y-92649463D01*
X102644180Y-92590498D01*
X102524482Y-92554188D01*
X102400000Y-92541928D01*
X102360000Y-92541928D01*
X102360000Y-91658072D01*
X102450000Y-91658072D01*
X102574482Y-91645812D01*
X102694180Y-91609502D01*
X102702603Y-91605000D01*
X103984308Y-91605000D01*
X103995764Y-91721309D01*
G37*
%TD.AperFunction*%
D20*
X132689513Y-78130666D02*
X132690001Y-78135310D01*
X132690001Y-96488923D01*
X132631808Y-96457818D01*
X132564014Y-96437253D01*
X132498574Y-96410147D01*
X132429097Y-96396327D01*
X132361309Y-96375764D01*
X132290817Y-96368821D01*
X132221335Y-96355000D01*
X131404396Y-96355000D01*
X130433539Y-95384143D01*
X130588665Y-95415000D01*
X130871335Y-95415000D01*
X131148574Y-95359853D01*
X131409727Y-95251680D01*
X131644759Y-95094637D01*
X131844637Y-94894759D01*
X132001680Y-94659727D01*
X132109853Y-94398574D01*
X132165000Y-94121335D01*
X132165000Y-93838665D01*
X132109853Y-93561426D01*
X132001680Y-93300273D01*
X131844637Y-93065241D01*
X131644759Y-92865363D01*
X131409727Y-92708320D01*
X131148574Y-92600147D01*
X130871335Y-92545000D01*
X130588665Y-92545000D01*
X130311426Y-92600147D01*
X130050273Y-92708320D01*
X129815241Y-92865363D01*
X129615363Y-93065241D01*
X129458320Y-93300273D01*
X129350147Y-93561426D01*
X129295000Y-93838665D01*
X129295000Y-94121335D01*
X129325857Y-94276462D01*
X128064554Y-93015159D01*
X128019608Y-92960392D01*
X127801101Y-92781068D01*
X127551808Y-92647818D01*
X127281309Y-92565764D01*
X127070492Y-92545000D01*
X127000000Y-92538057D01*
X126929508Y-92545000D01*
X121778665Y-92545000D01*
X121709183Y-92558821D01*
X121638691Y-92565764D01*
X121570903Y-92586327D01*
X121501426Y-92600147D01*
X121435986Y-92627253D01*
X121368192Y-92647818D01*
X121305712Y-92681214D01*
X121240273Y-92708320D01*
X121181378Y-92747672D01*
X121118899Y-92781068D01*
X121064137Y-92826010D01*
X121005241Y-92865363D01*
X120955154Y-92915450D01*
X120900392Y-92960392D01*
X120855450Y-93015154D01*
X120805363Y-93065241D01*
X120766010Y-93124137D01*
X120721068Y-93178899D01*
X120687672Y-93241378D01*
X120648320Y-93300273D01*
X120621214Y-93365712D01*
X120587818Y-93428192D01*
X120567253Y-93495986D01*
X120540147Y-93561426D01*
X120526327Y-93630903D01*
X120505764Y-93698691D01*
X120498821Y-93769183D01*
X120485000Y-93838665D01*
X120485000Y-93909508D01*
X120478057Y-93980000D01*
X120485000Y-94050492D01*
X120485000Y-94121335D01*
X120498821Y-94190817D01*
X120505764Y-94261309D01*
X120526327Y-94329097D01*
X120540147Y-94398574D01*
X120567253Y-94464014D01*
X120587818Y-94531808D01*
X120621214Y-94594288D01*
X120648320Y-94659727D01*
X120687672Y-94718622D01*
X120721068Y-94781101D01*
X120766010Y-94835863D01*
X120805363Y-94894759D01*
X120855450Y-94944846D01*
X120900392Y-94999608D01*
X120955154Y-95044550D01*
X121005241Y-95094637D01*
X121064137Y-95133990D01*
X121118899Y-95178932D01*
X121181378Y-95212328D01*
X121237759Y-95250000D01*
X121005241Y-95405363D01*
X120805363Y-95605241D01*
X120701957Y-95760000D01*
X119417322Y-95760000D01*
X119379999Y-95756324D01*
X119342676Y-95760000D01*
X119342667Y-95760000D01*
X119231014Y-95770997D01*
X119087753Y-95814454D01*
X118955724Y-95885026D01*
X118839999Y-95979999D01*
X118816201Y-96008997D01*
X118070199Y-96755000D01*
X118008061Y-96755000D01*
X117808102Y-96794774D01*
X117619744Y-96872795D01*
X117600000Y-96885987D01*
X117600000Y-96557333D01*
X117603677Y-96520000D01*
X117589003Y-96371014D01*
X117545546Y-96227753D01*
X117474974Y-96095724D01*
X117403799Y-96008997D01*
X117380001Y-95979999D01*
X117351003Y-95956201D01*
X117240000Y-95845198D01*
X117240000Y-95783061D01*
X117200226Y-95583102D01*
X117122205Y-95394744D01*
X117008937Y-95225226D01*
X116864774Y-95081063D01*
X116695256Y-94967795D01*
X116506898Y-94889774D01*
X116306939Y-94850000D01*
X116244802Y-94850000D01*
X115738072Y-94343271D01*
X115738072Y-93180000D01*
X115725812Y-93055518D01*
X115689502Y-92935820D01*
X115630537Y-92825506D01*
X115551185Y-92728815D01*
X115454494Y-92649463D01*
X115344180Y-92590498D01*
X115224482Y-92554188D01*
X115100000Y-92541928D01*
X113500000Y-92541928D01*
X113375518Y-92554188D01*
X113255820Y-92590498D01*
X113145506Y-92649463D01*
X113048815Y-92728815D01*
X112969463Y-92825506D01*
X112910498Y-92935820D01*
X112874188Y-93055518D01*
X112861928Y-93180000D01*
X112861928Y-94780000D01*
X112874188Y-94904482D01*
X112910498Y-95024180D01*
X112969463Y-95134494D01*
X113048815Y-95231185D01*
X113145506Y-95310537D01*
X113255820Y-95369502D01*
X113375518Y-95405812D01*
X113383961Y-95406643D01*
X113185363Y-95605241D01*
X113028320Y-95840273D01*
X112920147Y-96101426D01*
X112865000Y-96378665D01*
X112865000Y-96661335D01*
X112920147Y-96938574D01*
X112958017Y-97030000D01*
X110561983Y-97030000D01*
X110599853Y-96938574D01*
X110655000Y-96661335D01*
X110655000Y-96378665D01*
X110599853Y-96101426D01*
X110491680Y-95840273D01*
X110334637Y-95605241D01*
X110134759Y-95405363D01*
X109902241Y-95250000D01*
X109958622Y-95212328D01*
X110021101Y-95178932D01*
X110075863Y-95133990D01*
X110134759Y-95094637D01*
X110184846Y-95044550D01*
X110239608Y-94999608D01*
X110284550Y-94944846D01*
X110334637Y-94894759D01*
X110373990Y-94835863D01*
X110418932Y-94781101D01*
X110452328Y-94718622D01*
X110491680Y-94659727D01*
X110518786Y-94594288D01*
X110552182Y-94531808D01*
X110572747Y-94464014D01*
X110599853Y-94398574D01*
X110613673Y-94329097D01*
X110634236Y-94261309D01*
X110641179Y-94190817D01*
X110655000Y-94121335D01*
X110655000Y-94050492D01*
X110661943Y-93980000D01*
X110655000Y-93909508D01*
X110655000Y-93838665D01*
X110641179Y-93769183D01*
X110634236Y-93698691D01*
X110613673Y-93630903D01*
X110599853Y-93561426D01*
X110572747Y-93495986D01*
X110552182Y-93428192D01*
X110518786Y-93365712D01*
X110491680Y-93300273D01*
X110452328Y-93241378D01*
X110418932Y-93178899D01*
X110373990Y-93124137D01*
X110334637Y-93065241D01*
X110284550Y-93015154D01*
X110239608Y-92960392D01*
X110184846Y-92915450D01*
X110134759Y-92865363D01*
X110075863Y-92826010D01*
X110021101Y-92781068D01*
X109958622Y-92747672D01*
X109899727Y-92708320D01*
X109834288Y-92681214D01*
X109771808Y-92647818D01*
X109704014Y-92627253D01*
X109638574Y-92600147D01*
X109569097Y-92586327D01*
X109501309Y-92565764D01*
X109430817Y-92558821D01*
X109361335Y-92545000D01*
X108544397Y-92545000D01*
X106845000Y-90845605D01*
X106845000Y-90240492D01*
X106851943Y-90170000D01*
X106845000Y-90099508D01*
X106845000Y-90028665D01*
X108975000Y-90028665D01*
X108975000Y-90311335D01*
X109030147Y-90588574D01*
X109138320Y-90849727D01*
X109295363Y-91084759D01*
X109495241Y-91284637D01*
X109730273Y-91441680D01*
X109991426Y-91549853D01*
X110268665Y-91605000D01*
X110551335Y-91605000D01*
X110828574Y-91549853D01*
X111089727Y-91441680D01*
X111244804Y-91338061D01*
X117710000Y-91338061D01*
X117710000Y-91541939D01*
X117749774Y-91741898D01*
X117827795Y-91930256D01*
X117941063Y-92099774D01*
X118085226Y-92243937D01*
X118254744Y-92357205D01*
X118443102Y-92435226D01*
X118643061Y-92475000D01*
X118846939Y-92475000D01*
X119046898Y-92435226D01*
X119235256Y-92357205D01*
X119404774Y-92243937D01*
X119448711Y-92200000D01*
X122263678Y-92200000D01*
X122301000Y-92203676D01*
X122338322Y-92200000D01*
X122338333Y-92200000D01*
X122449986Y-92189003D01*
X122593247Y-92145546D01*
X122725276Y-92074974D01*
X122841001Y-91980001D01*
X122864804Y-91950997D01*
X124372802Y-90443000D01*
X124434939Y-90443000D01*
X124634898Y-90403226D01*
X124823256Y-90325205D01*
X124992774Y-90211937D01*
X125136937Y-90067774D01*
X125250205Y-89898256D01*
X125328226Y-89709898D01*
X125368000Y-89509939D01*
X125368000Y-89306061D01*
X125328226Y-89106102D01*
X125250205Y-88917744D01*
X125136937Y-88748226D01*
X124992774Y-88604063D01*
X124823256Y-88490795D01*
X124634898Y-88412774D01*
X124434939Y-88373000D01*
X124231061Y-88373000D01*
X124031102Y-88412774D01*
X123842744Y-88490795D01*
X123673226Y-88604063D01*
X123529063Y-88748226D01*
X123415795Y-88917744D01*
X123337774Y-89106102D01*
X123298000Y-89306061D01*
X123298000Y-89368198D01*
X121986199Y-90680000D01*
X119448711Y-90680000D01*
X119404774Y-90636063D01*
X119235256Y-90522795D01*
X119046898Y-90444774D01*
X118846939Y-90405000D01*
X118643061Y-90405000D01*
X118443102Y-90444774D01*
X118254744Y-90522795D01*
X118085226Y-90636063D01*
X117941063Y-90780226D01*
X117827795Y-90949744D01*
X117749774Y-91138102D01*
X117710000Y-91338061D01*
X111244804Y-91338061D01*
X111324759Y-91284637D01*
X111524637Y-91084759D01*
X111681680Y-90849727D01*
X111789853Y-90588574D01*
X111845000Y-90311335D01*
X111845000Y-90028665D01*
X111789853Y-89751426D01*
X111681680Y-89490273D01*
X111524637Y-89255241D01*
X111324759Y-89055363D01*
X111089727Y-88898320D01*
X110828574Y-88790147D01*
X110551335Y-88735000D01*
X110268665Y-88735000D01*
X109991426Y-88790147D01*
X109730273Y-88898320D01*
X109495241Y-89055363D01*
X109295363Y-89255241D01*
X109138320Y-89490273D01*
X109030147Y-89751426D01*
X108975000Y-90028665D01*
X106845000Y-90028665D01*
X106831179Y-89959183D01*
X106824236Y-89888691D01*
X106803673Y-89820903D01*
X106789853Y-89751426D01*
X106762747Y-89685986D01*
X106742182Y-89618192D01*
X106708786Y-89555712D01*
X106681680Y-89490273D01*
X106642328Y-89431378D01*
X106608932Y-89368899D01*
X106563990Y-89314137D01*
X106524637Y-89255241D01*
X106474550Y-89205154D01*
X106429608Y-89150392D01*
X106374846Y-89105450D01*
X106324759Y-89055363D01*
X106265863Y-89016010D01*
X106211101Y-88971068D01*
X106148622Y-88937672D01*
X106089727Y-88898320D01*
X106024288Y-88871214D01*
X105961808Y-88837818D01*
X105894014Y-88817253D01*
X105828574Y-88790147D01*
X105759097Y-88776327D01*
X105691309Y-88755764D01*
X105620817Y-88748821D01*
X105551335Y-88735000D01*
X105480492Y-88735000D01*
X105410000Y-88728057D01*
X105339508Y-88735000D01*
X102702603Y-88735000D01*
X102694180Y-88730498D01*
X102574482Y-88694188D01*
X102450000Y-88681928D01*
X100990000Y-88681928D01*
X100990000Y-88297275D01*
X100990666Y-88290487D01*
X100995301Y-88290000D01*
X113697419Y-88290000D01*
X113725419Y-88287242D01*
X113729255Y-88287269D01*
X113738426Y-88286369D01*
X113861677Y-88273414D01*
X113920274Y-88261385D01*
X113979028Y-88250178D01*
X113987850Y-88247514D01*
X114106238Y-88210867D01*
X114161368Y-88187692D01*
X114216847Y-88165278D01*
X114224983Y-88160951D01*
X114333998Y-88102008D01*
X114383582Y-88068563D01*
X114433645Y-88035803D01*
X114440786Y-88029978D01*
X114536276Y-87950982D01*
X114578430Y-87908533D01*
X114621165Y-87866685D01*
X114627039Y-87859584D01*
X114705367Y-87763545D01*
X114738472Y-87713719D01*
X114772267Y-87664362D01*
X114776650Y-87656256D01*
X114834832Y-87546833D01*
X114857621Y-87491541D01*
X114881193Y-87436545D01*
X114883918Y-87427742D01*
X114919737Y-87309101D01*
X114931357Y-87250417D01*
X114943794Y-87191906D01*
X114944756Y-87182750D01*
X114944757Y-87182745D01*
X114944757Y-87182741D01*
X114956850Y-87059403D01*
X114956850Y-87059402D01*
X114960000Y-87027419D01*
X114960000Y-80430000D01*
X116621928Y-80430000D01*
X116621928Y-82130000D01*
X116634188Y-82254482D01*
X116670498Y-82374180D01*
X116729463Y-82484494D01*
X116808815Y-82581185D01*
X116905506Y-82660537D01*
X117015820Y-82719502D01*
X117088380Y-82741513D01*
X116956525Y-82873368D01*
X116794010Y-83116589D01*
X116682068Y-83386842D01*
X116625000Y-83673740D01*
X116625000Y-83966260D01*
X116682068Y-84253158D01*
X116794010Y-84523411D01*
X116956525Y-84766632D01*
X117163368Y-84973475D01*
X117337760Y-85090000D01*
X117163368Y-85206525D01*
X116956525Y-85413368D01*
X116794010Y-85656589D01*
X116682068Y-85926842D01*
X116625000Y-86213740D01*
X116625000Y-86506260D01*
X116682068Y-86793158D01*
X116794010Y-87063411D01*
X116956525Y-87306632D01*
X117163368Y-87513475D01*
X117337760Y-87630000D01*
X117163368Y-87746525D01*
X116956525Y-87953368D01*
X116794010Y-88196589D01*
X116682068Y-88466842D01*
X116625000Y-88753740D01*
X116625000Y-89046260D01*
X116682068Y-89333158D01*
X116794010Y-89603411D01*
X116956525Y-89846632D01*
X117163368Y-90053475D01*
X117406589Y-90215990D01*
X117676842Y-90327932D01*
X117963740Y-90385000D01*
X118256260Y-90385000D01*
X118543158Y-90327932D01*
X118813411Y-90215990D01*
X119056632Y-90053475D01*
X119263475Y-89846632D01*
X119380000Y-89672240D01*
X119496525Y-89846632D01*
X119703368Y-90053475D01*
X119946589Y-90215990D01*
X120216842Y-90327932D01*
X120503740Y-90385000D01*
X120796260Y-90385000D01*
X121083158Y-90327932D01*
X121353411Y-90215990D01*
X121596632Y-90053475D01*
X121803475Y-89846632D01*
X121965990Y-89603411D01*
X122077932Y-89333158D01*
X122135000Y-89046260D01*
X122135000Y-88753740D01*
X122077932Y-88466842D01*
X121965990Y-88196589D01*
X121803475Y-87953368D01*
X121596632Y-87746525D01*
X121422240Y-87630000D01*
X121596632Y-87513475D01*
X121803475Y-87306632D01*
X121965990Y-87063411D01*
X122077932Y-86793158D01*
X122135000Y-86506260D01*
X122135000Y-86213740D01*
X122077932Y-85926842D01*
X121965990Y-85656589D01*
X121803475Y-85413368D01*
X121596632Y-85206525D01*
X121422240Y-85090000D01*
X121596632Y-84973475D01*
X121803475Y-84766632D01*
X121965990Y-84523411D01*
X122077932Y-84253158D01*
X122135000Y-83966260D01*
X122135000Y-83673740D01*
X122077932Y-83386842D01*
X121965990Y-83116589D01*
X121803475Y-82873368D01*
X121596632Y-82666525D01*
X121422240Y-82550000D01*
X121596632Y-82433475D01*
X121803475Y-82226632D01*
X121965990Y-81983411D01*
X122077932Y-81713158D01*
X122135000Y-81426260D01*
X122135000Y-81133740D01*
X122077932Y-80846842D01*
X121965990Y-80576589D01*
X121868043Y-80430000D01*
X125511928Y-80430000D01*
X125511928Y-82130000D01*
X125524188Y-82254482D01*
X125560498Y-82374180D01*
X125619463Y-82484494D01*
X125698815Y-82581185D01*
X125795506Y-82660537D01*
X125905820Y-82719502D01*
X125978380Y-82741513D01*
X125846525Y-82873368D01*
X125684010Y-83116589D01*
X125572068Y-83386842D01*
X125515000Y-83673740D01*
X125515000Y-83966260D01*
X125572068Y-84253158D01*
X125684010Y-84523411D01*
X125846525Y-84766632D01*
X126053368Y-84973475D01*
X126227760Y-85090000D01*
X126053368Y-85206525D01*
X125846525Y-85413368D01*
X125684010Y-85656589D01*
X125572068Y-85926842D01*
X125515000Y-86213740D01*
X125515000Y-86506260D01*
X125572068Y-86793158D01*
X125684010Y-87063411D01*
X125846525Y-87306632D01*
X126053368Y-87513475D01*
X126227760Y-87630000D01*
X126053368Y-87746525D01*
X125846525Y-87953368D01*
X125684010Y-88196589D01*
X125572068Y-88466842D01*
X125515000Y-88753740D01*
X125515000Y-89046260D01*
X125572068Y-89333158D01*
X125684010Y-89603411D01*
X125846525Y-89846632D01*
X126053368Y-90053475D01*
X126296589Y-90215990D01*
X126566842Y-90327932D01*
X126853740Y-90385000D01*
X127146260Y-90385000D01*
X127433158Y-90327932D01*
X127703411Y-90215990D01*
X127946632Y-90053475D01*
X128153475Y-89846632D01*
X128270000Y-89672240D01*
X128386525Y-89846632D01*
X128593368Y-90053475D01*
X128836589Y-90215990D01*
X129106842Y-90327932D01*
X129393740Y-90385000D01*
X129686260Y-90385000D01*
X129973158Y-90327932D01*
X130243411Y-90215990D01*
X130486632Y-90053475D01*
X130693475Y-89846632D01*
X130855990Y-89603411D01*
X130967932Y-89333158D01*
X131025000Y-89046260D01*
X131025000Y-88753740D01*
X130967932Y-88466842D01*
X130855990Y-88196589D01*
X130693475Y-87953368D01*
X130486632Y-87746525D01*
X130312240Y-87630000D01*
X130486632Y-87513475D01*
X130693475Y-87306632D01*
X130855990Y-87063411D01*
X130967932Y-86793158D01*
X131025000Y-86506260D01*
X131025000Y-86213740D01*
X130967932Y-85926842D01*
X130855990Y-85656589D01*
X130693475Y-85413368D01*
X130486632Y-85206525D01*
X130312240Y-85090000D01*
X130486632Y-84973475D01*
X130693475Y-84766632D01*
X130855990Y-84523411D01*
X130967932Y-84253158D01*
X131025000Y-83966260D01*
X131025000Y-83673740D01*
X130967932Y-83386842D01*
X130855990Y-83116589D01*
X130693475Y-82873368D01*
X130486632Y-82666525D01*
X130312240Y-82550000D01*
X130486632Y-82433475D01*
X130693475Y-82226632D01*
X130855990Y-81983411D01*
X130967932Y-81713158D01*
X131025000Y-81426260D01*
X131025000Y-81133740D01*
X130967932Y-80846842D01*
X130855990Y-80576589D01*
X130693475Y-80333368D01*
X130486632Y-80126525D01*
X130243411Y-79964010D01*
X129973158Y-79852068D01*
X129686260Y-79795000D01*
X129393740Y-79795000D01*
X129106842Y-79852068D01*
X128836589Y-79964010D01*
X128593368Y-80126525D01*
X128461513Y-80258380D01*
X128439502Y-80185820D01*
X128380537Y-80075506D01*
X128301185Y-79978815D01*
X128204494Y-79899463D01*
X128094180Y-79840498D01*
X127974482Y-79804188D01*
X127850000Y-79791928D01*
X126150000Y-79791928D01*
X126025518Y-79804188D01*
X125905820Y-79840498D01*
X125795506Y-79899463D01*
X125698815Y-79978815D01*
X125619463Y-80075506D01*
X125560498Y-80185820D01*
X125524188Y-80305518D01*
X125511928Y-80430000D01*
X121868043Y-80430000D01*
X121803475Y-80333368D01*
X121596632Y-80126525D01*
X121353411Y-79964010D01*
X121083158Y-79852068D01*
X120796260Y-79795000D01*
X120503740Y-79795000D01*
X120216842Y-79852068D01*
X119946589Y-79964010D01*
X119703368Y-80126525D01*
X119571513Y-80258380D01*
X119549502Y-80185820D01*
X119490537Y-80075506D01*
X119411185Y-79978815D01*
X119314494Y-79899463D01*
X119204180Y-79840498D01*
X119084482Y-79804188D01*
X118960000Y-79791928D01*
X117260000Y-79791928D01*
X117135518Y-79804188D01*
X117015820Y-79840498D01*
X116905506Y-79899463D01*
X116808815Y-79978815D01*
X116729463Y-80075506D01*
X116670498Y-80185820D01*
X116634188Y-80305518D01*
X116621928Y-80430000D01*
X114960000Y-80430000D01*
X114960000Y-78137275D01*
X114960666Y-78130487D01*
X114965301Y-78130000D01*
X132682725Y-78130000D01*
X132689513Y-78130666D01*
%TA.AperFunction,Conductor*%
D21*
G36*
X132689513Y-78130666D02*
G01*
X132690001Y-78135310D01*
X132690001Y-96488923D01*
X132631808Y-96457818D01*
X132564014Y-96437253D01*
X132498574Y-96410147D01*
X132429097Y-96396327D01*
X132361309Y-96375764D01*
X132290817Y-96368821D01*
X132221335Y-96355000D01*
X131404396Y-96355000D01*
X130433539Y-95384143D01*
X130588665Y-95415000D01*
X130871335Y-95415000D01*
X131148574Y-95359853D01*
X131409727Y-95251680D01*
X131644759Y-95094637D01*
X131844637Y-94894759D01*
X132001680Y-94659727D01*
X132109853Y-94398574D01*
X132165000Y-94121335D01*
X132165000Y-93838665D01*
X132109853Y-93561426D01*
X132001680Y-93300273D01*
X131844637Y-93065241D01*
X131644759Y-92865363D01*
X131409727Y-92708320D01*
X131148574Y-92600147D01*
X130871335Y-92545000D01*
X130588665Y-92545000D01*
X130311426Y-92600147D01*
X130050273Y-92708320D01*
X129815241Y-92865363D01*
X129615363Y-93065241D01*
X129458320Y-93300273D01*
X129350147Y-93561426D01*
X129295000Y-93838665D01*
X129295000Y-94121335D01*
X129325857Y-94276462D01*
X128064554Y-93015159D01*
X128019608Y-92960392D01*
X127801101Y-92781068D01*
X127551808Y-92647818D01*
X127281309Y-92565764D01*
X127070492Y-92545000D01*
X127000000Y-92538057D01*
X126929508Y-92545000D01*
X121778665Y-92545000D01*
X121709183Y-92558821D01*
X121638691Y-92565764D01*
X121570903Y-92586327D01*
X121501426Y-92600147D01*
X121435986Y-92627253D01*
X121368192Y-92647818D01*
X121305712Y-92681214D01*
X121240273Y-92708320D01*
X121181378Y-92747672D01*
X121118899Y-92781068D01*
X121064137Y-92826010D01*
X121005241Y-92865363D01*
X120955154Y-92915450D01*
X120900392Y-92960392D01*
X120855450Y-93015154D01*
X120805363Y-93065241D01*
X120766010Y-93124137D01*
X120721068Y-93178899D01*
X120687672Y-93241378D01*
X120648320Y-93300273D01*
X120621214Y-93365712D01*
X120587818Y-93428192D01*
X120567253Y-93495986D01*
X120540147Y-93561426D01*
X120526327Y-93630903D01*
X120505764Y-93698691D01*
X120498821Y-93769183D01*
X120485000Y-93838665D01*
X120485000Y-93909508D01*
X120478057Y-93980000D01*
X120485000Y-94050492D01*
X120485000Y-94121335D01*
X120498821Y-94190817D01*
X120505764Y-94261309D01*
X120526327Y-94329097D01*
X120540147Y-94398574D01*
X120567253Y-94464014D01*
X120587818Y-94531808D01*
X120621214Y-94594288D01*
X120648320Y-94659727D01*
X120687672Y-94718622D01*
X120721068Y-94781101D01*
X120766010Y-94835863D01*
X120805363Y-94894759D01*
X120855450Y-94944846D01*
X120900392Y-94999608D01*
X120955154Y-95044550D01*
X121005241Y-95094637D01*
X121064137Y-95133990D01*
X121118899Y-95178932D01*
X121181378Y-95212328D01*
X121237759Y-95250000D01*
X121005241Y-95405363D01*
X120805363Y-95605241D01*
X120701957Y-95760000D01*
X119417322Y-95760000D01*
X119379999Y-95756324D01*
X119342676Y-95760000D01*
X119342667Y-95760000D01*
X119231014Y-95770997D01*
X119087753Y-95814454D01*
X118955724Y-95885026D01*
X118839999Y-95979999D01*
X118816201Y-96008997D01*
X118070199Y-96755000D01*
X118008061Y-96755000D01*
X117808102Y-96794774D01*
X117619744Y-96872795D01*
X117600000Y-96885987D01*
X117600000Y-96557333D01*
X117603677Y-96520000D01*
X117589003Y-96371014D01*
X117545546Y-96227753D01*
X117474974Y-96095724D01*
X117403799Y-96008997D01*
X117380001Y-95979999D01*
X117351003Y-95956201D01*
X117240000Y-95845198D01*
X117240000Y-95783061D01*
X117200226Y-95583102D01*
X117122205Y-95394744D01*
X117008937Y-95225226D01*
X116864774Y-95081063D01*
X116695256Y-94967795D01*
X116506898Y-94889774D01*
X116306939Y-94850000D01*
X116244802Y-94850000D01*
X115738072Y-94343271D01*
X115738072Y-93180000D01*
X115725812Y-93055518D01*
X115689502Y-92935820D01*
X115630537Y-92825506D01*
X115551185Y-92728815D01*
X115454494Y-92649463D01*
X115344180Y-92590498D01*
X115224482Y-92554188D01*
X115100000Y-92541928D01*
X113500000Y-92541928D01*
X113375518Y-92554188D01*
X113255820Y-92590498D01*
X113145506Y-92649463D01*
X113048815Y-92728815D01*
X112969463Y-92825506D01*
X112910498Y-92935820D01*
X112874188Y-93055518D01*
X112861928Y-93180000D01*
X112861928Y-94780000D01*
X112874188Y-94904482D01*
X112910498Y-95024180D01*
X112969463Y-95134494D01*
X113048815Y-95231185D01*
X113145506Y-95310537D01*
X113255820Y-95369502D01*
X113375518Y-95405812D01*
X113383961Y-95406643D01*
X113185363Y-95605241D01*
X113028320Y-95840273D01*
X112920147Y-96101426D01*
X112865000Y-96378665D01*
X112865000Y-96661335D01*
X112920147Y-96938574D01*
X112958017Y-97030000D01*
X110561983Y-97030000D01*
X110599853Y-96938574D01*
X110655000Y-96661335D01*
X110655000Y-96378665D01*
X110599853Y-96101426D01*
X110491680Y-95840273D01*
X110334637Y-95605241D01*
X110134759Y-95405363D01*
X109902241Y-95250000D01*
X109958622Y-95212328D01*
X110021101Y-95178932D01*
X110075863Y-95133990D01*
X110134759Y-95094637D01*
X110184846Y-95044550D01*
X110239608Y-94999608D01*
X110284550Y-94944846D01*
X110334637Y-94894759D01*
X110373990Y-94835863D01*
X110418932Y-94781101D01*
X110452328Y-94718622D01*
X110491680Y-94659727D01*
X110518786Y-94594288D01*
X110552182Y-94531808D01*
X110572747Y-94464014D01*
X110599853Y-94398574D01*
X110613673Y-94329097D01*
X110634236Y-94261309D01*
X110641179Y-94190817D01*
X110655000Y-94121335D01*
X110655000Y-94050492D01*
X110661943Y-93980000D01*
X110655000Y-93909508D01*
X110655000Y-93838665D01*
X110641179Y-93769183D01*
X110634236Y-93698691D01*
X110613673Y-93630903D01*
X110599853Y-93561426D01*
X110572747Y-93495986D01*
X110552182Y-93428192D01*
X110518786Y-93365712D01*
X110491680Y-93300273D01*
X110452328Y-93241378D01*
X110418932Y-93178899D01*
X110373990Y-93124137D01*
X110334637Y-93065241D01*
X110284550Y-93015154D01*
X110239608Y-92960392D01*
X110184846Y-92915450D01*
X110134759Y-92865363D01*
X110075863Y-92826010D01*
X110021101Y-92781068D01*
X109958622Y-92747672D01*
X109899727Y-92708320D01*
X109834288Y-92681214D01*
X109771808Y-92647818D01*
X109704014Y-92627253D01*
X109638574Y-92600147D01*
X109569097Y-92586327D01*
X109501309Y-92565764D01*
X109430817Y-92558821D01*
X109361335Y-92545000D01*
X108544397Y-92545000D01*
X106845000Y-90845605D01*
X106845000Y-90240492D01*
X106851943Y-90170000D01*
X106845000Y-90099508D01*
X106845000Y-90028665D01*
X108975000Y-90028665D01*
X108975000Y-90311335D01*
X109030147Y-90588574D01*
X109138320Y-90849727D01*
X109295363Y-91084759D01*
X109495241Y-91284637D01*
X109730273Y-91441680D01*
X109991426Y-91549853D01*
X110268665Y-91605000D01*
X110551335Y-91605000D01*
X110828574Y-91549853D01*
X111089727Y-91441680D01*
X111244804Y-91338061D01*
X117710000Y-91338061D01*
X117710000Y-91541939D01*
X117749774Y-91741898D01*
X117827795Y-91930256D01*
X117941063Y-92099774D01*
X118085226Y-92243937D01*
X118254744Y-92357205D01*
X118443102Y-92435226D01*
X118643061Y-92475000D01*
X118846939Y-92475000D01*
X119046898Y-92435226D01*
X119235256Y-92357205D01*
X119404774Y-92243937D01*
X119448711Y-92200000D01*
X122263678Y-92200000D01*
X122301000Y-92203676D01*
X122338322Y-92200000D01*
X122338333Y-92200000D01*
X122449986Y-92189003D01*
X122593247Y-92145546D01*
X122725276Y-92074974D01*
X122841001Y-91980001D01*
X122864804Y-91950997D01*
X124372802Y-90443000D01*
X124434939Y-90443000D01*
X124634898Y-90403226D01*
X124823256Y-90325205D01*
X124992774Y-90211937D01*
X125136937Y-90067774D01*
X125250205Y-89898256D01*
X125328226Y-89709898D01*
X125368000Y-89509939D01*
X125368000Y-89306061D01*
X125328226Y-89106102D01*
X125250205Y-88917744D01*
X125136937Y-88748226D01*
X124992774Y-88604063D01*
X124823256Y-88490795D01*
X124634898Y-88412774D01*
X124434939Y-88373000D01*
X124231061Y-88373000D01*
X124031102Y-88412774D01*
X123842744Y-88490795D01*
X123673226Y-88604063D01*
X123529063Y-88748226D01*
X123415795Y-88917744D01*
X123337774Y-89106102D01*
X123298000Y-89306061D01*
X123298000Y-89368198D01*
X121986199Y-90680000D01*
X119448711Y-90680000D01*
X119404774Y-90636063D01*
X119235256Y-90522795D01*
X119046898Y-90444774D01*
X118846939Y-90405000D01*
X118643061Y-90405000D01*
X118443102Y-90444774D01*
X118254744Y-90522795D01*
X118085226Y-90636063D01*
X117941063Y-90780226D01*
X117827795Y-90949744D01*
X117749774Y-91138102D01*
X117710000Y-91338061D01*
X111244804Y-91338061D01*
X111324759Y-91284637D01*
X111524637Y-91084759D01*
X111681680Y-90849727D01*
X111789853Y-90588574D01*
X111845000Y-90311335D01*
X111845000Y-90028665D01*
X111789853Y-89751426D01*
X111681680Y-89490273D01*
X111524637Y-89255241D01*
X111324759Y-89055363D01*
X111089727Y-88898320D01*
X110828574Y-88790147D01*
X110551335Y-88735000D01*
X110268665Y-88735000D01*
X109991426Y-88790147D01*
X109730273Y-88898320D01*
X109495241Y-89055363D01*
X109295363Y-89255241D01*
X109138320Y-89490273D01*
X109030147Y-89751426D01*
X108975000Y-90028665D01*
X106845000Y-90028665D01*
X106831179Y-89959183D01*
X106824236Y-89888691D01*
X106803673Y-89820903D01*
X106789853Y-89751426D01*
X106762747Y-89685986D01*
X106742182Y-89618192D01*
X106708786Y-89555712D01*
X106681680Y-89490273D01*
X106642328Y-89431378D01*
X106608932Y-89368899D01*
X106563990Y-89314137D01*
X106524637Y-89255241D01*
X106474550Y-89205154D01*
X106429608Y-89150392D01*
X106374846Y-89105450D01*
X106324759Y-89055363D01*
X106265863Y-89016010D01*
X106211101Y-88971068D01*
X106148622Y-88937672D01*
X106089727Y-88898320D01*
X106024288Y-88871214D01*
X105961808Y-88837818D01*
X105894014Y-88817253D01*
X105828574Y-88790147D01*
X105759097Y-88776327D01*
X105691309Y-88755764D01*
X105620817Y-88748821D01*
X105551335Y-88735000D01*
X105480492Y-88735000D01*
X105410000Y-88728057D01*
X105339508Y-88735000D01*
X102702603Y-88735000D01*
X102694180Y-88730498D01*
X102574482Y-88694188D01*
X102450000Y-88681928D01*
X100990000Y-88681928D01*
X100990000Y-88297275D01*
X100990666Y-88290487D01*
X100995301Y-88290000D01*
X113697419Y-88290000D01*
X113725419Y-88287242D01*
X113729255Y-88287269D01*
X113738426Y-88286369D01*
X113861677Y-88273414D01*
X113920274Y-88261385D01*
X113979028Y-88250178D01*
X113987850Y-88247514D01*
X114106238Y-88210867D01*
X114161368Y-88187692D01*
X114216847Y-88165278D01*
X114224983Y-88160951D01*
X114333998Y-88102008D01*
X114383582Y-88068563D01*
X114433645Y-88035803D01*
X114440786Y-88029978D01*
X114536276Y-87950982D01*
X114578430Y-87908533D01*
X114621165Y-87866685D01*
X114627039Y-87859584D01*
X114705367Y-87763545D01*
X114738472Y-87713719D01*
X114772267Y-87664362D01*
X114776650Y-87656256D01*
X114834832Y-87546833D01*
X114857621Y-87491541D01*
X114881193Y-87436545D01*
X114883918Y-87427742D01*
X114919737Y-87309101D01*
X114931357Y-87250417D01*
X114943794Y-87191906D01*
X114944756Y-87182750D01*
X114944757Y-87182745D01*
X114944757Y-87182741D01*
X114956850Y-87059403D01*
X114956850Y-87059402D01*
X114960000Y-87027419D01*
X114960000Y-80430000D01*
X116621928Y-80430000D01*
X116621928Y-82130000D01*
X116634188Y-82254482D01*
X116670498Y-82374180D01*
X116729463Y-82484494D01*
X116808815Y-82581185D01*
X116905506Y-82660537D01*
X117015820Y-82719502D01*
X117088380Y-82741513D01*
X116956525Y-82873368D01*
X116794010Y-83116589D01*
X116682068Y-83386842D01*
X116625000Y-83673740D01*
X116625000Y-83966260D01*
X116682068Y-84253158D01*
X116794010Y-84523411D01*
X116956525Y-84766632D01*
X117163368Y-84973475D01*
X117337760Y-85090000D01*
X117163368Y-85206525D01*
X116956525Y-85413368D01*
X116794010Y-85656589D01*
X116682068Y-85926842D01*
X116625000Y-86213740D01*
X116625000Y-86506260D01*
X116682068Y-86793158D01*
X116794010Y-87063411D01*
X116956525Y-87306632D01*
X117163368Y-87513475D01*
X117337760Y-87630000D01*
X117163368Y-87746525D01*
X116956525Y-87953368D01*
X116794010Y-88196589D01*
X116682068Y-88466842D01*
X116625000Y-88753740D01*
X116625000Y-89046260D01*
X116682068Y-89333158D01*
X116794010Y-89603411D01*
X116956525Y-89846632D01*
X117163368Y-90053475D01*
X117406589Y-90215990D01*
X117676842Y-90327932D01*
X117963740Y-90385000D01*
X118256260Y-90385000D01*
X118543158Y-90327932D01*
X118813411Y-90215990D01*
X119056632Y-90053475D01*
X119263475Y-89846632D01*
X119380000Y-89672240D01*
X119496525Y-89846632D01*
X119703368Y-90053475D01*
X119946589Y-90215990D01*
X120216842Y-90327932D01*
X120503740Y-90385000D01*
X120796260Y-90385000D01*
X121083158Y-90327932D01*
X121353411Y-90215990D01*
X121596632Y-90053475D01*
X121803475Y-89846632D01*
X121965990Y-89603411D01*
X122077932Y-89333158D01*
X122135000Y-89046260D01*
X122135000Y-88753740D01*
X122077932Y-88466842D01*
X121965990Y-88196589D01*
X121803475Y-87953368D01*
X121596632Y-87746525D01*
X121422240Y-87630000D01*
X121596632Y-87513475D01*
X121803475Y-87306632D01*
X121965990Y-87063411D01*
X122077932Y-86793158D01*
X122135000Y-86506260D01*
X122135000Y-86213740D01*
X122077932Y-85926842D01*
X121965990Y-85656589D01*
X121803475Y-85413368D01*
X121596632Y-85206525D01*
X121422240Y-85090000D01*
X121596632Y-84973475D01*
X121803475Y-84766632D01*
X121965990Y-84523411D01*
X122077932Y-84253158D01*
X122135000Y-83966260D01*
X122135000Y-83673740D01*
X122077932Y-83386842D01*
X121965990Y-83116589D01*
X121803475Y-82873368D01*
X121596632Y-82666525D01*
X121422240Y-82550000D01*
X121596632Y-82433475D01*
X121803475Y-82226632D01*
X121965990Y-81983411D01*
X122077932Y-81713158D01*
X122135000Y-81426260D01*
X122135000Y-81133740D01*
X122077932Y-80846842D01*
X121965990Y-80576589D01*
X121868043Y-80430000D01*
X125511928Y-80430000D01*
X125511928Y-82130000D01*
X125524188Y-82254482D01*
X125560498Y-82374180D01*
X125619463Y-82484494D01*
X125698815Y-82581185D01*
X125795506Y-82660537D01*
X125905820Y-82719502D01*
X125978380Y-82741513D01*
X125846525Y-82873368D01*
X125684010Y-83116589D01*
X125572068Y-83386842D01*
X125515000Y-83673740D01*
X125515000Y-83966260D01*
X125572068Y-84253158D01*
X125684010Y-84523411D01*
X125846525Y-84766632D01*
X126053368Y-84973475D01*
X126227760Y-85090000D01*
X126053368Y-85206525D01*
X125846525Y-85413368D01*
X125684010Y-85656589D01*
X125572068Y-85926842D01*
X125515000Y-86213740D01*
X125515000Y-86506260D01*
X125572068Y-86793158D01*
X125684010Y-87063411D01*
X125846525Y-87306632D01*
X126053368Y-87513475D01*
X126227760Y-87630000D01*
X126053368Y-87746525D01*
X125846525Y-87953368D01*
X125684010Y-88196589D01*
X125572068Y-88466842D01*
X125515000Y-88753740D01*
X125515000Y-89046260D01*
X125572068Y-89333158D01*
X125684010Y-89603411D01*
X125846525Y-89846632D01*
X126053368Y-90053475D01*
X126296589Y-90215990D01*
X126566842Y-90327932D01*
X126853740Y-90385000D01*
X127146260Y-90385000D01*
X127433158Y-90327932D01*
X127703411Y-90215990D01*
X127946632Y-90053475D01*
X128153475Y-89846632D01*
X128270000Y-89672240D01*
X128386525Y-89846632D01*
X128593368Y-90053475D01*
X128836589Y-90215990D01*
X129106842Y-90327932D01*
X129393740Y-90385000D01*
X129686260Y-90385000D01*
X129973158Y-90327932D01*
X130243411Y-90215990D01*
X130486632Y-90053475D01*
X130693475Y-89846632D01*
X130855990Y-89603411D01*
X130967932Y-89333158D01*
X131025000Y-89046260D01*
X131025000Y-88753740D01*
X130967932Y-88466842D01*
X130855990Y-88196589D01*
X130693475Y-87953368D01*
X130486632Y-87746525D01*
X130312240Y-87630000D01*
X130486632Y-87513475D01*
X130693475Y-87306632D01*
X130855990Y-87063411D01*
X130967932Y-86793158D01*
X131025000Y-86506260D01*
X131025000Y-86213740D01*
X130967932Y-85926842D01*
X130855990Y-85656589D01*
X130693475Y-85413368D01*
X130486632Y-85206525D01*
X130312240Y-85090000D01*
X130486632Y-84973475D01*
X130693475Y-84766632D01*
X130855990Y-84523411D01*
X130967932Y-84253158D01*
X131025000Y-83966260D01*
X131025000Y-83673740D01*
X130967932Y-83386842D01*
X130855990Y-83116589D01*
X130693475Y-82873368D01*
X130486632Y-82666525D01*
X130312240Y-82550000D01*
X130486632Y-82433475D01*
X130693475Y-82226632D01*
X130855990Y-81983411D01*
X130967932Y-81713158D01*
X131025000Y-81426260D01*
X131025000Y-81133740D01*
X130967932Y-80846842D01*
X130855990Y-80576589D01*
X130693475Y-80333368D01*
X130486632Y-80126525D01*
X130243411Y-79964010D01*
X129973158Y-79852068D01*
X129686260Y-79795000D01*
X129393740Y-79795000D01*
X129106842Y-79852068D01*
X128836589Y-79964010D01*
X128593368Y-80126525D01*
X128461513Y-80258380D01*
X128439502Y-80185820D01*
X128380537Y-80075506D01*
X128301185Y-79978815D01*
X128204494Y-79899463D01*
X128094180Y-79840498D01*
X127974482Y-79804188D01*
X127850000Y-79791928D01*
X126150000Y-79791928D01*
X126025518Y-79804188D01*
X125905820Y-79840498D01*
X125795506Y-79899463D01*
X125698815Y-79978815D01*
X125619463Y-80075506D01*
X125560498Y-80185820D01*
X125524188Y-80305518D01*
X125511928Y-80430000D01*
X121868043Y-80430000D01*
X121803475Y-80333368D01*
X121596632Y-80126525D01*
X121353411Y-79964010D01*
X121083158Y-79852068D01*
X120796260Y-79795000D01*
X120503740Y-79795000D01*
X120216842Y-79852068D01*
X119946589Y-79964010D01*
X119703368Y-80126525D01*
X119571513Y-80258380D01*
X119549502Y-80185820D01*
X119490537Y-80075506D01*
X119411185Y-79978815D01*
X119314494Y-79899463D01*
X119204180Y-79840498D01*
X119084482Y-79804188D01*
X118960000Y-79791928D01*
X117260000Y-79791928D01*
X117135518Y-79804188D01*
X117015820Y-79840498D01*
X116905506Y-79899463D01*
X116808815Y-79978815D01*
X116729463Y-80075506D01*
X116670498Y-80185820D01*
X116634188Y-80305518D01*
X116621928Y-80430000D01*
X114960000Y-80430000D01*
X114960000Y-78137275D01*
X114960666Y-78130487D01*
X114965301Y-78130000D01*
X132682725Y-78130000D01*
X132689513Y-78130666D01*
G37*
%TD.AperFunction*%
%TD*%
M02*
