M48
; DRILL file {KiCad (5.1.7)-1} date 10/25/21 18:28:42
; FORMAT={-:-/ absolute / inch / decimal}
; #@! TF.CreationDate,2021-10-25T18:28:42+08:00
; #@! TF.GenerationSoftware,Kicad,Pcbnew,(5.1.7)-1
FMAT,2
INCH
T1C0.0157
T2C0.0236
T3C0.0315
T4C0.0394
%
G90
G05
T1
X4.075Y-3.9
X4.63Y-4.05
X4.63Y-4.15
X4.65Y-3.875
X4.675Y-3.6
X4.75Y-4.05
X4.895Y-3.52
X4.95Y-4.0
X5.0285Y-4.0
X5.08Y-4.35
X5.1285Y-4.15
T2
X4.1Y-3.65
X4.1Y-3.725
X4.1Y-3.8
X4.175Y-3.725
X4.175Y-3.8
X4.25Y-3.5
X4.25Y-3.575
X4.425Y-3.5
T3
X4.95Y-3.7
X5.1469Y-3.7
X4.5Y-3.7
X4.5Y-3.8
X4.5Y-3.9
X4.5Y-4.0
X4.5Y-4.1
X4.5Y-4.2
X4.5Y-4.3
X4.8Y-3.7
X4.8Y-3.8
X4.8Y-3.9
X4.8Y-4.0
X4.8Y-4.1
X4.8Y-4.2
X4.8Y-4.3
X4.0Y-3.7
X4.0Y-3.8
X4.0Y-3.9
X4.0Y-4.0
X4.0Y-4.1
X4.0Y-4.2
X4.0Y-4.3
X4.0Y-4.4
X4.0Y-4.5
X4.0Y-4.6
X4.3Y-3.7
X4.3Y-3.8
X4.3Y-3.9
X4.3Y-4.0
X4.3Y-4.1
X4.3Y-4.2
X4.3Y-4.3
X4.3Y-4.4
X4.3Y-4.5
X4.3Y-4.6
X4.9Y-3.85
X4.9Y-3.95
X4.9Y-4.05
X4.9Y-4.15
X4.9Y-4.25
X4.9Y-4.35
X4.9Y-4.45
X5.2Y-3.85
X5.2Y-3.95
X5.2Y-4.05
X5.2Y-4.15
X5.2Y-4.25
X5.2Y-4.35
X5.2Y-4.45
X4.15Y-3.55
X4.3469Y-3.55
T4
X4.0Y-3.55
X4.65Y-3.2
X4.65Y-3.3
X4.65Y-3.4
X4.65Y-3.5
X4.75Y-3.2
X4.75Y-3.3
X4.75Y-3.4
X4.75Y-3.5
X5.0Y-3.2
X5.0Y-3.3
X5.0Y-3.4
X5.0Y-3.5
X5.1Y-3.2
X5.1Y-3.3
X5.1Y-3.4
X5.1Y-3.5
T0
M30
